<svg id="Grupo_1099813" data-name="Grupo 1099813" xmlns="http://www.w3.org/2000/svg" xmlns:xlink="http://www.w3.org/1999/xlink" width="400" height="355.49" viewBox="0 0 400 355.49">
  <defs>
    <clipPath id="clip-path">
      <rect id="Rectángulo_401468" data-name="Rectángulo 401468" width="400" height="355.49" fill="#ffecda"/>
    </clipPath>
  </defs>
  <g id="Grupo_1099812" data-name="Grupo 1099812" clip-path="url(#clip-path)">
    <path id="Trazado_873595" data-name="Trazado 873595" d="M139.186,35.54c-15.022,14.639-24.732,33.283-24.732,54.946,0,25.822,8.836,63.277-9.749,84.561-9.1,10.417-31.61,19.6-42.5,28.335-11.262,9.033-18.856,14.681-25.633,27.524C6.188,288.478,64.64,326.748,113.845,338.458c40.164,9.558,81.4.759,120.865-7.883a507.98,507.98,0,0,1,69.334-9.987c20.046-1.623,42.388-6.4,53.385-25.029,21.49-36.4,14.67-93.788-6.812-128.291-13.234-21.256-35.319-40.228-38.228-66.419C308.243,63.542,292.7,14.836,260.573,4.471,223.036-7.637,169.963,5.546,139.186,35.54" transform="translate(13.855 0)" fill="#ffead5"/>
    <path id="Trazado_873596" data-name="Trazado 873596" d="M200.5,11.278,144.105,9.32,200.544,26.79Z" transform="translate(70.802 4.579)" fill="#ffc78f"/>
    <path id="Trazado_873597" data-name="Trazado 873597" d="M144.1,12.115,200.5,14.073l4.323-10.442Z" transform="translate(70.801 1.784)" fill="#ffd6ae"/>
    <path id="Trazado_873598" data-name="Trazado 873598" d="M144.1,9.32,189.42,37.451,196.89,20Z" transform="translate(70.801 4.579)" fill="#ffd6ae"/>
    <path id="Trazado_873599" data-name="Trazado 873599" d="M183.565,23.766l-3.433-6.894-2.218,4.978Z" transform="translate(87.413 8.289)" fill="#6a4624"/>
    <path id="Trazado_873600" data-name="Trazado 873600" d="M189.025,21.6s1.22.262,3.282.841" transform="translate(92.871 10.611)" fill="none" stroke="#70347e" stroke-linecap="round" stroke-linejoin="round" stroke-width="1.546"/>
    <path id="Trazado_873601" data-name="Trazado 873601" d="M194.623,23.212c13.9,4.693,40.424,16.844,41.945,41.541,1.512,24.525-31.374,20.112-32.588.4C202.8,45.97,256.458,28.47,280.826,96.8" transform="translate(95.622 11.404)" fill="none" stroke="#6a4624" stroke-linecap="round" stroke-linejoin="round" stroke-width="1.546" stroke-dasharray="4.45 3.56"/>
    <path id="Trazado_873602" data-name="Trazado 873602" d="M253.009,74.242q.532,1.586,1.044,3.229" transform="translate(124.308 36.476)" fill="none" stroke="#70347e" stroke-linecap="round" stroke-linejoin="round" stroke-width="1.546"/>
    <path id="Trazado_873603" data-name="Trazado 873603" d="M238.11,107.646a20.842,20.842,0,1,0-35.044,15.247,30.944,30.944,0,0,1,3.891,8.475H227.58a30.891,30.891,0,0,1,3.891-8.475,20.779,20.779,0,0,0,6.639-15.247" transform="translate(96.508 42.648)" fill="#ffea96"/>
    <path id="Trazado_873604" data-name="Trazado 873604" d="M203.029,98.981l3.664,6.468,3.664-6.468,3.666,6.468,3.663-6.468,3.667,6.468,3.669-6.468" transform="translate(99.752 48.631)" fill="none" stroke="#70347e" stroke-linecap="round" stroke-linejoin="round" stroke-width="1.166"/>
    <line id="Línea_3217" data-name="Línea 3217" x1="4.367" y1="25.83" transform="translate(302.78 147.613)" fill="none" stroke="#70347e" stroke-linecap="round" stroke-linejoin="round" stroke-width="1.166"/>
    <line id="Línea_3218" data-name="Línea 3218" y1="25.83" x2="4.367" transform="translate(320.354 147.613)" fill="none" stroke="#70347e" stroke-linecap="round" stroke-linejoin="round" stroke-width="1.166"/>
    <path id="Trazado_873605" data-name="Trazado 873605" d="M227.72,124.23a3.3,3.3,0,0,0-1.4-2.692,3.3,3.3,0,0,0-1.9-5.992H204.967a3.3,3.3,0,0,0-1.906,5.992,3.3,3.3,0,0,0,.568,5.707,3.3,3.3,0,0,0,2.292,5.669h1.029a7.971,7.971,0,0,0,15.486,0h1.028a3.3,3.3,0,0,0,2.294-5.669,3.3,3.3,0,0,0,1.963-3.015" transform="translate(99.083 56.77)" fill="#fff"/>
    <rect id="Rectángulo_401463" data-name="Rectángulo 401463" width="19.453" height="1.215" transform="translate(304.05 176.832)" fill="#d4d4d4"/>
    <rect id="Rectángulo_401464" data-name="Rectángulo 401464" width="19.453" height="1.215" transform="translate(304.05 182.91)" fill="#d4d4d4"/>
    <rect id="Rectángulo_401465" data-name="Rectángulo 401465" width="11.613" height="1.215" transform="translate(307.969 188.468)" fill="#d4d4d4"/>
    <path id="Trazado_873606" data-name="Trazado 873606" d="M222.213,112.31a100.049,100.049,0,0,0-10.94-3.121,41.819,41.819,0,0,0-2.649-7.807,99.841,99.841,0,0,0,6.772-9.137c2.438-4.089-.813-7.531-3.176-10.224s-5.354-6.366-9.725-4.48a99.551,99.551,0,0,0-9.941,5.527,41.862,41.862,0,0,0-7.4-3.643,100.213,100.213,0,0,0-1.672-11.253c-1.168-4.616-5.9-4.75-9.476-4.982s-8.287-.716-10.044,3.707a99.387,99.387,0,0,0-3.123,10.94,41.783,41.783,0,0,0-7.806,2.652,99.83,99.83,0,0,0-9.137-6.775c-4.089-2.438-7.533.814-10.226,3.178s-6.365,5.354-4.478,9.722a99.545,99.545,0,0,0,5.527,9.944,41.959,41.959,0,0,0-3.645,7.394,99.877,99.877,0,0,0-11.252,1.673c-4.614,1.168-4.751,5.9-4.984,9.476s-.714,8.289,3.709,10.044a99.724,99.724,0,0,0,10.94,3.121,41.61,41.61,0,0,0,2.65,7.807,99.4,99.4,0,0,0-6.774,9.137c-2.438,4.088.813,7.531,3.177,10.224s5.355,6.366,9.725,4.48a99.555,99.555,0,0,0,9.941-5.527,41.709,41.709,0,0,0,7.4,3.643,99.838,99.838,0,0,0,1.672,11.252c1.166,4.616,5.9,4.751,9.476,4.982s8.287.717,10.044-3.707a99.788,99.788,0,0,0,3.121-10.939,41.976,41.976,0,0,0,7.807-2.652,99.006,99.006,0,0,0,9.14,6.774c4.086,2.438,7.53-.813,10.223-3.176s6.366-5.354,4.478-9.725a99.088,99.088,0,0,0-5.527-9.941,41.908,41.908,0,0,0,3.645-7.394,99.922,99.922,0,0,0,11.252-1.673c4.614-1.168,4.748-5.9,4.982-9.474s.717-8.289-3.707-10.046m-36.047,24.405a23.932,23.932,0,1,1,2.206-33.772,23.929,23.929,0,0,1-2.206,33.772" transform="translate(56.355 30.975)" fill="#f9d648"/>
    <path id="Trazado_873607" data-name="Trazado 873607" d="M137.576,134.257a34.251,34.251,0,1,1,48.335,3.156A34.252,34.252,0,0,1,137.576,134.257Z" transform="translate(63.415 38.035)" fill="none" stroke="#67550c" stroke-miterlimit="10" stroke-width="1.756"/>
    <path id="Trazado_873608" data-name="Trazado 873608" d="M0,205.437s42.5-24.607,82.768-8.2,58.161,30.572,58.161,30.572-50.7,22.37-83.514,13.422S0,205.437,0,205.437" transform="translate(0 94.135)" fill="#6a4624"/>
    <path id="Trazado_873609" data-name="Trazado 873609" d="M25.521,151.044s-19.884,65.618,22.866,86.5,73.324,11.683,73.324,11.683-16.655-53.44-30.574-68.353-65.617-29.826-65.617-29.826" transform="translate(10.27 74.211)" fill="#ffc78f"/>
    <path id="Trazado_873610" data-name="Trazado 873610" d="M110.9,245.034c-6.881-6.164-14.734-11.01-21.439-17.5-.677-.656-1.324-1.342-1.989-2.009,4.55-2.96,5.773-8.738,6.252-14.012.462-5.1.313-15.483-5.249-18.057a.53.53,0,0,0-.77.592c1.047,5.027,3.114,9.206,3.347,14.519.227,5.179-.622,12.105-4.341,16.19-6.2-6.274-12.008-12.934-17.935-19.465q-1.342-1.481-2.686-2.956c.016-.019.039-.025.052-.051,5.666-10.053,1.791-19.876-.85-30.262-.312-1.23-2.149-.707-1.887.52,1.263,5.891,2.883,11.635,3.284,17.678.279,4.213-2.541,7.21-1.459,11.167-13.192-14.506-26.343-28.955-37.5-45.153a.77.77,0,0,0-1.329.777c7.734,13.356,17.689,25.145,28.053,36.539-10.189-1.93-19.753-3.725-27.442-11.522-.89-.9-2.246.465-1.384,1.384,7.064,7.539,19.492,13.6,30.014,12.115a.685.685,0,0,0,.413-.225c3.05,3.329,6.125,6.63,9.182,9.931C68.817,209.1,72.354,213,75.93,216.858c-10.729,3.366-21.649,2.795-32.369-.922-.371-.128-.632.477-.268.638,9.127,4.077,25.491,9.415,34.393,2.158,3.308,3.545,6.651,7.054,10.119,10.453,2.878,2.823,6.047,5.925,9.453,8.738-8.043,1.517-15.78.594-23.963.057-.741-.049-.92,1.2-.176,1.3,8.584,1.165,18.058,3.822,26.459.477a38.206,38.206,0,0,0,10.879,6.031.457.457,0,0,0,.441-.759" transform="translate(12.456 76.587)" fill="#6a4624"/>
    <path id="Trazado_873611" data-name="Trazado 873611" d="M59.656,14.955a6.307,6.307,0,1,1-6.307-6.307,6.307,6.307,0,0,1,6.307,6.307" transform="translate(23.113 4.249)" fill="#67550c"/>
    <path id="Trazado_873612" data-name="Trazado 873612" d="M41.2,25.5a3.977,3.977,0,1,1-3.976-3.977A3.977,3.977,0,0,1,41.2,25.5" transform="translate(16.336 10.573)" fill="#67550c"/>
    <path id="Trazado_873613" data-name="Trazado 873613" d="M56.172,36.75a5.484,5.484,0,1,1-5.484-5.485,5.483,5.483,0,0,1,5.484,5.485" transform="translate(22.209 15.361)" fill="#67550c"/>
    <path id="Trazado_873614" data-name="Trazado 873614" d="M58.814,12.877l-22.9,16.865L55.25,45.784" transform="translate(17.646 6.327)" fill="none" stroke="#67550c" stroke-miterlimit="10" stroke-width="1.471"/>
    <path id="Trazado_873615" data-name="Trazado 873615" d="M258.226,88.545c-13.3,8.275-19.857,21.26-15.393,38.542s7.254,28.084.334,36.093-24.177,22.376-16.048,37.79,10.141,37.478,7.131,40.1-9.1,19.174,7.691,21.748,31.315-23.3,23.889-38.661.761-24.182,9.136-32.8,16.2-19.114,14.168-30.572-7.928-26.1-2.538-42.7S271.528,80.27,258.226,88.545" transform="translate(110.54 42.595)" fill="#ffc78f"/>
    <path id="Trazado_873616" data-name="Trazado 873616" d="M271.5,142.766c-1.758,3.139-4.812,7.081-6.3,11.018-.237-2.707-.674-5.394-.953-7.859-.588-5.182-1.758-10.289-2.637-15.444a.556.556,0,0,0,1.036-.066c2.1-7.559,4.07-14.663,8.205-21.456.365-.6-.543-1.333-.987-.762-4.092,5.257-9.094,13.543-8.509,20.685-.192-1.227-.37-2.456-.507-3.693-.749-6.766-2.127-15.935,1.268-22.072.464-.837-.74-1.863-1.372-1.059-5.212,6.627-3.925,18.032-2.495,26.884-1.16-1.678-2.444-3.3-3.46-5.041a93.023,93.023,0,0,1-4.966-10.271c-.218-.506-.911-.118-.831.35a43.707,43.707,0,0,0,3.773,11.1c1.187,2.525,3.174,6.541,6.1,7.592.049.289.1.589.146.868,1.1,6.662,2.644,13.188,3.276,19.888a16.094,16.094,0,0,1-3.549-3.892c-1.807-2.556-3.142-5.364-5.139-7.789-.477-.58-1.291.158-.987.762a66.052,66.052,0,0,0,5.3,9.176c.98,1.36,2.681,3.552,4.565,4.244.028.494.069.986.085,1.482.3,9.476-7.269,15.371-12.351,22.307q-.752,1.025-1.421,2.045c-.892-4.7-.512-9.418-.686-14.22a.909.909,0,0,0-1.818,0c-.213,3.285-2.777,14.036,1.1,16.51-4.735,8.228-5.767,16.409-4.6,25.985-.622-.9-1.241-1.8-1.807-2.72a60.955,60.955,0,0,1-4.942-10.908.8.8,0,0,0-1.551.428c1.512,5.985,4.08,13.962,9.072,18.279,1.585,9.553,2.358,17.21-2.061,26.393-2.707,5.627-5.306,10.153-4.229,16.527.209,1.236,1.857.753,1.991-.27.895-6.787,4.911-12.675,7.507-18.888,2.538-6.076,2.655-12.427,1.478-18.891-.279-1.533-.567-3.063-.847-4.595,1.815-4.508,4.778-8.539,5.622-13.385.094-.543-.62-1.162-1.051-.611a38.767,38.767,0,0,0-5.412,9.06,66.314,66.314,0,0,1-.907-11.019c.064-5.121,1.964-9.8,4.575-14.121,5.149-.865,10.951-4.247,13.826-8.563.27-.406-.173-.863-.592-.77-2.219.5-4.177,2.2-5.888,3.64a20.3,20.3,0,0,1-6.065,3.684c1.643-2.459,3.467-4.8,5.257-7.027a46.5,46.5,0,0,0,7.428-11.926,17.353,17.353,0,0,0,1.1-5.093.82.82,0,0,0,.51-.473,62.7,62.7,0,0,1,3.785-8.278,16.488,16.488,0,0,0,2.568-7.576.352.352,0,0,0-.652-.176" transform="translate(115.194 50)" fill="#6a4624"/>
    <path id="Trazado_873617" data-name="Trazado 873617" d="M51.252,120.147s-7.1,2.957-6.19,10.866c.371,3.2,4.577,15.027,11.786,17.439,10.478-3.936,18.04-11.136,50.665-16.243s66.623-9.185,66.623-9.185-5.437-14.867-25.179-15.75-97.7,12.873-97.7,12.873" transform="translate(22.1 52.685)" fill="#cabfcd"/>
    <path id="Trazado_873618" data-name="Trazado 873618" d="M243.825,218.415c-14.4-24.675-2.577-91.633-21.323-105.609-8.283-6.176-38.454-10.043-104.714-7-54.491,2.5-70.237,16.563-70.237,16.563s8.964-4.055,16.868-.365c4.9,2.288,9.4,8.4,11.094,17.741,3.661,20.14,9.7,105.749,25.227,126.425s55.971,26.742,93.738,24.3S303.716,268.4,303.716,268.4s-19.366-1.351-34.077-14.378c-9.519-8.427-20.157-25.909-25.815-35.6" transform="translate(23.363 51.463)" fill="#f5f2f1"/>
    <path id="Trazado_873619" data-name="Trazado 873619" d="M129.827,218.561s5.827,8.249,1.526,14.253-17.868,10.62-26.959,5.285c0,0,6.465,4.487,24.377,6.92,10.341,1.4,24.5,2.121,43.424.893,41.55-2.693,36.968-2.878,61.18-6.8s39.981-9.99,46.2-12c12.118-3.909,10.284-29.427-7.574-27.388s-52.26,9.846-79.1,13.144c-20.814,2.559-63.077,5.686-63.077,5.686" transform="translate(51.291 98.074)" fill="#cabfcd"/>
    <path id="Trazado_873620" data-name="Trazado 873620" d="M127.62,188.483l-22.218,1.7L90.486,121.535l22.218-1.7Z" transform="translate(44.458 58.879)" fill="#704fc2"/>
    <path id="Trazado_873621" data-name="Trazado 873621" d="M146.038,179.7l-22.218,1.7-10.131-46.625,22.216-1.7Z" transform="translate(55.858 65.384)" fill="#ff98c2"/>
    <path id="Trazado_873622" data-name="Trazado 873622" d="M167.052,182.872l-22.216,1.7-13.229-60.873,22.218-1.7Z" transform="translate(64.661 59.94)" fill="#ffde95"/>
    <path id="Trazado_873623" data-name="Trazado 873623" d="M123.244,225.132,138.6,172.6l37.31,48.513Z" transform="translate(60.552 84.802)" fill="#ff7d95"/>
    <path id="Trazado_873624" data-name="Trazado 873624" d="M126.446,175.163c-10.667.813-17.232,11.051-14.664,22.863,2.182,10.043,10.26,17.993,19.183,19.651l10.824-37.018a21.346,21.346,0,0,0-15.343-5.5" transform="translate(54.647 86.035)" fill="#8bcfd8"/>
    <path id="Trazado_873625" data-name="Trazado 873625" d="M135.286,178.832,124.463,215.85a18.451,18.451,0,0,0,4.777.268c10.666-.816,17.229-11.052,14.663-22.866a26.636,26.636,0,0,0-8.617-14.42" transform="translate(61.151 87.864)" fill="#8b657e"/>
    <path id="Trazado_873626" data-name="Trazado 873626" d="M293.448,199.445c-7.073-6.936-43.518,15.191-43.518,15.191l-11.863,2.14-12.033-.765s-38.742-17.8-44.972-10.095-3.317,23.555,10.08,30.129,37.826,13.508,44.051,11.482c1.356-.441,2.862-2.11,4.39-4.452,1.784,2.15,3.472,3.636,4.869,3.918,6.417,1.3,29.891-8.4,42.443-16.461s13.631-24.15,6.554-31.087" transform="translate(87.419 97.33)" fill="#434183"/>
    <path id="Trazado_873627" data-name="Trazado 873627" d="M225.137,231.748a50.021,50.021,0,0,0-3.229-4.28,24.151,24.151,0,0,0-3.582-3.942c2.071-.33,3.572-.55,3.855-.656,1.144-.427,5.676-2.854,5.676-2.854l8.39,9.53s-3.97,4.271-7.589,7.877a56.907,56.907,0,0,0-3.521-5.674" transform="translate(107.268 108.098)" fill="#995427"/>
    <path id="Trazado_873628" data-name="Trazado 873628" d="M223.517,227.312a3.526,3.526,0,0,1-2.243-1.028c-.349-.455-.711-.892-1.084-1.318a11.264,11.264,0,0,1-1.236-2.669.628.628,0,0,1,1.113-.547c.574.852,1.163,1.734,1.809,2.532s1.409,1.488,1.982,2.353a.44.44,0,0,1-.34.677" transform="translate(107.561 108.816)" fill="#bf8a40"/>
    <path id="Trazado_873629" data-name="Trazado 873629" d="M226.656,225.666a54.4,54.4,0,0,1-3.572-4.559.753.753,0,0,0-1.335.656,8.018,8.018,0,0,0,1.666,2.862,4.455,4.455,0,0,0,2.886,1.739.408.408,0,0,0,.355-.7" transform="translate(108.934 108.476)" fill="#bf8a40"/>
    <path id="Trazado_873630" data-name="Trazado 873630" d="M225.522,226.049c3.017-4.6,8.152-7.446,12.363-10.866,4.629-3.763,9.55-7.306,15.259-9.188.623-.206,1.121.722.519,1.056a100.04,100.04,0,0,0-13.684,9.166c-4.537,3.6-8.875,7.542-14.072,10.174-.206.1-.549-.091-.385-.342" transform="translate(110.782 101.195)" fill="#222054"/>
    <path id="Trazado_873631" data-name="Trazado 873631" d="M194.246,211.884c6.043-.461,12.606,3.352,17.847,5.926,6.344,3.117,13.808,5.648,19.183,10.345.476.416-.058,1.092-.6.869-6.259-2.57-12.359-5.941-18.471-8.873-2.822-1.353-5.651-2.681-8.527-3.915-3.138-1.345-6.525-2.1-9.6-3.554a.426.426,0,0,1,.167-.8" transform="translate(95.243 104.084)" fill="#222054"/>
    <path id="Trazado_873632" data-name="Trazado 873632" d="M222.147,223.882s4.781,1.891,5.967,2.185,22.2.167,21.265,4.192-18.613,14.794-19.757,15.222-14.715-11.168-14.715-11.168Z" transform="translate(105.588 109.997)" fill="#b1612d"/>
    <path id="Trazado_873633" data-name="Trazado 873633" d="M222.809,230.335c.471-.923,1.148-1.694,1.7-2.565s1.035-1.812,1.508-2.722a.627.627,0,0,1,1.168.415c-.391,2.061-1.6,5.13-3.958,5.506a.441.441,0,0,1-.416-.634" transform="translate(109.45 110.407)" fill="#d79b48"/>
    <path id="Trazado_873634" data-name="Trazado 873634" d="M219.944,229.688a53.538,53.538,0,0,0,3.026-4.938.754.754,0,0,1,1.4.5,8.015,8.015,0,0,1-1.327,3.033,4.465,4.465,0,0,1-2.666,2.062.411.411,0,0,1-.434-.658" transform="translate(108.019 110.231)" fill="#d79b48"/>
    <path id="Trazado_873635" data-name="Trazado 873635" d="M187.059,225.085c2.92,4.046,21.912,7.293,28.812,7.124,3.785.638,3.536-6.308,2.416-9.54-.236-.684-1.174-1.385-2.508-2.08l15-1.15.482-.016v.006l.2-.015.2-.007V219.4l.482-.037,15.034-.58c-1.245.844-2.1,1.646-2.253,2.353-.741,3.341-.191,10.269,3.494,9.2,6.876-.623,25.369-6.028,27.809-10.383,2.573-4.6-12.973-41.653-17.425-49.925s-23.189-7.74-30.6-7.313-26.085,2.048-29.558,10.776-14.664,47.321-11.577,51.6m66.5-11c.213-2.349.55-4.364.732-7.676.227-1.4,1.114-5.912,1.335-7.418,2.148,4.909,6.187,11.265,5.7,12.3-.294.622-5.327,1.629-7.765,2.8M205.1,201.907c.392,1.469,1.793,5.844,2.177,7.214.561,3.269,1.127,5.233,1.609,7.542-2.558-.88-7.671-1.3-8.037-1.887-.605-.969,2.681-7.747,4.25-12.869" transform="translate(91.644 79.845)" fill="#575bc4"/>
    <path id="Trazado_873636" data-name="Trazado 873636" d="M259.138,206.781c.169,2.917-2.459,8.084-4.865,9.895-1.678,1.263-49.109,4-50.92,2.932-2.595-1.523-5.8-6.355-5.968-9.272-.119-2.07,61.633-5.627,61.753-3.555" transform="translate(96.979 101.288)" fill="#a9a4a9"/>
    <path id="Trazado_873637" data-name="Trazado 873637" d="M256.614,191.887c1.029,3.352-2.207,29.37-6.906,32.16-3.254,1.936-42.629,4.887-44.726,2.576s-9.588-30.726-7.16-32.119,57.765-5.97,58.792-2.617" transform="translate(96.958 93.687)" fill="#c4c5c4"/>
    <path id="Trazado_873638" data-name="Trazado 873638" d="M214.784,205.151c.112,1.954,2.256,3.421,4.786,3.276s4.492-1.851,4.379-3.8-2.255-3.423-4.786-3.278-4.492,1.849-4.379,3.806" transform="translate(105.525 98.92)" fill="#d6dbd3"/>
    <path id="Trazado_873639" data-name="Trazado 873639" d="M204.475,215.126a63.7,63.7,0,0,1,9.374-.855c3.49-.234,6.966-.637,10.462-.792a200.846,200.846,0,0,0,20.579-1.715.414.414,0,0,1,.251.753c-2.449,1.323-5.182,1.113-7.864,1.633a65.224,65.224,0,0,1-10.569.74c-3.877.106-7.753.28-11.629.4-3.5.109-7.087.614-10.578.261a.221.221,0,0,1-.025-.424" transform="translate(100.391 104.042)" fill="#a9a4a9"/>
    <path id="Trazado_873640" data-name="Trazado 873640" d="M211.193,157.06l-2.221,15.1a11.655,11.655,0,0,0,9.852,3.894c6.653-.383,8.181-4.7,8.181-4.7l-3.345-16.209Z" transform="translate(102.672 76.224)" fill="#fac4a8"/>
    <path id="Trazado_873641" data-name="Trazado 873641" d="M202.5,155.019c1.017-1.089,3.254.163,3.631.4a32.735,32.735,0,0,1,.221-6.04c.928-5.009,5.322-8.955,9.65-10.468,6.375-2.227,11.862-.725,16.035,4.722a22.3,22.3,0,0,1,4.2,9.631,2.884,2.884,0,0,1,2-.6c1.193.16,3.242,3.281,2.164,5.983s-4.505,3.885-4.877,3.979a14.705,14.705,0,0,1-7.376,9.995c-4.219,2.45-9.44,3.385-13.459.932-3.955-2.416-7.512-7.662-7.791-9.437a9.249,9.249,0,0,1-4.592-3.451c-1.022-1.761-1.286-4.05.2-5.646" transform="translate(98.981 67.764)" fill="#fac4a8"/>
    <path id="Trazado_873642" data-name="Trazado 873642" d="M214.387,158.316a5.733,5.733,0,0,0,1.719.261c.486-.021.088-1.86.066-2.031-.2-1.515-.324-3.044-.377-4.571a.446.446,0,0,1,.89-.052c.13,1.36.336,2.705.571,4.049.152.872.562,2.134.164,3.008-.673,1.478-2.57.753-3.308-.259a.265.265,0,0,1,.274-.4" transform="translate(105.176 74.443)" fill="#eb847c"/>
    <path id="Trazado_873643" data-name="Trazado 873643" d="M211.591,157.367a.2.2,0,0,1,.182-.157c.975-.137,2.579,1.147,3.5,1.539a4.666,4.666,0,0,0,3.582.042,10.8,10.8,0,0,1,2.291-.969c.339-.042.373.422.106.544a4.124,4.124,0,0,0-1.206,1.071,5.317,5.317,0,0,1-1.369.741,4.5,4.5,0,0,1-3.452.107c-.986-.313-4.019-1.484-3.628-2.919" transform="translate(103.942 77.235)" fill="#eb847c"/>
    <path id="Trazado_873644" data-name="Trazado 873644" d="M219.473,151.993a1.714,1.714,0,0,1,.2,3.421,1.714,1.714,0,0,1-.2-3.421" transform="translate(107.064 74.675)" fill="#616860"/>
    <path id="Trazado_873645" data-name="Trazado 873645" d="M211.345,152.343a1.715,1.715,0,0,1,.2,3.423,1.715,1.715,0,0,1-.2-3.423" transform="translate(103.071 74.847)" fill="#616860"/>
    <path id="Trazado_873646" data-name="Trazado 873646" d="M217.719,150.012c1-.855,2.987-.422,4.2-.416a.461.461,0,0,1,.052.92c-.7.073-1.4.119-2.1.191a6.335,6.335,0,0,1-1.992.151.473.473,0,0,1-.16-.846" transform="translate(106.874 73.443)" fill="#514059"/>
    <path id="Trazado_873647" data-name="Trazado 873647" d="M209.053,150.217a.53.53,0,0,1,.452-.294,18.115,18.115,0,0,1,3.718.122.4.4,0,0,1-.06.781c-1.2.007-2.4.1-3.6.176a.54.54,0,0,1-.513-.786" transform="translate(102.682 73.641)" fill="#514059"/>
    <path id="Trazado_873648" data-name="Trazado 873648" d="M234.988,153.751s-1.839,1.691-6.387-.865-9.316-5.8-9.316-5.8,2.359,4.267-.716,2.859a25.214,25.214,0,0,0-5.211-1.813s-4.865,10.317-7.218,9.221-3.053-10.214,1.051-15.38,6.457-4.07,6.457-4.07,7.191-3.584,11.018-1.339,12.957,7.882,10.321,17.19" transform="translate(100.348 66.732)" fill="#514059"/>
    <path id="Trazado_873649" data-name="Trazado 873649" d="M203.268,154.519a1.825,1.825,0,0,0,1.617,1.5c1.135.034,1.421-1.332,1.166-2.2-.353-1.214-1.23-2.96-2.477-3.448-.183-.072-.415.122-.274.31a11.4,11.4,0,0,1,1.444,2.25c.03.075.1.239.17.441a1.188,1.188,0,0,0-1.645,1.144m.82-.067c-.116-.394.7-.406.974-.61.154.541.237,1.129-.094,1.232s-.793-.316-.88-.622" transform="translate(99.864 73.874)" fill="#eb847c"/>
    <path id="Trazado_873650" data-name="Trazado 873650" d="M225.243,154.383c1.057.45,1.627-.926,1.6-1.749-.015-.573-.516-1.544-1.126-1.633.163-.509.41-1.111.625-.98.33.206.629-.291.37-.538-1.031-.981-1.891,1.09-2.1,1.785-.3,1.017-.629,2.577.626,3.115m.265-2.623a.733.733,0,0,1,.489.829,1.568,1.568,0,0,1-.231.735.452.452,0,0,1-.106.115.19.19,0,0,1-.033-.03c-.391-.421-.254-1.095-.119-1.649" transform="translate(110.222 73.316)" fill="#eb847c"/>
    <path id="Trazado_873651" data-name="Trazado 873651" d="M211.8,162.334c3.491.43,6.826.826,10.1-.886.2-.106.546.094.38.34-1.8,2.661-8.7,3.888-10.655.8a.167.167,0,0,1,.171-.252" transform="translate(103.963 79.308)" fill="#eb847c"/>
    <path id="Trazado_873652" data-name="Trazado 873652" d="M46.961,66.024A17.648,17.648,0,1,1,29.314,48.377,17.646,17.646,0,0,1,46.961,66.024" transform="translate(5.732 23.769)" fill="#ffea96"/>
    <path id="Trazado_873653" data-name="Trazado 873653" d="M19.467,53.628l17,9.816-17,9.816Z" transform="translate(9.564 26.348)" fill="#fff"/>
    <path id="Trazado_873684" data-name="Trazado 873684" d="M0,0H57.279V40.264H0Z" transform="translate(157.773 40.829)" fill="#ffc78f"/>
    <rect id="Rectángulo_401467" data-name="Rectángulo 401467" width="48.772" height="31.758" transform="translate(162.026 45.081)" fill="#fff"/>
    <path id="Trazado_873654" data-name="Trazado 873654" d="M131.9,50.4l-9.358-8.506L108.646,53.8v5.388h48.771V52.1L145.792,35.934Z" transform="translate(53.38 17.655)" fill="#f2d616"/>
    <path id="Trazado_873655" data-name="Trazado 873655" d="M90.933,39.238s8,7.559,6.712,14.412-3.1,7.8.258,9.213,9.433,4.962,9.668,9.45c.194,3.687-.632,8.034-6.827,8.034S89.384,76.094,83.7,78.694s-8.527,6.851-13.941,4.489-9.294-2.6-10.843-10.4,6.2-8.741,3.613-11.577-1.017-6.851,1.558-11.1,18.322-18.43,26.842-10.869" transform="translate(28.847 18.206)" fill="#b3402a"/>
    <path id="Trazado_873656" data-name="Trazado 873656" d="M70.306,34.717S58.728,40.151,60.147,49.129s5.67,12.05,5.67,12.05,1.418-11.814,3.308-15.358,1.181-11.1,1.181-11.1" transform="translate(29.492 17.057)" fill="#b3402a"/>
    <path id="Trazado_873657" data-name="Trazado 873657" d="M46.964,143.69a41.137,41.137,0,0,1-3.5,7.944c-3.051,5.764-10.169,13.347-4.449,13.03s18.114-8.9,18.749-11.759-.635-9.85-.635-9.85Z" transform="translate(18.111 70.286)" fill="#5b4f55"/>
    <path id="Trazado_873658" data-name="Trazado 873658" d="M36.038,136.3a41.223,41.223,0,0,1-4.95,7.13c-4.1,5.073-12.533,11.158-6.857,11.939s19.48-5.273,20.65-7.959,1.259-9.791,1.259-9.791Z" transform="translate(10.97 66.969)" fill="#41383d"/>
    <path id="Trazado_873659" data-name="Trazado 873659" d="M75.967,94.323s-35.71,4.813-38.2,10.069-8.158,52.794-7.327,54.178,12.145,2.665,12.7,1.281,7.032-40.573,9.246-43.065,32.672,3.33,40.676,4.131c8.3.831,15.171-2.227,18.433-6.674,3.045-4.152,2.389-16.6,2.389-16.6Z" transform="translate(14.915 46.343)" fill="#823782"/>
    <path id="Trazado_873660" data-name="Trazado 873660" d="M88.166,96.066s-47.157,13.68-48.3,19.386,3.311,53.2,4.449,54.341,11.594-.107,11.759-1.59c.3-2.705.993-40.9,2.543-43.854s24.45-.752,32.412-1.907c8.259-1.2,17.313-5.7,19.405-10.8,1.952-4.763-2.268-17.18-2.268-17.18Z" transform="translate(19.493 46.408)" fill="#9c429c"/>
    <path id="Trazado_873661" data-name="Trazado 873661" d="M75.57,57.183S63.357,58.51,62.527,70.135c-.33,4.6-.064,15.352,0,23.2a40.175,40.175,0,0,1-4.947,20.033s15.777,4.152,25.74,3.6a99.848,99.848,0,0,1,17.712.555S107.79,67.935,99.071,60.6c-6.945-5.844-23.5-3.418-23.5-3.418" transform="translate(28.29 27.85)" fill="#482e7a"/>
    <path id="Trazado_873662" data-name="Trazado 873662" d="M82.253,39.3c-4.064-3.915-8.712-4.464-13.622-1.869-3.335,1.763-5.74,6.456-5.876,10.645-.112,3.4,0,11.163,2.768,13.711,1.111,2.4,4.73,4.253,7.112,4.72,3.8.746,6.879-.641,10.01-3.153C90.3,57.219,88.8,45.607,82.253,39.3" transform="translate(30.82 17.61)" fill="#ffc5ac"/>
    <path id="Trazado_873663" data-name="Trazado 873663" d="M69.42,53.233l.318,11.758s1.121,1.857,4.719,1.857,5.813-3.531,5.813-3.531L77.5,49.688Z" transform="translate(34.107 24.413)" fill="#ffc5ac"/>
    <path id="Trazado_873664" data-name="Trazado 873664" d="M102.257,106.193l-19.184-2.274c-1.12-7.424-5.443-25.159-6.381-26.089-1.144-1.133-39.869-.582-41,.943s8.489,29.958,8.489,29.958l57.71-.257c1.139-.006.37-2.28.37-2.28" transform="translate(17.489 37.943)" fill="#c4c5c4"/>
    <path id="Trazado_873665" data-name="Trazado 873665" d="M55.18,88.539a4.015,4.015,0,1,1-4.9-3.091,4.1,4.1,0,0,1,4.9,3.091" transform="translate(23.221 41.926)" fill="#d6dbd3"/>
    <path id="Trazado_873666" data-name="Trazado 873666" d="M74.9,97.186a114.833,114.833,0,0,0-15.028-.225c-5.369.125-10.752.152-16.1.583a.4.4,0,0,0,0,.8c5,.346,10.02.173,15.027.064,5.388-.116,10.748-.106,16.1-.743a.24.24,0,0,0,0-.48" transform="translate(21.313 47.573)" fill="#a9a4a9"/>
    <path id="Trazado_873667" data-name="Trazado 873667" d="M65.778,92.843c-1.142-4.088-1.812-8.656-3.709-12.47a.363.363,0,0,0-.671.186c.416,4.238,1.988,8.538,3.1,12.643,1.057,3.919,1.858,8.842,4.368,12.13.136.174.5.151.473-.131-.422-4.144-2.434-8.342-3.557-12.359" transform="translate(30.165 39.404)" fill="#a9a4a9"/>
    <path id="Trazado_873668" data-name="Trazado 873668" d="M69.525,87.206s5.8-1.351,8.178-.01,6.942,2.127,8.026,3.29,3.432,4.031,1.281,5.934c-1.014.9-5.484,1.781-7.637,2.425-3.448,1.029-14.084,1.512-15.629-1.858s-3.009-5.167,2.523-5.34,7.95-1.239,7.95-1.239-5.873-1.347-4.693-3.2" transform="translate(30.626 42.549)" fill="#ffc5ac"/>
    <path id="Trazado_873669" data-name="Trazado 873669" d="M84.579,61.894s.98,20.067,1.615,24.2c.552,3.582,2.689,11.659.637,12.712s-8.414,2.473-10.8,3.815l1.488,9.364s18.3,1.3,20.354-5.965-.734-31.261-3.093-38.355c-3.08-9.258-9.345-12.118-10.2-5.767" transform="translate(37.353 28.734)" fill="#482e7a"/>
    <path id="Trazado_873670" data-name="Trazado 873670" d="M76.372,55.334c-2.125.231-4.2.588-6.355.626a.536.536,0,0,0,0,1.072,27.522,27.522,0,0,0,3.936-.137,3.977,3.977,0,0,0,2.568-1.2.211.211,0,0,0-.149-.356" transform="translate(34.146 27.186)" fill="#eb847c"/>
    <path id="Trazado_873671" data-name="Trazado 873671" d="M73.421,91.249a17.4,17.4,0,0,0-4.786.28,12.808,12.808,0,0,1-6.092-.634c-.257-.1-.44.336-.186.444a16.211,16.211,0,0,0,11.064.191c.122-.045.155-.255,0-.282" transform="translate(30.578 44.652)" fill="#eb847c"/>
    <path id="Trazado_873672" data-name="Trazado 873672" d="M73.137,92.342c-3.3.259-6.411.767-9.735.373a.291.291,0,0,0-.088.574,19.94,19.94,0,0,0,9.867-.659c.16-.058.16-.3-.043-.288" transform="translate(30.991 45.369)" fill="#eb847c"/>
    <path id="Trazado_873673" data-name="Trazado 873673" d="M73.509,93.561c-3.279.28-6.4,1.429-9.67.453-.265-.079-.449.3-.192.4a12.275,12.275,0,0,0,9.946-.582.145.145,0,0,0-.084-.273" transform="translate(31.21 45.968)" fill="#eb847c"/>
    <path id="Trazado_873674" data-name="Trazado 873674" d="M88.881,93.1c-.838-9.983-2.957-19.887-4.025-29.856a.146.146,0,0,0-.292,0c-.67,8.043.222,15.939,1.453,23.882.638,4.128,2.483,8.313-2.361,10.508-2.136.969-5.176,2.51-6.765,4.261-.565.623.2,1.773.943,1.223,4.516-3.341,11.62-3.2,11.048-10.017" transform="translate(37.682 31.002)" fill="#2c1f64"/>
    <path id="Trazado_873675" data-name="Trazado 873675" d="M71.188,52.713c-.767-.6-1.608-.951-2.367-1.538a8.107,8.107,0,0,0,.449-4.228.366.366,0,0,0-.731,0,6.237,6.237,0,0,1-1.2,3.883.762.762,0,0,0,0,1.062c.992.948,2.44,2.115,3.792,1.278a.292.292,0,0,0,.06-.458" transform="translate(32.978 22.893)" fill="#eb847c"/>
    <path id="Trazado_873676" data-name="Trazado 873676" d="M76,50.781c-1.154.051-1.83.925-2.734,1.532a4.177,4.177,0,0,1-4.146.157c-.52-.218-.837.619-.376.89a5.389,5.389,0,0,0,4.42.692c1.354-.386,3.075-1.4,3.177-2.929A.343.343,0,0,0,76,50.781" transform="translate(33.668 24.95)" fill="#eb847c"/>
    <path id="Trazado_873677" data-name="Trazado 873677" d="M73.084,46.037a1.575,1.575,0,0,0,0,3.148,1.575,1.575,0,0,0,0-3.148" transform="translate(35.159 22.619)" fill="#5981a4"/>
    <path id="Trazado_873678" data-name="Trazado 873678" d="M67.326,47.986a1.352,1.352,0,0,0-2.313,0,1.67,1.67,0,0,0-.063,1.648,1.418,1.418,0,0,0,2.438,0,1.666,1.666,0,0,0-.063-1.648" transform="translate(31.819 23.256)" fill="#5981a4"/>
    <path id="Trazado_873679" data-name="Trazado 873679" d="M75.665,43.885a5.416,5.416,0,0,0-3.53-.875.511.511,0,0,0,0,1.022c1.138.089,2.5.993,3.53.163a.217.217,0,0,0,0-.309" transform="translate(35.199 21.129)" fill="#b3402a"/>
    <path id="Trazado_873680" data-name="Trazado 873680" d="M66.97,44.558c-1.078-.919-2.382.625-2.913,1.466-.342.543.476.984.841.492a3.676,3.676,0,0,1,1.019-.972,5.289,5.289,0,0,0,1.053-.677.219.219,0,0,0,0-.309" transform="translate(31.433 21.753)" fill="#b3402a"/>
    <path id="Trazado_873681" data-name="Trazado 873681" d="M84.85,54.812c3.065,2.371,3.3,2.608,5.2-.695s.911-12.266-.907-13.941c-2.828-2.608-6.126-5.925-9.9-7.352s-16.3-.043-13.959,7.287c0,0,2.115,4.258,6.6,4.507s5.436-.693,5.436-.693.7,3.782,3.767,4.971c.625.243.7,3.546,3.764,5.918" transform="translate(31.931 15.881)" fill="#b3402a"/>
    <path id="Trazado_873682" data-name="Trazado 873682" d="M83.43,45.293a2.426,2.426,0,0,0-2.158-1.84,4.053,4.053,0,0,0-3.6,3.306c-.541,2.07.347,4.707,1.406,5.215a2.316,2.316,0,0,0,2.556-.583,6.205,6.205,0,0,0,1.8-6.1" transform="translate(38.081 21.349)" fill="#ffc5ac"/>
    <path id="Trazado_873683" data-name="Trazado 873683" d="M81.036,47.98a1.156,1.156,0,0,0-1.761-.646,4.044,4.044,0,0,1,1.138-2.528.243.243,0,0,0-.245-.421c-1.521.728-3.033,5.07-.7,5.636,1.118.27,1.751-1.163,1.569-2.042m-1.025.9c-.4.69-.641-.045-.737-.591.559-.191,1.181-.176.737.591" transform="translate(38.452 21.793)" fill="#eb847c"/>
  </g>
</svg>
