<svg xmlns="http://www.w3.org/2000/svg" xmlns:xlink="http://www.w3.org/1999/xlink" width="400" height="793" viewBox="0 0 400 793">
  <defs>
    <clipPath id="clip-path">
      <rect id="Rectángulo_401289" data-name="Rectángulo 401289" width="291.765" height="353.824" fill="none"/>
    </clipPath>
    <clipPath id="clip-path-2">
      <rect id="Rectángulo_401286" data-name="Rectángulo 401286" width="256.21" height="125.136" fill="#ff9e9e"/>
    </clipPath>
    <clipPath id="clip-path-3">
      <rect id="Rectángulo_401287" data-name="Rectángulo 401287" width="256.21" height="125.136" fill="none"/>
    </clipPath>
    <clipPath id="clip-path-4">
      <rect id="Rectángulo_401288" data-name="Rectángulo 401288" width="94.06" height="102.348" fill="#ffacac"/>
    </clipPath>
    <clipPath id="clip-path-5">
      <rect id="Rectángulo_401294" data-name="Rectángulo 401294" width="291.765" height="353.824" fill="#ffacac"/>
    </clipPath>
    <clipPath id="clip-path-6">
      <rect id="Rectángulo_401290" data-name="Rectángulo 401290" width="162.202" height="73.952" fill="#ff9e9e"/>
    </clipPath>
    <clipPath id="clip-path-7">
      <rect id="Rectángulo_401291" data-name="Rectángulo 401291" width="94.06" height="102.348" fill="#ffea96"/>
    </clipPath>
    <clipPath id="clip-path-8">
      <rect id="Rectángulo_401292" data-name="Rectángulo 401292" width="256.157" height="73.927" fill="none"/>
    </clipPath>
    <clipPath id="clip-path-9">
      <rect id="Rectángulo_401293" data-name="Rectángulo 401293" width="162.202" height="73.952" fill="#fedf64"/>
    </clipPath>
  </defs>
  <g id="Grupo_1100379" data-name="Grupo 1100379" transform="translate(-2635 10589)">
    <rect id="Rectángulo_401300" data-name="Rectángulo 401300" width="400" height="793" transform="translate(2635 -10589)" fill="#fff8e0"/>
    <rect id="Rectángulo_401163" data-name="Rectángulo 401163" width="347.099" height="36.672" rx="18.336" transform="translate(2661 -10551)" fill="#67550c"/>
    <path id="Trazado_874989" data-name="Trazado 874989" d="M10.336,6.2l1.573,9.255L16.682,6.2h3.428L17.886,19H15.3l.633-3.647,1.248-5.7L12.278,19H10.512L8.8,9.332l-.826,6.3L7.383,19H4.808L7.031,6.2ZM25.532,19a2.566,2.566,0,0,1-.1-.861,3.221,3.221,0,0,1-2.426,1.037,2.919,2.919,0,0,1-2.07-.813,2.46,2.46,0,0,1-.769-1.964,2.843,2.843,0,0,1,1.305-2.386,5.924,5.924,0,0,1,3.335-.831l1.16.018.123-.571a1.984,1.984,0,0,0,.026-.554.952.952,0,0,0-.312-.646,1.075,1.075,0,0,0-.708-.242,1.514,1.514,0,0,0-.984.286,1.384,1.384,0,0,0-.519.875l-2.487.009a2.764,2.764,0,0,1,1.252-2.21,4.851,4.851,0,0,1,2.94-.831,3.507,3.507,0,0,1,2.531.962,2.816,2.816,0,0,1,.765,2.386l-.729,4.553-.044.563a2.714,2.714,0,0,0,.149,1.055L27.967,19Zm-1.907-1.749a2.27,2.27,0,0,0,1.872-.932l.308-1.644-.861-.009a2.406,2.406,0,0,0-1.978.835,1.454,1.454,0,0,0-.272.712.844.844,0,0,0,.2.751A1,1,0,0,0,23.625,17.251Zm12.366-5.379a5.117,5.117,0,0,0-.835-.088,2.4,2.4,0,0,0-2.1.993L31.957,19H29.479l1.652-9.51,2.329-.009-.229,1.16A2.615,2.615,0,0,1,35.446,9.3a3.615,3.615,0,0,1,.861.123Zm4.061,3.34-1.151,1L38.417,19H35.938L38.276,5.5h2.487L39.48,12.83l.483-.519L42.785,9.49h3.182L41.81,13.577,44.455,19H41.739Zm9.817,3.964a4.137,4.137,0,0,1-2.21-.611,3.7,3.7,0,0,1-1.437-1.652,4.605,4.605,0,0,1-.369-2.316l.026-.352a6.148,6.148,0,0,1,.809-2.549,4.884,4.884,0,0,1,1.74-1.789,4.306,4.306,0,0,1,2.355-.593,3.29,3.29,0,0,1,2.782,1.351A4.631,4.631,0,0,1,54.281,14l-.141,1.083H48.313a2.041,2.041,0,0,0,.448,1.477,1.711,1.711,0,0,0,1.318.571,3.041,3.041,0,0,0,2.373-1.055l1.134,1.406a3.527,3.527,0,0,1-1.547,1.261A5.059,5.059,0,0,1,49.869,19.176Zm.791-7.813a1.761,1.761,0,0,0-1.217.431,3.784,3.784,0,0,0-.954,1.556H51.9l.053-.229a2.33,2.33,0,0,0,.009-.668,1.276,1.276,0,0,0-.431-.8A1.35,1.35,0,0,0,50.66,11.362Zm9.246-4.21L59.493,9.49h1.582l-.325,1.863H59.168l-.809,4.764a1.211,1.211,0,0,0,.07.686q.123.237.6.255.141.009.756-.044l-.176,1.942a4.169,4.169,0,0,1-1.424.2,2.234,2.234,0,0,1-1.819-.765,2.763,2.763,0,0,1-.492-2.021l.817-5.019H55.345L55.67,9.49h1.345l.4-2.338ZM63.483,19h-2.5L62.64,9.49h2.5ZM62.93,7.073a1.238,1.238,0,0,1,.387-.976,1.488,1.488,0,0,1,1.951-.044,1.233,1.233,0,0,1,.431.932,1.273,1.273,0,0,1-.365.949,1.367,1.367,0,0,1-1,.422,1.39,1.39,0,0,1-.971-.334A1.227,1.227,0,0,1,62.93,7.073ZM69.5,9.481l-.211,1.125a3.422,3.422,0,0,1,2.769-1.292,2.281,2.281,0,0,1,1.986.984,3.966,3.966,0,0,1,.466,2.654l-1,6.047H71.033l1.02-6.073a2.844,2.844,0,0,0,.018-.624,1.007,1.007,0,0,0-1.125-.923,2.133,2.133,0,0,0-1.749.905L68.01,19H65.531l1.652-9.51Zm6.425,4.755a6.58,6.58,0,0,1,1.437-3.582,3.647,3.647,0,0,1,2.958-1.349,2.667,2.667,0,0,1,2.268,1.1l.325-.923,2.276.009-1.556,9.185a4.481,4.481,0,0,1-1.617,3.006,5.03,5.03,0,0,1-3.375,1.072,4.689,4.689,0,0,1-1.881-.426,4.022,4.022,0,0,1-1.477-1.121l1.23-1.512a2.642,2.642,0,0,0,2.074,1.081,2.436,2.436,0,0,0,1.652-.505,2.7,2.7,0,0,0,.932-1.525l.141-.571a3.092,3.092,0,0,1-2.329,1,2.732,2.732,0,0,1-2.206-1.033,4.44,4.44,0,0,1-.9-2.641A8.876,8.876,0,0,1,75.929,14.236Zm2.435,1.043A2.273,2.273,0,0,0,78.71,16.6a1.215,1.215,0,0,0,1.006.524,2.219,2.219,0,0,0,1.793-.863l.738-4.031a1.458,1.458,0,0,0-1.4-.863,1.944,1.944,0,0,0-1.608.766,4.006,4.006,0,0,0-.826,2.1A9.241,9.241,0,0,0,78.363,15.279Zm16.91,3.9a4.668,4.668,0,0,1-3.406-1.283,4.561,4.561,0,0,1-1.314-3.419v-.246a5.745,5.745,0,0,1,.554-2.562,4.064,4.064,0,0,1,1.569-1.74,4.4,4.4,0,0,1,2.316-.611,3.947,3.947,0,0,1,3.072,1.23,5,5,0,0,1,1.121,3.489v1.037H93.129a2.36,2.36,0,0,0,.743,1.494,2.245,2.245,0,0,0,1.569.563,2.742,2.742,0,0,0,2.294-1.063l1.248,1.4a3.813,3.813,0,0,1-1.547,1.261A5.075,5.075,0,0,1,95.273,19.176Zm-.29-7.813a1.587,1.587,0,0,0-1.226.512,2.651,2.651,0,0,0-.6,1.466h3.533v-.2a1.891,1.891,0,0,0-.457-1.311A1.638,1.638,0,0,0,94.983,11.362Zm7.98-1.872.079,1.1a3.32,3.32,0,0,1,2.733-1.274,2.759,2.759,0,0,1,2.25.888,4.142,4.142,0,0,1,.756,2.654V19h-2.54V12.918a1.648,1.648,0,0,0-.352-1.173,1.574,1.574,0,0,0-1.169-.365,1.747,1.747,0,0,0-1.608.914V19h-2.54V9.49Zm16.6,9.686a4.668,4.668,0,0,1-3.406-1.283,4.561,4.561,0,0,1-1.314-3.419v-.246a5.745,5.745,0,0,1,.554-2.562,4.064,4.064,0,0,1,1.569-1.74,4.4,4.4,0,0,1,2.316-.611,3.947,3.947,0,0,1,3.072,1.23,5,5,0,0,1,1.121,3.489v1.037h-6.056a2.36,2.36,0,0,0,.743,1.494,2.245,2.245,0,0,0,1.569.563,2.742,2.742,0,0,0,2.294-1.063l1.248,1.4a3.813,3.813,0,0,1-1.547,1.261A5.075,5.075,0,0,1,119.566,19.176Zm-.29-7.813a1.587,1.587,0,0,0-1.226.512,2.651,2.651,0,0,0-.6,1.466h3.533v-.2a1.891,1.891,0,0,0-.457-1.311A1.638,1.638,0,0,0,119.276,11.362ZM127.6,19h-2.549V5.5H127.6Zm15.135-4.667a5.7,5.7,0,0,1-1,3.52,3.2,3.2,0,0,1-2.694,1.323,2.963,2.963,0,0,1-2.329-1v4.482h-2.54V9.49h2.355l.088.932a2.985,2.985,0,0,1,2.408-1.107,3.22,3.22,0,0,1,2.733,1.3,5.858,5.858,0,0,1,.976,3.586Zm-2.54-.185a3.743,3.743,0,0,0-.47-2.048,1.532,1.532,0,0,0-1.367-.721,1.663,1.663,0,0,0-1.644.914v3.894a1.692,1.692,0,0,0,1.661.94Q140.194,17.128,140.194,14.148ZM150,18.033a3.185,3.185,0,0,1-2.6,1.143,3,3,0,0,1-2.333-.879,3.752,3.752,0,0,1-.822-2.575V9.49h2.54v6.151q0,1.487,1.354,1.487a1.834,1.834,0,0,0,1.775-.9V9.49h2.549V19h-2.391Zm6.715-8.543.079,1.1a3.32,3.32,0,0,1,2.733-1.274,2.759,2.759,0,0,1,2.25.888,4.142,4.142,0,0,1,.756,2.654V19H160V12.918a1.648,1.648,0,0,0-.352-1.173,1.574,1.574,0,0,0-1.169-.365,1.747,1.747,0,0,0-1.608.914V19h-2.54V9.49ZM167.5,7.152V9.49h1.626v1.863H167.5V16.1a1.133,1.133,0,0,0,.2.756,1.015,1.015,0,0,0,.773.229,4.051,4.051,0,0,0,.747-.062v1.925a5.229,5.229,0,0,1-1.538.229,2.425,2.425,0,0,1-2.725-2.7V11.354h-1.389V9.49h1.389V7.152Zm2.382,7a5.64,5.64,0,0,1,.545-2.522A3.989,3.989,0,0,1,172,9.921a4.577,4.577,0,0,1,2.377-.606,4.33,4.33,0,0,1,3.142,1.178,4.727,4.727,0,0,1,1.358,3.2l.018.65a4.97,4.97,0,0,1-1.222,3.511,4.735,4.735,0,0,1-6.561,0,5.058,5.058,0,0,1-1.226-3.586Zm2.54.18a3.555,3.555,0,0,0,.51,2.073,1.831,1.831,0,0,0,2.9.009,3.89,3.89,0,0,0,.519-2.267,3.519,3.519,0,0,0-.519-2.06,1.686,1.686,0,0,0-1.459-.731,1.658,1.658,0,0,0-1.441.726A3.955,3.955,0,0,0,172.424,14.338Zm12.12-.163a5.731,5.731,0,0,1,1-3.542,3.237,3.237,0,0,1,2.729-1.318,2.913,2.913,0,0,1,2.294,1.037V5.5h2.549V19h-2.294l-.123-1.011a2.989,2.989,0,0,1-2.443,1.187,3.228,3.228,0,0,1-2.694-1.323A5.916,5.916,0,0,1,184.544,14.175Zm2.54.189a3.754,3.754,0,0,0,.466,2.051,1.517,1.517,0,0,0,1.354.713,1.7,1.7,0,0,0,1.661-.995V12.375a1.675,1.675,0,0,0-1.644-.995Q187.084,11.38,187.084,14.364Zm12.375,4.812a4.668,4.668,0,0,1-3.406-1.283,4.561,4.561,0,0,1-1.314-3.419v-.246a5.745,5.745,0,0,1,.554-2.562,4.064,4.064,0,0,1,1.569-1.74,4.4,4.4,0,0,1,2.316-.611,3.947,3.947,0,0,1,3.072,1.23,5,5,0,0,1,1.121,3.489v1.037h-6.056a2.36,2.36,0,0,0,.743,1.494,2.245,2.245,0,0,0,1.569.563,2.742,2.742,0,0,0,2.294-1.063l1.248,1.4a3.813,3.813,0,0,1-1.547,1.261A5.075,5.075,0,0,1,199.459,19.176Zm-.29-7.813a1.587,1.587,0,0,0-1.226.512,2.651,2.651,0,0,0-.6,1.466h3.533v-.2a1.891,1.891,0,0,0-.457-1.311A1.638,1.638,0,0,0,199.169,11.362ZM212.854,15.9,214.62,9.49h2.654L214.066,19h-2.426l-3.208-9.51h2.654Zm9.8,3.278a4.668,4.668,0,0,1-3.406-1.283,4.561,4.561,0,0,1-1.314-3.419v-.246a5.745,5.745,0,0,1,.554-2.562,4.064,4.064,0,0,1,1.569-1.74,4.4,4.4,0,0,1,2.316-.611,3.947,3.947,0,0,1,3.072,1.23,5,5,0,0,1,1.121,3.489v1.037h-6.056a2.36,2.36,0,0,0,.743,1.494,2.245,2.245,0,0,0,1.569.563,2.742,2.742,0,0,0,2.294-1.063l1.248,1.4a3.813,3.813,0,0,1-1.547,1.261A5.075,5.075,0,0,1,222.653,19.176Zm-.29-7.813a1.587,1.587,0,0,0-1.226.512,2.651,2.651,0,0,0-.6,1.466h3.533v-.2a1.891,1.891,0,0,0-.457-1.311A1.638,1.638,0,0,0,222.363,11.362Zm7.98-1.872.079,1.1a3.32,3.32,0,0,1,2.733-1.274,2.759,2.759,0,0,1,2.25.888,4.142,4.142,0,0,1,.756,2.654V19h-2.54V12.918a1.648,1.648,0,0,0-.352-1.173,1.574,1.574,0,0,0-1.169-.365,1.747,1.747,0,0,0-1.608.914V19h-2.54V9.49Zm10.784-2.338V9.49h1.626v1.863h-1.626V16.1a1.133,1.133,0,0,0,.2.756,1.015,1.015,0,0,0,.773.229,4.051,4.051,0,0,0,.747-.062v1.925a5.229,5.229,0,0,1-1.538.229,2.425,2.425,0,0,1-2.725-2.7V11.354H237.2V9.49h1.389V7.152ZM249.68,19a2.821,2.821,0,0,1-.255-.853,3.073,3.073,0,0,1-2.4,1.028,3.376,3.376,0,0,1-2.316-.809,2.6,2.6,0,0,1-.918-2.039,2.687,2.687,0,0,1,1.121-2.32,5.529,5.529,0,0,1,3.239-.817h1.169v-.545a1.567,1.567,0,0,0-.338-1.055,1.331,1.331,0,0,0-1.068-.4,1.513,1.513,0,0,0-1.006.308,1.045,1.045,0,0,0-.365.844H244a2.551,2.551,0,0,1,.51-1.529,3.37,3.37,0,0,1,1.441-1.1,5.253,5.253,0,0,1,2.092-.4,4.15,4.15,0,0,1,2.791.883,3.09,3.09,0,0,1,1.033,2.483V16.8a4.546,4.546,0,0,0,.378,2.048V19Zm-2.1-1.767a2.188,2.188,0,0,0,1.037-.25,1.645,1.645,0,0,0,.7-.672V14.676h-.949q-1.907,0-2.03,1.318l-.009.149a1.017,1.017,0,0,0,.334.782A1.3,1.3,0,0,0,247.579,17.233Z" transform="translate(2706 -10544.328)" fill="#fff"/>
    <g id="Grupo_1099746" data-name="Grupo 1099746" transform="translate(2040 -11682)">
      <g id="Grupo_1099728" data-name="Grupo 1099728" transform="translate(654 1190.672)">
        <g id="Grupo_1099727" data-name="Grupo 1099727" clip-path="url(#clip-path)">
          <g id="Grupo_1099720" data-name="Grupo 1099720" transform="translate(0 228.688)" opacity="0.8">
            <g id="Grupo_1099719" data-name="Grupo 1099719">
              <g id="Grupo_1099718" data-name="Grupo 1099718" clip-path="url(#clip-path-2)">
                <path id="Trazado_873523" data-name="Trazado 873523" d="M94.007,346.242,0,295.1l.053-51.209L94.06,295.033Z" transform="translate(0 -221.106)" fill="#ffacac" opacity="0.8"/>
                <path id="Trazado_873524" data-name="Trazado 873524" d="M94.059,295.72.051,244.582,162.2,221.792l94.007,51.139Z" transform="translate(0.002 -221.793)" fill="#ff9e9e"/>
                <path id="Trazado_873525" data-name="Trazado 873525" d="M253.375,271.434l-.053,51.163L91.173,345.386l.053-51.163Z" transform="translate(2.834 -220.25)" fill="#ff9e9e" opacity="0.8"/>
              </g>
            </g>
          </g>
          <g id="Grupo_1099723" data-name="Grupo 1099723" transform="translate(35.555 172.525)" opacity="0.8">
            <g id="Grupo_1099722" data-name="Grupo 1099722">
              <g id="Grupo_1099721" data-name="Grupo 1099721" clip-path="url(#clip-path-3)">
                <path id="Trazado_873526" data-name="Trazado 873526" d="M128.49,291.772,34.483,240.633l.053-51.209,94.007,51.139Z" transform="translate(-34.483 -166.636)" fill="#ffea96"/>
                <path id="Trazado_873527" data-name="Trazado 873527" d="M128.541,241.251,34.534,190.112l162.15-22.789,94.007,51.139Z" transform="translate(-34.481 -167.323)" fill="#f9d648"/>
                <path id="Trazado_873528" data-name="Trazado 873528" d="M287.858,216.964l-.053,51.163-162.15,22.789.053-51.163Z" transform="translate(-31.648 -165.78)" fill="#f9d648" opacity="0.8"/>
              </g>
            </g>
          </g>
          <g id="Grupo_1099726" data-name="Grupo 1099726" transform="translate(0 99.017)" opacity="0.8">
            <g id="Grupo_1099725" data-name="Grupo 1099725">
              <g id="Grupo_1099724" data-name="Grupo 1099724" clip-path="url(#clip-path-4)">
                <path id="Trazado_873529" data-name="Trazado 873529" d="M94.007,198.38,0,147.241.053,96.032,94.06,147.171Z" transform="translate(0 -96.032)" fill="#ffacac"/>
              </g>
            </g>
          </g>
        </g>
      </g>
      <path id="Trazado_873530" data-name="Trazado 873530" d="M.051,96.719l94.007,51.139L256.207,125.07,162.2,73.931Z" transform="translate(654.001 1192.971)" fill="#ff9e9e"/>
      <g id="Grupo_1099741" data-name="Grupo 1099741" transform="translate(654 1190.672)" clip-path="url(#clip-path-5)">
        <g id="Grupo_1099731" data-name="Grupo 1099731" transform="translate(94.007 127.414)" opacity="0.8">
          <g id="Grupo_1099730" data-name="Grupo 1099730">
            <g id="Grupo_1099729" data-name="Grupo 1099729" clip-path="url(#clip-path-6)">
              <path id="Trazado_873531" data-name="Trazado 873531" d="M253.375,123.572l-.053,51.163L91.173,197.524l.053-51.164Z" transform="translate(-91.173 -123.572)" fill="#ff9e9e"/>
            </g>
          </g>
        </g>
        <g id="Grupo_1099734" data-name="Grupo 1099734" transform="translate(0 22.788)" opacity="0.8">
          <g id="Grupo_1099733" data-name="Grupo 1099733">
            <g id="Grupo_1099732" data-name="Grupo 1099732" clip-path="url(#clip-path-7)">
              <path id="Trazado_873532" data-name="Trazado 873532" d="M94.007,124.449,0,73.31.053,22.1,94.06,73.24Z" transform="translate(0 -22.101)" fill="#ffea96"/>
            </g>
          </g>
        </g>
        <g id="Grupo_1099737" data-name="Grupo 1099737" transform="translate(0.053)">
          <g id="Grupo_1099736" data-name="Grupo 1099736">
            <g id="Grupo_1099735" data-name="Grupo 1099735" clip-path="url(#clip-path-8)">
              <path id="Trazado_873533" data-name="Trazado 873533" d="M94.059,73.927.051,22.788,162.2,0l94.007,51.139Z" transform="translate(-0.051 0)" fill="#f9d648"/>
            </g>
          </g>
        </g>
        <g id="Grupo_1099740" data-name="Grupo 1099740" transform="translate(94.007 51.184)" opacity="0.8">
          <g id="Grupo_1099739" data-name="Grupo 1099739">
            <g id="Grupo_1099738" data-name="Grupo 1099738" clip-path="url(#clip-path-9)">
              <path id="Trazado_873534" data-name="Trazado 873534" d="M253.375,49.641l-.053,51.163L91.173,123.593l.053-51.163Z" transform="translate(-91.173 -49.641)" fill="#fedf64"/>
            </g>
          </g>
        </g>
      </g>
      <rect id="Rectángulo_401295" data-name="Rectángulo 401295" width="291.765" height="353.824" transform="translate(654 1190.672)" fill="none"/>
    </g>
    <circle id="Elipse_11559" data-name="Elipse 11559" cx="24" cy="24" r="24" transform="translate(2917.894 -10438)" fill="#67550c"/>
    <circle id="Elipse_11560" data-name="Elipse 11560" cx="24" cy="24" r="24" transform="translate(2680 -10391.5)" fill="#804242"/>
    <circle id="Elipse_11561" data-name="Elipse 11561" cx="24" cy="24" r="24" transform="translate(2678 -10237.5)" fill="#804242"/>
    <circle id="Elipse_11562" data-name="Elipse 11562" cx="24" cy="24" r="24" transform="translate(2954 -10266)" fill="#67550c"/>
    <path id="Trazado_874987" data-name="Trazado 874987" d="M1.876,0H-.664V-9.791l-3.032.94v-2.065l5.3-1.9h.272Z" transform="translate(2941.894 -10408)" fill="#fff"/>
    <path id="Trazado_874988" data-name="Trazado 874988" d="M4.478,0H-4.293V-1.74l4.14-4.412A10.212,10.212,0,0,0,1.107-7.778,2.612,2.612,0,0,0,1.516-9.1a1.955,1.955,0,0,0-.431-1.34,1.555,1.555,0,0,0-1.23-.488,1.677,1.677,0,0,0-1.358.593A2.35,2.35,0,0,0-2-8.771H-4.548a4.2,4.2,0,0,1,.558-2.136,3.934,3.934,0,0,1,1.578-1.516A4.8,4.8,0,0,1-.1-12.973a4.54,4.54,0,0,1,3.072.949A3.358,3.358,0,0,1,4.065-9.343a4.3,4.3,0,0,1-.492,1.934A10.745,10.745,0,0,1,1.885-5.115L-1.024-2.048h5.5Z" transform="translate(2704 -10361.5)" fill="#fff"/>
    <path id="Trazado_874985" data-name="Trazado 874985" d="M3.221-4.816h1.45v2.048H3.221V0H.681V-2.769H-4.566l-.114-1.6L.655-12.8H3.221Zm-5.37,0H.681V-9.334l-.167.29Z" transform="translate(2702 -10207.5)" fill="#fff"/>
    <path id="Trazado_874986" data-name="Trazado 874986" d="M-1.709-7.523H-.356a1.907,1.907,0,0,0,1.433-.483A1.771,1.771,0,0,0,1.542-9.29a1.566,1.566,0,0,0-.461-1.2,1.788,1.788,0,0,0-1.27-.431,1.874,1.874,0,0,0-1.222.4A1.279,1.279,0,0,0-1.9-9.483h-2.54a3.124,3.124,0,0,1,.541-1.8,3.6,3.6,0,0,1,1.512-1.244,5.045,5.045,0,0,1,2.14-.448A4.785,4.785,0,0,1,2.931-12,3.314,3.314,0,0,1,4.083-9.325a2.693,2.693,0,0,1-.536,1.617A3.483,3.483,0,0,1,2.14-6.574a3.18,3.18,0,0,1,1.613,1.16,3.147,3.147,0,0,1,.532,1.828A3.369,3.369,0,0,1,3.041-.853,5,5,0,0,1-.25.176,4.741,4.741,0,0,1-3.384-.835,3.3,3.3,0,0,1-4.6-3.507h2.54a1.472,1.472,0,0,0,.541,1.178,1.992,1.992,0,0,0,1.332.457A2,2,0,0,0,1.23-2.351a1.654,1.654,0,0,0,.514-1.27q0-1.916-2.109-1.916H-1.709Z" transform="translate(2978 -10236)" fill="#fff"/>
    <rect id="Rectángulo_401190" data-name="Rectángulo 401190" width="315" height="60" rx="30" transform="translate(2695 -10107)" fill="#ffea96"/>
    <path id="Trazado_874984" data-name="Trazado 874984" d="M8.777,11.085H3.231V15.62H9.674V17H1.544V4.2H9.586v1.38H3.231V9.705H8.777Zm8.279,3.393a1.2,1.2,0,0,0-.5-1.024,4.78,4.78,0,0,0-1.731-.628,8.186,8.186,0,0,1-1.96-.633,2.788,2.788,0,0,1-1.072-.879,2.1,2.1,0,0,1-.347-1.213,2.467,2.467,0,0,1,.989-1.978,3.861,3.861,0,0,1,2.527-.809,3.974,3.974,0,0,1,2.624.835,2.652,2.652,0,0,1,1.006,2.136H16.96a1.468,1.468,0,0,0-.567-1.151,2.124,2.124,0,0,0-1.428-.483,2.223,2.223,0,0,0-1.389.387,1.217,1.217,0,0,0-.5,1.011.986.986,0,0,0,.466.888,5.731,5.731,0,0,0,1.683.571,8.77,8.77,0,0,1,1.973.65,2.878,2.878,0,0,1,1.121.91,2.237,2.237,0,0,1,.365,1.3,2.434,2.434,0,0,1-1.02,2.043,4.277,4.277,0,0,1-2.646.769,4.789,4.789,0,0,1-2.021-.4,3.288,3.288,0,0,1-1.375-1.129,2.722,2.722,0,0,1-.5-1.569H12.75a1.683,1.683,0,0,0,.655,1.3,2.54,2.54,0,0,0,1.613.479,2.622,2.622,0,0,0,1.481-.374A1.148,1.148,0,0,0,17.057,14.478Zm5.95-9.29v2.3h1.775V8.747H23.007v5.9a1.32,1.32,0,0,0,.237.858,1,1,0,0,0,.809.286,3.937,3.937,0,0,0,.773-.105V17a4.742,4.742,0,0,1-1.248.175,2.025,2.025,0,0,1-1.644-.659,2.832,2.832,0,0,1-.554-1.872v-5.9H19.649V7.49h1.731v-2.3Zm8.271,3.762a4.873,4.873,0,0,0-.8-.062,2.143,2.143,0,0,0-2.171,1.362V17H26.681V7.49h1.582l.026,1.1a2.532,2.532,0,0,1,2.268-1.274,1.661,1.661,0,0,1,.721.123ZM38.291,17a3.416,3.416,0,0,1-.229-1,3.628,3.628,0,0,1-2.707,1.178,3.357,3.357,0,0,1-2.307-.8,2.573,2.573,0,0,1-.9-2.017,2.688,2.688,0,0,1,1.129-2.307,5.325,5.325,0,0,1,3.177-.822h1.582v-.747a1.826,1.826,0,0,0-.51-1.358,2.049,2.049,0,0,0-1.5-.505,2.371,2.371,0,0,0-1.459.439,1.3,1.3,0,0,0-.589,1.063H32.341a2.244,2.244,0,0,1,.505-1.375A3.449,3.449,0,0,1,34.217,7.7a4.613,4.613,0,0,1,1.9-.387,3.759,3.759,0,0,1,2.575.822,2.964,2.964,0,0,1,.967,2.263v4.377A5.351,5.351,0,0,0,40,16.859V17Zm-2.7-1.239a2.858,2.858,0,0,0,1.45-.4,2.392,2.392,0,0,0,.993-1.028V12.386H36.762q-2.988,0-2.988,1.749a1.48,1.48,0,0,0,.51,1.2A1.959,1.959,0,0,0,35.593,15.761ZM44.417,5.188v2.3h1.775V8.747H44.417v5.9a1.32,1.32,0,0,0,.237.858,1,1,0,0,0,.809.286,3.937,3.937,0,0,0,.773-.105V17a4.742,4.742,0,0,1-1.248.175,2.025,2.025,0,0,1-1.644-.659,2.832,2.832,0,0,1-.554-1.872v-5.9H41.06V7.49h1.731v-2.3Zm7.62,11.988a4.155,4.155,0,0,1-3.146-1.27,4.714,4.714,0,0,1-1.213-3.4v-.3a5.707,5.707,0,0,1,.541-2.527,4.217,4.217,0,0,1,1.512-1.74,3.8,3.8,0,0,1,2.1-.628,3.562,3.562,0,0,1,2.883,1.222,5.289,5.289,0,0,1,1.028,3.5v.677H49.3a3.38,3.38,0,0,0,.822,2.272,2.583,2.583,0,0,0,2,.866,2.832,2.832,0,0,0,1.459-.352,3.666,3.666,0,0,0,1.046-.932l.993.773A3.993,3.993,0,0,1,52.037,17.176Zm-.2-8.525a2.169,2.169,0,0,0-1.652.716,3.482,3.482,0,0,0-.826,2.008H54.12v-.123a3.1,3.1,0,0,0-.668-1.92A2.042,2.042,0,0,0,51.835,8.65Zm5.405,3.516a5.589,5.589,0,0,1,1.028-3.538,3.545,3.545,0,0,1,5.44-.083l.079-1.055h1.485v9.281a3.869,3.869,0,0,1-1.094,2.909,4.038,4.038,0,0,1-2.94,1.063,4.891,4.891,0,0,1-2.013-.439,3.465,3.465,0,0,1-1.5-1.2l.844-.976a3.18,3.18,0,0,0,2.558,1.292,2.491,2.491,0,0,0,1.85-.668,2.553,2.553,0,0,0,.664-1.881v-.817a3.342,3.342,0,0,1-2.663,1.125,3.248,3.248,0,0,1-2.7-1.345A5.876,5.876,0,0,1,57.24,12.166Zm1.635.185a4.264,4.264,0,0,0,.659,2.527,2.142,2.142,0,0,0,1.846.918,2.382,2.382,0,0,0,2.259-1.4V10.057A2.41,2.41,0,0,0,61.4,8.694a2.161,2.161,0,0,0-1.854.923A4.644,4.644,0,0,0,58.875,12.351ZM69.492,17H67.866V7.49h1.626ZM67.734,4.968a.971.971,0,0,1,.242-.668.907.907,0,0,1,.716-.272.922.922,0,0,1,.721.272.96.96,0,0,1,.246.668.929.929,0,0,1-.246.659.938.938,0,0,1-.721.264.924.924,0,0,1-.716-.264A.938.938,0,0,1,67.734,4.968ZM77.965,17a3.416,3.416,0,0,1-.229-1,3.628,3.628,0,0,1-2.707,1.178,3.357,3.357,0,0,1-2.307-.8,2.573,2.573,0,0,1-.9-2.017,2.688,2.688,0,0,1,1.129-2.307,5.325,5.325,0,0,1,3.177-.822H77.71v-.747a1.826,1.826,0,0,0-.51-1.358,2.049,2.049,0,0,0-1.5-.505,2.371,2.371,0,0,0-1.459.439,1.3,1.3,0,0,0-.589,1.063H72.015a2.244,2.244,0,0,1,.505-1.375A3.449,3.449,0,0,1,73.891,7.7a4.613,4.613,0,0,1,1.9-.387,3.759,3.759,0,0,1,2.575.822,2.964,2.964,0,0,1,.967,2.263v4.377a5.351,5.351,0,0,0,.334,2.083V17Zm-2.7-1.239a2.858,2.858,0,0,0,1.45-.4,2.392,2.392,0,0,0,.993-1.028V12.386H76.436q-2.988,0-2.988,1.749a1.48,1.48,0,0,0,.51,1.2A1.959,1.959,0,0,0,75.267,15.761Zm12.155-1.283a1.2,1.2,0,0,0-.5-1.024,4.78,4.78,0,0,0-1.731-.628,8.186,8.186,0,0,1-1.96-.633,2.788,2.788,0,0,1-1.072-.879,2.1,2.1,0,0,1-.347-1.213A2.467,2.467,0,0,1,82.8,8.123a3.861,3.861,0,0,1,2.527-.809,3.974,3.974,0,0,1,2.624.835,2.652,2.652,0,0,1,1.006,2.136H87.325a1.468,1.468,0,0,0-.567-1.151A2.124,2.124,0,0,0,85.33,8.65a2.223,2.223,0,0,0-1.389.387,1.217,1.217,0,0,0-.5,1.011.986.986,0,0,0,.466.888,5.731,5.731,0,0,0,1.683.571,8.77,8.77,0,0,1,1.973.65,2.878,2.878,0,0,1,1.121.91,2.237,2.237,0,0,1,.365,1.3,2.434,2.434,0,0,1-1.02,2.043,4.277,4.277,0,0,1-2.646.769,4.789,4.789,0,0,1-2.021-.4,3.288,3.288,0,0,1-1.375-1.129,2.722,2.722,0,0,1-.5-1.569h1.626a1.683,1.683,0,0,0,.655,1.3,2.54,2.54,0,0,0,1.613.479,2.622,2.622,0,0,0,1.481-.374A1.148,1.148,0,0,0,87.422,14.478Zm12.146,2.7a4.155,4.155,0,0,1-3.146-1.27,4.714,4.714,0,0,1-1.213-3.4v-.3a5.707,5.707,0,0,1,.541-2.527,4.217,4.217,0,0,1,1.512-1.74,3.8,3.8,0,0,1,2.1-.628,3.562,3.562,0,0,1,2.883,1.222,5.289,5.289,0,0,1,1.028,3.5v.677H96.835a3.38,3.38,0,0,0,.822,2.272,2.583,2.583,0,0,0,2,.866,2.832,2.832,0,0,0,1.459-.352,3.666,3.666,0,0,0,1.046-.932l.993.773A3.993,3.993,0,0,1,99.568,17.176Zm-.2-8.525a2.169,2.169,0,0,0-1.652.716,3.482,3.482,0,0,0-.826,2.008h4.764v-.123a3.1,3.1,0,0,0-.668-1.92A2.042,2.042,0,0,0,99.366,8.65Zm7.33-1.16.053,1.2A3.465,3.465,0,0,1,109.6,7.314q3.015,0,3.041,3.4V17h-1.626V10.707a2.189,2.189,0,0,0-.47-1.521,1.884,1.884,0,0,0-1.437-.492,2.347,2.347,0,0,0-1.389.422,2.865,2.865,0,0,0-.932,1.107V17h-1.626V7.49Zm16.8,9.686a4.155,4.155,0,0,1-3.146-1.27,4.714,4.714,0,0,1-1.213-3.4v-.3a5.707,5.707,0,0,1,.541-2.527,4.217,4.217,0,0,1,1.512-1.74,3.8,3.8,0,0,1,2.1-.628,3.562,3.562,0,0,1,2.883,1.222,5.289,5.289,0,0,1,1.028,3.5v.677h-6.442a3.38,3.38,0,0,0,.822,2.272,2.583,2.583,0,0,0,2,.866,2.832,2.832,0,0,0,1.459-.352,3.666,3.666,0,0,0,1.046-.932l.993.773A3.993,3.993,0,0,1,123.492,17.176Zm-.2-8.525a2.169,2.169,0,0,0-1.652.716,3.482,3.482,0,0,0-.826,2.008h4.764v-.123a3.1,3.1,0,0,0-.668-1.92A2.042,2.042,0,0,0,123.29,8.65ZM130.849,17h-1.626V3.5h1.626Zm15.091-4.649a5.694,5.694,0,0,1-.993,3.5,3.183,3.183,0,0,1-2.689,1.327,3.488,3.488,0,0,1-2.725-1.1v4.579h-1.626V7.49h1.485l.079,1.055a3.35,3.35,0,0,1,2.76-1.23,3.243,3.243,0,0,1,2.711,1.292,5.756,5.756,0,0,1,1,3.595Zm-1.626-.185a4.2,4.2,0,0,0-.686-2.54,2.208,2.208,0,0,0-1.881-.932A2.39,2.39,0,0,0,139.532,10v4.544a2.4,2.4,0,0,0,2.232,1.3,2.2,2.2,0,0,0,1.859-.927A4.587,4.587,0,0,0,144.313,12.166Zm9.563,3.894a3.454,3.454,0,0,1-2.786,1.116,2.956,2.956,0,0,1-2.316-.883,3.823,3.823,0,0,1-.8-2.615V7.49H149.6v6.144q0,2.162,1.758,2.162a2.434,2.434,0,0,0,2.479-1.389V7.49h1.626V17h-1.547Zm5.59-8.569.053,1.2a3.465,3.465,0,0,1,2.848-1.371q3.015,0,3.041,3.4V17h-1.626V10.707a2.189,2.189,0,0,0-.47-1.521,1.884,1.884,0,0,0-1.437-.492,2.347,2.347,0,0,0-1.389.422,2.865,2.865,0,0,0-.932,1.107V17h-1.626V7.49Zm10.6-2.3v2.3h1.775V8.747h-1.775v5.9a1.32,1.32,0,0,0,.237.858,1,1,0,0,0,.809.286,3.937,3.937,0,0,0,.773-.105V17a4.742,4.742,0,0,1-1.248.175,2.025,2.025,0,0,1-1.644-.659,2.832,2.832,0,0,1-.554-1.872v-5.9h-1.731V7.49h1.731v-2.3Zm3.067,6.97a5.617,5.617,0,0,1,.549-2.514,4.1,4.1,0,0,1,1.529-1.723,4.163,4.163,0,0,1,2.237-.606,4.01,4.01,0,0,1,3.142,1.345,5.174,5.174,0,0,1,1.2,3.577v.114a5.666,5.666,0,0,1-.532,2.492,4.038,4.038,0,0,1-1.521,1.718,4.211,4.211,0,0,1-2.272.615,4,4,0,0,1-3.133-1.345,5.147,5.147,0,0,1-1.2-3.56Zm1.635.193a4.068,4.068,0,0,0,.734,2.54,2.487,2.487,0,0,0,3.933-.013,4.449,4.449,0,0,0,.729-2.72,4.061,4.061,0,0,0-.743-2.536,2.361,2.361,0,0,0-1.973-.971,2.335,2.335,0,0,0-1.942.958A4.416,4.416,0,0,0,174.768,12.351Zm13.122-.185a5.571,5.571,0,0,1,1.037-3.52,3.529,3.529,0,0,1,5.361-.189V3.5h1.626V17H194.42l-.079-1.02a3.311,3.311,0,0,1-2.716,1.2,3.248,3.248,0,0,1-2.694-1.354,5.634,5.634,0,0,1-1.042-3.533Zm1.626.185a4.218,4.218,0,0,0,.668,2.531,2.159,2.159,0,0,0,1.846.914,2.372,2.372,0,0,0,2.259-1.389V10.039a2.39,2.39,0,0,0-2.241-1.345,2.17,2.17,0,0,0-1.863.923A4.644,4.644,0,0,0,189.516,12.351Zm12.867,4.825a4.155,4.155,0,0,1-3.146-1.27,4.714,4.714,0,0,1-1.213-3.4v-.3a5.707,5.707,0,0,1,.541-2.527,4.217,4.217,0,0,1,1.512-1.74,3.8,3.8,0,0,1,2.1-.628,3.562,3.562,0,0,1,2.883,1.222,5.289,5.289,0,0,1,1.028,3.5v.677h-6.442a3.38,3.38,0,0,0,.822,2.272,2.583,2.583,0,0,0,2,.866,2.832,2.832,0,0,0,1.459-.352,3.666,3.666,0,0,0,1.046-.932l.993.773A3.993,3.993,0,0,1,202.383,17.176Zm-.2-8.525a2.169,2.169,0,0,0-1.652.716,3.482,3.482,0,0,0-.826,2.008h4.764v-.123a3.1,3.1,0,0,0-.668-1.92A2.042,2.042,0,0,0,202.181,8.65Zm13.386,6.144,2.355-7.3h1.661L216.173,17h-1.239l-3.445-9.51h1.661Zm9.413,2.382a4.155,4.155,0,0,1-3.146-1.27,4.714,4.714,0,0,1-1.213-3.4v-.3a5.707,5.707,0,0,1,.541-2.527,4.217,4.217,0,0,1,1.512-1.74,3.8,3.8,0,0,1,2.1-.628,3.562,3.562,0,0,1,2.883,1.222,5.289,5.289,0,0,1,1.028,3.5v.677h-6.442a3.38,3.38,0,0,0,.822,2.272,2.583,2.583,0,0,0,2,.866,2.832,2.832,0,0,0,1.459-.352,3.666,3.666,0,0,0,1.046-.932l.993.773A3.993,3.993,0,0,1,224.979,17.176Zm-.2-8.525a2.169,2.169,0,0,0-1.652.716,3.482,3.482,0,0,0-.826,2.008h4.764v-.123a3.1,3.1,0,0,0-.668-1.92A2.042,2.042,0,0,0,224.777,8.65Zm7.33-1.16.053,1.2a3.465,3.465,0,0,1,2.848-1.371q3.015,0,3.041,3.4V17h-1.626V10.707a2.189,2.189,0,0,0-.47-1.521,1.884,1.884,0,0,0-1.437-.492,2.347,2.347,0,0,0-1.389.422,2.865,2.865,0,0,0-.932,1.107V17h-1.626V7.49Zm10.6-2.3v2.3h1.775V8.747h-1.775v5.9a1.32,1.32,0,0,0,.237.858,1,1,0,0,0,.809.286,3.937,3.937,0,0,0,.773-.105V17a4.742,4.742,0,0,1-1.248.175,2.025,2.025,0,0,1-1.644-.659,2.832,2.832,0,0,1-.554-1.872v-5.9H239.35V7.49h1.731v-2.3ZM252.252,17a3.416,3.416,0,0,1-.229-1,3.628,3.628,0,0,1-2.707,1.178,3.357,3.357,0,0,1-2.307-.8,2.573,2.573,0,0,1-.9-2.017,2.688,2.688,0,0,1,1.129-2.307,5.325,5.325,0,0,1,3.177-.822H252v-.747a1.826,1.826,0,0,0-.51-1.358,2.049,2.049,0,0,0-1.5-.505,2.371,2.371,0,0,0-1.459.439,1.3,1.3,0,0,0-.589,1.063H246.3a2.244,2.244,0,0,1,.505-1.375,3.449,3.449,0,0,1,1.371-1.05,4.613,4.613,0,0,1,1.9-.387,3.759,3.759,0,0,1,2.575.822,2.964,2.964,0,0,1,.967,2.263v4.377a5.351,5.351,0,0,0,.334,2.083V17Zm-2.7-1.239a2.858,2.858,0,0,0,1.45-.4A2.392,2.392,0,0,0,252,14.337V12.386h-1.274q-2.988,0-2.988,1.749a1.48,1.48,0,0,0,.51,1.2A1.959,1.959,0,0,0,249.554,15.761Z" transform="translate(2725 -10089)" fill="#12263f"/>
    <circle id="Elipse_11541" data-name="Elipse 11541" cx="24" cy="24" r="24" transform="translate(2660 -10100.775)" fill="#67550c"/>
    <path id="Trazado_874983" data-name="Trazado 874983" d="M1.876,0H-.664V-9.791l-3.032.94v-2.065l5.3-1.9h.272Z" transform="translate(2684 -10070.775)" fill="#fff"/>
    <rect id="Rectángulo_401190-2" data-name="Rectángulo 401190" width="315" height="60" rx="30" transform="translate(2695 -10036)" fill="#ffacac"/>
    <path id="Trazado_874981" data-name="Trazado 874981" d="M48.574,6.2l4.184,10.441L56.941,6.2H59.13V19H57.442V14.017L57.6,8.638,53.4,19H52.107L47.915,8.664l.167,5.353V19H46.395V6.2ZM65.8,19.176a4.155,4.155,0,0,1-3.146-1.27,4.714,4.714,0,0,1-1.213-3.4v-.3a5.707,5.707,0,0,1,.541-2.527,4.217,4.217,0,0,1,1.512-1.74,3.8,3.8,0,0,1,2.1-.628,3.562,3.562,0,0,1,2.883,1.222,5.289,5.289,0,0,1,1.028,3.5v.677H63.067a3.38,3.38,0,0,0,.822,2.272,2.583,2.583,0,0,0,2,.866,2.832,2.832,0,0,0,1.459-.352,3.666,3.666,0,0,0,1.046-.932l.993.773A3.993,3.993,0,0,1,65.8,19.176Zm-.2-8.525a2.169,2.169,0,0,0-1.652.716,3.482,3.482,0,0,0-.826,2.008h4.764v-.123a3.1,3.1,0,0,0-.668-1.92A2.042,2.042,0,0,0,65.6,10.65Zm7.321,7.022h5.563V19h-7.55V17.8l5.247-6.97H71.013V9.49H78.22v1.151Zm11.065.176a2.342,2.342,0,0,0,1.521-.527A1.855,1.855,0,0,0,86.227,16h1.538a2.949,2.949,0,0,1-.562,1.556,3.7,3.7,0,0,1-1.384,1.178,3.994,3.994,0,0,1-1.833.439,3.918,3.918,0,0,1-3.089-1.3,5.163,5.163,0,0,1-1.147-3.546v-.272a5.725,5.725,0,0,1,.51-2.47,3.883,3.883,0,0,1,1.463-1.679,4.157,4.157,0,0,1,2.254-.6,3.814,3.814,0,0,1,2.659.958,3.424,3.424,0,0,1,1.129,2.487H86.227a2.241,2.241,0,0,0-.7-1.516,2.174,2.174,0,0,0-1.551-.593,2.276,2.276,0,0,0-1.92.892,4.19,4.19,0,0,0-.681,2.58v.308a4.106,4.106,0,0,0,.677,2.531A2.287,2.287,0,0,0,83.985,17.849ZM91.359,19H89.733V5.5h1.626Zm8.473,0a3.416,3.416,0,0,1-.229-1A3.628,3.628,0,0,1,96.9,19.176a3.357,3.357,0,0,1-2.307-.8,2.573,2.573,0,0,1-.9-2.017,2.688,2.688,0,0,1,1.129-2.307A5.325,5.325,0,0,1,98,13.234h1.582v-.747a1.826,1.826,0,0,0-.51-1.358,2.049,2.049,0,0,0-1.5-.505,2.371,2.371,0,0,0-1.459.439,1.3,1.3,0,0,0-.589,1.063H93.882a2.244,2.244,0,0,1,.505-1.375A3.449,3.449,0,0,1,95.758,9.7a4.613,4.613,0,0,1,1.9-.387,3.759,3.759,0,0,1,2.575.822A2.964,2.964,0,0,1,101.2,12.4v4.377a5.351,5.351,0,0,0,.334,2.083V19Zm-2.7-1.239a2.858,2.858,0,0,0,1.45-.4,2.392,2.392,0,0,0,.993-1.028V14.386H98.3q-2.988,0-2.988,1.749a1.48,1.48,0,0,0,.51,1.2A1.959,1.959,0,0,0,97.134,17.761Zm10.679-3.595a5.571,5.571,0,0,1,1.037-3.52,3.529,3.529,0,0,1,5.361-.189V5.5h1.626V19h-1.494l-.079-1.02a3.311,3.311,0,0,1-2.716,1.2,3.248,3.248,0,0,1-2.694-1.354,5.634,5.634,0,0,1-1.042-3.533Zm1.626.185a4.218,4.218,0,0,0,.668,2.531,2.159,2.159,0,0,0,1.846.914,2.372,2.372,0,0,0,2.259-1.389V12.039a2.39,2.39,0,0,0-2.241-1.345,2.17,2.17,0,0,0-1.863.923A4.644,4.644,0,0,0,109.438,14.351Zm12.867,4.825a4.155,4.155,0,0,1-3.146-1.27,4.714,4.714,0,0,1-1.213-3.4v-.3a5.707,5.707,0,0,1,.541-2.527A4.217,4.217,0,0,1,120,9.943a3.8,3.8,0,0,1,2.1-.628,3.562,3.562,0,0,1,2.883,1.222,5.289,5.289,0,0,1,1.028,3.5v.677h-6.442a3.38,3.38,0,0,0,.822,2.272,2.583,2.583,0,0,0,2,.866,2.832,2.832,0,0,0,1.459-.352,3.666,3.666,0,0,0,1.046-.932l.993.773A3.993,3.993,0,0,1,122.306,19.176Zm-.2-8.525a2.169,2.169,0,0,0-1.652.716,3.482,3.482,0,0,0-.826,2.008h4.764v-.123a3.1,3.1,0,0,0-.668-1.92A2.042,2.042,0,0,0,122.1,10.65Zm12.428-1.169-.2,1.063a3.718,3.718,0,0,1,2.892-1.23,2.934,2.934,0,0,1,1.534.413,2.026,2.026,0,0,1,.866,1.116,3.927,3.927,0,0,1,3.155-1.529,2.515,2.515,0,0,1,2.1.958,3.422,3.422,0,0,1,.5,2.479L144.331,19h-1.582l1.037-6.267a3.311,3.311,0,0,0,0-.835q-.167-1.2-1.564-1.222a2.4,2.4,0,0,0-1.578.541,2.5,2.5,0,0,0-.91,1.463L138.653,19h-1.6l1.055-6.258a2.009,2.009,0,0,0-.294-1.5,1.549,1.549,0,0,0-1.27-.545,2.6,2.6,0,0,0-2.364,1.354L132.976,19h-1.591l1.652-9.51ZM152.6,19a2.13,2.13,0,0,1-.062-.5l.026-.5a3.9,3.9,0,0,1-2.777,1.178,2.841,2.841,0,0,1-2.043-.8,2.407,2.407,0,0,1-.716-1.947,2.927,2.927,0,0,1,1.323-2.36,5.631,5.631,0,0,1,3.248-.848l1.661.009.105-.756a1.738,1.738,0,0,0-.33-1.349,1.591,1.591,0,0,0-1.252-.514,2.453,2.453,0,0,0-1.446.4,1.7,1.7,0,0,0-.769,1.1l-1.6.009a2.55,2.55,0,0,1,.65-1.481,3.784,3.784,0,0,1,1.468-1,4.742,4.742,0,0,1,1.854-.338,3.153,3.153,0,0,1,2.312.9,2.794,2.794,0,0,1,.694,2.3l-.773,4.711-.044.677a3.318,3.318,0,0,0,.105.958l-.018.149Zm-2.5-1.23a2.774,2.774,0,0,0,1.446-.365,3.661,3.661,0,0,0,1.173-1.059l.343-1.96-1.2-.009a4.561,4.561,0,0,0-2.3.475,1.748,1.748,0,0,0-.905,1.345,1.361,1.361,0,0,0,.312,1.112A1.486,1.486,0,0,0,150.105,17.77Zm12.182-6.829-.747-.079a2.722,2.722,0,0,0-2.408,1.38L157.963,19h-1.591l1.652-9.51,1.538-.009-.237,1.107A2.843,2.843,0,0,1,161.707,9.3a2.918,2.918,0,0,1,.756.132Zm3.489,3.674-1.248,1.116L163.966,19h-1.591l2.347-13.5h1.591l-1.406,8.068.976-.984,3.375-3.094h2.065l-4.368,4.052L169.96,19h-1.74Zm9.642,4.562a3.429,3.429,0,0,1-2.777-1.31,4.507,4.507,0,0,1-.844-3.261l.044-.378a6.327,6.327,0,0,1,.839-2.584,4.882,4.882,0,0,1,1.683-1.762,3.927,3.927,0,0,1,2.145-.567,3.024,3.024,0,0,1,2.3.976,4.012,4.012,0,0,1,.914,2.549,7.448,7.448,0,0,1-.035,1.143l-.1.729h-6.214a3.212,3.212,0,0,0,.426,2.2,2.019,2.019,0,0,0,1.745.94,3.383,3.383,0,0,0,2.6-1.266l.914.773a4.183,4.183,0,0,1-1.542,1.349A4.371,4.371,0,0,1,175.418,19.176Zm1.011-8.534a2.324,2.324,0,0,0-1.718.668,4.748,4.748,0,0,0-1.165,2.065l4.623.009.035-.141a2.6,2.6,0,0,0-.356-1.841A1.674,1.674,0,0,0,176.429,10.642Zm8.411-3.454-.4,2.3h1.731l-.22,1.257h-1.723l-.993,5.915a2.062,2.062,0,0,0-.009.422.67.67,0,0,0,.747.686,4.556,4.556,0,0,0,.773-.088l-.123,1.327a4.328,4.328,0,0,1-1.16.158,1.661,1.661,0,0,1-1.424-.7,2.7,2.7,0,0,1-.369-1.833l.967-5.889h-1.679l.22-1.257h1.679l.4-2.3ZM188.153,19h-1.582l1.652-9.51h1.582Zm1.31-12.981a.87.87,0,0,1,.672.242.9.9,0,0,1,.268.681.938.938,0,0,1-.94.958.876.876,0,0,1-.677-.237.86.86,0,0,1-.255-.668,1,1,0,0,1,.264-.686A.93.93,0,0,1,189.463,6.019Zm4.447,3.463-.229,1.2A3.749,3.749,0,0,1,196.6,9.314a2.359,2.359,0,0,1,1.986.932,3.619,3.619,0,0,1,.475,2.522L198.023,19h-1.591l1.046-6.251a3.332,3.332,0,0,0,.009-.8,1.314,1.314,0,0,0-1.45-1.255,2.994,2.994,0,0,0-2.514,1.528L192.346,19h-1.591l1.652-9.51Zm7.031,4.746a7.75,7.75,0,0,1,.839-2.7,4.39,4.39,0,0,1,1.529-1.7,3.545,3.545,0,0,1,1.973-.523,2.926,2.926,0,0,1,2.5,1.248L208.1,9.49h1.459L207.973,18.8a4.627,4.627,0,0,1-1.477,2.914,4.159,4.159,0,0,1-3.015,1.042,4.281,4.281,0,0,1-1.85-.457,3.518,3.518,0,0,1-1.393-1.2l.905-.976a2.853,2.853,0,0,0,4.2.677,3.265,3.265,0,0,0,1.042-1.9l.176-.844a3.6,3.6,0,0,1-2.716,1.125A2.8,2.8,0,0,1,202.3,18.7a2.913,2.913,0,0,1-1.015-1.31,5.354,5.354,0,0,1-.4-1.912A9.825,9.825,0,0,1,200.941,14.228Zm1.538.9a3.345,3.345,0,0,0,.435,1.944,1.644,1.644,0,0,0,1.393.724,2.881,2.881,0,0,0,2.452-1.4l.747-4.363a2,2,0,0,0-1.907-1.352,2.468,2.468,0,0,0-2.123,1.053,5.488,5.488,0,0,0-.98,2.941Z" transform="translate(2725 -10018)" fill="#12263f"/>
    <circle id="Elipse_11541-2" data-name="Elipse 11541" cx="24" cy="24" r="24" transform="translate(2660 -10029.775)" fill="#804242"/>
    <path id="Trazado_874982" data-name="Trazado 874982" d="M4.478,0H-4.293V-1.74l4.14-4.412A10.212,10.212,0,0,0,1.107-7.778,2.612,2.612,0,0,0,1.516-9.1a1.955,1.955,0,0,0-.431-1.34,1.555,1.555,0,0,0-1.23-.488,1.677,1.677,0,0,0-1.358.593A2.35,2.35,0,0,0-2-8.771H-4.548a4.2,4.2,0,0,1,.558-2.136,3.934,3.934,0,0,1,1.578-1.516A4.8,4.8,0,0,1-.1-12.973a4.54,4.54,0,0,1,3.072.949A3.358,3.358,0,0,1,4.065-9.343a4.3,4.3,0,0,1-.492,1.934A10.745,10.745,0,0,1,1.885-5.115L-1.024-2.048h5.5Z" transform="translate(2684 -9999.775)" fill="#fff"/>
    <rect id="Rectángulo_401190-3" data-name="Rectángulo 401190" width="315" height="60" rx="30" transform="translate(2695 -9965)" fill="#ffea96"/>
    <path id="Trazado_874980" data-name="Trazado 874980" d="M35.562,15.651H30.2L29,19h-1.74L32.143,6.2H33.62l4.9,12.8H36.784Zm-4.852-1.38h4.351l-2.18-5.985ZM43.8,17.849a2.342,2.342,0,0,0,1.521-.527A1.855,1.855,0,0,0,46.039,16h1.538a2.949,2.949,0,0,1-.562,1.556,3.7,3.7,0,0,1-1.384,1.178,3.994,3.994,0,0,1-1.833.439,3.918,3.918,0,0,1-3.089-1.3,5.163,5.163,0,0,1-1.147-3.546v-.272a5.725,5.725,0,0,1,.51-2.47,3.883,3.883,0,0,1,1.463-1.679,4.157,4.157,0,0,1,2.254-.6,3.814,3.814,0,0,1,2.659.958,3.424,3.424,0,0,1,1.129,2.487H46.039a2.241,2.241,0,0,0-.7-1.516,2.174,2.174,0,0,0-1.551-.593,2.276,2.276,0,0,0-1.92.892,4.19,4.19,0,0,0-.681,2.58v.308a4.106,4.106,0,0,0,.677,2.531A2.287,2.287,0,0,0,43.8,17.849ZM51.611,7.188v2.3h1.775v1.257H51.611v5.9a1.32,1.32,0,0,0,.237.858,1,1,0,0,0,.809.286,3.937,3.937,0,0,0,.773-.105V19a4.742,4.742,0,0,1-1.248.175,2.025,2.025,0,0,1-1.644-.659,2.832,2.832,0,0,1-.554-1.872v-5.9H48.253V9.49h1.731v-2.3ZM57.051,19H55.425V9.49h1.626ZM55.293,6.968a.971.971,0,0,1,.242-.668.907.907,0,0,1,.716-.272.922.922,0,0,1,.721.272.96.96,0,0,1,.246.668.929.929,0,0,1-.246.659.938.938,0,0,1-.721.264.924.924,0,0,1-.716-.264A.938.938,0,0,1,55.293,6.968Zm7.5,9.826,2.355-7.3h1.661L63.4,19H62.158L58.712,9.49h1.661ZM70.138,19H68.512V9.49h1.626ZM68.38,6.968a.971.971,0,0,1,.242-.668.907.907,0,0,1,.716-.272.922.922,0,0,1,.721.272.96.96,0,0,1,.246.668.929.929,0,0,1-.246.659.938.938,0,0,1-.721.264.924.924,0,0,1-.716-.264A.938.938,0,0,1,68.38,6.968Zm3.964,7.2a5.571,5.571,0,0,1,1.037-3.52,3.529,3.529,0,0,1,5.361-.189V5.5h1.626V19H78.875L78.8,17.98a3.311,3.311,0,0,1-2.716,1.2,3.248,3.248,0,0,1-2.694-1.354,5.634,5.634,0,0,1-1.042-3.533Zm1.626.185a4.218,4.218,0,0,0,.668,2.531,2.159,2.159,0,0,0,1.846.914,2.372,2.372,0,0,0,2.259-1.389V12.039A2.39,2.39,0,0,0,76.5,10.694a2.17,2.17,0,0,0-1.863.923A4.644,4.644,0,0,0,73.97,14.351ZM88.762,19a3.416,3.416,0,0,1-.229-1,3.628,3.628,0,0,1-2.707,1.178,3.357,3.357,0,0,1-2.307-.8,2.573,2.573,0,0,1-.9-2.017,2.688,2.688,0,0,1,1.129-2.307,5.325,5.325,0,0,1,3.177-.822h1.582v-.747A1.826,1.826,0,0,0,88,11.129a2.049,2.049,0,0,0-1.5-.505,2.371,2.371,0,0,0-1.459.439,1.3,1.3,0,0,0-.589,1.063H82.812a2.244,2.244,0,0,1,.505-1.375A3.449,3.449,0,0,1,84.688,9.7a4.613,4.613,0,0,1,1.9-.387,3.759,3.759,0,0,1,2.575.822,2.964,2.964,0,0,1,.967,2.263v4.377a5.351,5.351,0,0,0,.334,2.083V19Zm-2.7-1.239a2.858,2.858,0,0,0,1.45-.4,2.392,2.392,0,0,0,.993-1.028V14.386H87.233q-2.988,0-2.988,1.749a1.48,1.48,0,0,0,.51,1.2A1.959,1.959,0,0,0,86.064,17.761Zm6.223-3.595a5.571,5.571,0,0,1,1.037-3.52,3.529,3.529,0,0,1,5.361-.189V5.5h1.626V19H98.817l-.079-1.02a3.311,3.311,0,0,1-2.716,1.2,3.248,3.248,0,0,1-2.694-1.354,5.634,5.634,0,0,1-1.042-3.533Zm1.626.185a4.218,4.218,0,0,0,.668,2.531,2.159,2.159,0,0,0,1.846.914,2.372,2.372,0,0,0,2.259-1.389V12.039a2.39,2.39,0,0,0-2.241-1.345,2.17,2.17,0,0,0-1.863.923A4.644,4.644,0,0,0,93.913,14.351Zm12.867,4.825a4.155,4.155,0,0,1-3.146-1.27,4.714,4.714,0,0,1-1.213-3.4v-.3a5.707,5.707,0,0,1,.541-2.527,4.217,4.217,0,0,1,1.512-1.74,3.8,3.8,0,0,1,2.1-.628,3.562,3.562,0,0,1,2.883,1.222,5.289,5.289,0,0,1,1.028,3.5v.677h-6.442a3.38,3.38,0,0,0,.822,2.272,2.583,2.583,0,0,0,2,.866,2.832,2.832,0,0,0,1.459-.352,3.666,3.666,0,0,0,1.046-.932l.993.773A3.993,3.993,0,0,1,106.78,19.176Zm-.2-8.525a2.169,2.169,0,0,0-1.652.716,3.482,3.482,0,0,0-.826,2.008h4.764v-.123a3.1,3.1,0,0,0-.668-1.92A2.042,2.042,0,0,0,106.578,10.65Zm11.329,5.827a1.2,1.2,0,0,0-.5-1.024,4.78,4.78,0,0,0-1.731-.628,8.186,8.186,0,0,1-1.96-.633,2.788,2.788,0,0,1-1.072-.879A2.1,2.1,0,0,1,112.3,12.1a2.467,2.467,0,0,1,.989-1.978,3.861,3.861,0,0,1,2.527-.809,3.974,3.974,0,0,1,2.624.835,2.652,2.652,0,0,1,1.006,2.136H117.81a1.468,1.468,0,0,0-.567-1.151,2.124,2.124,0,0,0-1.428-.483,2.223,2.223,0,0,0-1.389.387,1.217,1.217,0,0,0-.5,1.011.986.986,0,0,0,.466.888,5.731,5.731,0,0,0,1.683.571,8.77,8.77,0,0,1,1.973.65,2.878,2.878,0,0,1,1.121.91,2.237,2.237,0,0,1,.365,1.3,2.434,2.434,0,0,1-1.02,2.043,4.277,4.277,0,0,1-2.646.769,4.789,4.789,0,0,1-2.021-.4,3.288,3.288,0,0,1-1.375-1.129,2.722,2.722,0,0,1-.5-1.569H113.6a1.683,1.683,0,0,0,.655,1.3,2.54,2.54,0,0,0,1.613.479,2.622,2.622,0,0,0,1.481-.374A1.148,1.148,0,0,0,117.907,16.478Zm7.8-2.312a5.571,5.571,0,0,1,1.037-3.52,3.529,3.529,0,0,1,5.361-.189V5.5h1.626V19h-1.494l-.079-1.02a3.311,3.311,0,0,1-2.716,1.2,3.248,3.248,0,0,1-2.694-1.354,5.634,5.634,0,0,1-1.042-3.533Zm1.626.185a4.218,4.218,0,0,0,.668,2.531,2.159,2.159,0,0,0,1.846.914,2.372,2.372,0,0,0,2.259-1.389V12.039a2.39,2.39,0,0,0-2.241-1.345,2.17,2.17,0,0,0-1.863.923A4.644,4.644,0,0,0,127.337,14.351ZM140.2,19.176a4.155,4.155,0,0,1-3.146-1.27,4.714,4.714,0,0,1-1.213-3.4v-.3a5.707,5.707,0,0,1,.541-2.527,4.217,4.217,0,0,1,1.512-1.74,3.8,3.8,0,0,1,2.1-.628,3.562,3.562,0,0,1,2.883,1.222,5.289,5.289,0,0,1,1.028,3.5v.677h-6.442a3.38,3.38,0,0,0,.822,2.272,2.583,2.583,0,0,0,2,.866,2.832,2.832,0,0,0,1.459-.352,3.666,3.666,0,0,0,1.046-.932l.993.773A3.993,3.993,0,0,1,140.2,19.176ZM140,10.65a2.169,2.169,0,0,0-1.652.716,3.482,3.482,0,0,0-.826,2.008h4.764v-.123a3.1,3.1,0,0,0-.668-1.92A2.042,2.042,0,0,0,140,10.65ZM152.43,9.481l-.2,1.063a3.718,3.718,0,0,1,2.892-1.23,2.934,2.934,0,0,1,1.534.413,2.026,2.026,0,0,1,.866,1.116,3.927,3.927,0,0,1,3.155-1.529,2.515,2.515,0,0,1,2.1.958,3.422,3.422,0,0,1,.5,2.479L162.23,19h-1.582l1.037-6.267a3.311,3.311,0,0,0,0-.835q-.167-1.2-1.564-1.222a2.4,2.4,0,0,0-1.578.541,2.5,2.5,0,0,0-.91,1.463L156.552,19h-1.6l1.055-6.258a2.009,2.009,0,0,0-.294-1.5,1.549,1.549,0,0,0-1.27-.545,2.6,2.6,0,0,0-2.364,1.354L150.875,19h-1.591l1.652-9.51ZM170.5,19a2.13,2.13,0,0,1-.062-.5l.026-.5a3.9,3.9,0,0,1-2.777,1.178,2.841,2.841,0,0,1-2.043-.8,2.407,2.407,0,0,1-.716-1.947,2.927,2.927,0,0,1,1.323-2.36,5.631,5.631,0,0,1,3.248-.848l1.661.009.105-.756a1.738,1.738,0,0,0-.33-1.349,1.591,1.591,0,0,0-1.252-.514,2.453,2.453,0,0,0-1.446.4,1.7,1.7,0,0,0-.769,1.1l-1.6.009a2.55,2.55,0,0,1,.65-1.481,3.784,3.784,0,0,1,1.468-1,4.742,4.742,0,0,1,1.854-.338,3.153,3.153,0,0,1,2.312.9,2.794,2.794,0,0,1,.694,2.3l-.773,4.711-.044.677a3.318,3.318,0,0,0,.105.958l-.018.149ZM168,17.77a2.774,2.774,0,0,0,1.446-.365,3.661,3.661,0,0,0,1.173-1.059l.343-1.96-1.2-.009a4.561,4.561,0,0,0-2.3.475,1.748,1.748,0,0,0-.905,1.345,1.361,1.361,0,0,0,.312,1.112A1.486,1.486,0,0,0,168,17.77Zm12.182-6.829-.747-.079a2.722,2.722,0,0,0-2.408,1.38L175.862,19h-1.591l1.652-9.51,1.538-.009-.237,1.107A2.843,2.843,0,0,1,179.606,9.3a2.918,2.918,0,0,1,.756.132Zm3.489,3.674-1.248,1.116L181.865,19h-1.591l2.347-13.5h1.591l-1.406,8.068.976-.984,3.375-3.094h2.065l-4.368,4.052L187.859,19h-1.74Zm9.642,4.562a3.429,3.429,0,0,1-2.777-1.31,4.507,4.507,0,0,1-.844-3.261l.044-.378a6.327,6.327,0,0,1,.839-2.584,4.882,4.882,0,0,1,1.683-1.762,3.927,3.927,0,0,1,2.145-.567,3.024,3.024,0,0,1,2.3.976,4.012,4.012,0,0,1,.914,2.549,7.448,7.448,0,0,1-.035,1.143l-.1.729h-6.214a3.212,3.212,0,0,0,.426,2.2,2.019,2.019,0,0,0,1.745.94,3.383,3.383,0,0,0,2.6-1.266l.914.773a4.183,4.183,0,0,1-1.542,1.349A4.371,4.371,0,0,1,193.317,19.176Zm1.011-8.534a2.324,2.324,0,0,0-1.718.668,4.748,4.748,0,0,0-1.165,2.065l4.623.009.035-.141a2.6,2.6,0,0,0-.356-1.841A1.674,1.674,0,0,0,194.328,10.642Zm8.411-3.454-.4,2.3h1.731l-.22,1.257h-1.723l-.993,5.915a2.062,2.062,0,0,0-.009.422.67.67,0,0,0,.747.686,4.556,4.556,0,0,0,.773-.088l-.123,1.327a4.328,4.328,0,0,1-1.16.158,1.661,1.661,0,0,1-1.424-.7,2.7,2.7,0,0,1-.369-1.833l.967-5.889h-1.679l.22-1.257h1.679l.4-2.3ZM206.052,19H204.47l1.652-9.51H207.7Zm1.31-12.981a.87.87,0,0,1,.672.242.9.9,0,0,1,.268.681.938.938,0,0,1-.94.958.876.876,0,0,1-.677-.237.86.86,0,0,1-.255-.668,1,1,0,0,1,.264-.686A.93.93,0,0,1,207.362,6.019Zm4.447,3.463-.229,1.2A3.749,3.749,0,0,1,214.5,9.314a2.359,2.359,0,0,1,1.986.932,3.619,3.619,0,0,1,.475,2.522L215.922,19h-1.591l1.046-6.251a3.332,3.332,0,0,0,.009-.8,1.314,1.314,0,0,0-1.45-1.255,2.994,2.994,0,0,0-2.514,1.528L210.245,19h-1.591l1.652-9.51Zm7.031,4.746a7.75,7.75,0,0,1,.839-2.7,4.39,4.39,0,0,1,1.529-1.7,3.545,3.545,0,0,1,1.973-.523,2.926,2.926,0,0,1,2.5,1.248l.316-1.063h1.459L225.872,18.8a4.627,4.627,0,0,1-1.477,2.914,4.159,4.159,0,0,1-3.015,1.042,4.281,4.281,0,0,1-1.85-.457,3.518,3.518,0,0,1-1.393-1.2l.905-.976a2.853,2.853,0,0,0,4.2.677,3.265,3.265,0,0,0,1.042-1.9l.176-.844a3.6,3.6,0,0,1-2.716,1.125A2.8,2.8,0,0,1,220.2,18.7a2.913,2.913,0,0,1-1.015-1.31,5.354,5.354,0,0,1-.4-1.912A9.825,9.825,0,0,1,218.84,14.228Zm1.538.9a3.345,3.345,0,0,0,.435,1.944,1.644,1.644,0,0,0,1.393.724,2.881,2.881,0,0,0,2.452-1.4l.747-4.363a2,2,0,0,0-1.907-1.352,2.468,2.468,0,0,0-2.123,1.053,5.488,5.488,0,0,0-.98,2.941Z" transform="translate(2725 -9947)" fill="#12263f"/>
    <circle id="Elipse_11541-3" data-name="Elipse 11541" cx="24" cy="24" r="24" transform="translate(2660 -9958.775)" fill="#67550c"/>
    <path id="Trazado_874979" data-name="Trazado 874979" d="M-1.709-7.523H-.356a1.907,1.907,0,0,0,1.433-.483A1.771,1.771,0,0,0,1.542-9.29a1.566,1.566,0,0,0-.461-1.2,1.788,1.788,0,0,0-1.27-.431,1.874,1.874,0,0,0-1.222.4A1.279,1.279,0,0,0-1.9-9.483h-2.54a3.124,3.124,0,0,1,.541-1.8,3.6,3.6,0,0,1,1.512-1.244,5.045,5.045,0,0,1,2.14-.448A4.785,4.785,0,0,1,2.931-12,3.314,3.314,0,0,1,4.083-9.325a2.693,2.693,0,0,1-.536,1.617A3.483,3.483,0,0,1,2.14-6.574a3.18,3.18,0,0,1,1.613,1.16,3.147,3.147,0,0,1,.532,1.828A3.369,3.369,0,0,1,3.041-.853,5,5,0,0,1-.25.176,4.741,4.741,0,0,1-3.384-.835,3.3,3.3,0,0,1-4.6-3.507h2.54a1.472,1.472,0,0,0,.541,1.178,1.992,1.992,0,0,0,1.332.457A2,2,0,0,0,1.23-2.351a1.654,1.654,0,0,0,.514-1.27q0-1.916-2.109-1.916H-1.709Z" transform="translate(2684 -9928.775)" fill="#fff"/>
    <rect id="Rectángulo_401190-4" data-name="Rectángulo 401190" width="315" height="60" rx="30" transform="translate(2695 -9894)" fill="#ffacac"/>
    <path id="Trazado_874977" data-name="Trazado 874977" d="M26,19V6.2h3.612a5.815,5.815,0,0,1,2.953.738,4.993,4.993,0,0,1,1.982,2.1,6.837,6.837,0,0,1,.708,3.129v.817a6.861,6.861,0,0,1-.7,3.173,4.915,4.915,0,0,1-2,2.092A6.185,6.185,0,0,1,29.537,19ZM27.683,7.583V17.62h1.775a3.863,3.863,0,0,0,3.037-1.214,5.016,5.016,0,0,0,1.085-3.457V12.2A5.1,5.1,0,0,0,32.556,8.81a3.644,3.644,0,0,0-2.9-1.227ZM41.49,19.176a4.155,4.155,0,0,1-3.146-1.27,4.714,4.714,0,0,1-1.213-3.4v-.3a5.707,5.707,0,0,1,.541-2.527,4.217,4.217,0,0,1,1.512-1.74,3.8,3.8,0,0,1,2.1-.628,3.562,3.562,0,0,1,2.883,1.222,5.289,5.289,0,0,1,1.028,3.5v.677H38.757a3.38,3.38,0,0,0,.822,2.272,2.583,2.583,0,0,0,2,.866,2.832,2.832,0,0,0,1.459-.352,3.666,3.666,0,0,0,1.046-.932l.993.773A3.993,3.993,0,0,1,41.49,19.176Zm-.2-8.525a2.169,2.169,0,0,0-1.652.716,3.482,3.482,0,0,0-.826,2.008h4.764v-.123a3.1,3.1,0,0,0-.668-1.92A2.042,2.042,0,0,0,41.288,10.65ZM47.625,19V10.747h-1.5V9.49h1.5V8.682a3.3,3.3,0,0,1,.91-2.479,3.528,3.528,0,0,1,2.571-.888,7.741,7.741,0,0,1,2.487.536L53.32,7.223a5.634,5.634,0,0,0-2.092-.439,2.047,2.047,0,0,0-1.507.47,1.938,1.938,0,0,0-.461,1.411V9.49H51.2v1.257H49.26V19ZM54.4,19H52.767V9.49H54.4Zm4.184-9.51.053,1.2a3.465,3.465,0,0,1,2.848-1.371q3.015,0,3.041,3.4V19H62.9V12.707a2.189,2.189,0,0,0-.47-1.521,1.884,1.884,0,0,0-1.437-.492,2.347,2.347,0,0,0-1.389.422,2.865,2.865,0,0,0-.932,1.107V19H57.047V9.49ZM68.745,19H67.119V9.49h1.626ZM66.987,6.968a.971.971,0,0,1,.242-.668.907.907,0,0,1,.716-.272.922.922,0,0,1,.721.272.96.96,0,0,1,.246.668.929.929,0,0,1-.246.659.938.938,0,0,1-.721.264.924.924,0,0,1-.716-.264A.938.938,0,0,1,66.987,6.968Zm8.174,10.881a2.342,2.342,0,0,0,1.521-.527A1.855,1.855,0,0,0,77.4,16H78.94a2.949,2.949,0,0,1-.562,1.556,3.7,3.7,0,0,1-1.384,1.178,3.994,3.994,0,0,1-1.833.439,3.918,3.918,0,0,1-3.089-1.3,5.163,5.163,0,0,1-1.147-3.546v-.272a5.725,5.725,0,0,1,.51-2.47A3.883,3.883,0,0,1,72.9,9.912a4.157,4.157,0,0,1,2.254-.6,3.814,3.814,0,0,1,2.659.958A3.424,3.424,0,0,1,78.94,12.76H77.4a2.241,2.241,0,0,0-.7-1.516,2.174,2.174,0,0,0-1.551-.593,2.276,2.276,0,0,0-1.92.892,4.19,4.19,0,0,0-.681,2.58v.308a4.106,4.106,0,0,0,.677,2.531A2.287,2.287,0,0,0,75.161,17.849ZM82.535,19H80.909V9.49h1.626ZM80.777,6.968a.971.971,0,0,1,.242-.668.907.907,0,0,1,.716-.272.922.922,0,0,1,.721.272.96.96,0,0,1,.246.668.929.929,0,0,1-.246.659.938.938,0,0,1-.721.264.924.924,0,0,1-.716-.264A.938.938,0,0,1,80.777,6.968Zm3.929,7.189a5.617,5.617,0,0,1,.549-2.514,4.1,4.1,0,0,1,1.529-1.723,4.163,4.163,0,0,1,2.237-.606,4.01,4.01,0,0,1,3.142,1.345,5.174,5.174,0,0,1,1.2,3.577v.114a5.666,5.666,0,0,1-.532,2.492,4.038,4.038,0,0,1-1.521,1.718,4.211,4.211,0,0,1-2.272.615,4,4,0,0,1-3.133-1.345,5.147,5.147,0,0,1-1.2-3.56Zm1.635.193a4.068,4.068,0,0,0,.734,2.54,2.487,2.487,0,0,0,3.933-.013,4.449,4.449,0,0,0,.729-2.72,4.061,4.061,0,0,0-.743-2.536,2.361,2.361,0,0,0-1.973-.971,2.335,2.335,0,0,0-1.942.958A4.416,4.416,0,0,0,86.341,14.351Zm10.6-4.86.053,1.2a3.465,3.465,0,0,1,2.848-1.371q3.015,0,3.041,3.4V19h-1.626V12.707a2.189,2.189,0,0,0-.47-1.521,1.884,1.884,0,0,0-1.437-.492,2.347,2.347,0,0,0-1.389.422,2.865,2.865,0,0,0-.932,1.107V19H95.4V9.49Zm12.34,9.686a4.155,4.155,0,0,1-3.146-1.27,4.714,4.714,0,0,1-1.213-3.4v-.3a5.707,5.707,0,0,1,.541-2.527,4.217,4.217,0,0,1,1.512-1.74,3.8,3.8,0,0,1,2.1-.628,3.562,3.562,0,0,1,2.883,1.222,5.289,5.289,0,0,1,1.028,3.5v.677h-6.442a3.38,3.38,0,0,0,.822,2.272,2.583,2.583,0,0,0,2,.866,2.832,2.832,0,0,0,1.459-.352,3.666,3.666,0,0,0,1.046-.932l.993.773A3.993,3.993,0,0,1,109.28,19.176Zm-.2-8.525a2.169,2.169,0,0,0-1.652.716,3.482,3.482,0,0,0-.826,2.008h4.764v-.123a3.1,3.1,0,0,0-.668-1.92A2.042,2.042,0,0,0,109.078,10.65Zm11.329,5.827a1.2,1.2,0,0,0-.5-1.024,4.78,4.78,0,0,0-1.731-.628,8.186,8.186,0,0,1-1.96-.633,2.788,2.788,0,0,1-1.072-.879A2.1,2.1,0,0,1,114.8,12.1a2.467,2.467,0,0,1,.989-1.978,3.861,3.861,0,0,1,2.527-.809,3.974,3.974,0,0,1,2.624.835,2.652,2.652,0,0,1,1.006,2.136h-1.635a1.468,1.468,0,0,0-.567-1.151,2.124,2.124,0,0,0-1.428-.483,2.223,2.223,0,0,0-1.389.387,1.217,1.217,0,0,0-.5,1.011.986.986,0,0,0,.466.888,5.731,5.731,0,0,0,1.683.571,8.77,8.77,0,0,1,1.973.65,2.878,2.878,0,0,1,1.121.91,2.237,2.237,0,0,1,.365,1.3,2.434,2.434,0,0,1-1.02,2.043,4.277,4.277,0,0,1-2.646.769,4.789,4.789,0,0,1-2.021-.4,3.288,3.288,0,0,1-1.375-1.129,2.722,2.722,0,0,1-.5-1.569H116.1a1.683,1.683,0,0,0,.655,1.3,2.54,2.54,0,0,0,1.613.479,2.622,2.622,0,0,0,1.481-.374A1.148,1.148,0,0,0,120.407,16.478Zm7.8-2.312a5.571,5.571,0,0,1,1.037-3.52,3.529,3.529,0,0,1,5.361-.189V5.5h1.626V19h-1.494l-.079-1.02a3.311,3.311,0,0,1-2.716,1.2,3.248,3.248,0,0,1-2.694-1.354,5.634,5.634,0,0,1-1.042-3.533Zm1.626.185a4.218,4.218,0,0,0,.668,2.531,2.159,2.159,0,0,0,1.846.914,2.372,2.372,0,0,0,2.259-1.389V12.039a2.39,2.39,0,0,0-2.241-1.345,2.17,2.17,0,0,0-1.863.923A4.644,4.644,0,0,0,129.838,14.351Zm12.867,4.825a4.155,4.155,0,0,1-3.146-1.27,4.714,4.714,0,0,1-1.213-3.4v-.3a5.707,5.707,0,0,1,.541-2.527,4.217,4.217,0,0,1,1.512-1.74,3.8,3.8,0,0,1,2.1-.628,3.562,3.562,0,0,1,2.883,1.222,5.289,5.289,0,0,1,1.028,3.5v.677h-6.442a3.38,3.38,0,0,0,.822,2.272,2.583,2.583,0,0,0,2,.866,2.832,2.832,0,0,0,1.459-.352,3.666,3.666,0,0,0,1.046-.932l.993.773A3.993,3.993,0,0,1,142.705,19.176Zm-.2-8.525a2.169,2.169,0,0,0-1.652.716,3.482,3.482,0,0,0-.826,2.008h4.764v-.123a3.1,3.1,0,0,0-.668-1.92A2.042,2.042,0,0,0,142.5,10.65Zm12.428-1.169-.2,1.063a3.718,3.718,0,0,1,2.892-1.23,2.934,2.934,0,0,1,1.534.413,2.026,2.026,0,0,1,.866,1.116,3.927,3.927,0,0,1,3.155-1.529,2.515,2.515,0,0,1,2.1.958,3.422,3.422,0,0,1,.5,2.479L164.73,19h-1.582l1.037-6.267a3.311,3.311,0,0,0,0-.835q-.167-1.2-1.564-1.222a2.4,2.4,0,0,0-1.578.541,2.5,2.5,0,0,0-.91,1.463L159.053,19h-1.6l1.055-6.258a2.009,2.009,0,0,0-.294-1.5,1.549,1.549,0,0,0-1.27-.545,2.6,2.6,0,0,0-2.364,1.354L153.375,19h-1.591l1.652-9.51ZM173,19a2.13,2.13,0,0,1-.062-.5l.026-.5a3.9,3.9,0,0,1-2.777,1.178,2.841,2.841,0,0,1-2.043-.8,2.407,2.407,0,0,1-.716-1.947,2.927,2.927,0,0,1,1.323-2.36A5.631,5.631,0,0,1,172,13.226l1.661.009.105-.756a1.738,1.738,0,0,0-.33-1.349,1.591,1.591,0,0,0-1.252-.514,2.453,2.453,0,0,0-1.446.4,1.7,1.7,0,0,0-.769,1.1l-1.6.009a2.55,2.55,0,0,1,.65-1.481,3.784,3.784,0,0,1,1.468-1,4.742,4.742,0,0,1,1.854-.338,3.153,3.153,0,0,1,2.312.9,2.794,2.794,0,0,1,.694,2.3l-.773,4.711-.044.677a3.318,3.318,0,0,0,.105.958l-.018.149Zm-2.5-1.23a2.774,2.774,0,0,0,1.446-.365,3.661,3.661,0,0,0,1.173-1.059l.343-1.96-1.2-.009a4.561,4.561,0,0,0-2.3.475,1.748,1.748,0,0,0-.905,1.345,1.361,1.361,0,0,0,.312,1.112A1.486,1.486,0,0,0,170.5,17.77Zm12.182-6.829-.747-.079a2.722,2.722,0,0,0-2.408,1.38L178.362,19h-1.591l1.652-9.51,1.538-.009-.237,1.107A2.843,2.843,0,0,1,182.106,9.3a2.918,2.918,0,0,1,.756.132Zm3.489,3.674-1.248,1.116L184.365,19h-1.591l2.347-13.5h1.591l-1.406,8.068.976-.984,3.375-3.094h2.065l-4.368,4.052L190.359,19h-1.74Zm9.642,4.562a3.429,3.429,0,0,1-2.777-1.31,4.507,4.507,0,0,1-.844-3.261l.044-.378a6.327,6.327,0,0,1,.839-2.584,4.882,4.882,0,0,1,1.683-1.762,3.927,3.927,0,0,1,2.145-.567,3.024,3.024,0,0,1,2.3.976,4.012,4.012,0,0,1,.914,2.549,7.448,7.448,0,0,1-.035,1.143l-.1.729h-6.214a3.212,3.212,0,0,0,.426,2.2,2.019,2.019,0,0,0,1.745.94,3.383,3.383,0,0,0,2.6-1.266l.914.773a4.183,4.183,0,0,1-1.542,1.349A4.371,4.371,0,0,1,195.817,19.176Zm1.011-8.534a2.324,2.324,0,0,0-1.718.668,4.748,4.748,0,0,0-1.165,2.065l4.623.009.035-.141a2.6,2.6,0,0,0-.356-1.841A1.674,1.674,0,0,0,196.828,10.642Zm8.411-3.454-.4,2.3h1.731l-.22,1.257h-1.723l-.993,5.915a2.062,2.062,0,0,0-.009.422.67.67,0,0,0,.747.686,4.556,4.556,0,0,0,.773-.088l-.123,1.327a4.328,4.328,0,0,1-1.16.158,1.661,1.661,0,0,1-1.424-.7,2.7,2.7,0,0,1-.369-1.833l.967-5.889h-1.679l.22-1.257h1.679l.4-2.3ZM208.553,19h-1.582l1.652-9.51h1.582Zm1.31-12.981a.87.87,0,0,1,.672.242.9.9,0,0,1,.268.681.938.938,0,0,1-.94.958.876.876,0,0,1-.677-.237.86.86,0,0,1-.255-.668,1,1,0,0,1,.264-.686A.93.93,0,0,1,209.862,6.019Zm4.447,3.463-.229,1.2A3.749,3.749,0,0,1,217,9.314a2.359,2.359,0,0,1,1.986.932,3.619,3.619,0,0,1,.475,2.522L218.423,19h-1.591l1.046-6.251a3.332,3.332,0,0,0,.009-.8,1.314,1.314,0,0,0-1.45-1.255,2.994,2.994,0,0,0-2.514,1.528L212.745,19h-1.591l1.652-9.51Zm7.031,4.746a7.75,7.75,0,0,1,.839-2.7,4.39,4.39,0,0,1,1.529-1.7,3.545,3.545,0,0,1,1.973-.523,2.926,2.926,0,0,1,2.5,1.248L228.5,9.49h1.459L228.372,18.8a4.627,4.627,0,0,1-1.477,2.914,4.159,4.159,0,0,1-3.015,1.042,4.281,4.281,0,0,1-1.85-.457,3.518,3.518,0,0,1-1.393-1.2l.905-.976a2.853,2.853,0,0,0,4.2.677,3.265,3.265,0,0,0,1.042-1.9l.176-.844a3.6,3.6,0,0,1-2.716,1.125A2.8,2.8,0,0,1,222.7,18.7a2.913,2.913,0,0,1-1.015-1.31,5.354,5.354,0,0,1-.4-1.912A9.825,9.825,0,0,1,221.341,14.228Zm1.538.9a3.345,3.345,0,0,0,.435,1.944,1.644,1.644,0,0,0,1.393.724,2.881,2.881,0,0,0,2.452-1.4l.747-4.363A2,2,0,0,0,226,10.686a2.468,2.468,0,0,0-2.123,1.053,5.488,5.488,0,0,0-.98,2.941Z" transform="translate(2725 -9876)" fill="#12263f"/>
    <circle id="Elipse_11541-4" data-name="Elipse 11541" cx="24" cy="24" r="24" transform="translate(2660 -9887.775)" fill="#804242"/>
    <path id="Trazado_874978" data-name="Trazado 874978" d="M3.221-4.816h1.45v2.048H3.221V0H.681V-2.769H-4.566l-.114-1.6L.655-12.8H3.221Zm-5.37,0H.681V-9.334l-.167.29Z" transform="translate(2684 -9857.775)" fill="#fff"/>
  </g>
</svg>
