<svg id="Grupo_1099930" data-name="Grupo 1099930" xmlns="http://www.w3.org/2000/svg" xmlns:xlink="http://www.w3.org/1999/xlink" width="505" height="287.831" viewBox="0 0 505 287.831">
  <defs>
    <clipPath id="clip-path">
      <rect id="Rectángulo_401669" data-name="Rectángulo 401669" width="505" height="287.831" fill="none"/>
    </clipPath>
    <clipPath id="clip-path-3">
      <rect id="Rectángulo_401518" data-name="Rectángulo 401518" width="477.979" height="268.612" fill="none"/>
    </clipPath>
    <clipPath id="clip-path-5">
      <rect id="Rectángulo_401574" data-name="Rectángulo 401574" width="473.697" height="229.734" fill="none"/>
    </clipPath>
    <clipPath id="clip-path-7">
      <rect id="Rectángulo_401637" data-name="Rectángulo 401637" width="148.554" height="79.92" fill="none"/>
    </clipPath>
  </defs>
  <g id="Grupo_1099929" data-name="Grupo 1099929" clip-path="url(#clip-path)">
    <g id="Grupo_1099898" data-name="Grupo 1099898">
      <g id="Grupo_1099897" data-name="Grupo 1099897" clip-path="url(#clip-path)">
        <path id="Trazado_874151" data-name="Trazado 874151" d="M387.116,13.17S41.226,79.322,26.3,111.5c-7.629,16.449,0,159.122,51.267,162.1,37.278,2.167,288.5,19.239,410.785-8.344,36.99-8.343-12.331-196.072-31.15-219.91S409.83,8.4,387.116,13.17" transform="translate(-6.242 -3.203)" fill="#ffea96"/>
        <g id="Grupo_1099896" data-name="Grupo 1099896" transform="translate(17.534 8.996)" opacity="0.7">
          <g id="Grupo_1099895" data-name="Grupo 1099895">
            <g id="Grupo_1099894" data-name="Grupo 1099894" clip-path="url(#clip-path-3)">
              <path id="Trazado_874152" data-name="Trazado 874152" d="M387.116,13.17S41.226,79.322,26.3,111.5c-7.629,16.449,0,159.122,51.267,162.1,37.278,2.167,288.5,19.239,410.785-8.344,36.99-8.343-12.331-196.072-31.15-219.91S409.83,8.4,387.116,13.17" transform="translate(-23.775 -12.199)" fill="#fff"/>
            </g>
          </g>
        </g>
      </g>
    </g>
    <g id="Grupo_1099903" data-name="Grupo 1099903">
      <g id="Grupo_1099902" data-name="Grupo 1099902" clip-path="url(#clip-path)">
        <g id="Grupo_1099901" data-name="Grupo 1099901" transform="translate(26.843 41.847)" opacity="0.3">
          <g id="Grupo_1099900" data-name="Grupo 1099900">
            <g id="Grupo_1099899" data-name="Grupo 1099899" clip-path="url(#clip-path-5)">
              <rect id="Rectángulo_401520" data-name="Rectángulo 401520" width="21.952" height="8.482" transform="translate(163.51 10.845)" fill="none" stroke="#000" stroke-linecap="round" stroke-linejoin="round" stroke-width="1"/>
              <rect id="Rectángulo_401521" data-name="Rectángulo 401521" width="21.952" height="8.482" transform="translate(187.956 10.845)" fill="none" stroke="#000" stroke-linecap="round" stroke-linejoin="round" stroke-width="1"/>
              <rect id="Rectángulo_401522" data-name="Rectángulo 401522" width="21.952" height="8.481" transform="translate(175.983 0.369)" fill="none" stroke="#000" stroke-linecap="round" stroke-linejoin="round" stroke-width="1"/>
              <rect id="Rectángulo_401523" data-name="Rectángulo 401523" width="21.952" height="8.481" transform="translate(332.139 44.273)" fill="none" stroke="#000" stroke-linecap="round" stroke-linejoin="round" stroke-width="1"/>
              <rect id="Rectángulo_401524" data-name="Rectángulo 401524" width="21.952" height="8.481" transform="translate(356.586 44.273)" fill="none" stroke="#000" stroke-linecap="round" stroke-linejoin="round" stroke-width="1"/>
              <rect id="Rectángulo_401525" data-name="Rectángulo 401525" width="21.952" height="8.482" transform="translate(344.612 33.795)" fill="none" stroke="#000" stroke-linecap="round" stroke-linejoin="round" stroke-width="1"/>
              <rect id="Rectángulo_401526" data-name="Rectángulo 401526" width="21.952" height="8.481" transform="translate(47.265 21.323)" fill="none" stroke="#000" stroke-linecap="round" stroke-linejoin="round" stroke-width="1"/>
              <rect id="Rectángulo_401527" data-name="Rectángulo 401527" width="21.952" height="8.481" transform="translate(71.712 21.323)" fill="none" stroke="#000" stroke-linecap="round" stroke-linejoin="round" stroke-width="1"/>
              <rect id="Rectángulo_401528" data-name="Rectángulo 401528" width="21.952" height="8.482" transform="translate(59.738 10.845)" fill="none" stroke="#000" stroke-linecap="round" stroke-linejoin="round" stroke-width="1"/>
              <rect id="Rectángulo_401529" data-name="Rectángulo 401529" width="21.952" height="8.481" transform="translate(402.983 44.273)" fill="none" stroke="#000" stroke-linecap="round" stroke-linejoin="round" stroke-width="1"/>
              <rect id="Rectángulo_401530" data-name="Rectángulo 401530" width="21.952" height="8.481" transform="translate(427.429 44.273)" fill="none" stroke="#000" stroke-linecap="round" stroke-linejoin="round" stroke-width="1"/>
              <rect id="Rectángulo_401531" data-name="Rectángulo 401531" width="21.952" height="8.482" transform="translate(415.455 33.795)" fill="none" stroke="#000" stroke-linecap="round" stroke-linejoin="round" stroke-width="1"/>
              <rect id="Rectángulo_401532" data-name="Rectángulo 401532" width="21.952" height="8.481" transform="translate(426.931 135.572)" fill="none" stroke="#000" stroke-linecap="round" stroke-linejoin="round" stroke-width="1"/>
              <rect id="Rectángulo_401533" data-name="Rectángulo 401533" width="21.952" height="8.481" transform="translate(451.376 135.572)" fill="none" stroke="#000" stroke-linecap="round" stroke-linejoin="round" stroke-width="1"/>
              <rect id="Rectángulo_401534" data-name="Rectángulo 401534" width="21.952" height="8.482" transform="translate(439.403 125.094)" fill="none" stroke="#000" stroke-linecap="round" stroke-linejoin="round" stroke-width="1"/>
              <rect id="Rectángulo_401535" data-name="Rectángulo 401535" width="21.952" height="8.482" transform="translate(426.931 158.021)" fill="none" stroke="#000" stroke-linecap="round" stroke-linejoin="round" stroke-width="1"/>
              <rect id="Rectángulo_401536" data-name="Rectángulo 401536" width="21.952" height="8.482" transform="translate(451.376 158.021)" fill="none" stroke="#000" stroke-linecap="round" stroke-linejoin="round" stroke-width="1"/>
              <rect id="Rectángulo_401537" data-name="Rectángulo 401537" width="21.952" height="8.482" transform="translate(439.403 147.545)" fill="none" stroke="#000" stroke-linecap="round" stroke-linejoin="round" stroke-width="1"/>
              <rect id="Rectángulo_401538" data-name="Rectángulo 401538" width="21.952" height="8.482" transform="translate(426.931 180.472)" fill="none" stroke="#000" stroke-linecap="round" stroke-linejoin="round" stroke-width="1"/>
              <rect id="Rectángulo_401539" data-name="Rectángulo 401539" width="21.952" height="8.482" transform="translate(451.376 180.472)" fill="none" stroke="#000" stroke-linecap="round" stroke-linejoin="round" stroke-width="1"/>
              <rect id="Rectángulo_401540" data-name="Rectángulo 401540" width="21.952" height="8.482" transform="translate(439.403 169.995)" fill="none" stroke="#000" stroke-linecap="round" stroke-linejoin="round" stroke-width="1"/>
              <rect id="Rectángulo_401541" data-name="Rectángulo 401541" width="21.952" height="8.482" transform="translate(0.369 162.013)" fill="none" stroke="#000" stroke-linecap="round" stroke-linejoin="round" stroke-width="1"/>
              <rect id="Rectángulo_401542" data-name="Rectángulo 401542" width="21.952" height="8.482" transform="translate(24.815 162.013)" fill="none" stroke="#000" stroke-linecap="round" stroke-linejoin="round" stroke-width="1"/>
              <rect id="Rectángulo_401543" data-name="Rectángulo 401543" width="21.952" height="8.482" transform="translate(12.842 151.536)" fill="none" stroke="#000" stroke-linecap="round" stroke-linejoin="round" stroke-width="1"/>
              <rect id="Rectángulo_401544" data-name="Rectángulo 401544" width="21.952" height="8.482" transform="translate(0.369 184.464)" fill="none" stroke="#000" stroke-linecap="round" stroke-linejoin="round" stroke-width="1"/>
              <rect id="Rectángulo_401545" data-name="Rectángulo 401545" width="21.952" height="8.482" transform="translate(24.815 184.464)" fill="none" stroke="#000" stroke-linecap="round" stroke-linejoin="round" stroke-width="1"/>
              <rect id="Rectángulo_401546" data-name="Rectángulo 401546" width="21.952" height="8.482" transform="translate(12.842 173.986)" fill="none" stroke="#000" stroke-linecap="round" stroke-linejoin="round" stroke-width="1"/>
              <rect id="Rectángulo_401547" data-name="Rectángulo 401547" width="21.952" height="8.482" transform="translate(0.369 206.914)" fill="none" stroke="#000" stroke-linecap="round" stroke-linejoin="round" stroke-width="1"/>
              <rect id="Rectángulo_401548" data-name="Rectángulo 401548" width="21.952" height="8.482" transform="translate(24.815 206.914)" fill="none" stroke="#000" stroke-linecap="round" stroke-linejoin="round" stroke-width="1"/>
              <rect id="Rectángulo_401549" data-name="Rectángulo 401549" width="21.952" height="8.482" transform="translate(12.842 196.437)" fill="none" stroke="#000" stroke-linecap="round" stroke-linejoin="round" stroke-width="1"/>
              <rect id="Rectángulo_401550" data-name="Rectángulo 401550" width="21.952" height="8.482" transform="translate(333.137 176.98)" fill="none" stroke="#000" stroke-linecap="round" stroke-linejoin="round" stroke-width="1"/>
              <rect id="Rectángulo_401551" data-name="Rectángulo 401551" width="21.952" height="8.482" transform="translate(357.583 176.98)" fill="none" stroke="#000" stroke-linecap="round" stroke-linejoin="round" stroke-width="1"/>
              <rect id="Rectángulo_401552" data-name="Rectángulo 401552" width="21.952" height="8.482" transform="translate(345.61 166.503)" fill="none" stroke="#000" stroke-linecap="round" stroke-linejoin="round" stroke-width="1"/>
              <rect id="Rectángulo_401553" data-name="Rectángulo 401553" width="21.952" height="8.482" transform="translate(308.691 22.819)" fill="none" stroke="#000" stroke-linecap="round" stroke-linejoin="round" stroke-width="1"/>
              <rect id="Rectángulo_401554" data-name="Rectángulo 401554" width="21.952" height="8.482" transform="translate(333.137 22.819)" fill="none" stroke="#000" stroke-linecap="round" stroke-linejoin="round" stroke-width="1"/>
              <rect id="Rectángulo_401555" data-name="Rectángulo 401555" width="21.952" height="8.481" transform="translate(321.163 12.343)" fill="none" stroke="#000" stroke-linecap="round" stroke-linejoin="round" stroke-width="1"/>
              <rect id="Rectángulo_401556" data-name="Rectángulo 401556" width="21.952" height="8.482" transform="translate(125.094 198.932)" fill="none" stroke="#000" stroke-linecap="round" stroke-linejoin="round" stroke-width="1"/>
              <rect id="Rectángulo_401557" data-name="Rectángulo 401557" width="21.952" height="8.482" transform="translate(149.54 198.932)" fill="none" stroke="#000" stroke-linecap="round" stroke-linejoin="round" stroke-width="1"/>
              <rect id="Rectángulo_401558" data-name="Rectángulo 401558" width="21.952" height="8.481" transform="translate(137.567 188.456)" fill="none" stroke="#000" stroke-linecap="round" stroke-linejoin="round" stroke-width="1"/>
              <rect id="Rectángulo_401559" data-name="Rectángulo 401559" width="21.952" height="8.482" transform="translate(125.094 176.98)" fill="none" stroke="#000" stroke-linecap="round" stroke-linejoin="round" stroke-width="1"/>
              <rect id="Rectángulo_401560" data-name="Rectángulo 401560" width="21.952" height="8.482" transform="translate(149.54 176.98)" fill="none" stroke="#000" stroke-linecap="round" stroke-linejoin="round" stroke-width="1"/>
              <rect id="Rectángulo_401561" data-name="Rectángulo 401561" width="21.952" height="8.482" transform="translate(137.567 166.503)" fill="none" stroke="#000" stroke-linecap="round" stroke-linejoin="round" stroke-width="1"/>
              <rect id="Rectángulo_401562" data-name="Rectángulo 401562" width="21.952" height="8.482" transform="translate(125.094 220.883)" fill="none" stroke="#000" stroke-linecap="round" stroke-linejoin="round" stroke-width="1"/>
              <rect id="Rectángulo_401563" data-name="Rectángulo 401563" width="21.952" height="8.482" transform="translate(149.54 220.883)" fill="none" stroke="#000" stroke-linecap="round" stroke-linejoin="round" stroke-width="1"/>
              <rect id="Rectángulo_401564" data-name="Rectángulo 401564" width="21.952" height="8.482" transform="translate(137.567 210.407)" fill="none" stroke="#000" stroke-linecap="round" stroke-linejoin="round" stroke-width="1"/>
              <rect id="Rectángulo_401565" data-name="Rectángulo 401565" width="21.952" height="8.482" transform="translate(173.987 220.883)" fill="none" stroke="#000" stroke-linecap="round" stroke-linejoin="round" stroke-width="1"/>
              <rect id="Rectángulo_401566" data-name="Rectángulo 401566" width="21.952" height="8.482" transform="translate(198.433 220.883)" fill="none" stroke="#000" stroke-linecap="round" stroke-linejoin="round" stroke-width="1"/>
              <rect id="Rectángulo_401567" data-name="Rectángulo 401567" width="21.952" height="8.482" transform="translate(186.459 210.407)" fill="none" stroke="#000" stroke-linecap="round" stroke-linejoin="round" stroke-width="1"/>
              <rect id="Rectángulo_401568" data-name="Rectángulo 401568" width="21.952" height="8.482" transform="translate(222.879 220.883)" fill="none" stroke="#000" stroke-linecap="round" stroke-linejoin="round" stroke-width="1"/>
              <rect id="Rectángulo_401569" data-name="Rectángulo 401569" width="21.952" height="8.482" transform="translate(247.325 220.883)" fill="none" stroke="#000" stroke-linecap="round" stroke-linejoin="round" stroke-width="1"/>
              <rect id="Rectángulo_401570" data-name="Rectángulo 401570" width="21.952" height="8.482" transform="translate(235.352 210.407)" fill="none" stroke="#000" stroke-linecap="round" stroke-linejoin="round" stroke-width="1"/>
              <rect id="Rectángulo_401571" data-name="Rectángulo 401571" width="21.952" height="8.482" transform="translate(163.51 32.797)" fill="none" stroke="#000" stroke-linecap="round" stroke-linejoin="round" stroke-width="1"/>
              <rect id="Rectángulo_401572" data-name="Rectángulo 401572" width="21.952" height="8.482" transform="translate(187.956 32.797)" fill="none" stroke="#000" stroke-linecap="round" stroke-linejoin="round" stroke-width="1"/>
              <rect id="Rectángulo_401573" data-name="Rectángulo 401573" width="21.952" height="8.481" transform="translate(175.983 22.321)" fill="none" stroke="#000" stroke-linecap="round" stroke-linejoin="round" stroke-width="1"/>
            </g>
          </g>
        </g>
      </g>
    </g>
    <g id="Grupo_1099908" data-name="Grupo 1099908">
      <g id="Grupo_1099907" data-name="Grupo 1099907" clip-path="url(#clip-path)">
        <g id="Grupo_1099906" data-name="Grupo 1099906" transform="translate(251.991 99.112)" opacity="0.3">
          <g id="Grupo_1099905" data-name="Grupo 1099905">
            <g id="Grupo_1099904" data-name="Grupo 1099904" clip-path="url(#clip-path-7)">
              <rect id="Rectángulo_401576" data-name="Rectángulo 401576" width="11.198" height="13.03" transform="translate(6.522 20.772)" fill="#fff"/>
              <rect id="Rectángulo_401577" data-name="Rectángulo 401577" width="11.198" height="13.03" transform="translate(6.522 20.772)" fill="none" stroke="#000" stroke-linecap="round" stroke-linejoin="round" stroke-width="1"/>
              <rect id="Rectángulo_401578" data-name="Rectángulo 401578" width="11.198" height="13.03" transform="translate(19.541 20.772)" fill="#fff"/>
              <rect id="Rectángulo_401579" data-name="Rectángulo 401579" width="11.198" height="13.03" transform="translate(19.541 20.772)" fill="none" stroke="#000" stroke-linecap="round" stroke-linejoin="round" stroke-width="1"/>
              <rect id="Rectángulo_401580" data-name="Rectángulo 401580" width="11.198" height="13.03" transform="translate(32.56 20.772)" fill="#fff"/>
              <rect id="Rectángulo_401581" data-name="Rectángulo 401581" width="11.198" height="13.03" transform="translate(32.56 20.772)" fill="none" stroke="#000" stroke-linecap="round" stroke-linejoin="round" stroke-width="1"/>
              <rect id="Rectángulo_401582" data-name="Rectángulo 401582" width="11.198" height="4.71" transform="translate(6.522 20.772)" fill="#fff"/>
              <rect id="Rectángulo_401583" data-name="Rectángulo 401583" width="11.198" height="4.71" transform="translate(6.522 20.772)" fill="none" stroke="#000" stroke-linecap="round" stroke-linejoin="round" stroke-width="1"/>
              <rect id="Rectángulo_401584" data-name="Rectángulo 401584" width="11.198" height="4.71" transform="translate(19.541 20.772)" fill="#fff"/>
              <rect id="Rectángulo_401585" data-name="Rectángulo 401585" width="11.198" height="4.71" transform="translate(19.541 20.772)" fill="none" stroke="#000" stroke-linecap="round" stroke-linejoin="round" stroke-width="1"/>
              <rect id="Rectángulo_401586" data-name="Rectángulo 401586" width="11.198" height="4.71" transform="translate(32.56 20.772)" fill="#fff"/>
              <rect id="Rectángulo_401587" data-name="Rectángulo 401587" width="11.198" height="4.71" transform="translate(32.56 20.772)" fill="none" stroke="#000" stroke-linecap="round" stroke-linejoin="round" stroke-width="1"/>
              <rect id="Rectángulo_401588" data-name="Rectángulo 401588" width="11.198" height="13.03" transform="translate(21.773 63.849)" fill="#fff"/>
              <rect id="Rectángulo_401589" data-name="Rectángulo 401589" width="11.198" height="13.03" transform="translate(21.773 63.849)" fill="none" stroke="#000" stroke-linecap="round" stroke-linejoin="round" stroke-width="1"/>
              <rect id="Rectángulo_401590" data-name="Rectángulo 401590" width="11.198" height="13.03" transform="translate(34.792 63.849)" fill="#fff"/>
              <rect id="Rectángulo_401591" data-name="Rectángulo 401591" width="11.198" height="13.03" transform="translate(34.792 63.849)" fill="none" stroke="#000" stroke-linecap="round" stroke-linejoin="round" stroke-width="1"/>
              <rect id="Rectángulo_401592" data-name="Rectángulo 401592" width="11.198" height="13.03" transform="translate(47.811 63.849)" fill="#fff"/>
              <rect id="Rectángulo_401593" data-name="Rectángulo 401593" width="11.198" height="13.03" transform="translate(47.811 63.849)" fill="none" stroke="#000" stroke-linecap="round" stroke-linejoin="round" stroke-width="1"/>
              <rect id="Rectángulo_401594" data-name="Rectángulo 401594" width="11.198" height="4.71" transform="translate(21.773 63.849)" fill="#fff"/>
              <rect id="Rectángulo_401595" data-name="Rectángulo 401595" width="11.198" height="4.71" transform="translate(21.773 63.849)" fill="none" stroke="#000" stroke-linecap="round" stroke-linejoin="round" stroke-width="1"/>
              <rect id="Rectángulo_401596" data-name="Rectángulo 401596" width="11.198" height="4.71" transform="translate(34.792 63.849)" fill="#fff"/>
              <rect id="Rectángulo_401597" data-name="Rectángulo 401597" width="11.198" height="4.71" transform="translate(34.792 63.849)" fill="none" stroke="#000" stroke-linecap="round" stroke-linejoin="round" stroke-width="1"/>
              <rect id="Rectángulo_401598" data-name="Rectángulo 401598" width="11.198" height="4.71" transform="translate(47.811 63.849)" fill="#fff"/>
              <rect id="Rectángulo_401599" data-name="Rectángulo 401599" width="11.198" height="4.71" transform="translate(47.811 63.849)" fill="none" stroke="#000" stroke-linecap="round" stroke-linejoin="round" stroke-width="1"/>
              <rect id="Rectángulo_401600" data-name="Rectángulo 401600" width="11.198" height="13.03" transform="translate(54.899 20.772)" fill="#fff"/>
              <rect id="Rectángulo_401601" data-name="Rectángulo 401601" width="11.198" height="13.03" transform="translate(54.899 20.772)" fill="none" stroke="#000" stroke-linecap="round" stroke-linejoin="round" stroke-width="1"/>
              <rect id="Rectángulo_401602" data-name="Rectángulo 401602" width="11.198" height="13.03" transform="translate(67.917 20.772)" fill="#fff"/>
              <rect id="Rectángulo_401603" data-name="Rectángulo 401603" width="11.198" height="13.03" transform="translate(67.917 20.772)" fill="none" stroke="#000" stroke-linecap="round" stroke-linejoin="round" stroke-width="1"/>
              <rect id="Rectángulo_401604" data-name="Rectángulo 401604" width="11.198" height="13.03" transform="translate(80.937 20.772)" fill="#fff"/>
              <rect id="Rectángulo_401605" data-name="Rectángulo 401605" width="11.198" height="13.03" transform="translate(80.937 20.772)" fill="none" stroke="#000" stroke-linecap="round" stroke-linejoin="round" stroke-width="1"/>
              <rect id="Rectángulo_401606" data-name="Rectángulo 401606" width="11.198" height="4.71" transform="translate(54.899 20.772)" fill="#fff"/>
              <rect id="Rectángulo_401607" data-name="Rectángulo 401607" width="11.198" height="4.71" transform="translate(54.899 20.772)" fill="none" stroke="#000" stroke-linecap="round" stroke-linejoin="round" stroke-width="1"/>
              <rect id="Rectángulo_401608" data-name="Rectángulo 401608" width="11.198" height="4.71" transform="translate(67.917 20.772)" fill="#fff"/>
              <rect id="Rectángulo_401609" data-name="Rectángulo 401609" width="11.198" height="4.71" transform="translate(67.917 20.772)" fill="none" stroke="#000" stroke-linecap="round" stroke-linejoin="round" stroke-width="1"/>
              <rect id="Rectángulo_401610" data-name="Rectángulo 401610" width="11.198" height="4.71" transform="translate(80.937 20.772)" fill="#fff"/>
              <rect id="Rectángulo_401611" data-name="Rectángulo 401611" width="11.198" height="4.71" transform="translate(80.937 20.772)" fill="none" stroke="#000" stroke-linecap="round" stroke-linejoin="round" stroke-width="1"/>
              <rect id="Rectángulo_401612" data-name="Rectángulo 401612" width="11.198" height="13.03" transform="translate(104.283 20.772)" fill="#fff"/>
              <rect id="Rectángulo_401613" data-name="Rectángulo 401613" width="11.198" height="13.03" transform="translate(104.283 20.772)" fill="none" stroke="#000" stroke-linecap="round" stroke-linejoin="round" stroke-width="1"/>
              <rect id="Rectángulo_401614" data-name="Rectángulo 401614" width="11.198" height="13.03" transform="translate(117.302 20.772)" fill="#fff"/>
              <rect id="Rectángulo_401615" data-name="Rectángulo 401615" width="11.198" height="13.03" transform="translate(117.302 20.772)" fill="none" stroke="#000" stroke-linecap="round" stroke-linejoin="round" stroke-width="1"/>
              <rect id="Rectángulo_401616" data-name="Rectángulo 401616" width="11.198" height="13.03" transform="translate(130.322 20.772)" fill="#fff"/>
              <rect id="Rectángulo_401617" data-name="Rectángulo 401617" width="11.198" height="13.03" transform="translate(130.322 20.772)" fill="none" stroke="#000" stroke-linecap="round" stroke-linejoin="round" stroke-width="1"/>
              <rect id="Rectángulo_401618" data-name="Rectángulo 401618" width="11.198" height="4.71" transform="translate(104.283 20.772)" fill="#fff"/>
              <rect id="Rectángulo_401619" data-name="Rectángulo 401619" width="11.198" height="4.71" transform="translate(104.283 20.772)" fill="none" stroke="#000" stroke-linecap="round" stroke-linejoin="round" stroke-width="1"/>
              <rect id="Rectángulo_401620" data-name="Rectángulo 401620" width="11.198" height="4.71" transform="translate(117.302 20.772)" fill="#fff"/>
              <rect id="Rectángulo_401621" data-name="Rectángulo 401621" width="11.198" height="4.71" transform="translate(117.302 20.772)" fill="none" stroke="#000" stroke-linecap="round" stroke-linejoin="round" stroke-width="1"/>
              <rect id="Rectángulo_401622" data-name="Rectángulo 401622" width="11.198" height="4.71" transform="translate(130.322 20.772)" fill="#fff"/>
              <rect id="Rectángulo_401623" data-name="Rectángulo 401623" width="11.198" height="4.71" transform="translate(130.322 20.772)" fill="none" stroke="#000" stroke-linecap="round" stroke-linejoin="round" stroke-width="1"/>
              <path id="Trazado_874153" data-name="Trazado 874153" d="M522.893,199.853V189.087h-4.257v10.766l-3.53,5.4V226.6h11.317V205.254Z" transform="translate(-387.218 -148.752)" fill="#fff"/>
              <path id="Trazado_874154" data-name="Trazado 874154" d="M522.893,199.853V189.087h-4.257v10.766l-3.53,5.4V226.6h11.317V205.254Z" transform="translate(-387.218 -148.752)" fill="none" stroke="#000" stroke-linecap="round" stroke-linejoin="round" stroke-width="1"/>
              <rect id="Rectángulo_401624" data-name="Rectángulo 401624" width="4.257" height="5.621" transform="translate(131.417 40.336)" fill="#fff"/>
              <rect id="Rectángulo_401625" data-name="Rectángulo 401625" width="4.257" height="5.621" transform="translate(131.417 40.336)" fill="none" stroke="#000" stroke-linecap="round" stroke-linejoin="round" stroke-width="1"/>
              <rect id="Rectángulo_401626" data-name="Rectángulo 401626" width="8.745" height="9.002" transform="translate(127.887 61.904)" fill="#fff"/>
              <rect id="Rectángulo_401627" data-name="Rectángulo 401627" width="8.745" height="9.002" transform="translate(127.887 61.904)" fill="none" stroke="#000" stroke-linecap="round" stroke-linejoin="round" stroke-width="1"/>
              <path id="Trazado_874155" data-name="Trazado 874155" d="M503.013,199.853V189.087h-4.257v10.766l-3.53,5.4V226.6h11.317V205.254Z" transform="translate(-381.999 -148.752)" fill="#fff"/>
              <path id="Trazado_874156" data-name="Trazado 874156" d="M503.013,199.853V189.087h-4.257v10.766l-3.53,5.4V226.6h11.317V205.254Z" transform="translate(-381.999 -148.752)" fill="none" stroke="#000" stroke-linecap="round" stroke-linejoin="round" stroke-width="1"/>
              <rect id="Rectángulo_401628" data-name="Rectángulo 401628" width="4.257" height="5.621" transform="translate(116.756 40.336)" fill="#fff"/>
              <rect id="Rectángulo_401629" data-name="Rectángulo 401629" width="4.257" height="5.621" transform="translate(116.756 40.336)" fill="none" stroke="#000" stroke-linecap="round" stroke-linejoin="round" stroke-width="1"/>
              <rect id="Rectángulo_401630" data-name="Rectángulo 401630" width="8.745" height="9.002" transform="translate(113.226 61.904)" fill="#fff"/>
              <rect id="Rectángulo_401631" data-name="Rectángulo 401631" width="8.745" height="9.002" transform="translate(113.226 61.904)" fill="none" stroke="#000" stroke-linecap="round" stroke-linejoin="round" stroke-width="1"/>
              <path id="Trazado_874157" data-name="Trazado 874157" d="M360.587,199.853V189.087H356.33v10.766l-3.53,5.4V226.6h11.317V205.254Z" transform="translate(-344.609 -148.752)" fill="#fff"/>
              <path id="Trazado_874158" data-name="Trazado 874158" d="M360.587,199.853V189.087H356.33v10.766l-3.53,5.4V226.6h11.317V205.254Z" transform="translate(-344.609 -148.752)" fill="none" stroke="#000" stroke-linecap="round" stroke-linejoin="round" stroke-width="1"/>
              <rect id="Rectángulo_401632" data-name="Rectángulo 401632" width="4.257" height="5.621" transform="translate(11.721 40.336)" fill="#fff"/>
              <rect id="Rectángulo_401633" data-name="Rectángulo 401633" width="4.257" height="5.621" transform="translate(11.721 40.336)" fill="none" stroke="#000" stroke-linecap="round" stroke-linejoin="round" stroke-width="1"/>
              <rect id="Rectángulo_401634" data-name="Rectángulo 401634" width="8.745" height="9.002" transform="translate(8.19 61.904)" fill="#fff"/>
              <rect id="Rectángulo_401635" data-name="Rectángulo 401635" width="8.745" height="9.002" transform="translate(8.19 61.904)" fill="none" stroke="#000" stroke-linecap="round" stroke-linejoin="round" stroke-width="1"/>
              <line id="Línea_3219" data-name="Línea 3219" x2="144.382" transform="translate(1.684 34.293)" fill="none" stroke="#000" stroke-linecap="round" stroke-linejoin="round" stroke-width="4"/>
              <line id="Línea_3220" data-name="Línea 3220" y2="75.63" transform="translate(49.375 2.731)" fill="none" stroke="#000" stroke-linecap="round" stroke-linejoin="round" stroke-width="4"/>
              <line id="Línea_3221" data-name="Línea 3221" y2="75.63" transform="translate(99.335 2.731)" fill="none" stroke="#000" stroke-linecap="round" stroke-linejoin="round" stroke-width="4"/>
              <rect id="Rectángulo_401636" data-name="Rectángulo 401636" width="145.605" height="76.971" transform="translate(1.475 1.474)" fill="none" stroke="#000" stroke-linecap="round" stroke-linejoin="round" stroke-width="4"/>
            </g>
          </g>
        </g>
      </g>
    </g>
    <rect id="Rectángulo_401639" data-name="Rectángulo 401639" width="186.894" height="105.321" transform="translate(61.764 85.76)" fill="none" stroke="#929292" stroke-miterlimit="10" stroke-width="1"/>
    <rect id="Rectángulo_401640" data-name="Rectángulo 401640" width="174.865" height="96.247" transform="translate(67.779 90.298)" fill="#929292"/>
    <line id="Línea_3222" data-name="Línea 3222" x2="27.641" transform="translate(76.714 114.735)" fill="none" stroke="#fff" stroke-linecap="round" stroke-linejoin="round" stroke-width="1"/>
    <line id="Línea_3223" data-name="Línea 3223" x2="27.641" transform="translate(76.714 126.649)" fill="none" stroke="#fff" stroke-linecap="round" stroke-linejoin="round" stroke-width="1"/>
    <line id="Línea_3224" data-name="Línea 3224" x2="27.641" transform="translate(76.714 138.563)" fill="none" stroke="#fff" stroke-linecap="round" stroke-linejoin="round" stroke-width="1"/>
    <line id="Línea_3225" data-name="Línea 3225" x2="27.641" transform="translate(76.714 150.477)" fill="none" stroke="#fff" stroke-linecap="round" stroke-linejoin="round" stroke-width="1"/>
    <line id="Línea_3226" data-name="Línea 3226" x2="27.641" transform="translate(76.714 162.391)" fill="none" stroke="#fff" stroke-linecap="round" stroke-linejoin="round" stroke-width="1"/>
    <line id="Línea_3227" data-name="Línea 3227" x2="27.641" transform="translate(76.714 174.305)" fill="none" stroke="#fff" stroke-linecap="round" stroke-linejoin="round" stroke-width="1"/>
    <line id="Línea_3228" data-name="Línea 3228" x2="27.641" transform="translate(110.131 114.735)" fill="none" stroke="#fff" stroke-linecap="round" stroke-linejoin="round" stroke-width="1"/>
    <line id="Línea_3229" data-name="Línea 3229" x2="27.641" transform="translate(110.131 126.649)" fill="none" stroke="#fff" stroke-linecap="round" stroke-linejoin="round" stroke-width="1"/>
    <line id="Línea_3230" data-name="Línea 3230" x2="27.641" transform="translate(110.131 138.563)" fill="none" stroke="#fff" stroke-linecap="round" stroke-linejoin="round" stroke-width="1"/>
    <line id="Línea_3231" data-name="Línea 3231" x2="27.641" transform="translate(110.131 150.477)" fill="none" stroke="#fff" stroke-linecap="round" stroke-linejoin="round" stroke-width="1"/>
    <line id="Línea_3232" data-name="Línea 3232" x2="27.641" transform="translate(110.131 162.391)" fill="none" stroke="#fff" stroke-linecap="round" stroke-linejoin="round" stroke-width="1"/>
    <line id="Línea_3233" data-name="Línea 3233" x2="27.641" transform="translate(110.131 174.305)" fill="none" stroke="#fff" stroke-linecap="round" stroke-linejoin="round" stroke-width="1"/>
    <line id="Línea_3234" data-name="Línea 3234" x2="27.641" transform="translate(142.56 114.735)" fill="none" stroke="#fff" stroke-linecap="round" stroke-linejoin="round" stroke-width="1"/>
    <line id="Línea_3235" data-name="Línea 3235" x2="27.641" transform="translate(142.56 126.649)" fill="none" stroke="#fff" stroke-linecap="round" stroke-linejoin="round" stroke-width="1"/>
    <line id="Línea_3236" data-name="Línea 3236" x2="27.641" transform="translate(142.56 138.563)" fill="none" stroke="#fff" stroke-linecap="round" stroke-linejoin="round" stroke-width="1"/>
    <line id="Línea_3237" data-name="Línea 3237" x2="27.641" transform="translate(142.56 150.477)" fill="none" stroke="#fff" stroke-linecap="round" stroke-linejoin="round" stroke-width="1"/>
    <line id="Línea_3238" data-name="Línea 3238" x2="27.641" transform="translate(142.56 162.391)" fill="none" stroke="#fff" stroke-linecap="round" stroke-linejoin="round" stroke-width="1"/>
    <line id="Línea_3239" data-name="Línea 3239" x2="27.641" transform="translate(142.56 174.305)" fill="none" stroke="#fff" stroke-linecap="round" stroke-linejoin="round" stroke-width="1"/>
    <line id="Línea_3240" data-name="Línea 3240" x2="27.641" transform="translate(174.989 114.735)" fill="none" stroke="#fff" stroke-linecap="round" stroke-linejoin="round" stroke-width="1"/>
    <line id="Línea_3241" data-name="Línea 3241" x2="27.641" transform="translate(174.989 126.649)" fill="none" stroke="#fff" stroke-linecap="round" stroke-linejoin="round" stroke-width="1"/>
    <line id="Línea_3242" data-name="Línea 3242" x2="27.641" transform="translate(174.989 138.563)" fill="none" stroke="#fff" stroke-linecap="round" stroke-linejoin="round" stroke-width="1"/>
    <line id="Línea_3243" data-name="Línea 3243" x2="27.641" transform="translate(174.989 150.477)" fill="none" stroke="#fff" stroke-linecap="round" stroke-linejoin="round" stroke-width="1"/>
    <line id="Línea_3244" data-name="Línea 3244" x2="27.641" transform="translate(174.989 162.391)" fill="none" stroke="#fff" stroke-linecap="round" stroke-linejoin="round" stroke-width="1"/>
    <line id="Línea_3245" data-name="Línea 3245" x2="27.641" transform="translate(174.989 174.305)" fill="none" stroke="#fff" stroke-linecap="round" stroke-linejoin="round" stroke-width="1"/>
    <line id="Línea_3246" data-name="Línea 3246" x2="27.641" transform="translate(207.417 114.735)" fill="none" stroke="#fff" stroke-linecap="round" stroke-linejoin="round" stroke-width="1"/>
    <line id="Línea_3247" data-name="Línea 3247" x2="27.641" transform="translate(207.417 126.649)" fill="none" stroke="#fff" stroke-linecap="round" stroke-linejoin="round" stroke-width="1"/>
    <line id="Línea_3248" data-name="Línea 3248" x2="27.641" transform="translate(207.417 138.563)" fill="none" stroke="#fff" stroke-linecap="round" stroke-linejoin="round" stroke-width="1"/>
    <line id="Línea_3249" data-name="Línea 3249" x2="27.641" transform="translate(207.417 150.477)" fill="none" stroke="#fff" stroke-linecap="round" stroke-linejoin="round" stroke-width="1"/>
    <line id="Línea_3250" data-name="Línea 3250" x2="27.641" transform="translate(207.417 162.391)" fill="none" stroke="#fff" stroke-linecap="round" stroke-linejoin="round" stroke-width="1"/>
    <line id="Línea_3251" data-name="Línea 3251" x2="27.641" transform="translate(207.417 174.305)" fill="none" stroke="#fff" stroke-linecap="round" stroke-linejoin="round" stroke-width="1"/>
    <g id="Grupo_1099910" data-name="Grupo 1099910">
      <g id="Grupo_1099909" data-name="Grupo 1099909" clip-path="url(#clip-path)">
        <path id="Trazado_874159" data-name="Trazado 874159" d="M191.269,141.53a3.5,3.5,0,0,1-1.916-.457,2.409,2.409,0,0,1-.988-1.271,5.761,5.761,0,0,1-.282-1.889V134a5.951,5.951,0,0,1,.282-1.943,2.348,2.348,0,0,1,.988-1.257,3.579,3.579,0,0,1,1.916-.443,3.644,3.644,0,0,1,1.836.389,2.143,2.143,0,0,1,.941,1.1,4.574,4.574,0,0,1,.276,1.654v.914H192.17V133.4a5.741,5.741,0,0,0-.041-.706.979.979,0,0,0-.222-.538.793.793,0,0,0-.625-.209.849.849,0,0,0-.645.215,1.016,1.016,0,0,0-.256.558,4.893,4.893,0,0,0-.054.76v4.948a3.82,3.82,0,0,0,.074.8.933.933,0,0,0,.282.524.886.886,0,0,0,.6.181.777.777,0,0,0,.611-.208,1.045,1.045,0,0,0,.229-.558,5.617,5.617,0,0,0,.047-.74v-1.062h2.151v.9a4.886,4.886,0,0,1-.269,1.687,2.277,2.277,0,0,1-.928,1.156,3.425,3.425,0,0,1-1.855.423" transform="translate(-49.376 -34.222)" fill="#fff"/>
        <path id="Trazado_874160" data-name="Trazado 874160" d="M200.621,142.626a3.093,3.093,0,0,1-1.425-.3,2.016,2.016,0,0,1-.894-.881,3.08,3.08,0,0,1-.3-1.438v-2.8a3.084,3.084,0,0,1,.3-1.438,2.016,2.016,0,0,1,.894-.881,3.51,3.51,0,0,1,2.85,0,2.059,2.059,0,0,1,.9.881,3.029,3.029,0,0,1,.309,1.438v2.8a3.025,3.025,0,0,1-.309,1.438,2.059,2.059,0,0,1-.9.881,3.1,3.1,0,0,1-1.426.3m.014-1.371a.514.514,0,0,0,.389-.141.718.718,0,0,0,.176-.39,3.649,3.649,0,0,0,.04-.572v-3.079a3.619,3.619,0,0,0-.04-.578.744.744,0,0,0-.176-.389.586.586,0,0,0-.78,0,.792.792,0,0,0-.181.389,3.046,3.046,0,0,0-.047.578v3.079a3.071,3.071,0,0,0,.047.572.761.761,0,0,0,.181.39.515.515,0,0,0,.39.141" transform="translate(-51.979 -35.332)" fill="#fff"/>
        <path id="Trazado_874161" data-name="Trazado 874161" d="M206.947,141.535v-6.387h-.779v-1.385h.779v-.538a4.57,4.57,0,0,1,.142-1.21,1.34,1.34,0,0,1,.572-.793,2.433,2.433,0,0,1,1.317-.282c.18,0,.347,0,.5.013s.333.027.531.054v1.506c-.072-.018-.15-.034-.235-.047a1.609,1.609,0,0,0-.249-.02.5.5,0,0,0-.417.168.844.844,0,0,0-.135.531v.618h1.035v1.385h-1.035v6.387Zm3.805,0v-6.387h-.78v-1.385h.78v-.538a4.573,4.573,0,0,1,.141-1.21,1.343,1.343,0,0,1,.572-.793,2.436,2.436,0,0,1,1.318-.282q.269,0,.5.013t.531.054v1.506c-.072-.018-.15-.034-.236-.047a1.6,1.6,0,0,0-.248-.02.5.5,0,0,0-.417.168.845.845,0,0,0-.134.531v.618h1.035v1.385h-1.035v6.387Z" transform="translate(-54.124 -34.375)" fill="#fff"/>
        <path id="Trazado_874162" data-name="Trazado 874162" d="M220.078,142.626a2.963,2.963,0,0,1-1.438-.316,2.033,2.033,0,0,1-.874-.927,3.354,3.354,0,0,1-.3-1.473V137.3a3.329,3.329,0,0,1,.3-1.485,2.035,2.035,0,0,1,.887-.914,2.981,2.981,0,0,1,1.425-.316,2.826,2.826,0,0,1,1.439.322,1.934,1.934,0,0,1,.813.941,3.859,3.859,0,0,1,.263,1.506v1.358h-3.12v1.507a1.721,1.721,0,0,0,.074.551.562.562,0,0,0,.209.3.6.6,0,0,0,.336.088.611.611,0,0,0,.33-.088.51.51,0,0,0,.209-.276,1.525,1.525,0,0,0,.067-.5v-.74h1.882v.646a2.38,2.38,0,0,1-.645,1.8,2.577,2.577,0,0,1-1.855.619m-.6-4.881H220.7v-.766a1.832,1.832,0,0,0-.067-.544.517.517,0,0,0-.209-.3.666.666,0,0,0-.356-.087.544.544,0,0,0-.33.094.6.6,0,0,0-.195.329,2.545,2.545,0,0,0-.067.666Z" transform="translate(-57.091 -35.332)" fill="#fff"/>
        <path id="Trazado_874163" data-name="Trazado 874163" d="M228.464,142.626a2.963,2.963,0,0,1-1.438-.316,2.033,2.033,0,0,1-.874-.927,3.354,3.354,0,0,1-.3-1.473V137.3a3.329,3.329,0,0,1,.3-1.485,2.034,2.034,0,0,1,.887-.914,2.981,2.981,0,0,1,1.425-.316,2.823,2.823,0,0,1,1.439.322,1.934,1.934,0,0,1,.813.941,3.86,3.86,0,0,1,.262,1.506v1.358H227.86v1.507a1.721,1.721,0,0,0,.074.551.562.562,0,0,0,.209.3.6.6,0,0,0,.336.088.611.611,0,0,0,.33-.088.51.51,0,0,0,.209-.276,1.525,1.525,0,0,0,.067-.5v-.74h1.882v.646a2.38,2.38,0,0,1-.645,1.8,2.577,2.577,0,0,1-1.855.619m-.6-4.881h1.223v-.766a1.832,1.832,0,0,0-.067-.544.517.517,0,0,0-.209-.3.666.666,0,0,0-.356-.087.544.544,0,0,0-.33.094.6.6,0,0,0-.195.329,2.545,2.545,0,0,0-.067.666Z" transform="translate(-59.292 -35.332)" fill="#fff"/>
        <path id="Trazado_874164" data-name="Trazado 874164" d="M246.126,138.275c-3.971,3.351-7.09-1.4-2.549-3.057,3.738-1.367,7.532,1.327,10.9,2.615,3.871,1.481,8.592,3.071,12.717,1.7,3.066-1.021,3.771-4.437.908-6.266-2.764-1.765-7.763,1.583-4.668,4.26" transform="translate(-63.355 -34.855)" fill="none" stroke="#fff" stroke-miterlimit="10" stroke-width="1"/>
        <path id="Trazado_874165" data-name="Trazado 874165" d="M281.16,141.648s8.025-7.022,8.527-3.762-8.527,3.762-8.527,3.762" transform="translate(-73.811 -35.972)" fill="#fff"/>
        <path id="Trazado_874166" data-name="Trazado 874166" d="M279.459,145.335s9.029,1.755,6.27,3.01-6.27-3.01-6.27-3.01" transform="translate(-73.364 -38.154)" fill="#fff"/>
        <path id="Trazado_874167" data-name="Trazado 874167" d="M165.9,138.275c3.971,3.351,7.09-1.4,2.549-3.057-3.738-1.367-7.532,1.327-10.9,2.615-3.871,1.481-8.592,3.071-12.717,1.7-3.066-1.021-3.771-4.437-.908-6.266,2.764-1.765,7.763,1.583,4.668,4.26" transform="translate(-37.309 -34.855)" fill="none" stroke="#fff" stroke-miterlimit="10" stroke-width="1"/>
        <path id="Trazado_874168" data-name="Trazado 874168" d="M138,141.648s-8.025-7.022-8.527-3.762S138,141.648,138,141.648" transform="translate(-33.983 -35.972)" fill="#fff"/>
        <path id="Trazado_874169" data-name="Trazado 874169" d="M140.32,145.335s-9.028,1.755-6.27,3.01,6.27-3.01,6.27-3.01" transform="translate(-35.054 -38.154)" fill="#fff"/>
      </g>
    </g>
    <g id="Grupo_1099912" data-name="Grupo 1099912">
      <g id="Grupo_1099911" data-name="Grupo 1099911" clip-path="url(#clip-path)">
        <line id="Línea_3252" data-name="Línea 3252" y1="37" transform="translate(420.462 0.369)" fill="none" stroke="#263238" stroke-linecap="round" stroke-linejoin="round" stroke-width="1"/>
        <path id="Trazado_874170" data-name="Trazado 874170" d="M574.439,73.61a6.68,6.68,0,1,1-6.682-6.681,6.682,6.682,0,0,1,6.682,6.681" transform="translate(-147.296 -17.57)" fill="#fff"/>
        <path id="Trazado_874171" data-name="Trazado 874171" d="M574.439,73.61a6.68,6.68,0,1,1-6.682-6.681A6.682,6.682,0,0,1,574.439,73.61Z" transform="translate(-147.296 -17.57)" fill="none" stroke="#263238" stroke-linecap="round" stroke-linejoin="round" stroke-width="1"/>
        <path id="Trazado_874172" data-name="Trazado 874172" d="M591.869,70.982h-67.49L553.4,49.741h9.449Z" transform="translate(-137.661 -13.058)" fill="#263238"/>
        <path id="Trazado_874173" data-name="Trazado 874173" d="M591.869,70.982h-67.49L553.4,49.741h9.449Z" transform="translate(-137.661 -13.058)" fill="none" stroke="#263238" stroke-linecap="round" stroke-linejoin="round" stroke-width="1"/>
      </g>
    </g>
    <g id="Grupo_1099914" data-name="Grupo 1099914">
      <g id="Grupo_1099913" data-name="Grupo 1099913" clip-path="url(#clip-path)">
        <path id="Trazado_874174" data-name="Trazado 874174" d="M614.22,175.254H565.206a1.01,1.01,0,0,1-.336-.057l-6.882-2.423c-.813-.287-.554-1.246.336-1.246H621.1c.89,0,1.149.959.336,1.246l-6.882,2.423a1.009,1.009,0,0,1-.336.057" transform="translate(-146.356 -45.03)" fill="#fff"/>
        <path id="Trazado_874175" data-name="Trazado 874175" d="M614.22,175.254H565.206a1.01,1.01,0,0,1-.336-.057l-6.882-2.423c-.813-.287-.554-1.246.336-1.246H621.1c.89,0,1.149.959.336,1.246l-6.882,2.423A1.009,1.009,0,0,1,614.22,175.254Z" transform="translate(-146.356 -45.03)" fill="none" stroke="#263238" stroke-linecap="round" stroke-linejoin="round" stroke-width="1"/>
        <path id="Trazado_874176" data-name="Trazado 874176" d="M614.22,170.2H565.206a1.029,1.029,0,0,1-.336-.056l-6.882-2.424c-.813-.286-.554-1.246.336-1.246H621.1c.89,0,1.149.959.336,1.246l-6.882,2.424a1.028,1.028,0,0,1-.336.056" transform="translate(-146.356 -43.704)" fill="#fff"/>
        <path id="Trazado_874177" data-name="Trazado 874177" d="M614.22,170.2H565.206a1.029,1.029,0,0,1-.336-.056l-6.882-2.424c-.813-.286-.554-1.246.336-1.246H621.1c.89,0,1.149.959.336,1.246l-6.882,2.424A1.028,1.028,0,0,1,614.22,170.2Z" transform="translate(-146.356 -43.704)" fill="none" stroke="#263238" stroke-linecap="round" stroke-linejoin="round" stroke-width="1"/>
        <path id="Trazado_874178" data-name="Trazado 874178" d="M614.22,165.068H565.206a1.01,1.01,0,0,1-.336-.057l-6.882-2.423c-.813-.286-.554-1.246.336-1.246H621.1c.89,0,1.149.959.336,1.246l-6.882,2.423a1.009,1.009,0,0,1-.336.057" transform="translate(-146.356 -42.356)" fill="#fff"/>
        <path id="Trazado_874179" data-name="Trazado 874179" d="M614.22,165.068H565.206a1.01,1.01,0,0,1-.336-.057l-6.882-2.423c-.813-.286-.554-1.246.336-1.246H621.1c.89,0,1.149.959.336,1.246l-6.882,2.423A1.009,1.009,0,0,1,614.22,165.068Z" transform="translate(-146.356 -42.356)" fill="none" stroke="#263238" stroke-linecap="round" stroke-linejoin="round" stroke-width="1"/>
        <path id="Trazado_874180" data-name="Trazado 874180" d="M614.22,159.934H565.206a1.01,1.01,0,0,1-.336-.057l-6.882-2.423c-.813-.286-.554-1.246.336-1.246H621.1c.89,0,1.149.959.336,1.246l-6.882,2.423a1.009,1.009,0,0,1-.336.057" transform="translate(-146.356 -41.008)" fill="#fff"/>
        <path id="Trazado_874181" data-name="Trazado 874181" d="M614.22,159.934H565.206a1.01,1.01,0,0,1-.336-.057l-6.882-2.423c-.813-.286-.554-1.246.336-1.246H621.1c.89,0,1.149.959.336,1.246l-6.882,2.423A1.009,1.009,0,0,1,614.22,159.934Z" transform="translate(-146.356 -41.008)" fill="none" stroke="#263238" stroke-linecap="round" stroke-linejoin="round" stroke-width="1"/>
        <path id="Trazado_874182" data-name="Trazado 874182" d="M614.22,154.8H565.206a1.01,1.01,0,0,1-.336-.057l-6.882-2.423c-.813-.286-.554-1.246.336-1.246H621.1c.89,0,1.149.959.336,1.246l-6.882,2.423a1.009,1.009,0,0,1-.336.057" transform="translate(-146.356 -39.66)" fill="#fff"/>
        <path id="Trazado_874183" data-name="Trazado 874183" d="M614.22,154.8H565.206a1.01,1.01,0,0,1-.336-.057l-6.882-2.423c-.813-.286-.554-1.246.336-1.246H621.1c.89,0,1.149.959.336,1.246l-6.882,2.423A1.009,1.009,0,0,1,614.22,154.8Z" transform="translate(-146.356 -39.66)" fill="none" stroke="#263238" stroke-linecap="round" stroke-linejoin="round" stroke-width="1"/>
        <path id="Trazado_874184" data-name="Trazado 874184" d="M614.22,180.306H565.206a1.01,1.01,0,0,1-.336-.057l-6.882-2.423c-.813-.287-.554-1.246.336-1.246H621.1c.89,0,1.149.959.336,1.246l-6.882,2.423a1.009,1.009,0,0,1-.336.057" transform="translate(-146.356 -46.356)" fill="#fff"/>
        <path id="Trazado_874185" data-name="Trazado 874185" d="M614.22,180.306H565.206a1.01,1.01,0,0,1-.336-.057l-6.882-2.423c-.813-.287-.554-1.246.336-1.246H621.1c.89,0,1.149.959.336,1.246l-6.882,2.423A1.009,1.009,0,0,1,614.22,180.306Z" transform="translate(-146.356 -46.356)" fill="none" stroke="#263238" stroke-linecap="round" stroke-linejoin="round" stroke-width="1"/>
        <path id="Trazado_874186" data-name="Trazado 874186" d="M614.22,185.357H565.206a1.01,1.01,0,0,1-.336-.057l-6.882-2.423c-.813-.286-.554-1.246.336-1.246H621.1c.89,0,1.149.959.336,1.246l-6.882,2.423a1.009,1.009,0,0,1-.336.057" transform="translate(-146.356 -47.682)" fill="#fff"/>
        <path id="Trazado_874187" data-name="Trazado 874187" d="M614.22,185.357H565.206a1.01,1.01,0,0,1-.336-.057l-6.882-2.423c-.813-.286-.554-1.246.336-1.246H621.1c.89,0,1.149.959.336,1.246l-6.882,2.423A1.009,1.009,0,0,1,614.22,185.357Z" transform="translate(-146.356 -47.682)" fill="none" stroke="#263238" stroke-linecap="round" stroke-linejoin="round" stroke-width="1"/>
      </g>
    </g>
    <rect id="Rectángulo_401644" data-name="Rectángulo 401644" width="61.231" height="59.057" transform="translate(421.023 203.213)" fill="#c7c7c7"/>
    <rect id="Rectángulo_401645" data-name="Rectángulo 401645" width="61.231" height="59.057" transform="translate(421.023 203.213)" fill="none" stroke="#263238" stroke-linecap="round" stroke-linejoin="round" stroke-width="1"/>
    <rect id="Rectángulo_401646" data-name="Rectángulo 401646" width="97.343" height="25.127" transform="translate(384.912 262.27)" fill="#ffea96"/>
    <g id="Grupo_1099916" data-name="Grupo 1099916">
      <g id="Grupo_1099915" data-name="Grupo 1099915" clip-path="url(#clip-path)">
        <rect id="Rectángulo_401647" data-name="Rectángulo 401647" width="97.343" height="25.127" transform="translate(384.911 262.27)" fill="none" stroke="#263238" stroke-linecap="round" stroke-linejoin="round" stroke-width="1"/>
      </g>
    </g>
    <rect id="Rectángulo_401649" data-name="Rectángulo 401649" width="14.855" height="12.319" transform="translate(376.459 166.62)" fill="#263238"/>
    <rect id="Rectángulo_401650" data-name="Rectángulo 401650" width="14.855" height="12.319" transform="translate(376.459 166.62)" fill="none" stroke="#263238" stroke-linecap="round" stroke-linejoin="round" stroke-width="1"/>
    <line id="Línea_3253" data-name="Línea 3253" x1="14.077" y2="5.119" transform="translate(377.171 192.783)" fill="none" stroke="#263238" stroke-linecap="round" stroke-linejoin="round" stroke-width="3"/>
    <g id="Grupo_1099918" data-name="Grupo 1099918">
      <g id="Grupo_1099917" data-name="Grupo 1099917" clip-path="url(#clip-path)">
        <path id="Trazado_874188" data-name="Trazado 874188" d="M501.275,267.734h0a3.924,3.924,0,0,1-2.553,4.67l-20.028,7.263a4.855,4.855,0,1,1-2.906-9.255l20.885-5.568a3.923,3.923,0,0,1,4.6,2.89" transform="translate(-123.959 -69.506)" fill="#ffea96"/>
        <path id="Trazado_874189" data-name="Trazado 874189" d="M501.275,267.734h0a3.924,3.924,0,0,1-2.553,4.67l-20.028,7.263a4.855,4.855,0,1,1-2.906-9.255l20.885-5.568A3.923,3.923,0,0,1,501.275,267.734Z" transform="translate(-123.959 -69.506)" fill="none" stroke="#263238" stroke-linecap="round" stroke-linejoin="round" stroke-width="1"/>
        <rect id="Rectángulo_401651" data-name="Rectángulo 401651" width="16.38" height="8.958" transform="translate(390.736 188.176)" fill="#263238"/>
        <rect id="Rectángulo_401652" data-name="Rectángulo 401652" width="16.38" height="8.958" transform="translate(390.736 188.176)" fill="none" stroke="#263238" stroke-linecap="round" stroke-linejoin="round" stroke-width="1"/>
        <rect id="Rectángulo_401653" data-name="Rectángulo 401653" width="21.377" height="35.194" transform="translate(387.691 153.577)" fill="#ffea96"/>
        <rect id="Rectángulo_401654" data-name="Rectángulo 401654" width="21.377" height="35.194" transform="translate(387.691 153.577)" fill="none" stroke="#263238" stroke-linecap="round" stroke-linejoin="round" stroke-width="1"/>
        <rect id="Rectángulo_401655" data-name="Rectángulo 401655" width="77.535" height="65.941" transform="translate(404.72 137.635)" fill="#ffea96"/>
        <rect id="Rectángulo_401656" data-name="Rectángulo 401656" width="77.535" height="65.941" transform="translate(404.72 137.635)" fill="none" stroke="#263238" stroke-linecap="round" stroke-linejoin="round" stroke-width="1"/>
      </g>
    </g>
    <g id="Grupo_1099920" data-name="Grupo 1099920">
      <g id="Grupo_1099919" data-name="Grupo 1099919" clip-path="url(#clip-path)">
        <path id="Trazado_874190" data-name="Trazado 874190" d="M16.692,291.419a15.472,15.472,0,0,0,4.517.5c.033,0-.689-2.1-.749-2.225-.7-1.471-2.927-3.9-4.736-3.655a2.16,2.16,0,0,0-1.734,2.707,4.515,4.515,0,0,0,2.7,2.673" transform="translate(-3.656 -75.087)" fill="#929292"/>
        <path id="Trazado_874191" data-name="Trazado 874191" d="M17.894,297.393a15.008,15.008,0,0,0,4.446-.7,38.392,38.392,0,0,0,1.735,4.8c.394.911.818,1.816,1.255,2.718-.261-.382-.5-.722-.535-.766-1.067-1.233-3.853-2.988-5.533-2.274a2.161,2.161,0,0,0-.957,3.069,4.511,4.511,0,0,0,3.312,1.864,14.309,14.309,0,0,0,4.322-.662c.171.344.339.69.511,1.033.828,1.65,1.662,3.291,2.43,4.927.271.576.517,1.153.765,1.731-.232-.339-.43-.623-.465-.664-1.067-1.232-3.853-2.988-5.533-2.274a2.16,2.16,0,0,0-.957,3.069A4.515,4.515,0,0,0,26,315.128a13.765,13.765,0,0,0,4.205-.631c.236.6.474,1.2.676,1.788.129.406.281.788.387,1.2l.339,1.215c.187.78.385,1.584.549,2.35.117.532.22,1.041.324,1.552-.263-.577-.8-1.695-.858-1.783-.867-1.38-3.356-3.537-5.125-3.086a2.16,2.16,0,0,0-1.411,2.889,4.515,4.515,0,0,0,2.991,2.344,14.865,14.865,0,0,0,4.475-.013c.17.848.327,1.674.463,2.457.3,1.727.535,3.274.709,4.584h1.2c-.209-1.355-.482-2.97-.842-4.783-.169-.862-.367-1.78-.58-2.72a23.473,23.473,0,0,0,2.5-1.174,15.813,15.813,0,0,0,3.639,2.347c-.326.8-.65,1.577-.969,2.305-.662,1.524-1.291,2.875-1.846,4.024h1.294c.477-1.059,1-2.266,1.549-3.6.334-.813.676-1.687,1.017-2.589a14.864,14.864,0,0,0,4.463.347,4.518,4.518,0,0,0,3.158-2.114,2.16,2.16,0,0,0-1.193-2.986c-1.73-.582-4.373,1.383-5.34,2.7-.058.077-.583.986-.9,1.565.137-.37.275-.726.412-1.108.277-.753.53-1.513.805-2.328l.361-1.209c.129-.4.215-.841.325-1.265.236-.988.426-2,.6-3.025a14.22,14.22,0,0,0,4.235.973,4.519,4.519,0,0,0,3.442-1.611,2.161,2.161,0,0,0-.726-3.133c-1.623-.837-4.532.706-5.687,1.856-.072.072-.808.99-1.2,1.5.1-.617.2-1.232.274-1.859.225-1.81.4-3.649.575-5.483.055-.562.116-1.122.175-1.681a15.026,15.026,0,0,0,4.379,1.027,4.514,4.514,0,0,0,3.442-1.612,2.16,2.16,0,0,0-.726-3.132c-1.623-.837-4.532.706-5.687,1.856-.087.086-1.145,1.409-1.4,1.759.131-1.233.271-2.461.46-3.665a37.972,37.972,0,0,1,1.052-4.822,15.264,15.264,0,0,0,4.4,1.035,4.519,4.519,0,0,0,3.442-1.611,2.162,2.162,0,0,0-.726-3.133c-1.622-.837-4.531.706-5.687,1.856-.09.09-1.228,1.514-1.415,1.787.027-.091.045-.19.073-.28a27.785,27.785,0,0,1,1.91-4.563c.415-.812.858-1.566,1.3-2.289a14.544,14.544,0,0,0,4.17,1.466,4.514,4.514,0,0,0,3.6-1.223,2.161,2.161,0,0,0-.377-3.193c-1.521-1.01-4.582.2-5.857,1.22-.069.055-.712.7-1.173,1.168.206-.324.413-.661.617-.967.764-1.15,1.534-2.156,2.223-3.042.4-.5.764-.945,1.113-1.358a14.438,14.438,0,0,0,4.354-.619,4.517,4.517,0,0,0,2.629-2.744,2.16,2.16,0,0,0-1.807-2.66c-1.815-.2-3.972,2.292-4.635,3.781-.058.129-.723,2.245-.69,2.245h.039c-.344.39-.707.813-1.1,1.282-.71.872-1.5,1.864-2.3,3A38.486,38.486,0,0,0,47.71,291.3a28.174,28.174,0,0,0-2.034,4.578c-.006.018-.01.039-.016.058.01-.535-.014-2.032-.029-2.146-.209-1.617-1.564-4.618-3.36-4.95a2.161,2.161,0,0,0-2.492,2.033,4.516,4.516,0,0,0,1.735,3.381,15.065,15.065,0,0,0,4.094,1.871,38.128,38.128,0,0,0-1.2,4.96c-.174.977-.319,1.966-.453,2.96-.007-.462-.015-.876-.024-.934-.209-1.617-1.564-4.618-3.36-4.95a2.161,2.161,0,0,0-2.492,2.033,4.517,4.517,0,0,0,1.734,3.381,14.33,14.33,0,0,0,3.971,1.831c-.047.382-.1.763-.144,1.145-.219,1.832-.429,3.662-.691,5.449-.091.631-.205,1.248-.316,1.865-.007-.41-.015-.757-.022-.809-.21-1.617-1.565-4.617-3.36-4.95a2.161,2.161,0,0,0-2.493,2.033,4.518,4.518,0,0,0,1.735,3.381,13.787,13.787,0,0,0,3.856,1.794c-.133.629-.265,1.26-.423,1.864-.117.41-.2.813-.341,1.218s-.26.8-.387,1.2c-.274.754-.552,1.533-.839,2.262-.2.509-.391.99-.586,1.474.1-.626.266-1.856.268-1.96a8.387,8.387,0,0,0-1.125-4.081,2.53,2.53,0,0,0-.029-.478,2.161,2.161,0,0,0-2.642-1.833c-1.764.47-2.884,3.567-2.967,5.195,0,.1.058,1.144.108,1.8-.088-.383-.17-.757-.267-1.151-.184-.78-.392-1.553-.612-2.387l-.366-1.207c-.113-.406-.285-.819-.426-1.234-.349-.954-.749-1.9-1.173-2.852a14.206,14.206,0,0,0,4.07-1.524,4.516,4.516,0,0,0,1.982-3.243,2.16,2.16,0,0,0-2.333-2.212c-1.815.2-3.39,3.089-3.72,4.685-.021.1-.128,1.272-.175,1.917-.26-.567-.515-1.136-.8-1.7-.811-1.634-1.683-3.263-2.546-4.891-.265-.5-.522-1-.782-1.5a15.028,15.028,0,0,0,4.219-1.56,4.514,4.514,0,0,0,1.982-3.243,2.16,2.16,0,0,0-2.333-2.212c-1.815.2-3.39,3.089-3.72,4.685-.024.12-.177,1.807-.195,2.238-.572-1.1-1.131-2.2-1.639-3.311a38.2,38.2,0,0,1-1.782-4.6,15.293,15.293,0,0,0,4.245-1.566A4.517,4.517,0,0,0,29,291.87a2.16,2.16,0,0,0-2.333-2.212c-1.816.2-3.39,3.089-3.72,4.685-.026.125-.189,1.94-.195,2.271-.028-.091-.067-.183-.094-.274a27.8,27.8,0,0,1-.923-4.859c-.1-.906-.149-1.779-.175-2.628a14.544,14.544,0,0,0,4.287-1.077,4.518,4.518,0,0,0,2.325-3.006,2.16,2.16,0,0,0-2.076-2.455c-1.826,0-3.71,2.7-4.212,4.249-.028.084-.211.972-.335,1.621-.006-.383-.019-.78-.018-1.147,0-1.38.09-2.645.176-3.763.054-.636.116-1.21.179-1.746a14.412,14.412,0,0,0,3.289-2.919,4.514,4.514,0,0,0,.679-3.739,2.16,2.16,0,0,0-2.974-1.222c-1.622.839-2.049,4.1-1.781,5.711.024.139.636,2.271.664,2.252l.032-.022c-.072.516-.142,1.068-.206,1.673-.111,1.119-.226,2.386-.259,3.771a38.481,38.481,0,0,0,.107,4.477,28.21,28.21,0,0,0,.83,4.94c.005.019.013.038.018.058-.288-.451-1.133-1.686-1.209-1.774-1.066-1.233-3.853-2.988-5.533-2.274a2.161,2.161,0,0,0-.957,3.069,4.516,4.516,0,0,0,3.312,1.864" transform="translate(-3.752 -71.778)" fill="#929292"/>
        <path id="Trazado_874192" data-name="Trazado 874192" d="M60.054,291.4c.028.018.583-2.13.6-2.269.224-1.615-.291-4.867-1.934-5.662a2.16,2.16,0,0,0-2.94,1.3,4.515,4.515,0,0,0,.78,3.719,15.465,15.465,0,0,0,3.492,2.909" transform="translate(-14.603 -74.363)" fill="#929292"/>
        <path id="Trazado_874193" data-name="Trazado 874193" d="M47.849,347.05h-13.6l1.361,31.456H46.489Z" transform="translate(-8.991 -91.109)" fill="#929292"/>
      </g>
    </g>
    <g id="Grupo_1099922" data-name="Grupo 1099922">
      <g id="Grupo_1099921" data-name="Grupo 1099921" clip-path="url(#clip-path)">
        <path id="Trazado_874194" data-name="Trazado 874194" d="M373.742,200.155s-21.725,6.992-23.723,9.489-12.485,48.944-12.985,51.441,81.407.5,81.407.5.5-46.2-4-52.691-15.982-9.489-21.975-9.489-18.729.749-18.729.749" transform="translate(-88.479 -52.349)" fill="#fff"/>
        <path id="Trazado_874195" data-name="Trazado 874195" d="M373.742,200.155s-21.725,6.992-23.723,9.489-12.485,48.944-12.985,51.441,81.407.5,81.407.5.5-46.2-4-52.691-15.982-9.489-21.975-9.489S373.742,200.155,373.742,200.155Z" transform="translate(-88.479 -52.349)" fill="none" stroke="#263238" stroke-linecap="round" stroke-linejoin="round" stroke-width="1"/>
        <path id="Trazado_874196" data-name="Trazado 874196" d="M359.585,207.075s-8.241,37.208-7.991,55.936c.083,6.2,4.215,9.431,4.637,16.517.852,14.336-1.806,32.4-2.14,38.42-.5,8.99-1.5,21.975-1.5,21.975h87.151s-5.243-18.978-10.987-37.457-10.738-48.2-10.738-48.2-4.994-.25-7.741-5.993a84.859,84.859,0,0,1-4.495-11.986l.5-35.459-4.495-.749-2.5,36.708-40.954-.5,5.244-30.964Z" transform="translate(-92.3 -52.526)" fill="#ffea96"/>
        <path id="Trazado_874197" data-name="Trazado 874197" d="M359.585,207.075s-8.241,37.208-7.991,55.936c.083,6.2,4.215,9.431,4.637,16.517.852,14.336-1.806,32.4-2.14,38.42-.5,8.99-1.5,21.975-1.5,21.975h87.151s-5.243-18.978-10.987-37.457-10.738-48.2-10.738-48.2-4.994-.25-7.741-5.993a84.859,84.859,0,0,1-4.495-11.986l.5-35.459-4.495-.749-2.5,36.708-40.954-.5,5.244-30.964Z" transform="translate(-92.3 -52.526)" fill="none" stroke="#263238" stroke-linecap="round" stroke-linejoin="round" stroke-width="1"/>
        <path id="Trazado_874198" data-name="Trazado 874198" d="M395.951,354.294c1.224.762,2.409,1.448,3.516,2.019" transform="translate(-103.946 -93.01)" fill="none" stroke="#263238" stroke-linecap="round" stroke-linejoin="round" stroke-width="1"/>
        <path id="Trazado_874199" data-name="Trazado 874199" d="M371.034,335.615s7.627,6.515,15.06,11.6" transform="translate(-97.405 -88.107)" fill="none" stroke="#263238" stroke-linecap="round" stroke-linejoin="round" stroke-width="1"/>
        <path id="Trazado_874200" data-name="Trazado 874200" d="M382.307,351.021s7.759,6.651,9.7,7.759" transform="translate(-100.364 -92.151)" fill="none" stroke="#263238" stroke-linecap="round" stroke-linejoin="round" stroke-width="1"/>
        <path id="Trazado_874201" data-name="Trazado 874201" d="M286.217,323.091s3.327,5.479,5.479,5.675a7.625,7.625,0,0,0,3.62-.489l-4.4-4.794Z" transform="translate(-75.139 -84.819)" fill="#fff"/>
        <path id="Trazado_874202" data-name="Trazado 874202" d="M286.217,323.091s3.327,5.479,5.479,5.675a7.625,7.625,0,0,0,3.62-.489l-4.4-4.794Z" transform="translate(-75.139 -84.819)" fill="none" stroke="#263238" stroke-linecap="round" stroke-linejoin="round" stroke-width="1"/>
        <path id="Trazado_874203" data-name="Trazado 874203" d="M290.463,325.213s3.327,5.479,5.479,5.675a7.625,7.625,0,0,0,3.62-.489l-4.4-4.794Z" transform="translate(-76.253 -85.376)" fill="#fff"/>
        <path id="Trazado_874204" data-name="Trazado 874204" d="M290.463,325.213s3.327,5.479,5.479,5.675a7.625,7.625,0,0,0,3.62-.489l-4.4-4.794Z" transform="translate(-76.253 -85.376)" fill="none" stroke="#263238" stroke-linecap="round" stroke-linejoin="round" stroke-width="1"/>
        <path id="Trazado_874205" data-name="Trazado 874205" d="M294.841,325.744s4.991,4.794,6.849,5.381,5.089-.881,5.089-.881l-7.828-4.109Z" transform="translate(-77.403 -85.515)" fill="#fff"/>
        <path id="Trazado_874206" data-name="Trazado 874206" d="M294.841,325.744s4.991,4.794,6.849,5.381,5.089-.881,5.089-.881l-7.828-4.109Z" transform="translate(-77.403 -85.515)" fill="none" stroke="#263238" stroke-linecap="round" stroke-linejoin="round" stroke-width="1"/>
        <path id="Trazado_874207" data-name="Trazado 874207" d="M300.414,326.275s6.458,4.7,8.708,4.99,6.947-4.99,6.947-4.99Z" transform="translate(-78.866 -85.655)" fill="#fff"/>
        <path id="Trazado_874208" data-name="Trazado 874208" d="M300.414,326.275s6.458,4.7,8.708,4.99,6.947-4.99,6.947-4.99Z" transform="translate(-78.866 -85.655)" fill="none" stroke="#263238" stroke-linecap="round" stroke-linejoin="round" stroke-width="1"/>
        <path id="Trazado_874209" data-name="Trazado 874209" d="M321.93,266.835s-7.946-26.176-9.954-27.271-24.821-1.277-25.733-.183-11.315,12.41-11.5,13.688a2.066,2.066,0,0,0,1.642,2.19c.547,0,10.4-5.11,10.4-5.11s-6.2,26.1-6.2,33.4.912,19.163.912,19.163,14.418,1.643,21.17,1.643a114.891,114.891,0,0,0,14.235-1.1L327.49,296.5Z" transform="translate(-72.123 -62.65)" fill="#ffea96"/>
        <path id="Trazado_874210" data-name="Trazado 874210" d="M321.93,266.835s-7.946-26.176-9.954-27.271-24.821-1.277-25.733-.183-11.315,12.41-11.5,13.688a2.066,2.066,0,0,0,1.642,2.19c.547,0,10.4-5.11,10.4-5.11s-6.2,26.1-6.2,33.4.912,19.163.912,19.163,14.418,1.643,21.17,1.643a114.891,114.891,0,0,0,14.235-1.1L327.49,296.5Z" transform="translate(-72.123 -62.65)" fill="none" stroke="#263238" stroke-linecap="round" stroke-linejoin="round" stroke-width="1"/>
        <path id="Trazado_874211" data-name="Trazado 874211" d="M276.57,255.976c.547,0,10.4-5.11,10.4-5.11s-6.205,26.1-6.205,33.4.912,19.163.912,19.163,6.479.738,12.784,1.224c4.162-.068,10.036-.213,10.941-.494,1.423-.442,2.737-.73,3.285-1.825s-6.752-30.113-7.482-32.485-12.592-28.287-12.592-28.287l-1.46-.182L275.42,255.29a1.863,1.863,0,0,0,1.15.686" transform="translate(-72.304 -63.367)" fill="#ffea96"/>
        <path id="Trazado_874212" data-name="Trazado 874212" d="M276.57,255.976c.547,0,10.4-5.11,10.4-5.11s-6.205,26.1-6.205,33.4.912,19.163.912,19.163,6.479.738,12.784,1.224c4.162-.068,10.036-.213,10.941-.494,1.423-.442,2.737-.73,3.285-1.825s-6.752-30.113-7.482-32.485-12.592-28.287-12.592-28.287l-1.46-.182L275.42,255.29A1.863,1.863,0,0,0,276.57,255.976Z" transform="translate(-72.304 -63.367)" fill="none" stroke="#263238" stroke-linecap="round" stroke-linejoin="round" stroke-width="1"/>
        <line id="Línea_3254" data-name="Línea 3254" y1="4.928" x2="0.912" transform="translate(214.669 182.571)" fill="none" stroke="#263238" stroke-linecap="round" stroke-linejoin="round" stroke-width="1"/>
        <line id="Línea_3255" data-name="Línea 3255" x2="1.46" y2="36.318" transform="translate(219.779 194.434)" fill="none" stroke="#263238" stroke-linecap="round" stroke-linejoin="round" stroke-width="1"/>
        <line id="Línea_3256" data-name="Línea 3256" y1="6.752" x2="7.847" transform="translate(211.384 232.394)" fill="none" stroke="#263238" stroke-linecap="round" stroke-linejoin="round" stroke-width="1"/>
        <line id="Línea_3257" data-name="Línea 3257" x2="8.03" y2="6.752" transform="translate(225.984 232.211)" fill="none" stroke="#263238" stroke-linecap="round" stroke-linejoin="round" stroke-width="1"/>
        <path id="Trazado_874213" data-name="Trazado 874213" d="M342.843,311.409H326.118l-3.584-35.453h23.893Z" transform="translate(-84.673 -72.445)" fill="#c7c7c7"/>
        <path id="Trazado_874214" data-name="Trazado 874214" d="M342.843,311.409H326.118l-3.584-35.453h23.893Z" transform="translate(-84.673 -72.445)" fill="none" stroke="#263238" stroke-linecap="round" stroke-linejoin="round" stroke-width="1"/>
        <path id="Trazado_874215" data-name="Trazado 874215" d="M344.219,305.38l1.515-14.983H323.994l1.514,14.983Z" transform="translate(-85.056 -76.236)" fill="#fff"/>
        <path id="Trazado_874216" data-name="Trazado 874216" d="M344.219,305.38l1.515-14.983H323.994l1.514,14.983Z" transform="translate(-85.056 -76.236)" fill="none" stroke="#263238" stroke-linecap="round" stroke-linejoin="round" stroke-width="1"/>
        <rect id="Rectángulo_401659" data-name="Rectángulo 401659" width="25.242" height="4.047" transform="translate(237.187 202.162)" fill="#263238"/>
        <rect id="Rectángulo_401660" data-name="Rectángulo 401660" width="25.242" height="4.047" transform="translate(237.187 202.162)" fill="none" stroke="#263238" stroke-linecap="round" stroke-linejoin="round" stroke-width="1"/>
        <rect id="Rectángulo_401661" data-name="Rectángulo 401661" width="21.388" height="2.312" transform="translate(239.114 199.78)" fill="#263238"/>
        <rect id="Rectángulo_401662" data-name="Rectángulo 401662" width="21.388" height="2.312" transform="translate(239.114 199.78)" fill="none" stroke="#263238" stroke-linecap="round" stroke-linejoin="round" stroke-width="1"/>
        <path id="Trazado_874217" data-name="Trazado 874217" d="M358.675,303.743s-10.18-4.173-13.518-6.175-7.176-3.5-8.011-3.5-6.175,1.5-9.346,1.836-4.005.667-3.338,2.5,3,2,4.673,2h8.845s-.5,1.836-.835,3.171-5.007,4.005-5.007,4.005-14.019,3-14.686,3.672-.167,2.169.667,2.837,9.346.834,9.346.834l-4.673,1.168s-7.176,0-8.01-.167a1.379,1.379,0,0,0-.834,2.5c1.335,1.336,4.839,1.5,7.343,1.836s8.177,1,9.179,1,10.348.667,11.85.167,11.182-7.01,11.182-7.01l5.007-.167Z" transform="translate(-82.27 -77.199)" fill="#fff"/>
        <path id="Trazado_874218" data-name="Trazado 874218" d="M358.675,303.743s-10.18-4.173-13.518-6.175-7.176-3.5-8.011-3.5-6.175,1.5-9.346,1.836-4.005.667-3.338,2.5,3,2,4.673,2h8.845s-.5,1.836-.835,3.171-5.007,4.005-5.007,4.005-14.019,3-14.686,3.672-.167,2.169.667,2.837,9.346.834,9.346.834l-4.673,1.168s-7.176,0-8.01-.167a1.379,1.379,0,0,0-.834,2.5c1.335,1.336,4.839,1.5,7.343,1.836s8.177,1,9.179,1,10.348.667,11.85.167,11.182-7.01,11.182-7.01l5.007-.167Z" transform="translate(-82.27 -77.199)" fill="none" stroke="#263238" stroke-linecap="round" stroke-linejoin="round" stroke-width="1"/>
        <path id="Trazado_874219" data-name="Trazado 874219" d="M332.48,321.044s9.513-.5,10.348-1.335a7.071,7.071,0,0,0,1.335-2.337" transform="translate(-87.284 -83.317)" fill="none" stroke="#263238" stroke-linecap="round" stroke-linejoin="round" stroke-width="1"/>
        <path id="Trazado_874220" data-name="Trazado 874220" d="M339.795,327.1s-7.343,1.335-8.511,1.5-7.176.333-7.176.333" transform="translate(-85.086 -85.872)" fill="none" stroke="#263238" stroke-linecap="round" stroke-linejoin="round" stroke-width="1"/>
        <path id="Trazado_874221" data-name="Trazado 874221" d="M382.455,305.693s-7.526-.592-7.86,1.077-1,9.679-.167,10.514,9.346,1,9.346,1Z" transform="translate(-98.19 -80.225)" fill="#fff"/>
        <path id="Trazado_874222" data-name="Trazado 874222" d="M382.455,305.693s-7.526-.592-7.86,1.077-1,9.679-.167,10.514,9.346,1,9.346,1Z" transform="translate(-98.19 -80.225)" fill="none" stroke="#263238" stroke-linecap="round" stroke-linejoin="round" stroke-width="1"/>
        <path id="Trazado_874223" data-name="Trazado 874223" d="M420.021,225.575l-1.748,41.2a2.407,2.407,0,0,0-2.248,1.749,28.988,28.988,0,0,0-.749,3.746s-3-.5-3.5.5l-1.249,2.5s-23.723,2.248-25.471,4-1.249,13.235.249,13.734,45.948,3,48.945,2.248S440,294,441,291.5s4.3-60.427,1.552-71.414-8.794-13.255-13.289-15-7.741,10.752-9.24,20.492" transform="translate(-100.796 -53.796)" fill="#fff"/>
        <path id="Trazado_874224" data-name="Trazado 874224" d="M420.021,225.575l-1.748,41.2a2.407,2.407,0,0,0-2.248,1.749,28.988,28.988,0,0,0-.749,3.746s-3-.5-3.5.5l-1.249,2.5s-23.723,2.248-25.471,4-1.249,13.235.249,13.734,45.948,3,48.945,2.248S440,294,441,291.5s4.3-60.427,1.552-71.414-8.794-13.255-13.289-15S421.52,215.836,420.021,225.575Z" transform="translate(-100.796 -53.796)" fill="none" stroke="#263238" stroke-linecap="round" stroke-linejoin="round" stroke-width="1"/>
        <path id="Trazado_874225" data-name="Trazado 874225" d="M428.8,297.6s-.25,2.248,4,4.245" transform="translate(-112.568 -78.128)" fill="none" stroke="#263238" stroke-linecap="round" stroke-linejoin="round" stroke-width="1"/>
        <path id="Trazado_874226" data-name="Trazado 874226" d="M433.539,290.153s7.491,3.5,10.238,3.5" transform="translate(-113.814 -76.172)" fill="none" stroke="#263238" stroke-linecap="round" stroke-linejoin="round" stroke-width="1"/>
        <path id="Trazado_874227" data-name="Trazado 874227" d="M419.994,300.311s1.249,4.245,3.246,5.244" transform="translate(-110.258 -78.839)" fill="none" stroke="#263238" stroke-linecap="round" stroke-linejoin="round" stroke-width="1"/>
        <path id="Trazado_874228" data-name="Trazado 874228" d="M382.682,196.358s-3.484,4.573-4.137,6.968-1.524,14.808,2.177,13.5,3.049-10.452,3.049-10.452l3.7.871s-1.307,9.581,2.831,10.452,16.114-6.533,19.6-10.67.435-8.71-1.524-10.017-1.524-2.4-8.71-2.4-14.59.435-16.986,1.742" transform="translate(-99.223 -51.091)" fill="#fff"/>
        <path id="Trazado_874229" data-name="Trazado 874229" d="M382.682,196.358s-3.484,4.573-4.137,6.968-1.524,14.808,2.177,13.5,3.049-10.452,3.049-10.452l3.7.871s-1.307,9.581,2.831,10.452,16.114-6.533,19.6-10.67.435-8.71-1.524-10.017-1.524-2.4-8.71-2.4S385.077,195.051,382.682,196.358Z" transform="translate(-99.223 -51.091)" fill="none" stroke="#263238" stroke-linecap="round" stroke-linejoin="round" stroke-width="1"/>
        <path id="Trazado_874230" data-name="Trazado 874230" d="M382,181.483s1.089,10.67,1.742,13.937-.653,5.444,1.742,6.315,21.056-7.772,21.742-11.726,1.123-6.566,1.123-6.566L406.171,164.5S388.1,179.958,382,181.483" transform="translate(-100.283 -43.184)" fill="#fff"/>
        <path id="Trazado_874231" data-name="Trazado 874231" d="M382,181.483s1.089,10.67,1.742,13.937-.653,5.444,1.742,6.315,21.056-7.772,21.742-11.726,1.123-6.566,1.123-6.566L406.171,164.5S388.1,179.958,382,181.483Z" transform="translate(-100.283 -43.184)" fill="none" stroke="#263238" stroke-linecap="round" stroke-linejoin="round" stroke-width="1"/>
        <path id="Trazado_874232" data-name="Trazado 874232" d="M394.2,182.327l-10.589,14.858L382,186.163Z" transform="translate(-100.284 -47.865)" fill="#263238"/>
        <path id="Trazado_874233" data-name="Trazado 874233" d="M394.2,182.327l-10.589,14.858L382,186.163Z" transform="translate(-100.284 -47.865)" fill="none" stroke="#263238" stroke-linecap="round" stroke-linejoin="round" stroke-width="1"/>
        <path id="Trazado_874234" data-name="Trazado 874234" d="M358.381,126.064s-6.935-6.03-6.181-11.609,14.472-12.662,14.472-12.662,7.991-5.126,20.8-4.523,23.518,5.578,27.588,17.488-2.563,24.573-1.809,27.437,11.005,9.348,10.252,16.433-5.729,8.14-3.166,11.457,3.166,10.7.9,13.116-6.784,1.809-6.482,4.372,1.055,7.839-.6,10.252-7.086,2.563-6.482,4.673,3.467,6.784,1.809,9.045-3.618,6.182-2.714,7.689,2.563,3.016,1.659,5.427-1.507,4.523-1.507,4.523a3.323,3.323,0,0,1-3.619-3.015c-.452-3.317,1.96-6.483,1.207-7.689s-4.975-2.714-4.523-6.03,4.071-7.839,1.809-9.95-4.523-2.111-5.125-5.729,3.468-8.291,2.713-9.95-3.165-4.523-2.713-7.538,1.96-3.016,2.713-6.935-2.111-7.538-3.316-15.227,3.316-13.567,3.468-14.02-3.316.754-5.427-3.316-4.975-13.268-7.387-15.98-16.584-7.689-21.107-5.429-7.236,7.689-7.236,7.689" transform="translate(-92.446 -25.523)" fill="#263238"/>
        <path id="Trazado_874235" data-name="Trazado 874235" d="M358.381,126.064s-6.935-6.03-6.181-11.609,14.472-12.662,14.472-12.662,7.991-5.126,20.8-4.523,23.518,5.578,27.588,17.488-2.563,24.573-1.809,27.437,11.005,9.348,10.252,16.433-5.729,8.14-3.166,11.457,3.166,10.7.9,13.116-6.784,1.809-6.482,4.372,1.055,7.839-.6,10.252-7.086,2.563-6.482,4.673,3.467,6.784,1.809,9.045-3.618,6.182-2.714,7.689,2.563,3.016,1.659,5.427-1.507,4.523-1.507,4.523a3.323,3.323,0,0,1-3.619-3.015c-.452-3.317,1.96-6.483,1.207-7.689s-4.975-2.714-4.523-6.03,4.071-7.839,1.809-9.95-4.523-2.111-5.125-5.729,3.468-8.291,2.713-9.95-3.165-4.523-2.713-7.538,1.96-3.016,2.713-6.935-2.111-7.538-3.316-15.227,3.316-13.567,3.468-14.02-3.316.754-5.427-3.316-4.975-13.268-7.387-15.98-16.584-7.689-21.107-5.429S358.381,126.064,358.381,126.064Z" transform="translate(-92.446 -25.523)" fill="none" stroke="#263238" stroke-linecap="round" stroke-linejoin="round" stroke-width="1"/>
        <path id="Trazado_874236" data-name="Trazado 874236" d="M372.786,112.033s-9.927,3.31-12.652,9.732-.974,12.068-.195,16.935-.389,8.759.195,12.068,2.53,6.618,4.088,10.122,5.061,9.148,8.564,9.927,4.283.973,5.645.389,15.377-8.565,18.1-12.652,3.114-6.034,3.114-6.034,6.229,0,6.229-5.256,0-8.759-2.92-8.37-4.867,3.7-4.867,3.7a4.216,4.216,0,0,1-1.362-2.92c0-1.752,0-2.142-.389-2.726s-3.114-.778-3.114-4.866v-5.839s-15.961-5.256-20.438-14.21" transform="translate(-94.157 -29.411)" fill="#fff"/>
        <path id="Trazado_874237" data-name="Trazado 874237" d="M372.786,112.033s-9.927,3.31-12.652,9.732-.974,12.068-.195,16.935-.389,8.759.195,12.068,2.53,6.618,4.088,10.122,5.061,9.148,8.564,9.927,4.283.973,5.645.389,15.377-8.565,18.1-12.652,3.114-6.034,3.114-6.034,6.229,0,6.229-5.256,0-8.759-2.92-8.37-4.867,3.7-4.867,3.7a4.216,4.216,0,0,1-1.362-2.92c0-1.752,0-2.142-.389-2.726s-3.114-.778-3.114-4.866v-5.839S377.263,120.987,372.786,112.033Z" transform="translate(-94.157 -29.411)" fill="none" stroke="#263238" stroke-linecap="round" stroke-linejoin="round" stroke-width="1"/>
        <path id="Trazado_874238" data-name="Trazado 874238" d="M384.148,151.339s4.672-2.336,7.4.973" transform="translate(-100.848 -39.52)" fill="none" stroke="#263238" stroke-linecap="round" stroke-linejoin="round" stroke-width="2"/>
        <path id="Trazado_874239" data-name="Trazado 874239" d="M363.3,150.02s3.114-2.141,4.867.584" transform="translate(-95.374 -39.174)" fill="none" stroke="#263238" stroke-linecap="round" stroke-linejoin="round" stroke-width="2"/>
        <path id="Trazado_874240" data-name="Trazado 874240" d="M371.215,140.539s2.53,5.45,2.336,7.4" transform="translate(-97.452 -36.895)" fill="none" stroke="#263238" stroke-linecap="round" stroke-linejoin="round" stroke-width="1"/>
        <path id="Trazado_874241" data-name="Trazado 874241" d="M372.27,164.821s1.363,2.336,4.867,1.558" transform="translate(-97.729 -43.269)" fill="none" stroke="#263238" stroke-linecap="round" stroke-linejoin="round" stroke-width="1"/>
        <path id="Trazado_874242" data-name="Trazado 874242" d="M371.658,172.974a18.649,18.649,0,0,0,12.068-.195" transform="translate(-97.569 -45.358)" fill="none" stroke="#263238" stroke-linecap="round" stroke-linejoin="round" stroke-width="1"/>
        <path id="Trazado_874243" data-name="Trazado 874243" d="M374.438,173.883s.435,2.287,2.5,2.5,5.989-2.722,5.989-2.722A32.269,32.269,0,0,1,374.438,173.883Z" transform="translate(-98.299 -45.591)" fill="none" stroke="#263238" stroke-linecap="round" stroke-linejoin="round" stroke-width="1"/>
        <path id="Trazado_874244" data-name="Trazado 874244" d="M394.912,141.061s-4.247-2.722-7.405-3.375-4.791-.109-4.246,1.089,1.742-.218,4.791.871,7.187,2.723,6.86,1.416" transform="translate(-100.587 -36.072)" fill="#263238"/>
        <path id="Trazado_874245" data-name="Trazado 874245" d="M394.912,141.061s-4.247-2.722-7.405-3.375-4.791-.109-4.246,1.089,1.742-.218,4.791.871S395.238,142.368,394.912,141.061Z" transform="translate(-100.587 -36.072)" fill="none" stroke="#263238" stroke-linecap="round" stroke-linejoin="round" stroke-width="1"/>
        <path id="Trazado_874246" data-name="Trazado 874246" d="M367.414,138.6a2.361,2.361,0,0,0-2.5-.98c-1.743.327-4.574,1.743-4.356,2.287s3.92-1.307,5.009-.98,1.415.327,1.851-.327" transform="translate(-94.651 -36.114)" fill="#263238"/>
        <path id="Trazado_874247" data-name="Trazado 874247" d="M367.414,138.6a2.361,2.361,0,0,0-2.5-.98c-1.743.327-4.574,1.743-4.356,2.287s3.92-1.307,5.009-.98S366.978,139.252,367.414,138.6Z" transform="translate(-94.651 -36.114)" fill="none" stroke="#263238" stroke-linecap="round" stroke-linejoin="round" stroke-width="1"/>
        <line id="Línea_3258" data-name="Línea 3258" x1="5.301" y2="0.905" transform="translate(204.038 260.134)" fill="none" stroke="#263238" stroke-linecap="round" stroke-linejoin="round" stroke-width="1"/>
      </g>
    </g>
    <g id="Grupo_1099924" data-name="Grupo 1099924">
      <g id="Grupo_1099923" data-name="Grupo 1099923" clip-path="url(#clip-path)">
        <path id="Trazado_874248" data-name="Trazado 874248" d="M208.964,279.785l11.224-7.236s8.123-12.258,9.008-12.7,13.439-5.907,13.439-5.907,4.135-2.658,4.283-.443a4.564,4.564,0,0,1-2.362,4.283c-1.182.738-7.68,3.839-7.68,3.839l23.777-3.4s2.215-.738,2.067.591-.886,1.772-2.215,2.068-13,5.316-13,5.316l15.211-1.625s2.511-.886,2.659.443-.443,2.658-1.181,2.954-16.1,3.544-16.1,3.544,11.224-.147,12.553-.3,3.839,0,3.249,1.33-3.987,1.92-6.2,2.363-9.008,2.215-9.008,2.215l11.075-.886s2.806-.738,2.363.443-2.51,2.215-5.316,2.806-9.895,1.772-9.895,1.772-5.316,1.772-8.27,2.954-11.962,1.624-12.553,1.624-13.292,6.794-13.292,6.794Z" transform="translate(-54.858 -66.318)" fill="#fff"/>
        <path id="Trazado_874249" data-name="Trazado 874249" d="M208.964,279.785l11.224-7.236s8.123-12.258,9.008-12.7,13.439-5.907,13.439-5.907,4.135-2.658,4.283-.443a4.564,4.564,0,0,1-2.362,4.283c-1.182.738-7.68,3.839-7.68,3.839l23.777-3.4s2.215-.738,2.067.591-.886,1.772-2.215,2.068-13,5.316-13,5.316l15.211-1.625s2.511-.886,2.659.443-.443,2.658-1.181,2.954-16.1,3.544-16.1,3.544,11.224-.147,12.553-.3,3.839,0,3.249,1.33-3.987,1.92-6.2,2.363-9.008,2.215-9.008,2.215l11.075-.886s2.806-.738,2.363.443-2.51,2.215-5.316,2.806-9.895,1.772-9.895,1.772-5.316,1.772-8.27,2.954-11.962,1.624-12.553,1.624-13.292,6.794-13.292,6.794Z" transform="translate(-54.858 -66.318)" fill="none" stroke="#263238" stroke-linecap="round" stroke-linejoin="round" stroke-width="1"/>
        <path id="Trazado_874250" data-name="Trazado 874250" d="M242.266,266.827s-1.476,9.3-2.658,11.667S234,281.742,234,281.742" transform="translate(-61.429 -70.048)" fill="none" stroke="#263238" stroke-linecap="round" stroke-linejoin="round" stroke-width="1"/>
        <path id="Trazado_874251" data-name="Trazado 874251" d="M195.147,291.613s10.78-4.726,11.667-3.988,3.692,14.473,3.1,15.949-11.667,5.316-11.667,5.316Z" transform="translate(-51.231 -75.488)" fill="#ffea96"/>
        <path id="Trazado_874252" data-name="Trazado 874252" d="M195.147,291.613s10.78-4.726,11.667-3.988,3.692,14.473,3.1,15.949-11.667,5.316-11.667,5.316Z" transform="translate(-51.231 -75.488)" fill="none" stroke="#263238" stroke-linecap="round" stroke-linejoin="round" stroke-width="1"/>
        <path id="Trazado_874253" data-name="Trazado 874253" d="M183.132,294.217s9.008-3.4,10.042-2.068,3.1,16.245,3.1,18.608-11.371,9.452-11.371,9.452Z" transform="translate(-48.076 -76.615)" fill="#ffea96"/>
        <path id="Trazado_874254" data-name="Trazado 874254" d="M183.132,294.217s9.008-3.4,10.042-2.068,3.1,16.245,3.1,18.608-11.371,9.452-11.371,9.452Z" transform="translate(-48.076 -76.615)" fill="none" stroke="#263238" stroke-linecap="round" stroke-linejoin="round" stroke-width="1"/>
        <path id="Trazado_874255" data-name="Trazado 874255" d="M98.5,191.849s-17.12,18.437-21.6,39.244-1.054,28.709-.264,32.4,7.9,74.274,7.9,74.274h76.117s-2.634-55.837-4.214-71.9-6.058-40.3-10.272-47.935-6.848-9.218-11.325-12.643S98.5,191.849,98.5,191.849" transform="translate(-19.596 -50.365)" fill="#ffea96"/>
        <path id="Trazado_874256" data-name="Trazado 874256" d="M98.5,191.849s-17.12,18.437-21.6,39.244-1.054,28.709-.264,32.4,7.9,74.274,7.9,74.274h76.117s-2.634-55.837-4.214-71.9-6.058-40.3-10.272-47.935-6.848-9.218-11.325-12.643S98.5,191.849,98.5,191.849Z" transform="translate(-19.596 -50.365)" fill="none" stroke="#263238" stroke-linecap="round" stroke-linejoin="round" stroke-width="1"/>
        <path id="Trazado_874257" data-name="Trazado 874257" d="M166.251,115.707s2.4,7.195,2.2,10.393-2.2,5.6-1.8,7.4,5,7.794,5.4,9.593-2.4,5-3.2,5.2-2,12.192-1.4,14.39,1.4,3.8.4,6.4-6.6,4.4-9.393,3.8a17.049,17.049,0,0,1-5-2l-6,11.992-33.976-17.988,3.4-7.595s-3.8-32.778,0-39.973,28.98-7.395,34.976-6.8,14.39,5.2,14.39,5.2" transform="translate(-29.793 -28.955)" fill="#fff"/>
        <path id="Trazado_874258" data-name="Trazado 874258" d="M166.251,115.707s2.4,7.195,2.2,10.393-2.2,5.6-1.8,7.4,5,7.794,5.4,9.593-2.4,5-3.2,5.2-2,12.192-1.4,14.39,1.4,3.8.4,6.4-6.6,4.4-9.393,3.8a17.049,17.049,0,0,1-5-2l-6,11.992-33.976-17.988,3.4-7.595s-3.8-32.778,0-39.973,28.98-7.395,34.976-6.8S166.251,115.707,166.251,115.707Z" transform="translate(-29.793 -28.955)" fill="none" stroke="#263238" stroke-linecap="round" stroke-linejoin="round" stroke-width="1"/>
        <path id="Trazado_874259" data-name="Trazado 874259" d="M184.907,129.346a5.306,5.306,0,0,0-5.4-.2c-2.8,1.6-2.6,2-1.6,2.2s3.4-.2,5-.2,2.6,0,2-1.8" transform="translate(-46.529 -33.73)" fill="#263238"/>
        <path id="Trazado_874260" data-name="Trazado 874260" d="M184.907,129.346a5.306,5.306,0,0,0-5.4-.2c-2.8,1.6-2.6,2-1.6,2.2s3.4-.2,5-.2S185.506,131.145,184.907,129.346Z" transform="translate(-46.529 -33.73)" fill="none" stroke="#263238" stroke-linecap="round" stroke-linejoin="round" stroke-width="1"/>
        <path id="Trazado_874261" data-name="Trazado 874261" d="M148.055,164.445a3.03,3.03,0,0,0,2.223,1.251,3.321,3.321,0,0,0,2.5-.834s-.556,7.92,1.251,10.144a20.194,20.194,0,0,0,4.586,3.89" transform="translate(-38.868 -43.171)" fill="none" stroke="#263238" stroke-linecap="round" stroke-linejoin="round" stroke-width="1"/>
        <path id="Trazado_874262" data-name="Trazado 874262" d="M181.348,173.783c-.81.2-1.343,1.184-2.882,1.775-1.806.695-4.446-.139-5-2.223s1.112-6.392,2.5-7.642c1.084-.976,4.694-1.358,6.235-1.479.235-1.4.486-2.356.707-2.412,0,0-9.165-.417-10.694,3.2s-5.586,15.905-5.141,17.647,4.631,2.895,5.442,3.74c2.8.6,8.395-1.2,9.394-3.8s.2-4.2-.4-6.4a10.731,10.731,0,0,1-.16-2.409" transform="translate(-43.851 -42.473)" fill="#263238"/>
        <path id="Trazado_874263" data-name="Trazado 874263" d="M181.348,173.783c-.81.2-1.343,1.184-2.882,1.775-1.806.695-4.446-.139-5-2.223s1.112-6.392,2.5-7.642c1.084-.976,4.694-1.358,6.235-1.479.235-1.4.486-2.356.707-2.412,0,0-9.165-.417-10.694,3.2s-5.586,15.905-5.141,17.647,4.631,2.895,5.442,3.74c2.8.6,8.395-1.2,9.394-3.8s.2-4.2-.4-6.4A10.731,10.731,0,0,1,181.348,173.783Z" transform="translate(-43.851 -42.473)" fill="none" stroke="#263238" stroke-linecap="round" stroke-linejoin="round" stroke-width="1"/>
        <path id="Trazado_874264" data-name="Trazado 874264" d="M184.374,169.057a6.01,6.01,0,0,1-5.419-.655" transform="translate(-46.98 -44.209)" fill="none" stroke="#263238" stroke-linecap="round" stroke-linejoin="round" stroke-width="1"/>
        <path id="Trazado_874265" data-name="Trazado 874265" d="M181.6,143.087c0,1.42-.467,2.571-1.042,2.571s-1.042-1.151-1.042-2.571.466-2.571,1.042-2.571,1.042,1.151,1.042,2.571" transform="translate(-47.128 -36.889)" fill="#263238"/>
        <path id="Trazado_874266" data-name="Trazado 874266" d="M154.816,111.152s-6.8.6-5.8,2.6,6.2,2.6,3.6,4.4-9.393,5.2-9.393,5.2,2.4,5,1.8,6.4a4.352,4.352,0,0,1-3.6,2.8c-1.6,0-2-2-4-2.2s-4.6,0-4.6,4.6,3.2,8.994,3.2,8.994a4.206,4.206,0,0,0-1.4,6c2.2,4,3.8,3.6,3.8,3.6a18.028,18.028,0,0,1-12.191,5.4c-7.595.2-13.991-3-15.789-6.995s-.4-8.994-.4-8.994l-2,1.8a5.71,5.71,0,0,1-.2-3.8,54.107,54.107,0,0,1,2.2-5.8s-4.4-17.188-2.2-25.183,12.592-14.39,18.388-16.789,26.382-.2,26.382-.2-2.4-3.6.2-3,10.992,7.195,10.992,7.195,0-6.2,2-3.4,2.2,10.593,1.8,11.592,2.2-4,2-.4.4,8.394-14.79,6.2" transform="translate(-28.151 -23.6)" fill="#263238"/>
        <path id="Trazado_874267" data-name="Trazado 874267" d="M154.816,111.152s-6.8.6-5.8,2.6,6.2,2.6,3.6,4.4-9.393,5.2-9.393,5.2,2.4,5,1.8,6.4a4.352,4.352,0,0,1-3.6,2.8c-1.6,0-2-2-4-2.2s-4.6,0-4.6,4.6,3.2,8.994,3.2,8.994a4.206,4.206,0,0,0-1.4,6c2.2,4,3.8,3.6,3.8,3.6a18.028,18.028,0,0,1-12.191,5.4c-7.595.2-13.991-3-15.789-6.995s-.4-8.994-.4-8.994l-2,1.8a5.71,5.71,0,0,1-.2-3.8,54.107,54.107,0,0,1,2.2-5.8s-4.4-17.188-2.2-25.183,12.592-14.39,18.388-16.789,26.382-.2,26.382-.2-2.4-3.6.2-3,10.992,7.195,10.992,7.195,0-6.2,2-3.4,2.2,10.593,1.8,11.592,2.2-4,2-.4S170.005,113.35,154.816,111.152Z" transform="translate(-28.151 -23.6)" fill="none" stroke="#263238" stroke-linecap="round" stroke-linejoin="round" stroke-width="1"/>
        <path id="Trazado_874268" data-name="Trazado 874268" d="M149.966,203.892s-9.207-7.918-16.388-13.073-23.2-13.073-25.778-10.864-6.077,9.022-4.235,10.311S139.1,202.6,143.153,204.628s6.076,5.339,8.286,4.971,5.524-4.051,3.5-4.788a21.694,21.694,0,0,0-4.971-.92" transform="translate(-27.053 -47.142)" fill="#ffea96"/>
        <path id="Trazado_874269" data-name="Trazado 874269" d="M149.966,203.892s-9.207-7.918-16.388-13.073-23.2-13.073-25.778-10.864-6.077,9.022-4.235,10.311S139.1,202.6,143.153,204.628s6.076,5.339,8.286,4.971,5.524-4.051,3.5-4.788A21.694,21.694,0,0,0,149.966,203.892Z" transform="translate(-27.053 -47.142)" fill="none" stroke="#263238" stroke-linecap="round" stroke-linejoin="round" stroke-width="1"/>
        <path id="Trazado_874270" data-name="Trazado 874270" d="M289.363,341.836s3.3-3.614,1.136-3.614-6.69,4.328-6.69,4.328,1.574-4.721-.393-3.934-3.738,4.328-3.738,4.328-1.018-4.6-1.574-3.148a8.783,8.783,0,0,1-1.968,2.754,19.172,19.172,0,0,0,8.263,1.771c4.918,0,4.963-2.485,4.963-2.485" transform="translate(-72.492 -88.791)" fill="#fff"/>
        <path id="Trazado_874271" data-name="Trazado 874271" d="M289.363,341.836s3.3-3.614,1.136-3.614-6.69,4.328-6.69,4.328,1.574-4.721-.393-3.934-3.738,4.328-3.738,4.328-1.018-4.6-1.574-3.148a8.783,8.783,0,0,1-1.968,2.754,19.172,19.172,0,0,0,8.263,1.771C289.318,344.321,289.363,341.836,289.363,341.836Z" transform="translate(-72.492 -88.791)" fill="none" stroke="#263238" stroke-linecap="round" stroke-linejoin="round" stroke-width="1"/>
        <path id="Trazado_874272" data-name="Trazado 874272" d="M234.4,335.761s14.62-9.3,16.1-10.19,5.612-1.625,5.612-1.625l6.645-1.329s2.363-1.034,2.068,1.329-2.659,3.839-3.84,4.43-4.726,1.181-5.907,2.806l-1.181,1.625s11.963,4.283,12.7,4.283,11.814.591,11.814.591,7.532-1.033,7.384.739a3.138,3.138,0,0,1-2.658,2.805c-1.181.3-10.338,2.806-12.258,3.544s-5.907,3.988-9.3,5.021-8.861,1.772-11.519,1.181-8.418-2.954-9.157-2.954h-4.726Z" transform="translate(-61.534 -84.635)" fill="#fff"/>
        <path id="Trazado_874273" data-name="Trazado 874273" d="M234.4,335.761s14.62-9.3,16.1-10.19,5.612-1.625,5.612-1.625l6.645-1.329s2.363-1.034,2.068,1.329-2.659,3.839-3.84,4.43-4.726,1.181-5.907,2.806l-1.181,1.625s11.963,4.283,12.7,4.283,11.814.591,11.814.591,7.532-1.033,7.384.739a3.138,3.138,0,0,1-2.658,2.805c-1.181.3-10.338,2.806-12.258,3.544s-5.907,3.988-9.3,5.021-8.861,1.772-11.519,1.181-8.418-2.954-9.157-2.954h-4.726Z" transform="translate(-61.534 -84.635)" fill="none" stroke="#263238" stroke-linecap="round" stroke-linejoin="round" stroke-width="1"/>
        <path id="Trazado_874274" data-name="Trazado 874274" d="M219.778,339.749s9.157-1.329,10.78.443,2.806,9.156,2.806,11.224-2.215,5.464-3.1,5.907-6.941-.147-6.941-.147-.738-12.553-3.544-17.427" transform="translate(-57.697 -89.066)" fill="#ffea96"/>
        <path id="Trazado_874275" data-name="Trazado 874275" d="M219.778,339.749s9.157-1.329,10.78.443,2.806,9.156,2.806,11.224-2.215,5.464-3.1,5.907-6.941-.147-6.941-.147S222.584,344.622,219.778,339.749Z" transform="translate(-57.697 -89.066)" fill="none" stroke="#263238" stroke-linecap="round" stroke-linejoin="round" stroke-width="1"/>
        <path id="Trazado_874276" data-name="Trazado 874276" d="M121.469,227.817s-13.169,10.272-11.325,19.49,11.325,37.137,11.325,37.137,10.536,40.824,13.169,43.985,5.268,3.424,7.375,2.9,42.4-.791,46.618-1.844,7.375-3.161,7.638-5.531-.79-14.75-3.951-16.857-14.749-2.9-18.7-3.424-10.535-2.107-10.535-2.107a2.551,2.551,0,0,0-1.58-2.107l-1.58-.791-1.844-46.092s1.317-15.8-3.687-24.495a27.446,27.446,0,0,0-13.169-11.589" transform="translate(-28.869 -56.834)" fill="#ffea96"/>
        <path id="Trazado_874277" data-name="Trazado 874277" d="M121.469,227.817s-13.169,10.272-11.325,19.49,11.325,37.137,11.325,37.137,10.536,40.824,13.169,43.985,5.268,3.424,7.375,2.9,42.4-.791,46.618-1.844,7.375-3.161,7.638-5.531-.79-14.75-3.951-16.857-14.749-2.9-18.7-3.424-10.535-2.107-10.535-2.107a2.551,2.551,0,0,0-1.58-2.107l-1.58-.791-1.844-46.092s1.317-15.8-3.687-24.495a27.446,27.446,0,0,0-13.169-11.589" transform="translate(-28.869 -56.834)" fill="none" stroke="#263238" stroke-linecap="round" stroke-linejoin="round" stroke-width="1"/>
        <path id="Trazado_874278" data-name="Trazado 874278" d="M172.622,332.2s-4.741,7.375-10.272,9.745" transform="translate(-42.621 -87.211)" fill="none" stroke="#263238" stroke-linecap="round" stroke-linejoin="round" stroke-width="1"/>
        <path id="Trazado_874279" data-name="Trazado 874279" d="M179.551,334.348s-1.317,4.741-1.844,6.848" transform="translate(-46.652 -87.774)" fill="none" stroke="#263238" stroke-linecap="round" stroke-linejoin="round" stroke-width="1"/>
        <path id="Trazado_874280" data-name="Trazado 874280" d="M112.11,298.662a14.888,14.888,0,0,0,5.708,2.877" transform="translate(-29.431 -78.406)" fill="none" stroke="#263238" stroke-linecap="round" stroke-linejoin="round" stroke-width="1"/>
        <path id="Trazado_874281" data-name="Trazado 874281" d="M100.208,284.348a42.2,42.2,0,0,0,5.2,7.2" transform="translate(-26.307 -74.648)" fill="none" stroke="#263238" stroke-linecap="round" stroke-linejoin="round" stroke-width="1"/>
        <path id="Trazado_874282" data-name="Trazado 874282" d="M110.565,303.634s7.9,4.477,11.062,3.687" transform="translate(-29.026 -79.711)" fill="none" stroke="#263238" stroke-linecap="round" stroke-linejoin="round" stroke-width="1"/>
      </g>
    </g>
    <path id="Trazado_874283" data-name="Trazado 874283" d="M486.079,345.1H399.27l10.32-69.347H496.4Z" transform="translate(-104.817 -72.391)" fill="#5c5c5c"/>
    <path id="Trazado_874284" data-name="Trazado 874284" d="M486.079,345.1H399.27l10.32-69.347H496.4Z" transform="translate(-104.817 -72.391)" fill="none" stroke="#263238" stroke-linecap="round" stroke-linejoin="round" stroke-width="1"/>
    <path id="Trazado_874285" data-name="Trazado 874285" d="M489.609,345.1H402.8l10.32-69.347h86.809Z" transform="translate(-105.744 -72.391)" fill="#263238"/>
    <path id="Trazado_874286" data-name="Trazado 874286" d="M489.609,345.1H402.8l10.32-69.347h86.809Z" transform="translate(-105.744 -72.391)" fill="none" stroke="#263238" stroke-linecap="round" stroke-linejoin="round" stroke-width="1"/>
    <path id="Trazado_874287" data-name="Trazado 874287" d="M472.331,357.708H444.659l10.321-69.347h27.671Z" transform="translate(-116.733 -75.701)" fill="#263238"/>
    <path id="Trazado_874288" data-name="Trazado 874288" d="M472.331,357.708H444.659l10.321-69.347h27.671Z" transform="translate(-116.733 -75.701)" fill="none" stroke="#263238" stroke-linecap="round" stroke-linejoin="round" stroke-width="1"/>
    <path id="Trazado_874289" data-name="Trazado 874289" d="M483.756,342.5H436.478l5.62-37.768h47.279Z" transform="translate(-114.586 -79.998)" fill="#5c5c5c"/>
    <path id="Trazado_874290" data-name="Trazado 874290" d="M483.756,342.5H436.478l5.62-37.768h47.279Z" transform="translate(-114.586 -79.998)" fill="none" stroke="#263238" stroke-linecap="round" stroke-linejoin="round" stroke-width="1"/>
    <rect id="Rectángulo_401665" data-name="Rectángulo 401665" width="133.525" height="8.182" transform="translate(276.971 279.28)" fill="#263238"/>
    <g id="Grupo_1099926" data-name="Grupo 1099926">
      <g id="Grupo_1099925" data-name="Grupo 1099925" clip-path="url(#clip-path)">
        <rect id="Rectángulo_401666" data-name="Rectángulo 401666" width="133.525" height="8.182" transform="translate(276.972 279.28)" fill="none" stroke="#263238" stroke-linecap="round" stroke-linejoin="round" stroke-width="1"/>
      </g>
    </g>
    <g id="Grupo_1099928" data-name="Grupo 1099928">
      <g id="Grupo_1099927" data-name="Grupo 1099927" clip-path="url(#clip-path)">
        <line id="Línea_3259" data-name="Línea 3259" x1="504.263" transform="translate(0.369 287.398)" fill="none" stroke="#263238" stroke-linecap="round" stroke-linejoin="round" stroke-width="1"/>
      </g>
    </g>
  </g>
</svg>
