<svg xmlns="http://www.w3.org/2000/svg" xmlns:xlink="http://www.w3.org/1999/xlink" width="505" height="292.257" viewBox="0 0 505 292.257">
  <defs>
    <clipPath id="clip-path">
      <rect id="Rectángulo_401513" data-name="Rectángulo 401513" width="451.477" height="289.022" fill="none"/>
    </clipPath>
    <clipPath id="clip-path-5">
      <rect id="Rectángulo_401506" data-name="Rectángulo 401506" width="80.172" height="70.308" fill="none"/>
    </clipPath>
    <clipPath id="clip-path-6">
      <rect id="Rectángulo_401507" data-name="Rectángulo 401507" width="30.657" height="20.831" fill="none"/>
    </clipPath>
    <clipPath id="clip-path-7">
      <rect id="Rectángulo_401508" data-name="Rectángulo 401508" width="4.717" height="36.132" fill="none"/>
    </clipPath>
    <clipPath id="clip-path-8">
      <rect id="Rectángulo_401509" data-name="Rectángulo 401509" width="37.12" height="75.947" fill="none"/>
    </clipPath>
    <clipPath id="clip-path-9">
      <rect id="Rectángulo_401510" data-name="Rectángulo 401510" width="22.329" height="119.821" fill="none"/>
    </clipPath>
  </defs>
  <g id="Grupo_1099938" data-name="Grupo 1099938" transform="translate(-180 -3388)">
    <path id="Unión_17" data-name="Unión 17" d="M-14163.721,12181.479l-181.394-88.47c-30.428-14.839-33.4-57.044-5.355-76l167.493-113.214c28.093-18.988,66.2-.4,68.533,33.426l13.907,201.688c1.842,26.716-19.73,47.092-43.888,47.092A43.824,43.824,0,0,1-14163.721,12181.479Z" transform="translate(14549.832 -8505.744)" fill="#ffea96"/>
    <g id="Grupo_1099890" data-name="Grupo 1099890">
      <g id="Grupo_1099889" data-name="Grupo 1099889" transform="translate(207 3388)">
        <g id="Grupo_1099888" data-name="Grupo 1099888" clip-path="url(#clip-path)">
          <g id="Grupo_1099866" data-name="Grupo 1099866">
            <g id="Grupo_1099865" data-name="Grupo 1099865" clip-path="url(#clip-path)">
              <path id="Trazado_874067" data-name="Trazado 874067" d="M377.964,61.405A9.528,9.528,0,0,0,374,61.162a5.023,5.023,0,0,1-1.354.021l5.227-18.832a2.606,2.606,0,0,0-1.814-3.207l-19.594-5.438-.617,2.224a4.126,4.126,0,0,0-.121,1.58A8.626,8.626,0,0,1,344.5,46.687a8.705,8.705,0,0,1-5.817-9.939,8.568,8.568,0,0,1,1.9-3.884,4.283,4.283,0,0,0,.893-1.638l.433-1.559-19.834-5.573a3.2,3.2,0,0,0-3.938,2.227l-4.866,17.46-1.354-.376c-.153-.043-.308-.091-.461-.145A10.525,10.525,0,1,0,305.8,60a4.051,4.051,0,0,1,.847.138l1.737.482-5.41,19.493A3.2,3.2,0,0,0,305.2,84.05L359.424,99.1a2.605,2.605,0,0,0,3.207-1.814l5.508-19.847a5.188,5.188,0,0,1,.874.626,9.548,9.548,0,0,0,5.4,2.351,9.71,9.71,0,0,0,3.549-19.008" transform="translate(-60.238 -4.935)" fill="#f5f5f5"/>
            </g>
          </g>
          <g id="Grupo_1099868" data-name="Grupo 1099868">
            <g id="Grupo_1099867" data-name="Grupo 1099867" clip-path="url(#clip-path)">
              <path id="Trazado_874068" data-name="Trazado 874068" d="M207.553,182.8a23.694,23.694,0,0,1,11.941,2.614,13.289,13.289,0,0,0,5.418,1.327l4.837-.11.057-53.774a9.224,9.224,0,0,0-9.252-9.2l-51.116.189v-1.1a14.223,14.223,0,0,1,1.5-6.214,28.266,28.266,0,0,0,2.429-17.272,28.744,28.744,0,0,0-57.029,4.922,28.2,28.2,0,0,0,2.439,11.49,14.175,14.175,0,0,1,1.278,5.758l.3,2.418h-61.6a9.224,9.224,0,0,0-9.252,9.2v52.579H45.106a13.456,13.456,0,0,1-5.879-1.419,27.717,27.717,0,0,0-16.645-2.3,27.2,27.2,0,0,0,4.658,53.964,26.672,26.672,0,0,0,10.872-2.309,13.421,13.421,0,0,1,5.449-1.21H49.2l.112,64.314a7.512,7.512,0,0,0,7.534,7.488H221.728c4.162,0,7.422-5.224,7.422-9.359V236.346h-6.674a12.067,12.067,0,0,0-4.5.879,24.964,24.964,0,0,1-34.263-24.04c.5-12.49,11.289-29.51,23.836-30.381" transform="translate(-0.046 -15.568)" fill="#e0e0e0"/>
              <path id="Trazado_874069" data-name="Trazado 874069" d="M207.507,182.765s-.146.022-.436.057a12.023,12.023,0,0,0-1.292.195,17.6,17.6,0,0,0-4.837,1.719c-4.023,2.053-9.3,6.743-13.277,14.572a34.727,34.727,0,0,0-3.908,13.955,25.637,25.637,0,0,0,1.138,8.265,24.505,24.505,0,0,0,4.232,7.984,24.78,24.78,0,0,0,17.366,9.252,24.427,24.427,0,0,0,10.91-1.5,13,13,0,0,1,5.718-1.08l5.983,0h.128v.128q.007,13.865.015,29.444,0,7.779.007,15.959,0,4.09,0,8.275,0,2.092,0,4.209a11.9,11.9,0,0,1-.144,2.142,11.437,11.437,0,0,1-.591,2.078,10.908,10.908,0,0,1-2.3,3.677,6.747,6.747,0,0,1-3.817,2.132,21.636,21.636,0,0,1-2.213.056h-2.2l-4.441,0-18.212.006-38.451.01-84.129.017-11.116,0c-1.871-.017-3.712.04-5.622-.038a7.733,7.733,0,0,1-6.958-7.905q0-2.838-.01-5.69-.011-5.705-.021-11.465-.042-23.038-.086-46.9l.2.2H45.635c-1.177.019-2.363-.052-3.513.082a13.515,13.515,0,0,0-3.39.866,34.829,34.829,0,0,1-3.352,1.3,27.042,27.042,0,0,1-27.266-6.626,26.267,26.267,0,0,1-6.173-9.336c-.216-.59-.482-1.164-.658-1.769l-.5-1.823A27.73,27.73,0,0,1,2.46,197.2a27.244,27.244,0,0,1,20.972-15.67,28.308,28.308,0,0,1,8.958.21,27.507,27.507,0,0,1,4.319,1.171c.7.254,1.393.531,2.067.847a21.456,21.456,0,0,0,2.016.866c2.741,1.082,5.737.687,8.662.761l-.2.2q0-17.058,0-33.678,0-8.306,0-16.492a25.553,25.553,0,0,1,.164-4.112,9.1,9.1,0,0,1,1.629-3.785,9.418,9.418,0,0,1,7-3.872l62.266-.023-.186.21c-.1-.829-.2-1.624-.3-2.417l0-.011V121.4a13.552,13.552,0,0,0-.737-4.342c-.231-.7-.537-1.364-.83-2.058s-.539-1.393-.771-2.1a28.455,28.455,0,0,1-1.376-8.739l.119-2.2c.028-.365.024-.734.077-1.1l.177-1.082c.136-.717.2-1.449.393-2.15l.582-2.1a6.6,6.6,0,0,1,.35-1.027l.4-1.009a14.23,14.23,0,0,1,.878-1.976l1-1.91,1.187-1.792a28.07,28.07,0,0,1,5.829-6.164l.822-.664.88-.58c.592-.378,1.168-.779,1.769-1.136a30.765,30.765,0,0,1,3.777-1.785,28.559,28.559,0,0,1,8.008-1.919,28.24,28.24,0,0,1,4.08-.064c.676.045,1.354.057,2.025.13l2,.3a29.1,29.1,0,0,1,14.027,7.013,28.562,28.562,0,0,1,8.725,27.383,30.074,30.074,0,0,1-2.416,6.731,14.69,14.69,0,0,0-1.039,3.312,16.82,16.82,0,0,0-.217,3.439l-.149-.147,38.887-.125,8.846-.028,2.155-.006c.713-.007,1.424-.01,2.142.042a9.418,9.418,0,0,1,3.992,1.345,9.275,9.275,0,0,1,4.36,6.638,35.831,35.831,0,0,1,.095,3.924q0,1.932-.006,3.817c-.041,20.1-.075,36.081-.1,47.321v.06h-.06c-1.949.026-3.76.117-5.457.082a13.685,13.685,0,0,1-4.527-1.185,30.072,30.072,0,0,0-6.682-2.37,20.55,20.55,0,0,0-4.157-.447c-.461,0-.8.009-1.032.02s-.341.009-.341.009a13.466,13.466,0,0,1,1.374-.06,20.023,20.023,0,0,1,4.169.419,29.906,29.906,0,0,1,6.707,2.346,13.612,13.612,0,0,0,4.5,1.163c1.68.029,3.5-.066,5.447-.1l-.06.06c0-11.239,0-27.218,0-47.32q0-1.885,0-3.818a36,36,0,0,0-.1-3.892,9.047,9.047,0,0,0-4.261-6.467,9.17,9.17,0,0,0-3.891-1.306c-.693-.048-1.4-.047-2.119-.039l-2.155.01-8.846.038-38.886.163h-.147v-.148a17.142,17.142,0,0,1,.218-3.492,14.977,14.977,0,0,1,1.058-3.381,29.8,29.8,0,0,0,2.39-6.676,28.249,28.249,0,0,0-8.646-27.072A28.774,28.774,0,0,0,150.4,76.272l-1.976-.3c-.663-.071-1.334-.083-2-.127a27.821,27.821,0,0,0-4.033.066,28.209,28.209,0,0,0-7.911,1.9,30.357,30.357,0,0,0-3.73,1.765c-.592.353-1.162.749-1.746,1.123l-.87.573-.811.657a27.727,27.727,0,0,0-5.754,6.091l-1.171,1.771-.988,1.886a13.955,13.955,0,0,0-.866,1.951l-.393,1a6.42,6.42,0,0,0-.345,1.015l-.573,2.074c-.192.693-.253,1.415-.387,2.123l-.176,1.068c-.052.357-.048.721-.075,1.081l-.117,2.171a28.059,28.059,0,0,0,1.361,8.626c.23.7.481,1.391.762,2.074s.6,1.364.839,2.08a13.939,13.939,0,0,1,.758,4.461l0-.023c.1.793.2,1.588.3,2.418l.026.21h-.212l-62.239.043a9.021,9.021,0,0,0-6.7,3.71,8.72,8.72,0,0,0-1.559,3.624,25.36,25.36,0,0,0-.155,4.039q0,8.185,0,16.492,0,16.612,0,33.678v.2H45.05a13.157,13.157,0,0,1-4.4-.784,21.407,21.407,0,0,1-2.051-.88c-.663-.311-1.345-.584-2.036-.834a27.089,27.089,0,0,0-4.254-1.152,27.883,27.883,0,0,0-8.827-.206A26.838,26.838,0,0,0,2.835,197.372a27.323,27.323,0,0,0-1.647,17.745l.489,1.8c.172.595.435,1.16.648,1.741a25.853,25.853,0,0,0,6.08,9.2,26.631,26.631,0,0,0,26.85,6.527,34.381,34.381,0,0,0,3.327-1.287,13.905,13.905,0,0,1,3.493-.891c1.2-.139,2.387-.064,3.56-.084h3.721v.2q.039,23.841.079,46.9.01,5.76.019,11.464,0,2.853.009,5.691a7.334,7.334,0,0,0,6.6,7.511c1.831.074,3.73.021,5.583.037l11.116,0,84.129.017,38.451.011,18.212.006,4.441,0h2.2a21.661,21.661,0,0,0,2.168-.052A6.427,6.427,0,0,0,226,301.875a10.607,10.607,0,0,0,2.234-3.571,11.129,11.129,0,0,0,.577-2.02,11.5,11.5,0,0,0,.141-2.088q0-2.117,0-4.209,0-4.186,0-8.275,0-8.178.007-15.959.007-15.557.015-29.444l.127.127-5.983,0a12.748,12.748,0,0,0-5.632,1.058,24.642,24.642,0,0,1-11.015,1.5,24.985,24.985,0,0,1-17.5-9.355,24.7,24.7,0,0,1-4.253-8.054,25.8,25.8,0,0,1-1.13-8.325,34.828,34.828,0,0,1,3.953-14.012c4.007-7.844,9.32-12.532,13.368-14.573a17.368,17.368,0,0,1,4.863-1.692,11.212,11.212,0,0,1,1.3-.178c.291-.029.438-.039.438-.039" transform="translate(0 -15.528)" fill="#263238"/>
              <path id="Trazado_874070" data-name="Trazado 874070" d="M469.053,197.6a27.539,27.539,0,0,0-11.226,2.384,14.526,14.526,0,0,1-3.758,1.1V144.567a7.534,7.534,0,0,0-7.534-7.534H387.722v6.675a11.987,11.987,0,0,0,.884,4.5,24.948,24.948,0,0,1-24.188,34.263,25.177,25.177,0,0,1-23.9-23.2,24.751,24.751,0,0,1,2.291-12.3,12.382,12.382,0,0,0,1.221-5.257v-4.679l-59.586-.188a9.251,9.251,0,0,0-9.251,9.251l-.058,52.422h-4.062c-.461,0-.929-.012-1.4-.046a30.441,30.441,0,1,0-2.82,51.026,11.665,11.665,0,0,1,2.467-.271h5.213v58.509a9.252,9.252,0,0,0,9.251,9.252H446.535a7.533,7.533,0,0,0,7.534-7.534v-59.57a14.981,14.981,0,0,1,2.919,1.068,27.616,27.616,0,0,0,16.875,2.373,28.084,28.084,0,0,0-4.81-55.719" transform="translate(-45.549 -28.164)" fill="#f5f5f5"/>
              <path id="Trazado_874071" data-name="Trazado 874071" d="M469,197.551s.6.021,1.769.079a13.837,13.837,0,0,1,2.176.207c.43.07.9.144,1.4.226a10.126,10.126,0,0,1,1.581.358c.556.152,1.145.315,1.767.484.611.206,1.236.476,1.9.731.331.133.675.257,1.017.407l1.017.527a18.148,18.148,0,0,1,2.128,1.2,28.1,28.1,0,0,1,13.125,21.974c.029.679.09,1.366.093,2.06q-.056,1.042-.114,2.107c-.027.354-.021.713-.075,1.068s-.107.712-.161,1.071-.111.72-.167,1.082c-.085.357-.169.716-.255,1.076a28.053,28.053,0,0,1-3.569,8.484,27.881,27.881,0,0,1-16.109,12.075c-.875.268-1.791.408-2.695.62-.918.145-1.846.276-2.788.335a27.644,27.644,0,0,1-11.452-1.568c-1.9-.64-3.624-1.752-5.6-2.2l.16-.125q.007,13.724.015,29.1,0,7.677.007,15.742,0,4.031,0,8.155,0,2.062,0,4.147,0,1.042,0,2.091c.008.346-.021.708-.037,1.063a8.086,8.086,0,0,1-.18,1.058,7.712,7.712,0,0,1-5.907,5.75,10.7,10.7,0,0,1-2.181.16H443.7l-4.371,0q-8.787,0-17.915.006l-37.793.01-82.593.016-10.907,0h-5.5a13.851,13.851,0,0,1-2.788-.192,10.359,10.359,0,0,1-2.643-.974,9.548,9.548,0,0,1-3.88-4.022,9.034,9.034,0,0,1-.884-2.695,15.762,15.762,0,0,1-.141-2.819q0-5.6,0-11.247,0-22.6,0-46.01l.2.2h-3.76c-.643,0-1.31-.012-1.948.011a11.769,11.769,0,0,0-1.929.254l.059-.022a30.558,30.558,0,0,1-12.385,3.912,30.593,30.593,0,0,1-31.783-20.552,31.415,31.415,0,0,1-1.676-9.7,32.734,32.734,0,0,1,1.476-9.684A30.568,30.568,0,0,1,227,204.937a32.9,32.9,0,0,1,3.158-3.7l1.8-1.634c.607-.535,1.285-.984,1.924-1.48a31.749,31.749,0,0,1,8.6-4.332,33.751,33.751,0,0,1,9.475-1.412,30.523,30.523,0,0,1,17.793,5.878l-.106-.037c1.8.091,3.637.027,5.443.046l-.2.2q.02-16.8.04-33.157.01-8.175.019-16.229l0-2.012c-.007-.666,0-1.341.056-2.027a9.468,9.468,0,0,1,7.786-8.3,25.7,25.7,0,0,1,3.98-.138l3.938.012,7.825.027,15.443.052,30.011.1.184,0v.183q0,2.105,0,4.2a12.438,12.438,0,0,1-.591,4.166,16.044,16.044,0,0,1-.781,1.944c-.288.622-.537,1.26-.772,1.9a24.45,24.45,0,0,0,1.35,19.554,24.879,24.879,0,0,0,4.652,6.32,25.82,25.82,0,0,0,6.283,4.514,24.449,24.449,0,0,0,14.753,2.4,24.78,24.78,0,0,0,13.091-6.25,24.348,24.348,0,0,0,4.523-5.548,23.622,23.622,0,0,0,2.715-6.489,24.379,24.379,0,0,0-.293-13.569c-.307-1.083-.81-2.089-1.118-3.193a12.107,12.107,0,0,1-.456-3.347q0-3.332,0-6.6v-.148h.148c15.465.009,29.846.014,43.043.022q4.949,0,9.674.006l4.667,0c.768,0,1.53-.019,2.3.055a7.89,7.89,0,0,1,2.208.6,7.668,7.668,0,0,1,4.563,7.048q0,4.26-.006,8.285c-.023,21.457-.041,37.78-.052,48.189l-.058-.05c2.649-.344,4.643-1.634,6.528-2.15a27.422,27.422,0,0,1,4.709-1.059,26.328,26.328,0,0,1,2.827-.225c.623-.014.927,0,.927,0s-.3.009-.926.031a27.728,27.728,0,0,0-7.513,1.331c-1.873.518-3.865,1.819-6.537,2.176l-.058.008v-.057c-.011-10.409-.029-26.732-.053-48.189q0-4.023-.006-8.285a7.448,7.448,0,0,0-4.437-6.839,7.677,7.677,0,0,0-2.142-.577c-.739-.071-1.507-.048-2.275-.051l-4.667,0q-4.725,0-9.674.006c-13.2.006-27.577.012-43.043.021l.147-.149q0,3.268,0,6.6a11.8,11.8,0,0,0,.447,3.264c.3,1.061.805,2.086,1.119,3.184a24.7,24.7,0,0,1,.307,13.74,23.954,23.954,0,0,1-2.745,6.576,24.7,24.7,0,0,1-4.578,5.623,25.115,25.115,0,0,1-13.263,6.343,24.778,24.778,0,0,1-14.959-2.421,26.12,26.12,0,0,1-6.373-4.574,25.248,25.248,0,0,1-4.721-6.4,24.817,24.817,0,0,1-1.379-19.841c.238-.652.49-1.3.782-1.931a15.721,15.721,0,0,0,.766-1.905,12.072,12.072,0,0,0,.572-4.054q0-2.092,0-4.2l.185.185q-14.7-.042-30.01-.089l-15.443-.045-7.825-.024L286.765,137a25.465,25.465,0,0,0-3.912.133,9.072,9.072,0,0,0-7.459,7.954c-.051.647-.061,1.31-.053,1.984l0,2.012q-.007,8.054-.015,16.229-.017,16.352-.033,33.157v.206l-.2,0c-1.819-.021-3.616.045-5.473-.047l-.056,0-.049-.036a30.1,30.1,0,0,0-17.555-5.8,33.258,33.258,0,0,0-9.348,1.395,31.307,31.307,0,0,0-8.487,4.274c-.63.49-1.3.932-1.9,1.461l-1.775,1.612a32.416,32.416,0,0,0-3.116,3.654,30.167,30.167,0,0,0-4.392,8.546,32.291,32.291,0,0,0-1.456,9.552,30.4,30.4,0,0,0,8.761,21.027,30.459,30.459,0,0,0,24.247,8.817,30.133,30.133,0,0,0,12.218-3.858l.028-.016.031-.006a12.031,12.031,0,0,1,2-.263c.676-.024,1.317-.007,1.967-.012h3.965v.2q0,23.387,0,46.01,0,5.65,0,11.247a15.335,15.335,0,0,0,.135,2.753,8.653,8.653,0,0,0,.845,2.58,9.149,9.149,0,0,0,3.717,3.853,9.956,9.956,0,0,0,2.53.934,13.619,13.619,0,0,0,2.708.185h5.5l10.907,0c28.927.006,56.565.012,82.593.016q19.52.007,37.793.01l17.915.006,4.371,0h2.17a10.316,10.316,0,0,0,2.116-.153,7.4,7.4,0,0,0,5.667-5.508,8.125,8.125,0,0,0,.209-2.05q0-1.048,0-2.091,0-2.085,0-4.147,0-4.124,0-8.155,0-8.063.007-15.742.008-15.354.015-29.1v-.162l.16.037c2.028.465,3.757,1.584,5.624,2.213a27.406,27.406,0,0,0,11.351,1.568c.934-.059,1.854-.187,2.765-.329.9-.21,1.805-.347,2.673-.612a27.985,27.985,0,0,0,19.559-20.38q.127-.537.255-1.069c.056-.359.112-.718.168-1.075s.108-.711.162-1.064.049-.71.076-1.062q.06-1.058.118-2.093c0-.69-.062-1.373-.089-2.048a28.008,28.008,0,0,0-13.01-21.9,18.113,18.113,0,0,0-2.117-1.2l-1.012-.531c-.34-.151-.683-.276-1.012-.41-.664-.256-1.286-.528-1.894-.735l-1.759-.492a10.122,10.122,0,0,0-1.576-.368l-1.391-.233a13.978,13.978,0,0,0-2.171-.225c-1.17-.069-1.766-.114-1.766-.114" transform="translate(-45.498 -28.113)" fill="#263238"/>
            </g>
          </g>
          <g id="Grupo_1099885" data-name="Grupo 1099885">
            <g id="Grupo_1099884" data-name="Grupo 1099884" clip-path="url(#clip-path)">
              <path id="Trazado_874072" data-name="Trazado 874072" d="M283.541,226.226a8.742,8.742,0,0,1,5.03-.86c2.36.516,10.924,6.1,10.924,6.1l6.9-1.289,4.067,19.485L283.541,260.85Z" transform="translate(-58.356 -46.359)" fill="#ae7461"/>
              <path id="Trazado_874073" data-name="Trazado 874073" d="M257.793,233.049s6.167-.779,8.4-1.9,7.561-5.843,8.677-5.757,5.155.859,5.155.859l-1.632,4.9s8.076,4.9,10.482,6.7,9.966,9.88,10.31,11.856-.258,4.3-1.2,5.069-4.382-.774-4.382-.774a4.294,4.294,0,0,1-.774,3.522c-1.288,1.719-4.3,1.117-4.3,1.117s-.257,2.835-1.632,3.351-4.468-1.031-4.468-1.031-.933,2.406-2.056,2.663-4.3-1.632-4.3-1.632-13.747-9.88-16.84-11.341a15.805,15.805,0,0,0-4.038-1.546Z" transform="translate(-52.523 -46.389)" fill="#ffbe9d"/>
              <path id="Trazado_874074" data-name="Trazado 874074" d="M288.97,269.164c-.062,0-.1-.242-.246-.6a10.786,10.786,0,0,0-.691-1.372,8.768,8.768,0,0,1-1.063-1.959,4.824,4.824,0,0,1,1.422,1.753,5.109,5.109,0,0,1,.614,1.5c.084.419.017.689-.035.685" transform="translate(-59.06 -54.587)" fill="#eb996e"/>
              <path id="Trazado_874075" data-name="Trazado 874075" d="M295.747,266.765a21.743,21.743,0,0,1-1.733-2.6c-.94-1.43-1.947-2.386-1.875-2.475a6.07,6.07,0,0,1,2.217,2.243,8.334,8.334,0,0,1,1.391,2.827" transform="translate(-60.125 -53.859)" fill="#eb996e"/>
              <path id="Trazado_874076" data-name="Trazado 874076" d="M302.743,260.326c-.122.03-.506-1.457-1.455-3.06s-2.044-2.674-1.958-2.765a8.435,8.435,0,0,1,3.413,5.825" transform="translate(-61.605 -52.378)" fill="#eb996e"/>
              <path id="Trazado_874077" data-name="Trazado 874077" d="M298.546,248.335a7.737,7.737,0,0,1,.206,4.639,46.817,46.817,0,0,1-.206-4.639" transform="translate(-61.434 -51.111)" fill="#eb996e"/>
              <path id="Trazado_874078" data-name="Trazado 874078" d="M273.372,235.878s2.148-6.874,2.921-7.732,7.958-2.751,7.958-2.751l2.228,5.758-1.594,1.686-3.436-.226s-2.147,5.671-8.076,3.265" transform="translate(-56.264 -46.389)" fill="#ae7461"/>
              <path id="Trazado_874079" data-name="Trazado 874079" d="M256.66,255.709s-.982.756,0,2.561,3.646.515,4.505,0c0,0-1.289,3.006.343,3.952a6.409,6.409,0,0,0,3.609.687s-.086,1.805,2.234,3.008,2.921,0,2.921,0,.258,3.007,2.921,3.265,3.6-.658,3.6-.658l-1.2-1.776s1.546-3.152.344-4.526a4.116,4.116,0,0,0-3.179-1.2s.526-2.792-1.006-3.57a2.819,2.819,0,0,0-4.062,1.25s-.172-3.06-2.406-2.991a4.978,4.978,0,0,0-3.436,1.444Z" transform="translate(-52.734 -52.628)" fill="#ae7461"/>
              <path id="Trazado_874080" data-name="Trazado 874080" d="M270.009,259.474a11.3,11.3,0,0,1-2.529,4.3,23.13,23.13,0,0,1,2.529-4.3" transform="translate(-55.048 -53.403)" fill="#6f4439"/>
              <path id="Trazado_874081" data-name="Trazado 874081" d="M276.35,262.883a9.367,9.367,0,0,1-2.961,4.331,90.018,90.018,0,0,1,2.961-4.331" transform="translate(-56.265 -54.104)" fill="#6f4439"/>
              <path id="Trazado_874082" data-name="Trazado 874082" d="M205.868,303.707H192.835L189.5,351.1h13.067c2.225-7.218,7.785-44.831,7.785-44.831Z" transform="translate(-39.001 -62.507)" fill="#263238"/>
              <path id="Trazado_874083" data-name="Trazado 874083" d="M115.211,303.707s-8.341,19.558-7.507,27.475,5.518,19.917,5.518,19.917H177.77a148.316,148.316,0,0,0,3.19-16.391c1.391-9.78,5.145-31,5.145-31Z" transform="translate(-22.155 -62.507)" fill="#263238"/>
              <path id="Trazado_874084" data-name="Trazado 874084" d="M203.146,57.044c-2.18-2.751-4.875-5.4-5.432-8.866-.514-3.186.88-6.675-.549-9.569-1.758-3.56-6.81-4.255-9-7.566-1.061-1.6-1.313-3.635-2.36-5.247-1.785-2.749-5.448-3.633-8.719-3.444s-6.462,1.2-9.738,1.273c-4.494.095-9.045-1.592-13.409-.515-4.815,1.188-7.922,5.246-11.206,9.16l-4.254,4.518a17.732,17.732,0,0,1-2.788,2.044c-1.746,1.013-3.721,1.675-5.245,3a7.938,7.938,0,0,0-.035,11.447,8.488,8.488,0,0,0-6.119,8.036,24.37,24.37,0,0,0,1.256,5.829,8.478,8.478,0,0,1-.124,5.85c-.882,1.788-3.278,2.927-4.965,1.865a8.929,8.929,0,0,0,4.575,6.178,5.345,5.345,0,0,1-3.664,1.42c3.222,8.707,12.889,13.666,22.159,14.157s18.314-2.6,27.082-5.652l25.277-5.3c2.216-.4,3.255-3.019,3.331-5.269s-.384-4.617.519-6.68c1.238-2.828,4.659-4.2,5.948-7,1.464-3.189-.359-6.91-2.538-9.661" transform="translate(-24.792 -4.595)" fill="#263238"/>
              <path id="Trazado_874085" data-name="Trazado 874085" d="M147.85,80.547a102.977,102.977,0,0,1-3.589-17.4,35.966,35.966,0,0,1,2.31-17.458c.356-.825,3.314-6.334,4.2-6.2.635.1-1.279,5.278-.984,5.85,2.809,5.452,3.319,11.86,2.512,17.941a80.362,80.362,0,0,1-4.452,17.271" transform="translate(-29.651 -8.126)" fill="#263238"/>
              <path id="Trazado_874086" data-name="Trazado 874086" d="M148.859,55.842c.283-14.873,9.174-27.1,24.033-26.411l1.37.144a26.594,26.594,0,0,1,23.8,27.1c-.317,12.89-.832,27.127-1.639,33.975-1.672,14.176-16.1,14.887-16.1,14.887-.032,0-.388,23.417-.388,23.417l-33.788-23.412Z" transform="translate(-30.079 -6.052)" fill="#ffbe9d"/>
              <path id="Trazado_874087" data-name="Trazado 874087" d="M184.54,123.342a34.477,34.477,0,0,1-17.907-7.412s3.327,12,17.626,12.212Z" transform="translate(-34.295 -23.86)" fill="#eb996e"/>
              <path id="Trazado_874088" data-name="Trazado 874088" d="M204.269,77.057A2.038,2.038,0,0,1,202.1,78.9a1.949,1.949,0,0,1-1.9-2.048,2.039,2.039,0,0,1,2.168-1.841,1.952,1.952,0,0,1,1.9,2.05" transform="translate(-41.203 -15.437)" fill="#263238"/>
              <path id="Trazado_874089" data-name="Trazado 874089" d="M204.843,70.085c-.279.237-1.695-1.061-3.877-1.285-2.176-.255-3.9.7-4.1.406-.1-.13.2-.581.953-1.014a5.592,5.592,0,0,1,3.32-.652,5.371,5.371,0,0,1,3.051,1.353c.616.585.793,1.087.657,1.193" transform="translate(-40.513 -13.893)" fill="#263238"/>
              <path id="Trazado_874090" data-name="Trazado 874090" d="M179.412,77.057a2.038,2.038,0,0,1-2.171,1.839,1.949,1.949,0,0,1-1.9-2.048,2.04,2.04,0,0,1,2.169-1.841,1.951,1.951,0,0,1,1.9,2.05" transform="translate(-36.087 -15.437)" fill="#263238"/>
              <path id="Trazado_874091" data-name="Trazado 874091" d="M177.82,68.361c-.28.237-1.7-1.061-3.878-1.285-2.176-.255-3.9.7-4.1.407-.1-.131.2-.581.954-1.014a5.591,5.591,0,0,1,3.32-.653,5.379,5.379,0,0,1,3.051,1.353c.615.585.793,1.087.658,1.193" transform="translate(-34.951 -13.539)" fill="#263238"/>
              <path id="Trazado_874092" data-name="Trazado 874092" d="M187.522,86.436a14.528,14.528,0,0,1,3.61-.266c.563,0,1.1-.054,1.236-.424a2.848,2.848,0,0,0-.2-1.69q-.573-2.105-1.2-4.416c-1.651-6.28-2.784-11.42-2.53-11.484s1.8,4.974,3.448,11.254q.591,2.322,1.129,4.433a3.243,3.243,0,0,1,.058,2.217,1.406,1.406,0,0,1-1,.719,3.782,3.782,0,0,1-.96.031,14.256,14.256,0,0,1-3.591-.373" transform="translate(-38.594 -14.027)" fill="#263238"/>
              <path id="Trazado_874093" data-name="Trazado 874093" d="M179.108,92.22c.357.017.112,2.385,1.962,4.279s4.4,1.9,4.381,2.232c.017.152-.611.4-1.679.318a5.933,5.933,0,0,1-3.672-1.73,5.167,5.167,0,0,1-1.492-3.572c.014-1,.34-1.558.5-1.527" transform="translate(-36.76 -18.98)" fill="#263238"/>
              <path id="Trazado_874094" data-name="Trazado 874094" d="M178.311,57.314c-.278.571-2.426.06-5.018.1-2.593-.014-4.736.518-5.019-.049-.124-.271.295-.791,1.189-1.277a8.728,8.728,0,0,1,7.646-.037c.9.478,1.324.994,1.2,1.265" transform="translate(-34.629 -11.358)" fill="#263238"/>
              <path id="Trazado_874095" data-name="Trazado 874095" d="M204.828,60.806c-.436.455-1.885-.218-3.689-.433-1.8-.277-3.372-.018-3.67-.574-.127-.267.166-.739.883-1.137a5.381,5.381,0,0,1,5.93.812c.585.577.74,1.109.546,1.333" transform="translate(-40.636 -11.961)" fill="#263238"/>
              <path id="Trazado_874096" data-name="Trazado 874096" d="M146.984,75.868c-.231-.13-9.449-3.913-10.162,5.825s9.21,8.444,9.248,8.167.915-13.991.915-13.991" transform="translate(-28.152 -15.444)" fill="#ffbe9d"/>
              <path id="Trazado_874097" data-name="Trazado 874097" d="M144.008,86.748c-.041-.034-.18.106-.476.217a1.7,1.7,0,0,1-1.27-.068c-1-.452-1.746-2.149-1.666-3.907a5.632,5.632,0,0,1,.653-2.394,1.964,1.964,0,0,1,1.371-1.209.865.865,0,0,1,.967.538c.11.282.034.472.085.492.025.027.221-.147.173-.555a1.1,1.1,0,0,0-.339-.639,1.286,1.286,0,0,0-.92-.316,2.386,2.386,0,0,0-1.881,1.38,5.764,5.764,0,0,0-.787,2.671c-.082,1.966.788,3.876,2.166,4.386a1.819,1.819,0,0,0,1.57-.144c.319-.219.387-.433.355-.453" transform="translate(-28.796 -16.24)" fill="#eb996e"/>
              <path id="Trazado_874098" data-name="Trazado 874098" d="M192.447,39.645c1.633-.768-2.771-6.18-6.532-8.187-5.686-3.034-14.523-5.246-20.022-4.061-6.62,1.425-12.23,4.312-15.874,10.019a38.406,38.406,0,0,0-5.561,19.29,11.662,11.662,0,0,0,.99,6.041c1.222,2.242,3.746,3.767,3.44,6.731a4.086,4.086,0,0,0,.821,3.039c1.66,2.012,3.956.37,5.073-1.352,2.387-3.679,2.919-8.22,3.389-12.579a28.564,28.564,0,0,0-.02-9.306c-.372-1.654-1.039-3.238-1.319-4.91a5.867,5.867,0,0,1,1-4.82,6.193,6.193,0,0,1,.843-.75,10.181,10.181,0,0,1,10.2-1.27c5.362,2.294,14.545,5.8,17.112,4.092,3.693-2.452,4.648-4.145,4.648-4.145Z" transform="translate(-29.727 -5.572)" fill="#263238"/>
              <path id="Trazado_874099" data-name="Trazado 874099" d="M168.484,25.652a21.447,21.447,0,0,1,16.4,1.962c2.571,1.55,4.832,3.911,5.457,6.848s-.834,6.407-3.682,7.359l-.2.107c-4.247,1.133-6.913.4-10.965-1.3-3.409-1.432-6.373-3.784-9.79-5.2a19.837,19.837,0,0,0-11.567-1.082,32.389,32.389,0,0,1,14.344-8.7" transform="translate(-31.724 -5.118)" fill="#263238"/>
              <path id="Trazado_874100" data-name="Trazado 874100" d="M175.3,23.724a4.3,4.3,0,0,1,.991.1,15.973,15.973,0,0,1,2.622.713,16.707,16.707,0,0,1,3.587,1.85,13.893,13.893,0,0,1,3.575,3.423,13.237,13.237,0,0,1,1.966,4.543,23.8,23.8,0,0,1,.6,3.985c.08,1.143.083,2.07.071,2.708a4.323,4.323,0,0,1-.071.992,4.842,4.842,0,0,1-.091-.989c-.037-.636-.085-1.557-.2-2.686a26.451,26.451,0,0,0-.677-3.917,13.332,13.332,0,0,0-1.935-4.4,14.027,14.027,0,0,0-3.453-3.347,17.669,17.669,0,0,0-3.478-1.89,35.456,35.456,0,0,0-3.507-1.085" transform="translate(-36.08 -4.881)" fill="#455a64"/>
              <path id="Trazado_874101" data-name="Trazado 874101" d="M186.594,23.044a3.522,3.522,0,0,1,.841.233,6.965,6.965,0,0,1,.962.361l1.217.616a12.563,12.563,0,0,1,5.052,5.941,15.511,15.511,0,0,1,.716,2.142,15.346,15.346,0,0,1,.318,2.078,14.429,14.429,0,0,1,.038,1.9,13.82,13.82,0,0,1-.224,1.642,8.371,8.371,0,0,1-.361,1.316,6.143,6.143,0,0,1-.392.951,3.512,3.512,0,0,1-.45.75,17.905,17.905,0,0,0,.916-3.07,15.194,15.194,0,0,0,.168-1.605,15.212,15.212,0,0,0-.074-1.85,16.182,16.182,0,0,0-.332-2.017,15.9,15.9,0,0,0-.7-2.078A12.906,12.906,0,0,0,189.46,24.5l-1.163-.657a8.988,8.988,0,0,0-.92-.419,3.625,3.625,0,0,1-.784-.383" transform="translate(-38.403 -4.742)" fill="#455a64"/>
              <path id="Trazado_874102" data-name="Trazado 874102" d="M175.689,144.868c0,1.337,6.7,30.756,9.262,37.982s10.682,79.693,9.614,84.855-3.845,4.955-3.845,4.955-65.586-4.129-72.636-3.51-10.041.412-11.75-7.639.051-49.9-1.445-60.017-1.508-15.02-2.086-30.05c-.5-13.027,2.463-23.475,8.658-31.017s19.909-15.166,19.909-15.166l4.865-7.094,34.424,18.207.786-4.143,2.089,6.451Z" transform="translate(-21.147 -24.32)" fill="#455a64"/>
              <g id="Grupo_1099871" data-name="Grupo 1099871" transform="translate(89.315 147.416)" opacity="0.3">
                <g id="Grupo_1099870" data-name="Grupo 1099870">
                  <g id="Grupo_1099869" data-name="Grupo 1099869" clip-path="url(#clip-path-5)">
                    <path id="Trazado_874103" data-name="Trazado 874103" d="M192.485,248.417c-.573-1.461-2.433-1.829-3.993-2-14.585-1.618-29.767-5.259-40.42-15.352-4.167-3.949-7.454-8.72-10.621-13.509-6.923-10.467-13.43-21.2-19.937-31.935l-5.052,1.911c3.1,15.153,6.149,26.124,11.194,38.544s8.965,24.471,21.754,28.539c8.267,2.63,23.969.614,32.618-.064a50.607,50.607,0,0,0,10.715-1.679,6.986,6.986,0,0,0,2.9-1.474,2.859,2.859,0,0,0,.843-2.98" transform="translate(-112.461 -185.619)"/>
                  </g>
                </g>
              </g>
              <path id="Trazado_874104" data-name="Trazado 874104" d="M110.022,174.688c.377.672,29.566,63.013,42.6,65.577s53.533,3.162,61.437,1.667,15.638-2.888,15.638-2.888,5.724-13.595.5-25.177l-10.878.344s-30.251-1.631-34.523-2.8-7.964-5.175-11.81-4.961L149.972,152.9s-14.955-13.886-25.636-9.614-17.444,25.837-14.314,31.4" transform="translate(-22.486 -29.322)" fill="#455a64"/>
              <path id="Trazado_874105" data-name="Trazado 874105" d="M248.6,259.894a5.316,5.316,0,0,1,.216-1.047c.172-.665.388-1.634.615-2.837s.432-2.647.577-4.258a45.644,45.644,0,0,0,.114-5.254,42.916,42.916,0,0,0-1.481-9.422c-.325-1.18-.619-2.128-.847-2.776a5.347,5.347,0,0,1-.3-1.025,5.1,5.1,0,0,1,.453.97,28.266,28.266,0,0,1,.977,2.749,38.394,38.394,0,0,1,1.613,9.487,41.5,41.5,0,0,1-.147,5.306,37.307,37.307,0,0,1-.67,4.281,28.357,28.357,0,0,1-.747,2.821,5.269,5.269,0,0,1-.371,1" transform="translate(-50.937 -48.011)" fill="#263238"/>
              <path id="Trazado_874106" data-name="Trazado 874106" d="M150.172,155.6s.154.319.434.949.692,1.576,1.227,2.8c1.073,2.469,2.643,6.087,4.656,10.722,4.015,9.3,9.789,22.675,16.844,39.018l-.159-.1a9.954,9.954,0,0,1,5.1,1.563c1.588.875,3.125,1.893,4.813,2.663a16.164,16.164,0,0,0,5.475,1.274c1.916.226,3.872.395,5.856.567,7.937.656,16.349,1.173,25.107,1.661h-.017l10.879-.348.137,0,.052.123a28.008,28.008,0,0,1,2.178,12.485,40.869,40.869,0,0,1-2.67,12.855l-.04.1-.114.021-6.917,1.278-7.573,1.4a50.591,50.591,0,0,1-7.579.781c-5.032.229-9.992.249-14.866.223s-9.658-.14-14.341-.314-9.268-.408-13.734-.749c-2.234-.16-4.436-.375-6.605-.612a46.087,46.087,0,0,1-6.4-1.062,11.142,11.142,0,0,1-2.769-1.6,23.28,23.28,0,0,1-2.353-2.063,50.93,50.93,0,0,1-4.039-4.555A167.089,167.089,0,0,1,130.5,216.231c-6.842-11.691-11.78-21.482-15.171-28.249-1.686-3.39-2.962-6.037-3.819-7.836s-1.285-2.755-1.285-2.755.129.228.357.685l1,2.033,3.888,7.8c3.434,6.743,8.41,16.511,15.279,28.172a167.939,167.939,0,0,0,12.277,18.38,50.5,50.5,0,0,0,4.019,4.517,22.926,22.926,0,0,0,2.321,2.029,10.771,10.771,0,0,0,2.678,1.543,46.393,46.393,0,0,0,6.315,1.034c2.165.233,4.362.446,6.593.6q6.688.5,13.718.734c4.68.169,9.462.279,14.33.3s9.826,0,14.843-.23a50.22,50.22,0,0,0,7.524-.775l7.573-1.4,6.919-1.277-.154.123a40.493,40.493,0,0,0,2.642-12.711,27.644,27.644,0,0,0-2.136-12.3l.19.118-10.879.34H219.5c-8.762-.5-17.173-1.022-25.119-1.691-1.985-.176-3.942-.346-5.866-.577-.962-.109-1.915-.233-2.861-.413a10.712,10.712,0,0,1-2.716-.9c-1.719-.79-3.259-1.815-4.83-2.684a9.666,9.666,0,0,0-4.919-1.532l-.115.006-.044-.1c-7-16.367-12.731-29.761-16.714-39.075-1.977-4.65-3.521-8.279-4.574-10.756l-1.186-2.816c-.264-.637-.388-.969-.388-.969" transform="translate(-22.685 -32.025)" fill="#263238"/>
              <path id="Trazado_874107" data-name="Trazado 874107" d="M147.973,148.446c-.028.025-.407-.376-1.132-1.048a21.856,21.856,0,0,0-9.006-4.971,20.256,20.256,0,0,0-14.73,1.472,21.864,21.864,0,0,0-7.843,6.655c-.578.8-.87,1.271-.9,1.252a1.509,1.509,0,0,1,.177-.36c.135-.224.307-.575.593-.983a19.234,19.234,0,0,1,2.705-3.248,20.795,20.795,0,0,1,25.824-2.582,19.2,19.2,0,0,1,3.294,2.649c.363.343.6.653.777.847a1.484,1.484,0,0,1,.245.318" transform="translate(-23.536 -29.075)" fill="#263238"/>
              <path id="Trazado_874108" data-name="Trazado 874108" d="M188.521,223.089a27.411,27.411,0,0,1-1.472,4.522,27.431,27.431,0,0,1-1.86,4.378,54.684,54.684,0,0,1,3.332-8.9" transform="translate(-38.112 -45.914)" fill="#263238"/>
              <path id="Trazado_874109" data-name="Trazado 874109" d="M255.553,236c0-.023.112-.055.3.013a1.131,1.131,0,0,1,.585.572,1.249,1.249,0,0,1-.029,1.237,1.428,1.428,0,0,1-1.381.639,1.34,1.34,0,0,1-1.04-1.11,1.283,1.283,0,0,1,.4-1.173,1.048,1.048,0,0,1,.782-.255c.191.018.284.068.28.094.013.079-.463-.029-.859.372a1.015,1.015,0,0,0-.226.889.988.988,0,0,0,.735.774,1.089,1.089,0,0,0,1-.442.979.979,0,0,0,.078-.909c-.2-.569-.632-.647-.616-.7" transform="translate(-52.27 -48.554)" fill="#263238"/>
              <path id="Trazado_874110" data-name="Trazado 874110" d="M179.459,140.53a5.487,5.487,0,0,1-.785-.406l-2.172-1.241.152-.067c-.429,2.171-.844,5.365-1.573,9.193l-.048.254-.222-.14c-3.2-2.014-7.031-4.316-11.121-6.789-3.05-1.826-5.9-3.669-8.528-5.261s-5.051-2.947-7.082-4.086l-4.82-2.681-1.308-.735a2.442,2.442,0,0,1-.443-.28,2.516,2.516,0,0,1,.482.206l1.345.667c1.162.59,2.834,1.461,4.885,2.567s4.479,2.45,7.137,4.015l8.547,5.235c4.088,2.471,7.916,4.794,11.1,6.841l-.27.114c.761-3.8,1.23-7,1.722-9.163l.033-.142.121.075,2.122,1.325a5.449,5.449,0,0,1,.729.5" transform="translate(-29.125 -26.404)" fill="#263238"/>
              <g id="Grupo_1099874" data-name="Grupo 1099874" transform="translate(117.224 104.459)" opacity="0.3">
                <g id="Grupo_1099873" data-name="Grupo 1099873">
                  <g id="Grupo_1099872" data-name="Grupo 1099872" clip-path="url(#clip-path-6)">
                    <path id="Trazado_874111" data-name="Trazado 874111" d="M147.6,131.529l17.964,13.385c3.953,2.945,8,5.94,12.693,7.446L178,139.876l-1.839,8.764Z" transform="translate(-147.602 -131.529)"/>
                  </g>
                </g>
              </g>
              <path id="Trazado_874112" data-name="Trazado 874112" d="M378.64,44.292a6.667,6.667,0,0,1-7.117-4.891,6.667,6.667,0,0,1,4.15-7.573,6.7,6.7,0,0,1,5.62-11.405,8.016,8.016,0,0,1,11.96-6.8,9.014,9.014,0,0,1,11.092-.437,6.594,6.594,0,0,1,6.915,3.212,6.594,6.594,0,0,1-1.048,7.553" transform="translate(-76.432 -2.364)" fill="#263238"/>
              <path id="Trazado_874113" data-name="Trazado 874113" d="M379.029,47.293a27.317,27.317,0,0,1,26.715-25.671l1.414-.029c15.269.581,23.307,13.873,22.3,29.12l.908,54.4-37.1,13.318-.324-19.59S378.235,96.857,377.755,82.2c-.232-7.078.477-21.692,1.273-34.909" transform="translate(-77.738 -4.444)" fill="#ae7461"/>
              <path id="Trazado_874114" data-name="Trazado 874114" d="M396.737,117.275a35.566,35.566,0,0,0,19.093-6.013s-4.3,10.641-18.956,9.619Z" transform="translate(-81.654 -22.899)" fill="#6f4439"/>
              <path id="Trazado_874115" data-name="Trazado 874115" d="M384.554,70.141a2.094,2.094,0,0,0,2.062,2.071,2,2,0,0,0,2.119-1.931,2.1,2.1,0,0,0-2.059-2.073,2.005,2.005,0,0,0-2.121,1.933" transform="translate(-79.146 -14.038)" fill="#263238"/>
              <path id="Trazado_874116" data-name="Trazado 874116" d="M383.513,62.31c.264.268,1.827-.938,4.08-.978,2.25-.073,3.926,1.053,4.165.773.118-.125-.156-.613-.887-1.121a5.739,5.739,0,0,0-3.341-.957,5.517,5.517,0,0,0-3.24,1.121c-.682.546-.906,1.044-.776,1.163" transform="translate(-78.925 -12.354)" fill="#263238"/>
              <path id="Trazado_874117" data-name="Trazado 874117" d="M410.4,70.141a2.093,2.093,0,0,0,2.062,2.07,2,2,0,0,0,2.119-1.931,2.1,2.1,0,0,0-2.059-2.072,2,2,0,0,0-2.121,1.933" transform="translate(-84.465 -14.038)" fill="#263238"/>
              <path id="Trazado_874118" data-name="Trazado 874118" d="M411.4,62.271c.265.268,1.829-.938,4.081-.977,2.249-.072,3.926,1.052,4.165.772.118-.125-.154-.612-.888-1.121a5.736,5.736,0,0,0-3.34-.957,5.532,5.532,0,0,0-3.241,1.12c-.68.546-.905,1.045-.776,1.163" transform="translate(-84.665 -12.346)" fill="#263238"/>
              <path id="Trazado_874119" data-name="Trazado 874119" d="M400.051,79.239a14.86,14.86,0,0,0-3.672-.586c-.577-.047-1.124-.151-1.229-.542A2.93,2.93,0,0,1,395.5,76.4q.768-2.1,1.611-4.415c2.236-6.284,3.841-11.447,3.587-11.535s-2.271,4.935-4.507,11.219q-.805,2.323-1.54,4.439a3.332,3.332,0,0,0-.253,2.264,1.443,1.443,0,0,0,.963.821,3.868,3.868,0,0,0,.979.116,14.709,14.709,0,0,0,3.709-.07" transform="translate(-81.147 -12.441)" fill="#263238"/>
              <path id="Trazado_874120" data-name="Trazado 874120" d="M410.348,52.576c.309.565,2.226-.094,4.6-.218,2.371-.179,4.384.228,4.589-.37.088-.284-.345-.789-1.21-1.229a7.137,7.137,0,0,0-3.582-.677,6.884,6.884,0,0,0-3.421,1.126c-.778.545-1.117,1.1-.978,1.368" transform="translate(-84.449 -10.304)" fill="#263238"/>
              <path id="Trazado_874121" data-name="Trazado 874121" d="M382.954,52.239c.485.5,2.333-.068,4.569-.137,2.232-.136,4.135.26,4.56-.284.186-.264-.122-.77-.959-1.238a7.286,7.286,0,0,0-3.732-.762,7.159,7.159,0,0,0-3.625,1.1c-.779.542-1.028,1.074-.813,1.319" transform="translate(-78.802 -10.251)" fill="#263238"/>
              <path id="Trazado_874122" data-name="Trazado 874122" d="M380.963,40.089s3.679-9.259,8.063-11.491c5.306-2.7,7.732,3.132,12.81,1.6s10.143-4.124,15.442-.283c5.8,4.205,3.185,7.291,3.672,13.788,1.968,26.34,6.935,33.7,8.051,21.251.123-1.364,3.877-2.523,4.32-8.284.574-7.469.676-16.528-1.1-21.785-1.494-4.431-4.1-7.46-8.727-10.764-7.307-5.215-17.195-5.129-23.895-4.317s-19.486,8.8-18.64,20.284" transform="translate(-78.399 -3.991)" fill="#263238"/>
              <path id="Trazado_874123" data-name="Trazado 874123" d="M440.219,75.264a3.979,3.979,0,0,1,4.218-3.922c2.739.2,5.813,1.695,5.748,7.348-.116,10.027-10.16,7.843-10.174,7.555-.01-.2.122-6.786.208-10.981" transform="translate(-90.56 -14.681)" fill="#ae7461"/>
              <path id="Trazado_874124" data-name="Trazado 874124" d="M442.81,83.341c.044-.031.174.125.467.263a1.747,1.747,0,0,0,1.306.042c1.064-.376,1.975-2.047,2.045-3.855a5.769,5.769,0,0,0-.461-2.506,2.012,2.012,0,0,0-1.3-1.356.888.888,0,0,0-1.036.466c-.138.279-.077.48-.13.5-.028.025-.213-.171-.128-.584a1.12,1.12,0,0,1,.4-.623,1.316,1.316,0,0,1,.97-.244,2.456,2.456,0,0,1,1.807,1.575,5.94,5.94,0,0,1,.573,2.8c-.087,2.02-1.144,3.9-2.6,4.3a1.873,1.873,0,0,1-1.595-.284c-.308-.251-.358-.477-.323-.494" transform="translate(-91.134 -15.524)" fill="#6f4439"/>
              <path id="Trazado_874125" data-name="Trazado 874125" d="M429.162,44.288a9.523,9.523,0,0,1-4.2,2.047c-1.565.187-3.378-.677-3.673-2.225-.133-.7.021-1.508-.449-2.038-.561-.632-1.566-.41-2.4-.3a6.4,6.4,0,0,1-6.733-4.451c-.72,1.128-2.456,1.114-3.6.412a14.389,14.389,0,0,1-2.788-2.864,4.125,4.125,0,0,0-3.475-1.65,9.88,9.88,0,0,1-2.17.524c-1.318-.09-1.993-1.618-2.218-2.92s-.412-2.823-1.541-3.51c-1.046-.637-2.378-.229-3.585-.026s-2.778-.049-3.112-1.227a2.38,2.38,0,0,1,.411-1.827,6.491,6.491,0,0,1,7.611-2.613,8.8,8.8,0,0,1,16.129-2.035A8.929,8.929,0,0,1,427.7,22.545a6.473,6.473,0,0,1,7.488,9.265,6.146,6.146,0,0,1,3.48,4.825c.08,2.074-1.9,4.181-3.911,3.676a3.585,3.585,0,0,1-6.126,3.7" transform="translate(-80.094 -3.117)" fill="#263238"/>
              <path id="Trazado_874126" data-name="Trazado 874126" d="M398.468,27.022a.522.522,0,0,0,.006.183,5.362,5.362,0,0,0,.075.534,6.314,6.314,0,0,0,.766,1.916,7.171,7.171,0,0,0,2.271,2.325,6.676,6.676,0,0,0,4.129,1.086l-.174-.218a3.627,3.627,0,0,0,.257,2.763,10.359,10.359,0,0,0,1.766,2.429,7.448,7.448,0,0,0,1.144,1.128,3.514,3.514,0,0,0,1.6.557,3.659,3.659,0,0,0,3.2-1.221l-.376-.1a7.523,7.523,0,0,0,3.294,5.136,5.485,5.485,0,0,0,3.313,1.011,9.881,9.881,0,0,0,3.228-.778l-.27-.112a7.891,7.891,0,0,0,2.435,3.045,4.205,4.205,0,0,0,3.51.88,5.522,5.522,0,0,0,4.163-4.407l-.225.11a5.167,5.167,0,0,0,3.454.435,5.6,5.6,0,0,0,2.379-1.12,4.845,4.845,0,0,0,1.1-1.247,2.382,2.382,0,0,0,.244-.524,6.032,6.032,0,0,1-1.442,1.638,5.564,5.564,0,0,1-2.324,1.014,4.943,4.943,0,0,1-3.26-.467l-.19-.1-.035.213a5.207,5.207,0,0,1-3.941,4.085,3.818,3.818,0,0,1-3.188-.835,7.535,7.535,0,0,1-2.288-2.889L423,43.306l-.188.071a9.572,9.572,0,0,1-3.088.741,5.064,5.064,0,0,1-3.06-.942,7.115,7.115,0,0,1-3.114-4.84l-.072-.473-.3.373a3.253,3.253,0,0,1-2.828,1.078,3.1,3.1,0,0,1-1.418-.482,7.262,7.262,0,0,1-1.079-1.056,10.089,10.089,0,0,1-1.726-2.325,3.288,3.288,0,0,1-.268-2.5l.077-.241-.252.021a6.441,6.441,0,0,1-3.955-.98,7.14,7.14,0,0,1-2.254-2.2,7.753,7.753,0,0,1-1.007-2.534" transform="translate(-82.009 -5.561)" fill="#455a64"/>
              <path id="Trazado_874127" data-name="Trazado 874127" d="M409.792,85.084c-.358.042.056,2.406-1.67,4.44s-4.286,2.219-4.247,2.553c-.006.154.642.36,1.71.2a5.98,5.98,0,0,0,3.569-2,5.207,5.207,0,0,0,1.249-3.7c-.085-1-.452-1.542-.611-1.5" transform="translate(-83.123 -17.511)" fill="#263238"/>
              <path id="Trazado_874128" data-name="Trazado 874128" d="M308.207,223.517c1.271-.508,43.243-5.551,43.243-5.551l17.029-14.418-1.6,41.737-53.592,5.167Z" transform="translate(-63.433 -41.893)" fill="#f9d648"/>
              <g id="Grupo_1099877" data-name="Grupo 1099877" transform="translate(292.8 168.03)" opacity="0.3">
                <g id="Grupo_1099876" data-name="Grupo 1099876">
                  <g id="Grupo_1099875" data-name="Grupo 1099875" clip-path="url(#clip-path-7)">
                    <path id="Trazado_874129" data-name="Trazado 874129" d="M373.4,211.575c-.511.255-4.717,3.993-4.717,3.993l1.283,32.138Z" transform="translate(-368.679 -211.575)"/>
                  </g>
                </g>
              </g>
              <path id="Trazado_874130" data-name="Trazado 874130" d="M446.288,306.745H375.394s3.753,20,5.144,29.221a118.047,118.047,0,0,0,3.421,15.757h64.208s4.794-11.62,5.628-19.082-7.507-25.9-7.507-25.9" transform="translate(-77.261 -63.132)" fill="#263238"/>
              <path id="Trazado_874131" data-name="Trazado 874131" d="M368.515,309.785s-1.981,22.8,0,42.565h24.557V334.14Z" transform="translate(-75.664 -63.758)" fill="#263238"/>
              <path id="Trazado_874132" data-name="Trazado 874132" d="M385.922,157.034l7.64-16.73.949-10.333s14.65-9.208,21.6-12.683a151.939,151.939,0,0,1,16.313-6.621v9.751Z" transform="translate(-79.428 -22.777)" fill="#ebebeb"/>
              <path id="Trazado_874133" data-name="Trazado 874133" d="M445.482,243.386s4.15-55.766,4.431-59.91c0,0,2.451-29.8-2.84-41.143s-17.13-21.318-17.13-21.318l-1.09-5.956-23.124,14.576-10.69,9.3a106.8,106.8,0,0,0-10.086,12.55c-3.035,4.2-6.408,9.6-7.909,16.391-.548,2.483-6.911,32.169-7.1,52.862,0,0-.978,18.052-2.02,28.278-1.291,12.656-3.257,41.508-2.83,58.6l74.934-2.289c18.518-2.825,15.261-4.666,15.261-4.666Z" transform="translate(-75.128 -23.68)" fill="#f9d648"/>
              <path id="Trazado_874134" data-name="Trazado 874134" d="M429.261,122.944s-.174.09-.519.237l-1.529.639c-.654.314-1.448.73-2.381,1.214-.9.554-1.963,1.127-3.069,1.914A85.133,85.133,0,0,0,405.3,142.166l-.043.05-.062.012L398,143.549l.155-.179c-.113,3.34-.231,6.846-.353,10.474l0,.082-.062.059a99.482,99.482,0,0,0-10.571,11.588,45.53,45.53,0,0,0-3.625,5.478l-.392.707-.3.737a12.75,12.75,0,0,0-.542,1.5c-.321,1.015-.636,2.023-.9,3.041-1.109,4.05-2.025,8-2.883,11.768-1.706,7.535-3.127,14.348-4.305,20.071-2.352,11.449-3.677,18.555-3.677,18.555a11.559,11.559,0,0,1,.161-1.3c.13-.851.349-2.1.634-3.71.581-3.217,1.457-7.866,2.6-13.6s2.533-12.553,4.22-20.1c.848-3.772,1.756-7.727,2.864-11.792.26-1.02.577-2.036.9-3.061a13.168,13.168,0,0,1,.554-1.53l.311-.762.4-.716a45.644,45.644,0,0,1,3.656-5.531,98.846,98.846,0,0,1,10.629-11.633l-.064.141c.13-3.628.257-7.133.376-10.473l.006-.152.15-.027,7.194-1.3-.1.062a83.264,83.264,0,0,1,16.623-15.164c1.118-.778,2.2-1.341,3.106-1.882.945-.473,1.75-.874,2.413-1.174l1.554-.592c.353-.131.538-.185.538-.185" transform="translate(-76.264 -25.303)" fill="#263238"/>
              <path id="Trazado_874135" data-name="Trazado 874135" d="M410.1,173.234l.9,74.412L399.665,320.12h29.873s13.576-55.028,16.737-66.592c3.07-11.228,7.67-67.75,8.078-70.525.16-1.087,3.4-20.608-6.136-29.816" transform="translate(-82.256 -31.528)" fill="#f9d648"/>
              <path id="Trazado_874136" data-name="Trazado 874136" d="M448.156,153.187s.216.2.625.621a16.6,16.6,0,0,1,1.632,2.005,24.976,24.976,0,0,1,3.731,9.17,51.318,51.318,0,0,1,.568,15.7c-.449,3.048-.673,6.307-1,9.78q-.473,5.2-1,10.987c-.713,7.7-1.517,16.139-2.489,25.193-.5,4.525-1.016,9.207-1.655,14.019a114.541,114.541,0,0,1-2.631,14.751L429.677,320.17l-.04.157h-3.384l-26.65,0h-.239l.037-.236c4.193-26.731,8.062-51.4,11.366-72.469l0,.029c-.242-22.533-.442-41.133-.581-54.11-.058-6.479-.1-11.552-.135-15.016-.01-1.721-.017-3.041-.022-3.94s.01-1.349.01-1.349.023.458.042,1.349.04,2.218.072,3.939c.052,3.463.129,8.536.227,15.014.175,12.977.424,31.576.726,54.109v.014l0,.014c-3.284,21.069-7.13,45.745-11.3,72.479l-.2-.236,26.65,0h3.223l-.2.157c5.788-23,11.293-44.878,16.3-64.756a114.386,114.386,0,0,0,2.638-14.7c.645-4.806,1.169-9.486,1.675-14.009.986-9.048,1.808-17.484,2.539-25.183q.54-5.775,1.027-10.984c.339-3.458.579-6.755,1.036-9.781a51.448,51.448,0,0,0-.5-15.643,25.2,25.2,0,0,0-3.644-9.155,17.754,17.754,0,0,0-1.595-2.024c-.4-.424-.594-.649-.594-.649" transform="translate(-82.194 -31.528)" fill="#263238"/>
              <path id="Trazado_874137" data-name="Trazado 874137" d="M428.821,279.626a12.236,12.236,0,0,1-2.31-.669c-1.4-.479-3.322-1.21-5.393-2.128s-3.9-1.853-5.2-2.573a12.167,12.167,0,0,1-2.043-1.264,15.968,15.968,0,0,1,2.18,1c1.328.651,3.167,1.538,5.228,2.454s3.953,1.684,5.327,2.232a15.85,15.85,0,0,1,2.208.943" transform="translate(-85.182 -56.185)" fill="#263238"/>
              <path id="Trazado_874138" data-name="Trazado 874138" d="M368.3,268.154a.688.688,0,0,1-.007-.2c.006-.153.012-.34.02-.569q.043-.8.118-2.189c.123-1.936.3-4.675.512-8.044.458-6.791,1.113-16.171,2.028-26.517s1.974-19.7,2.834-26.45c.433-3.376.8-6.106,1.076-7.989q.2-1.372.324-2.168l.095-.562a.1.1,0,1,1,.042.006c-.014.152-.033.339-.054.568q-.09.8-.247,2.178c-.227,1.926-.55,4.651-.945,8-.787,6.759-1.8,16.106-2.714,26.451s-1.615,19.716-2.148,26.5c-.269,3.366-.488,6.1-.643,8.035-.082.921-.147,1.65-.195,2.183-.025.229-.044.415-.061.567a.672.672,0,0,1-.035.192" transform="translate(-75.799 -39.78)" fill="#263238"/>
              <path id="Trazado_874139" data-name="Trazado 874139" d="M442.678,138.507a38.483,38.483,0,0,0-2.811-5.928,38.333,38.333,0,0,0-4.124-5.1,6.61,6.61,0,0,1,1.515,1.225,19.831,19.831,0,0,1,4.973,7.91,6.666,6.666,0,0,1,.447,1.9" transform="translate(-89.681 -26.236)" fill="#263238"/>
              <path id="Trazado_874140" data-name="Trazado 874140" d="M376.992,257.173c.021,0,.1.183.073.541a2.161,2.161,0,0,1-.65,1.347,2.057,2.057,0,0,1-2.154.489,2.386,2.386,0,0,1-1.108-.792,2.2,2.2,0,0,1-.448-1.4,2.894,2.894,0,0,1,.575-1.731,1.783,1.783,0,0,1,.7-.55c.286-.106.493-.156.73-.231l.029-.009h.026a2.5,2.5,0,0,1,1.44.415,1.862,1.862,0,0,1,.668.947,1.9,1.9,0,0,1,.121.97c-.049.01-.093-.349-.32-.893a1.725,1.725,0,0,0-.638-.779,2.272,2.272,0,0,0-1.272-.3l.055-.009c-.216.076-.49.158-.686.237a1.43,1.43,0,0,0-.534.444,2.565,2.565,0,0,0-.477,1.489,1.9,1.9,0,0,0,1.27,1.826,1.767,1.767,0,0,0,1.827-.344,2.173,2.173,0,0,0,.689-1.157c.07-.322.052-.513.087-.517" transform="translate(-76.707 -52.45)" fill="#263238"/>
              <path id="Trazado_874141" data-name="Trazado 874141" d="M375.593,290.3c.021,0,.1.183.073.541a2.162,2.162,0,0,1-.65,1.347,2.057,2.057,0,0,1-2.154.489,2.386,2.386,0,0,1-1.108-.792,2.2,2.2,0,0,1-.448-1.4,2.894,2.894,0,0,1,.575-1.731,1.783,1.783,0,0,1,.7-.55c.286-.106.493-.156.73-.231l.029-.009h.026a2.5,2.5,0,0,1,1.44.415,1.862,1.862,0,0,1,.668.947,1.9,1.9,0,0,1,.122.97c-.049.01-.093-.349-.32-.893a1.719,1.719,0,0,0-.638-.779,2.272,2.272,0,0,0-1.271-.3l.055-.009c-.216.076-.49.158-.686.237a1.43,1.43,0,0,0-.534.444,2.564,2.564,0,0,0-.477,1.489,1.9,1.9,0,0,0,1.27,1.826,1.767,1.767,0,0,0,1.827-.344,2.173,2.173,0,0,0,.689-1.157c.07-.322.052-.513.087-.517" transform="translate(-76.42 -59.268)" fill="#263238"/>
              <path id="Trazado_874142" data-name="Trazado 874142" d="M451.456,146.892c-.042.071-1.028-.561-2.771-1.229a19.286,19.286,0,0,0-3.143-.9,19.445,19.445,0,0,0-7.949.11,19.329,19.329,0,0,0-3.117.982c-1.724.716-2.692,1.374-2.736,1.3a3.131,3.131,0,0,1,.656-.495,7.052,7.052,0,0,1,.824-.5,11.635,11.635,0,0,1,1.141-.578,17.36,17.36,0,0,1,3.148-1.085,18.434,18.434,0,0,1,8.109-.112,17.416,17.416,0,0,1,3.177,1,11.844,11.844,0,0,1,1.156.546,6.854,6.854,0,0,1,.837.478,3.129,3.129,0,0,1,.67.476" transform="translate(-88.858 -29.637)" fill="#263238"/>
              <g id="Grupo_1099880" data-name="Grupo 1099880" transform="translate(297.165 110.913)" opacity="0.3">
                <g id="Grupo_1099879" data-name="Grupo 1099879">
                  <g id="Grupo_1099878" data-name="Grupo 1099878" clip-path="url(#clip-path-8)">
                    <path id="Trazado_874143" data-name="Trazado 874143" d="M374.175,215.6c3.236-4.709,4.424-9.15,6.153-14.6,2.569-8.093,3.286-17.236,7.318-24.709,2.375-4.4,5.166-8.915,9.294-11.736,4.027-2.753,4.623-6.251,4.544-15.714,2.878.029,5.921-2.19,6.282-2.579a16.02,16.02,0,0,0,3.529-6.614c-2.019,2.2-5.385,5.837-5.385,5.837s-7.3,1.356-7.192,1.31c-.179,3.641-.186,6.833-.365,10.474,0,0-14,14.857-15.093,17.844s-9.085,40.483-9.085,40.483" transform="translate(-374.175 -139.656)"/>
                  </g>
                </g>
              </g>
              <g id="Grupo_1099883" data-name="Grupo 1099883" transform="translate(349.154 159.794)" opacity="0.3">
                <g id="Grupo_1099882" data-name="Grupo 1099882">
                  <g id="Grupo_1099881" data-name="Grupo 1099881" clip-path="url(#clip-path-9)">
                    <path id="Trazado_874144" data-name="Trazado 874144" d="M439.637,321.026c17.746-33.589,23.262-77.753,22.205-119.821,0,0-5.094,51.134-6.811,59.911-1.705,8.715-15.395,59.91-15.395,59.91" transform="translate(-439.637 -201.205)"/>
                  </g>
                </g>
              </g>
              <path id="Trazado_874145" data-name="Trazado 874145" d="M433.485,116.137a2.27,2.27,0,0,1-.4.3l-1.182.8-4.391,2.886-14.567,9.387-6.285,4.007.013-.01-2.008,1.553a16.075,16.075,0,0,0-1.793,1.531c-1.1,1.063-2.079,2.1-2.96,3.034l-.159.169-.091-.21-2.292-5.3c-.249-.6-.449-1.077-.6-1.45a2.616,2.616,0,0,1-.184-.519,2.61,2.61,0,0,1,.264.483l.677,1.417,2.416,5.242-.25-.041c.868-.955,1.836-2,2.935-3.085a16.327,16.327,0,0,1,1.817-1.579l1.99-1.561.007-.006.007,0,6.277-4.026,14.634-9.287,4.461-2.774,1.224-.737a2.278,2.278,0,0,1,.442-.233" transform="translate(-81.622 -23.902)" fill="#263238"/>
            </g>
          </g>
          <g id="Grupo_1099887" data-name="Grupo 1099887">
            <g id="Grupo_1099886" data-name="Grupo 1099886" clip-path="url(#clip-path)">
              <path id="Trazado_874146" data-name="Trazado 874146" d="M334.116,55.616,324.2,54.459a31.9,31.9,0,1,1,6.43-9.448l.011-.014Z" transform="translate(-55.502 -0.05)" fill="#fff"/>
              <path id="Trazado_874147" data-name="Trazado 874147" d="M334.069,55.567s-.09-.242-.246-.7-.389-1.148-.69-2.035l-2.638-7.852.172.031-.011.014a.1.1,0,0,1-.139.016.1.1,0,0,1-.029-.118,31.842,31.842,0,0,0,2.578-15.476,31.255,31.255,0,0,0-.793-4.847,35.761,35.761,0,0,0-1.692-4.97,31.627,31.627,0,0,0-60.434,8.308,32.22,32.22,0,0,0,1.464,14.482,31.161,31.161,0,0,0,7.2,11.663,31.745,31.745,0,0,0,21.767,9.6l1.358.017a8.586,8.586,0,0,0,1.335-.042l2.6-.23a43.958,43.958,0,0,0,4.826-1.059,31.729,31.729,0,0,0,13.383-8.024.1.1,0,0,1,.079-.028l7.341.916,1.908.244c.431.056.661.092.661.092s-.2-.014-.624-.058l-1.885-.2-7.422-.807.078-.027a31.72,31.72,0,0,1-13.433,8.173,44.041,44.041,0,0,1-4.867,1.091l-2.624.243a8.661,8.661,0,0,1-1.349.048l-1.373-.012a32.052,32.052,0,0,1-22.049-9.653A31.514,31.514,0,0,1,271.2,42.559a32.6,32.6,0,0,1-1.5-14.681A31.856,31.856,0,0,1,275.348,13.5a14.237,14.237,0,0,1,1.175-1.542l1.231-1.491L279.113,9.1a13.238,13.238,0,0,1,1.4-1.3l1.471-1.213c.478-.417,1.037-.724,1.549-1.09.529-.343,1.033-.722,1.578-1.032l1.653-.887A31.6,31.6,0,0,1,300.783.005a32.152,32.152,0,0,1,23.78,9.865,31.826,31.826,0,0,1,6.332,9.624,36.038,36.038,0,0,1,1.691,5.029,31.355,31.355,0,0,1,.777,4.9A31.843,31.843,0,0,1,330.669,45l-.168-.1.011-.014a.1.1,0,0,1,.139-.016.1.1,0,0,1,.033.047l2.543,7.959c.278.882.491,1.553.639,2.022.141.45.2.67.2.67" transform="translate(-55.455 0)" fill="#263238"/>
              <path id="Trazado_874148" data-name="Trazado 874148" d="M291.31,38.291l3.81-4.215,8.086,6.489,12.008-13.791,3.928,3.825-16.12,17.734Z" transform="translate(-59.955 -5.511)" fill="#263238"/>
              <path id="Trazado_874149" data-name="Trazado 874149" d="M240.208,61.258l6.295-.785a.083.083,0,0,1,.067.024,27.215,27.215,0,0,0,11.475,6.88,37.713,37.713,0,0,0,4.139.909l2.228.2a7.32,7.32,0,0,0,1.144.037l1.165-.015a27.121,27.121,0,0,0,12.117-3.278c-.248-.1-.5-.186-.742-.288a31.6,31.6,0,0,1-10.434-7.071,30.888,30.888,0,0,1-7.172-11.573A31.954,31.954,0,0,1,259.022,31.9a31.225,31.225,0,0,1,5.53-14.1,14.043,14.043,0,0,1,1.152-1.512l1.206-1.461.519-.52c-.3-.014-.595-.035-.892-.038A27.127,27.127,0,0,0,241,30.731a30.689,30.689,0,0,0-1.452,4.262,26.783,26.783,0,0,0-.679,4.156,27.3,27.3,0,0,0,2.21,13.268.089.089,0,0,1-.024.1L238.808,59.2c-.258.76-.454,1.34-.592,1.745s-.211.6-.211.6.2-.03.567-.079l1.636-.209" transform="translate(-48.985 -2.937)" fill="#f5f5f5"/>
              <path id="Trazado_874150" data-name="Trazado 874150" d="M240.191,61.206s-.184.04-.552.095l-1.644.239-.075.011.024-.073,2.992-9.045.033-.048c-.016-.007,0,.052-.017,0l-.055-.129-.111-.26c-.072-.176-.145-.353-.218-.532-.147-.358-.28-.731-.416-1.109-.268-.76-.506-1.564-.72-2.4a26.937,26.937,0,0,1-.8-5.488,25.98,25.98,0,0,1,1.293-9.428A23.179,23.179,0,0,1,241.2,29.78a27.155,27.155,0,0,1,9.934-11.388,27.434,27.434,0,0,1,16.287-4.332l.452.025-.318.32-.519.52.013-.014a32.082,32.082,0,0,0-7.54,15.026,31.15,31.15,0,0,0,19.374,35.07l.387.148-.366.174a33.775,33.775,0,0,1-4.293,1.868,27.865,27.865,0,0,1-4.32,1.067,28.8,28.8,0,0,1-8.138.112h-.016c-.915-.185-1.818-.337-2.692-.533a23.02,23.02,0,0,1-2.51-.735,27.714,27.714,0,0,1-4.353-1.96,27.192,27.192,0,0,1-6.052-4.613c-.011-.076-.178,0-.3,0l-.372.044-.711.083-1.285.151-2.013.232-1.238.134c-.279.028-.423.032-.423.032s.141-.032.418-.073l1.233-.174,2.009-.271,1.283-.169.709-.094.371-.048.19-.025a.445.445,0,0,1,.12-.008.161.161,0,0,1,.083.044l.036.035a27.325,27.325,0,0,0,15.551,7.668l-.016,0a34.08,34.08,0,0,0,3.915.215,26.6,26.6,0,0,0,4.145-.361,27.6,27.6,0,0,0,4.263-1.069,33.6,33.6,0,0,0,4.233-1.858l.021.322A31.484,31.484,0,0,1,259.1,29.86a32.435,32.435,0,0,1,7.634-15.206l.01-.012,0,0,.519-.52.133.345a27.007,27.007,0,0,0-25.9,15.457,22.86,22.86,0,0,0-1.268,3.205,25.732,25.732,0,0,0-1.322,9.322,26.815,26.815,0,0,0,.756,5.439c.206.835.437,1.632.7,2.388.133.377.262.747.4,1.1l.212.53.108.259.054.129c.026.023.052.195-.042.249l.033-.048c-1.4,4.112-2.448,7.195-3.1,9.012l-.051-.063,1.652-.194c.37-.04.558-.048.558-.048" transform="translate(-48.967 -2.885)" fill="#263238"/>
            </g>
          </g>
        </g>
      </g>
      <rect id="Rectángulo_401514" data-name="Rectángulo 401514" width="505" height="289" transform="translate(180 3388)" fill="none"/>
    </g>
  </g>
</svg>
