<svg xmlns="http://www.w3.org/2000/svg" xmlns:xlink="http://www.w3.org/1999/xlink" width="400" height="339" viewBox="0 0 400 339">
  <defs>
    <clipPath id="clip-path">
      <rect id="Rectángulo_401486" data-name="Rectángulo 401486" width="316.016" height="339" fill="none"/>
    </clipPath>
    <clipPath id="clip-path-6">
      <rect id="Rectángulo_401482" data-name="Rectángulo 401482" width="2.292" height="2.324" fill="none"/>
    </clipPath>
    <clipPath id="clip-path-7">
      <rect id="Rectángulo_401483" data-name="Rectángulo 401483" width="2.295" height="2.322" fill="none"/>
    </clipPath>
    <clipPath id="clip-path-8">
      <rect id="Rectángulo_401484" data-name="Rectángulo 401484" width="41.285" height="12.069" fill="none"/>
    </clipPath>
  </defs>
  <g id="Grupo_1099834" data-name="Grupo 1099834" transform="translate(-180 -398)">
    <g id="Grupo_1099833" data-name="Grupo 1099833" transform="translate(222 398)">
      <g id="Grupo_1099832" data-name="Grupo 1099832" clip-path="url(#clip-path)">
        <g id="Grupo_1099816" data-name="Grupo 1099816">
          <g id="Grupo_1099815" data-name="Grupo 1099815" clip-path="url(#clip-path)">
            <path id="Trazado_873685" data-name="Trazado 873685" d="M321.261,329.342a26.263,26.263,0,0,0-11.24-3.869c-1.836-.189-3.842-.135-5.316.978a1.093,1.093,0,0,0-.547.971,1.185,1.185,0,0,0,.52.664,16.069,16.069,0,0,0,16.583,1.256" transform="translate(-75.575 -80.853)" fill="#e0e0e0"/>
            <path id="Trazado_873686" data-name="Trazado 873686" d="M322.585,324.4a54.743,54.743,0,0,1-7.259-6.387,18.361,18.361,0,0,1-4.552-8.417,3.4,3.4,0,0,1,.36-2.816c5.787,4.519,10.332,10.363,11.451,17.62" transform="translate(-77.188 -76.229)" fill="#e0e0e0"/>
            <path id="Trazado_873687" data-name="Trazado 873687" d="M326.717,324.839a26.252,26.252,0,0,1,.135-9.531,12.881,12.881,0,0,1,5.076-7.865c1,2.337.57,5.029-.134,7.472a36.313,36.313,0,0,1-5.034,10.6" transform="translate(-81.092 -76.394)" fill="#e0e0e0"/>
            <path id="Trazado_873688" data-name="Trazado 873688" d="M329.7,344.116a16.609,16.609,0,0,0-9.014,4.562,17.051,17.051,0,0,0-5.155,8.851c3.377-.208,6.243-2.591,8.321-5.261s3.519-5.6,5.8-8.1" transform="translate(-78.404 -85.507)" fill="#e0e0e0"/>
            <path id="Trazado_873689" data-name="Trazado 873689" d="M335.515,339.326a22.229,22.229,0,0,1,2.567-21.028,26.769,26.769,0,0,1-2.567,21.028" transform="translate(-82.984 -79.091)" fill="#e0e0e0"/>
            <path id="Trazado_873690" data-name="Trazado 873690" d="M340.841,358.144a16.076,16.076,0,0,0-15.371,8.848c-.19.381-.358.864-.1,1.205a1.142,1.142,0,0,0,1.019.3c3.029-.2,5.714-2.019,7.929-4.094s4.145-4.473,6.593-6.268" transform="translate(-80.816 -88.985)" fill="#e0e0e0"/>
            <path id="Trazado_873691" data-name="Trazado 873691" d="M345.256,350.466a28.62,28.62,0,0,1-.286-15.991c.564-2.058,1.509-4.226,3.413-5.191a.669.669,0,0,1,.522-.092.684.684,0,0,1,.33.383,9.621,9.621,0,0,1,.8,4.587,28.812,28.812,0,0,1-.718,4.644c-.6,2.838-.919,5.889-2.476,8.337a16.935,16.935,0,0,0-.99,1.831c-.295.622-.3.841-.567,1.336" transform="translate(-85.47 -81.792)" fill="#e0e0e0"/>
            <path id="Trazado_873692" data-name="Trazado 873692" d="M371.9,355.617a20.617,20.617,0,0,1,3.613-16.953c.26-.337.6-.7,1.027-.66.649.06.817.924.788,1.575a30.63,30.63,0,0,1-5.429,16.037" transform="translate(-92.273 -83.987)" fill="#e0e0e0"/>
            <path id="Trazado_873693" data-name="Trazado 873693" d="M374.461,361.13a24.66,24.66,0,0,0,20.235-4.115,16.381,16.381,0,0,0-10.954-1.344,15.626,15.626,0,0,0-9.281,5.46" transform="translate(-93.047 -88.278)" fill="#e0e0e0"/>
            <path id="Trazado_873694" data-name="Trazado 873694" d="M376.468,354.6a23.384,23.384,0,0,1,18.365-10.619,11.311,11.311,0,0,1-6.007,6.64,33.328,33.328,0,0,1-8.815,2.578c-1.173.228-2.782.479-3.543,1.4" transform="translate(-93.546 -85.474)" fill="#e0e0e0"/>
            <path id="Trazado_873695" data-name="Trazado 873695" d="M371.712,327a53.321,53.321,0,0,0,2.348-10.756,17.907,17.907,0,0,0-2.142-10.638,23.418,23.418,0,0,0-.313,21.763" transform="translate(-91.708 -75.938)" fill="#e0e0e0"/>
            <path id="Trazado_873696" data-name="Trazado 873696" d="M388.5,321.259c4.156-7.553,12.635-13.586,21.214-14.431-3.31,8.24-12.335,14.609-21.214,14.431" transform="translate(-96.536 -76.241)" fill="#e0e0e0"/>
            <path id="Trazado_873697" data-name="Trazado 873697" d="M385.025,327.59c6.2.944,11.478,4.9,17.27,7.3a7.738,7.738,0,0,0,3.9.748,3.056,3.056,0,0,0,1.913-5.406,8.36,8.36,0,0,0-2.835-1.72c-6.308-2.626-13.073-2.692-19.718-1.1" transform="translate(-95.672 -81.092)" fill="#e0e0e0"/>
            <path id="Trazado_873698" data-name="Trazado 873698" d="M380.253,333.685c1.4.4,1.883,1.128,2.993,2.074a32.293,32.293,0,0,0,13.1,6.728c.5.125,1.157.174,1.4-.278.216-.395-.057-.873-.338-1.224a18.03,18.03,0,0,0-7.908-5.368c-3.023-1.126-5.641-2.482-9.248-2.191" transform="translate(-94.486 -82.84)" fill="#e0e0e0"/>
            <path id="Trazado_873699" data-name="Trazado 873699" d="M374.867,298.627a24.783,24.783,0,0,0,19,6.465,1.3,1.3,0,0,0,.865-.31c.478-.52-.1-1.323-.653-1.758-5.586-4.355-12.353-6.161-19.213-4.4" transform="translate(-93.148 -74.037)" fill="#e0e0e0"/>
            <path id="Trazado_873700" data-name="Trazado 873700" d="M381.252,294.807a26.483,26.483,0,0,1,23.71-3.912,18.824,18.824,0,0,1-11.3,4.961,35.77,35.77,0,0,1-12.412-1.048" transform="translate(-94.734 -71.972)" fill="#e0e0e0"/>
            <path id="Trazado_873701" data-name="Trazado 873701" d="M377.656,274.914c-.549-5.576-.192-9.978-.579-15.58-.031-.448-.127-.986-.546-1.148-.582-.225-1.069.492-1.26,1.087a17.859,17.859,0,0,0,2.377,15.518" transform="translate(-93.045 -64.144)" fill="#e0e0e0"/>
            <path id="Trazado_873702" data-name="Trazado 873702" d="M378.181,275.483a32.787,32.787,0,0,0,9.237-8.978c1.824-2.5,3.362-5.486,2.947-8.55a8.841,8.841,0,0,0-6.663,3.308,18.6,18.6,0,0,0-3.4,6.834c-.739,2.454-1.257,4.975-2.125,7.386" transform="translate(-93.971 -64.097)" fill="#e0e0e0"/>
            <path id="Trazado_873703" data-name="Trazado 873703" d="M390.217,273.306a74.468,74.468,0,0,0,22.731-13.4c-2.715-1.094-5.824-.44-8.539.656A26.929,26.929,0,0,0,390.1,273.245" transform="translate(-96.932 -64.441)" fill="#e0e0e0"/>
            <path id="Trazado_873704" data-name="Trazado 873704" d="M381.576,283.164a46.234,46.234,0,0,0,12.622.062,53.532,53.532,0,0,0,11.783-3.915,1.382,1.382,0,0,0,.8-.608.919.919,0,0,0-.287-1.008,2.426,2.426,0,0,0-1-.471,21.821,21.821,0,0,0-12.734.761,59.083,59.083,0,0,0-11.18,5.18" transform="translate(-94.815 -68.728)" fill="#e0e0e0"/>
            <path id="Trazado_873705" data-name="Trazado 873705" d="M349,292.993a22.329,22.329,0,0,1-.2-18.479c1.741,2.653,1.953,6.031,1.635,9.188s-1.28,6.406-1.342,9.578" transform="translate(-86.197 -68.212)" fill="#e0e0e0"/>
            <path id="Trazado_873706" data-name="Trazado 873706" d="M328.143,291.426a25.772,25.772,0,0,0-19.152,8.158,17.9,17.9,0,0,0,10.487-1.944,53.361,53.361,0,0,0,8.987-6.015" transform="translate(-76.779 -72.413)" fill="#e0e0e0"/>
            <path id="Trazado_873707" data-name="Trazado 873707" d="M318.286,287.895c-3.5-.283-6.861-.716-10.224.313a12.264,12.264,0,0,0-7.793,6.607,18.468,18.468,0,0,0,9.585-1.81,55.158,55.158,0,0,0,8.431-5.111" transform="translate(-74.612 -71.453)" fill="#e0e0e0"/>
            <path id="Trazado_873708" data-name="Trazado 873708" d="M332.614,286.387c-3.146-2.061-6.376-4.16-10.039-5.014s-7.907-.222-10.461,2.538c2.965,1.74,6.562,1.946,10,1.943s7.652-.041,10.893,1.106" transform="translate(-77.555 -69.828)" fill="#e0e0e0"/>
            <path id="Trazado_873709" data-name="Trazado 873709" d="M337.4,281.113c-5.378-5.281-7.417-14.767-5.253-21.987a33.5,33.5,0,0,1,5.253,21.987" transform="translate(-82.321 -64.388)" fill="#e0e0e0"/>
            <path id="Trazado_873710" data-name="Trazado 873710" d="M359.094,262.736c1.015-2.357,1.728-4.832,2.638-7.233a20.771,20.771,0,0,1,3.76-6.668,9.906,9.906,0,0,1,6.661-3.452,26.821,26.821,0,0,1-12.927,17.39" transform="translate(-89.228 -60.973)" fill="#e0e0e0"/>
            <path id="Trazado_873711" data-name="Trazado 873711" d="M350.934,269.488c-1.678-2.31-3.618-5.446-5.893-7.171a9.862,9.862,0,0,0-8.018-2.106,18.673,18.673,0,0,0,13.911,9.277" transform="translate(-83.744 -64.608)" fill="#e0e0e0"/>
            <path id="Trazado_873712" data-name="Trazado 873712" d="M355.3,263a39.888,39.888,0,0,1-2.653-8.591A13.4,13.4,0,0,1,354,245.672c2.953,5.58,3.9,11.57,1.459,17.391" transform="translate(-87.58 -61.045)" fill="#e0e0e0"/>
            <path id="Trazado_873713" data-name="Trazado 873713" d="M359.13,241.762c1.672-5.532,6.737-9.605,12.206-11.474a4.562,4.562,0,0,1,2.14-.321,1.858,1.858,0,0,1,1.577,1.317c.2.941-.578,1.784-1.309,2.409a41.559,41.559,0,0,1-14.615,8.069" transform="translate(-89.237 -57.135)" fill="#e0e0e0"/>
            <path id="Trazado_873714" data-name="Trazado 873714" d="M359.182,233.5a39.615,39.615,0,0,1,1.6-10.565c1.16-3.38,3.4-6.549,6.649-8.028.553,3.6-1.036,7.186-2.953,10.286s-4.227,6.026-5.378,9.484" transform="translate(-89.229 -53.402)" fill="#e0e0e0"/>
            <path id="Trazado_873715" data-name="Trazado 873715" d="M355.664,236.507c-1.382-4.032-1.525-9.153-3.939-12.665-1.688-2.455-4.39-4.128-5.845-6.728a10.233,10.233,0,0,0,.34,7.638,22.106,22.106,0,0,0,4.466,6.394c1.786,1.908,3.316,3.343,4.977,5.361" transform="translate(-85.799 -53.949)" fill="#e0e0e0"/>
            <path id="Trazado_873716" data-name="Trazado 873716" d="M359.061,361.182c-.107,0-.2-26.895-.208-60.063s.074-60.069.181-60.069.2,26.889.208,60.069-.074,60.063-.181,60.063" transform="translate(-89.168 -59.897)" fill="#e0e0e0"/>
            <path id="Trazado_873717" data-name="Trazado 873717" d="M382.622,293.7a5.739,5.739,0,0,1-1.011.38l-2.783.939c-2.347.8-5.57,1.956-9.069,3.39-3.464,1.486-6.731,2.693-8.591,4.3A6.32,6.32,0,0,0,359.442,305c-.267.631-.314,1.018-.35,1.011a.791.791,0,0,1,.012-.283,4.263,4.263,0,0,1,.2-.783,6.065,6.065,0,0,1,1.684-2.435,15.1,15.1,0,0,1,3.728-2.315c1.491-.7,3.144-1.422,4.9-2.143,3.509-1.438,6.758-2.559,9.13-3.292,1.186-.37,2.154-.643,2.824-.823a5.815,5.815,0,0,1,1.055-.234" transform="translate(-89.226 -72.978)" fill="#e0e0e0"/>
            <path id="Trazado_873718" data-name="Trazado 873718" d="M390.937,268.523a1.628,1.628,0,0,1-.283.3l-.863.81-3.222,2.927-10.723,9.548c-4.186,3.726-7.8,7.286-10.311,9.967-1.255,1.338-2.243,2.448-2.918,3.222l-.779.89a1.7,1.7,0,0,1-.292.3,1.646,1.646,0,0,1,.231-.344c.162-.216.4-.539.724-.938.64-.806,1.6-1.945,2.832-3.311a135.6,135.6,0,0,1,10.253-10.07c4.2-3.718,8.023-7.057,10.8-9.464l3.3-2.835.912-.756a1.694,1.694,0,0,1,.335-.243" transform="translate(-89.838 -66.723)" fill="#e0e0e0"/>
            <path id="Trazado_873719" data-name="Trazado 873719" d="M374.558,288.566c-.11-.049.765-2.068,1.636-4.621s1.293-4.708,1.4-4.69a15.75,15.75,0,0,1-1.036,4.814,31.382,31.382,0,0,1-1.3,3.232,5.049,5.049,0,0,1-.7,1.265" transform="translate(-93.069 -69.39)" fill="#e0e0e0"/>
            <path id="Trazado_873720" data-name="Trazado 873720" d="M354.009,306.813a4.826,4.826,0,0,1-.645-.749l-1.653-2.119c-1.388-1.794-3.307-4.271-5.458-6.981s-4.129-5.142-5.561-6.9L339,287.973a4.769,4.769,0,0,1-.582-.8,4.87,4.87,0,0,1,.7.7c.431.467,1.041,1.154,1.784,2.012,1.487,1.715,3.5,4.122,5.655,6.836s4.04,5.22,5.373,7.058c.667.918,1.2,1.668,1.555,2.194a4.857,4.857,0,0,1,.523.839" transform="translate(-84.091 -71.358)" fill="#e0e0e0"/>
            <path id="Trazado_873721" data-name="Trazado 873721" d="M351.422,301.815a9.482,9.482,0,0,1-2.159-4.042,11.543,11.543,0,0,1-.489-4.075l.171.014c-.077.312-.133.476-.164.471s-.032-.179-.007-.5l.172.014a18.571,18.571,0,0,0,.689,3.964,30.247,30.247,0,0,0,1.786,4.152" transform="translate(-86.657 -72.975)" fill="#e0e0e0"/>
            <path id="Trazado_873722" data-name="Trazado 873722" d="M339.6,292.821a6.957,6.957,0,0,0-1.508-.876,10.089,10.089,0,0,0-4.184-.333,25.853,25.853,0,0,0-4.215.68,12.828,12.828,0,0,1-1.734.416,6.027,6.027,0,0,1,1.66-.681,19.262,19.262,0,0,1,4.259-.8,9.126,9.126,0,0,1,4.317.466,2.676,2.676,0,0,1,1.4,1.13" transform="translate(-81.493 -72.35)" fill="#e0e0e0"/>
            <path id="Trazado_873723" data-name="Trazado 873723" d="M335.947,289.851c-.029.06-.878-.352-2.309-.841A23.237,23.237,0,0,0,322,288.123c-1.489.266-2.39.545-2.41.481a2.2,2.2,0,0,1,.612-.262,14.379,14.379,0,0,1,1.744-.489,20.536,20.536,0,0,1,11.785.9,14.572,14.572,0,0,1,1.65.749,2.2,2.2,0,0,1,.566.351" transform="translate(-79.412 -71.409)" fill="#e0e0e0"/>
            <path id="Trazado_873724" data-name="Trazado 873724" d="M358.1,275.356a47.839,47.839,0,0,1-1.684-5.85,47.959,47.959,0,0,1-1.308-5.946,47.656,47.656,0,0,1,1.684,5.851,47.768,47.768,0,0,1,1.308,5.945" transform="translate(-88.235 -65.49)" fill="#e0e0e0"/>
            <path id="Trazado_873725" data-name="Trazado 873725" d="M357.711,277.159a28.129,28.129,0,0,0-1.867-3.5,15.4,15.4,0,0,0-2.747-2.835,2.559,2.559,0,0,1,1.06.547,8.555,8.555,0,0,1,2.005,2.064,7.77,7.77,0,0,1,1.548,3.726" transform="translate(-87.738 -67.293)" fill="#e0e0e0"/>
            <path id="Trazado_873726" data-name="Trazado 873726" d="M350.983,368.846c-.042.006-.121-.646-.424-1.789a25.521,25.521,0,0,0-1.8-4.656,64.421,64.421,0,0,0-9.535-13.434c-2.129-2.432-4.194-4.726-5.947-6.924a48.592,48.592,0,0,1-4.253-6.133,29.545,29.545,0,0,1-2.147-4.552c-.2-.561-.342-1-.422-1.3a2.2,2.2,0,0,1-.11-.465c.035-.011.231.615.673,1.712a33.324,33.324,0,0,0,2.243,4.468,51.421,51.421,0,0,0,4.294,6.047c1.76,2.174,3.829,4.456,5.961,6.893a61.09,61.09,0,0,1,9.491,13.57,23.233,23.233,0,0,1,1.7,4.74,13.2,13.2,0,0,1,.238,1.349,2.191,2.191,0,0,1,.039.476" transform="translate(-81.091 -81.897)" fill="#e0e0e0"/>
            <path id="Trazado_873727" data-name="Trazado 873727" d="M380.367,349.9a9.754,9.754,0,0,1-1.113.625,24.311,24.311,0,0,0-2.887,1.909,33.164,33.164,0,0,0-3.791,3.458c-1.331,1.405-2.7,3.038-4.1,4.787-2.8,3.51-5.413,6.616-6.979,9.095-.8,1.229-1.374,2.267-1.753,2.994a9.57,9.57,0,0,1-.613,1.121,1.1,1.1,0,0,1,.1-.316c.083-.2.2-.5.374-.873a28.433,28.433,0,0,1,1.656-3.073,100.076,100.076,0,0,1,6.909-9.191c1.4-1.753,2.79-3.389,4.145-4.792a30.8,30.8,0,0,1,3.885-3.431,20.32,20.32,0,0,1,2.982-1.822c.368-.185.67-.3.869-.385a1.091,1.091,0,0,1,.314-.106" transform="translate(-89.237 -86.944)" fill="#e0e0e0"/>
            <path id="Trazado_873728" data-name="Trazado 873728" d="M383.09,360.251a16.246,16.246,0,0,1-2.353.342,31,31,0,0,0-5.579,1.1,16.775,16.775,0,0,0-5,2.622c-1.151.89-1.694,1.626-1.748,1.583a1.826,1.826,0,0,1,.349-.541,8.855,8.855,0,0,1,1.226-1.255,15.136,15.136,0,0,1,5.05-2.778,25.2,25.2,0,0,1,5.672-1,12.96,12.96,0,0,1,2.38-.068" transform="translate(-91.544 -89.509)" fill="#e0e0e0"/>
            <path id="Trazado_873729" data-name="Trazado 873729" d="M369.326,364c-.123-.07.938-1.689,1.76-3.867.772-2.2.952-4.126,1.09-4.1a3.728,3.728,0,0,1-.039,1.263,13.523,13.523,0,0,1-.686,2.973,14.369,14.369,0,0,1-1.365,2.728,3.8,3.8,0,0,1-.761,1.007" transform="translate(-91.768 -88.467)" fill="#e0e0e0"/>
            <path id="Trazado_873730" data-name="Trazado 873730" d="M387.249,322.1a1.749,1.749,0,0,1-.377.2l-1.105.5c-.484.207-1.072.471-1.734.82s-1.44.7-2.248,1.181l-1.284.73c-.445.256-.885.56-1.353.853-.946.574-1.894,1.281-2.906,2a49.87,49.87,0,0,0-11.19,11.579c-.687,1.036-1.361,2.008-1.9,2.973-.277.478-.566.929-.806,1.382l-.685,1.308c-.458.824-.784,1.611-1.1,2.287s-.57,1.27-.761,1.762c-.188.455-.341.826-.464,1.122a1.82,1.82,0,0,1-.186.383,1.717,1.717,0,0,1,.113-.41c.105-.3.236-.685.4-1.151.17-.5.393-1.108.7-1.793s.613-1.487,1.057-2.324l.667-1.327c.235-.46.519-.918.792-1.4.533-.978,1.2-1.964,1.885-3.013a48.008,48.008,0,0,1,11.273-11.664c1.025-.719,1.986-1.421,2.946-1.987.476-.289.923-.588,1.375-.839l1.3-.712c.821-.472,1.609-.81,2.285-1.136s1.274-.576,1.769-.763l1.136-.437a1.728,1.728,0,0,1,.405-.127" transform="translate(-89.24 -80.037)" fill="#e0e0e0"/>
            <path id="Trazado_873731" data-name="Trazado 873731" d="M374.176,336.161a2.7,2.7,0,0,1,.924-1.376,5.833,5.833,0,0,1,3.724-1.429,10.176,10.176,0,0,1,3.918.766,5.59,5.59,0,0,1,1.482.72,9.086,9.086,0,0,1-1.572-.46,11.836,11.836,0,0,0-3.816-.637,6.065,6.065,0,0,0-3.557,1.249,11,11,0,0,0-1.1,1.168" transform="translate(-92.975 -82.832)" fill="#e0e0e0"/>
            <path id="Trazado_873732" data-name="Trazado 873732" d="M370.831,338.214a9.935,9.935,0,0,0,.82-7.031,2.264,2.264,0,0,1,.437,1,7.117,7.117,0,0,1-.6,5.155c-.328.594-.618.9-.655.875" transform="translate(-92.143 -82.293)" fill="#e0e0e0"/>
            <path id="Trazado_873733" data-name="Trazado 873733" d="M334.414,386.952c.579,10.279,3.677,20.731,8.441,31.3h20.716c4.543-10.463,7.426-20.9,7.939-31.3Z" transform="translate(-83.096 -96.151)" fill="#e0e0e0"/>
            <path id="Trazado_873734" data-name="Trazado 873734" d="M369.233,409.019c0,.107-6.821.195-15.233.195s-15.234-.087-15.234-.195,6.819-.195,15.234-.195,15.233.087,15.233.195" transform="translate(-84.177 -101.585)" fill="#fafafa"/>
            <path id="Trazado_873735" data-name="Trazado 873735" d="M369.247,413.974c0,.107-6.395.195-14.28.195s-14.282-.087-14.282-.195,6.393-.195,14.282-.195,14.28.087,14.28.195" transform="translate(-84.654 -102.817)" fill="#fafafa"/>
            <path id="Trazado_873736" data-name="Trazado 873736" d="M346.026,395.932a58.589,58.589,0,0,1,0,9.544,58.589,58.589,0,0,1,0-9.544" transform="translate(-85.933 -98.382)" fill="#fafafa"/>
            <path id="Trazado_873737" data-name="Trazado 873737" d="M360.795,395.932a62.827,62.827,0,0,1,0,9.883,63.073,63.073,0,0,1,0-9.883" transform="translate(-89.603 -98.382)" fill="#fafafa"/>
            <path id="Trazado_873738" data-name="Trazado 873738" d="M374.661,395.821a65.341,65.341,0,0,1,0,10.08,65.351,65.351,0,0,1,0-10.08" transform="translate(-93.048 -98.354)" fill="#fafafa"/>
            <path id="Trazado_873739" data-name="Trazado 873739" d="M371.085,395.868c0,.107-8,.195-17.867.195s-17.868-.087-17.868-.195,8-.195,17.868-.195,17.867.087,17.867.195" transform="translate(-83.328 -98.318)" fill="#fafafa"/>
            <path id="Trazado_873740" data-name="Trazado 873740" d="M19.941,332.248a24.954,24.954,0,0,0-10.678-3.675,7.113,7.113,0,0,0-5.05.928,1.039,1.039,0,0,0-.52.923,1.124,1.124,0,0,0,.494.631,15.266,15.266,0,0,0,15.754,1.193" transform="translate(-0.915 -81.625)" fill="#e0e0e0"/>
            <path id="Trazado_873741" data-name="Trazado 873741" d="M21.2,327.552a52.084,52.084,0,0,1-6.9-6.068,17.45,17.45,0,0,1-4.323-8,3.223,3.223,0,0,1,.342-2.675c5.5,4.293,9.816,9.846,10.878,16.739" transform="translate(-2.448 -77.231)" fill="#e0e0e0"/>
            <path id="Trazado_873742" data-name="Trazado 873742" d="M25.125,327.97a24.934,24.934,0,0,1,.128-9.054,12.243,12.243,0,0,1,4.823-7.472c.95,2.22.541,4.778-.128,7.1a34.5,34.5,0,0,1-4.783,10.069" transform="translate(-6.156 -77.388)" fill="#e0e0e0"/>
            <path id="Trazado_873743" data-name="Trazado 873743" d="M27.96,346.283a15.778,15.778,0,0,0-8.563,4.334,16.2,16.2,0,0,0-4.9,8.408c3.209-.2,5.931-2.461,7.905-5s3.343-5.321,5.511-7.694" transform="translate(-3.603 -86.045)" fill="#e0e0e0"/>
            <path id="Trazado_873744" data-name="Trazado 873744" d="M33.482,341.733a21.118,21.118,0,0,1,2.439-19.977,25.431,25.431,0,0,1-2.439,19.977" transform="translate(-7.954 -79.951)" fill="#e0e0e0"/>
            <path id="Trazado_873745" data-name="Trazado 873745" d="M38.542,359.609a15.27,15.27,0,0,0-14.6,8.406c-.181.362-.34.821-.1,1.145a1.083,1.083,0,0,0,.968.285c2.878-.186,5.429-1.918,7.533-3.889s3.938-4.249,6.264-5.954" transform="translate(-5.894 -89.349)" fill="#e0e0e0"/>
            <path id="Trazado_873746" data-name="Trazado 873746" d="M42.737,352.315a27.19,27.19,0,0,1-.271-15.192c.535-1.955,1.434-4.014,3.242-4.931a.636.636,0,0,1,.5-.087.653.653,0,0,1,.313.363,9.156,9.156,0,0,1,.764,4.359,27.307,27.307,0,0,1-.683,4.412c-.57,2.7-.873,5.594-2.352,7.919a16.164,16.164,0,0,0-.94,1.74c-.28.591-.282.8-.539,1.269" transform="translate(-10.315 -82.516)" fill="#e0e0e0"/>
            <path id="Trazado_873747" data-name="Trazado 873747" d="M68.047,357.208A19.586,19.586,0,0,1,71.48,341.1c.246-.321.573-.664.976-.628.616.057.776.878.749,1.5a29.109,29.109,0,0,1-5.158,15.236" transform="translate(-16.778 -84.601)" fill="#e0e0e0"/>
            <path id="Trazado_873748" data-name="Trazado 873748" d="M70.481,362.446A23.431,23.431,0,0,0,89.7,358.537,15.561,15.561,0,0,0,79.3,357.259a14.847,14.847,0,0,0-8.817,5.187" transform="translate(-17.513 -88.678)" fill="#e0e0e0"/>
            <path id="Trazado_873749" data-name="Trazado 873749" d="M72.388,356.245a22.216,22.216,0,0,1,17.446-10.088,10.745,10.745,0,0,1-5.706,6.309,31.649,31.649,0,0,1-8.375,2.449c-1.114.216-2.643.455-3.365,1.33" transform="translate(-17.987 -86.014)" fill="#e0e0e0"/>
            <path id="Trazado_873750" data-name="Trazado 873750" d="M67.869,330.026A50.674,50.674,0,0,0,70.1,319.808,17.011,17.011,0,0,0,68.065,309.7a22.247,22.247,0,0,0-.3,20.675" transform="translate(-16.241 -76.955)" fill="#e0e0e0"/>
            <path id="Trazado_873751" data-name="Trazado 873751" d="M83.822,324.569c3.948-7.176,12-12.907,20.153-13.71-3.144,7.828-11.718,13.878-20.153,13.71" transform="translate(-20.828 -77.243)" fill="#e0e0e0"/>
            <path id="Trazado_873752" data-name="Trazado 873752" d="M80.517,330.583c5.888.9,10.9,4.657,16.406,6.937a7.353,7.353,0,0,0,3.709.71,2.9,2.9,0,0,0,1.818-5.137,7.948,7.948,0,0,0-2.694-1.634c-5.993-2.5-12.42-2.557-18.733-1.045" transform="translate(-20.007 -81.851)" fill="#e0e0e0"/>
            <path id="Trazado_873753" data-name="Trazado 873753" d="M75.984,336.374c1.333.382,1.789,1.072,2.844,1.97a30.687,30.687,0,0,0,12.441,6.392c.476.118,1.1.165,1.335-.265.205-.375-.055-.829-.322-1.163a17.124,17.124,0,0,0-7.511-5.1c-2.872-1.069-5.359-2.358-8.786-2.081" transform="translate(-18.881 -83.512)" fill="#e0e0e0"/>
            <path id="Trazado_873754" data-name="Trazado 873754" d="M70.867,303.068a23.548,23.548,0,0,0,18.051,6.141,1.233,1.233,0,0,0,.821-.295c.455-.494-.09-1.257-.62-1.67-5.307-4.138-11.736-5.854-18.253-4.177" transform="translate(-17.609 -75.149)" fill="#e0e0e0"/>
            <path id="Trazado_873755" data-name="Trazado 873755" d="M76.933,299.438a25.161,25.161,0,0,1,22.525-3.717,17.881,17.881,0,0,1-10.734,4.713,33.97,33.97,0,0,1-11.791-1" transform="translate(-19.116 -73.187)" fill="#e0e0e0"/>
            <path id="Trazado_873756" data-name="Trazado 873756" d="M73.516,280.542c-.522-5.3-.183-9.479-.551-14.8-.029-.425-.121-.936-.519-1.09-.554-.213-1.015.467-1.2,1.033a16.964,16.964,0,0,0,2.259,14.742" transform="translate(-17.511 -65.751)" fill="#e0e0e0"/>
            <path id="Trazado_873757" data-name="Trazado 873757" d="M74.015,281.082a31.133,31.133,0,0,0,8.775-8.528c1.733-2.372,3.195-5.213,2.8-8.123a8.4,8.4,0,0,0-6.33,3.143,17.666,17.666,0,0,0-3.227,6.492c-.7,2.33-1.194,4.726-2.019,7.016" transform="translate(-18.391 -65.706)" fill="#e0e0e0"/>
            <path id="Trazado_873758" data-name="Trazado 873758" d="M85.45,279.013a70.738,70.738,0,0,0,21.595-12.734c-2.58-1.039-5.533-.417-8.112.624a25.58,25.58,0,0,0-13.6,12.052" transform="translate(-21.205 -66.033)" fill="#e0e0e0"/>
            <path id="Trazado_873759" data-name="Trazado 873759" d="M77.241,288.379a43.927,43.927,0,0,0,11.991.059,50.874,50.874,0,0,0,11.194-3.72,1.308,1.308,0,0,0,.761-.577.875.875,0,0,0-.272-.958,2.318,2.318,0,0,0-.955-.447,20.725,20.725,0,0,0-12.1.723,56.135,56.135,0,0,0-10.621,4.921" transform="translate(-19.193 -70.105)" fill="#e0e0e0"/>
            <path id="Trazado_873760" data-name="Trazado 873760" d="M46.291,297.716a21.211,21.211,0,0,1-.194-17.555c1.654,2.52,1.856,5.729,1.553,8.728s-1.215,6.086-1.275,9.1" transform="translate(-11.006 -69.615)" fill="#e0e0e0"/>
            <path id="Trazado_873761" data-name="Trazado 873761" d="M26.478,296.227a24.486,24.486,0,0,0-18.194,7.75,17,17,0,0,0,9.963-1.847,50.681,50.681,0,0,0,8.537-5.714" transform="translate(-2.058 -73.606)" fill="#e0e0e0"/>
            <path id="Trazado_873762" data-name="Trazado 873762" d="M17.115,292.872c-3.322-.269-6.519-.681-9.713.3A11.646,11.646,0,0,0,0,299.447a17.551,17.551,0,0,0,9.105-1.719,52.379,52.379,0,0,0,8.01-4.856" transform="translate(0 -72.694)" fill="#e0e0e0"/>
            <path id="Trazado_873763" data-name="Trazado 873763" d="M30.727,291.44c-2.989-1.958-6.057-3.952-9.537-4.763s-7.512-.212-9.939,2.411c2.817,1.653,6.235,1.848,9.5,1.846s7.269-.04,10.348,1.05" transform="translate(-2.796 -71.15)" fill="#e0e0e0"/>
            <path id="Trazado_873764" data-name="Trazado 873764" d="M35.273,286.429c-5.109-5.016-7.046-14.029-4.99-20.888a31.835,31.835,0,0,1,4.99,20.888" transform="translate(-7.324 -65.982)" fill="#e0e0e0"/>
            <path id="Trazado_873765" data-name="Trazado 873765" d="M55.883,268.972c.963-2.24,1.641-4.591,2.506-6.871a19.735,19.735,0,0,1,3.573-6.335,9.4,9.4,0,0,1,6.327-3.279,25.481,25.481,0,0,1-12.281,16.521" transform="translate(-13.886 -62.738)" fill="#e0e0e0"/>
            <path id="Trazado_873766" data-name="Trazado 873766" d="M48.13,275.386c-1.595-2.2-3.437-5.174-5.6-6.812a9.367,9.367,0,0,0-7.617-2,17.741,17.741,0,0,0,13.216,8.812" transform="translate(-8.676 -66.191)" fill="#e0e0e0"/>
            <path id="Trazado_873767" data-name="Trazado 873767" d="M52.283,269.222a37.905,37.905,0,0,1-2.521-8.162,12.738,12.738,0,0,1,1.278-8.3c2.8,5.3,3.708,10.992,1.386,16.522" transform="translate(-12.319 -62.806)" fill="#e0e0e0"/>
            <path id="Trazado_873768" data-name="Trazado 873768" d="M55.917,249.045c1.589-5.255,6.4-9.125,11.6-10.9a4.331,4.331,0,0,1,2.033-.3,1.763,1.763,0,0,1,1.5,1.251c.19.894-.549,1.7-1.243,2.289a39.472,39.472,0,0,1-13.884,7.665" transform="translate(-13.894 -59.091)" fill="#e0e0e0"/>
            <path id="Trazado_873769" data-name="Trazado 873769" d="M55.966,241.2a37.63,37.63,0,0,1,1.516-10.037c1.1-3.21,3.226-6.223,6.316-7.627.526,3.422-.984,6.827-2.8,9.772s-4.016,5.724-5.11,9.009" transform="translate(-13.886 -55.545)" fill="#e0e0e0"/>
            <path id="Trazado_873770" data-name="Trazado 873770" d="M52.625,244.053c-1.313-3.83-1.449-8.7-3.742-12.032-1.6-2.332-4.171-3.921-5.552-6.392a9.724,9.724,0,0,0,.323,7.256A20.992,20.992,0,0,0,47.9,238.96c1.7,1.812,3.15,3.176,4.728,5.093" transform="translate(-10.628 -56.065)" fill="#e0e0e0"/>
            <path id="Trazado_873771" data-name="Trazado 873771" d="M55.852,362.5c-.1,0-.19-25.55-.2-57.061s.07-57.066.172-57.066.19,25.545.2,57.066-.071,57.061-.172,57.061" transform="translate(-13.829 -61.715)" fill="#e0e0e0"/>
            <path id="Trazado_873772" data-name="Trazado 873772" d="M78.235,298.389a5.5,5.5,0,0,1-.961.361l-2.644.892c-2.228.759-5.291,1.859-8.615,3.221-3.29,1.411-6.394,2.557-8.162,4.089a6,6,0,0,0-1.639,2.17c-.253.6-.3.967-.332.96-.013,0-.009-.093.011-.268a4.053,4.053,0,0,1,.188-.744,5.764,5.764,0,0,1,1.6-2.313,14.34,14.34,0,0,1,3.541-2.2c1.416-.661,2.987-1.35,4.653-2.036,3.334-1.366,6.419-2.43,8.673-3.128,1.127-.351,2.046-.61,2.684-.781a5.422,5.422,0,0,1,1-.223" transform="translate(-13.884 -74.143)" fill="#e0e0e0"/>
            <path id="Trazado_873773" data-name="Trazado 873773" d="M86.134,274.47a1.562,1.562,0,0,1-.269.287l-.82.77-3.061,2.781L71.8,287.379c-3.977,3.54-7.413,6.921-9.8,9.468-1.193,1.272-2.131,2.325-2.772,3.06l-.74.845a1.578,1.578,0,0,1-.276.28,1.55,1.55,0,0,1,.219-.327c.154-.205.38-.511.688-.891.608-.766,1.519-1.848,2.69-3.146a129.12,129.12,0,0,1,9.74-9.567c3.991-3.531,7.622-6.7,10.26-8.991l3.138-2.692.866-.718a1.588,1.588,0,0,1,.319-.232" transform="translate(-14.465 -68.201)" fill="#e0e0e0"/>
            <path id="Trazado_873774" data-name="Trazado 873774" d="M70.573,293.51c-.1-.047.727-1.964,1.554-4.39s1.229-4.472,1.335-4.455a14.985,14.985,0,0,1-.985,4.574,29.769,29.769,0,0,1-1.236,3.07,4.791,4.791,0,0,1-.667,1.2" transform="translate(-17.534 -70.734)" fill="#e0e0e0"/>
            <path id="Trazado_873775" data-name="Trazado 873775" d="M51.051,310.844a4.6,4.6,0,0,1-.612-.712l-1.57-2.013c-1.319-1.7-3.142-4.057-5.185-6.632s-3.923-4.885-5.283-6.555l-1.6-1.986a4.576,4.576,0,0,1-.553-.758,4.6,4.6,0,0,1,.663.664c.409.443.988,1.1,1.695,1.911,1.413,1.629,3.325,3.916,5.372,6.495s3.839,4.958,5.105,6.7c.633.873,1.137,1.586,1.477,2.085a4.655,4.655,0,0,1,.5.8" transform="translate(-9.006 -72.603)" fill="#e0e0e0"/>
            <path id="Trazado_873776" data-name="Trazado 873776" d="M48.594,306.1a9,9,0,0,1-2.051-3.84,10.957,10.957,0,0,1-.465-3.871l.163.013c-.073.3-.126.452-.156.447s-.031-.169-.006-.473l.163.014a17.625,17.625,0,0,0,.655,3.766,28.653,28.653,0,0,0,1.7,3.945" transform="translate(-11.443 -74.14)" fill="#e0e0e0"/>
            <path id="Trazado_873777" data-name="Trazado 873777" d="M37.367,297.552a6.583,6.583,0,0,0-1.432-.832,9.573,9.573,0,0,0-3.976-.316,24.559,24.559,0,0,0-4,.646,12.119,12.119,0,0,1-1.647.4,5.726,5.726,0,0,1,1.577-.646,18.259,18.259,0,0,1,4.045-.763,8.678,8.678,0,0,1,4.1.442,2.54,2.54,0,0,1,1.334,1.074" transform="translate(-6.537 -73.546)" fill="#e0e0e0"/>
            <path id="Trazado_873778" data-name="Trazado 873778" d="M33.892,294.731c-.029.057-.834-.334-2.194-.8a22.089,22.089,0,0,0-11.056-.843c-1.414.253-2.27.519-2.29.458a2.073,2.073,0,0,1,.582-.248,13.708,13.708,0,0,1,1.657-.465,19.508,19.508,0,0,1,11.2.854,13.577,13.577,0,0,1,1.567.711,2.1,2.1,0,0,1,.537.333" transform="translate(-4.56 -72.652)" fill="#e0e0e0"/>
            <path id="Trazado_873779" data-name="Trazado 873779" d="M54.94,280.96a45.484,45.484,0,0,1-1.6-5.557,45.586,45.586,0,0,1-1.242-5.648,45.224,45.224,0,0,1,1.6,5.557,45.259,45.259,0,0,1,1.242,5.648" transform="translate(-12.942 -67.029)" fill="#e0e0e0"/>
            <path id="Trazado_873780" data-name="Trazado 873780" d="M54.569,282.672a26.7,26.7,0,0,0-1.774-3.327,14.563,14.563,0,0,0-2.61-2.693,2.424,2.424,0,0,1,1.008.519,8.117,8.117,0,0,1,1.9,1.961,7.373,7.373,0,0,1,1.471,3.54" transform="translate(-12.47 -68.742)" fill="#e0e0e0"/>
            <path id="Trazado_873781" data-name="Trazado 873781" d="M48.178,369.776c-.04.006-.115-.614-.4-1.7a24.212,24.212,0,0,0-1.707-4.423,61.229,61.229,0,0,0-9.059-12.762c-2.022-2.311-3.985-4.491-5.65-6.578a46.179,46.179,0,0,1-4.04-5.826,27.993,27.993,0,0,1-2.039-4.324c-.188-.533-.326-.949-.4-1.237a2.072,2.072,0,0,1-.105-.441c.033-.011.219.585.64,1.626a31.657,31.657,0,0,0,2.132,4.244,48.715,48.715,0,0,0,4.078,5.745c1.672,2.066,3.637,4.233,5.663,6.549A58.049,58.049,0,0,1,46.3,363.54a22.055,22.055,0,0,1,1.611,4.5,12.25,12.25,0,0,1,.226,1.281,2.085,2.085,0,0,1,.038.452" transform="translate(-6.155 -82.616)" fill="#e0e0e0"/>
            <path id="Trazado_873782" data-name="Trazado 873782" d="M76.092,351.781a9.408,9.408,0,0,1-1.057.594,23.163,23.163,0,0,0-2.743,1.813,31.525,31.525,0,0,0-3.6,3.286c-1.264,1.335-2.566,2.887-3.9,4.548-2.657,3.335-5.143,6.285-6.631,8.64-.756,1.168-1.305,2.153-1.665,2.844a9.217,9.217,0,0,1-.582,1.065,1.015,1.015,0,0,1,.1-.3c.079-.19.186-.476.355-.829a26.963,26.963,0,0,1,1.573-2.92,95.09,95.09,0,0,1,6.564-8.731c1.332-1.665,2.65-3.22,3.939-4.553a29.242,29.242,0,0,1,3.691-3.259,19.333,19.333,0,0,1,2.832-1.731c.35-.176.637-.283.825-.365a1.008,1.008,0,0,1,.3-.1" transform="translate(-13.894 -87.411)" fill="#e0e0e0"/>
            <path id="Trazado_873783" data-name="Trazado 873783" d="M78.68,361.611a15.306,15.306,0,0,1-2.235.325,29.507,29.507,0,0,0-5.3,1.044A15.943,15.943,0,0,0,66.4,365.47c-1.094.845-1.61,1.545-1.661,1.5a1.7,1.7,0,0,1,.331-.515,8.4,8.4,0,0,1,1.165-1.192,14.372,14.372,0,0,1,4.8-2.639,23.952,23.952,0,0,1,5.388-.953,12.337,12.337,0,0,1,2.261-.065" transform="translate(-16.086 -89.847)" fill="#e0e0e0"/>
            <path id="Trazado_873784" data-name="Trazado 873784" d="M65.6,365.172c-.116-.066.891-1.6,1.672-3.674.733-2.088.9-3.919,1.036-3.9a3.546,3.546,0,0,1-.038,1.2,12.849,12.849,0,0,1-.652,2.825,13.67,13.67,0,0,1-1.3,2.591,3.612,3.612,0,0,1-.723.957" transform="translate(-16.299 -88.857)" fill="#e0e0e0"/>
            <path id="Trazado_873785" data-name="Trazado 873785" d="M82.629,325.371a1.656,1.656,0,0,1-.358.19l-1.051.477c-.46.2-1.018.448-1.647.779s-1.369.661-2.136,1.122l-1.219.694c-.422.243-.841.531-1.286.81-.9.545-1.8,1.217-2.76,1.9a47.364,47.364,0,0,0-10.632,11c-.652.984-1.293,1.907-1.807,2.823-.264.455-.538.883-.767,1.314l-.651,1.242c-.434.782-.745,1.53-1.048,2.173s-.541,1.206-.722,1.673l-.441,1.066a1.724,1.724,0,0,1-.178.364,1.667,1.667,0,0,1,.107-.389l.377-1.093c.162-.476.374-1.053.667-1.7s.582-1.413,1-2.207l.634-1.261c.223-.437.493-.872.752-1.332.507-.93,1.142-1.865,1.791-2.862A45.609,45.609,0,0,1,71.97,331.073c.974-.683,1.887-1.35,2.8-1.888.452-.275.876-.559,1.305-.8l1.239-.677c.779-.449,1.529-.77,2.171-1.079s1.21-.547,1.68-.725l1.08-.414a1.646,1.646,0,0,1,.385-.121" transform="translate(-13.896 -80.848)" fill="#e0e0e0"/>
            <path id="Trazado_873786" data-name="Trazado 873786" d="M70.211,338.726a2.571,2.571,0,0,1,.878-1.308,5.546,5.546,0,0,1,3.538-1.357,9.672,9.672,0,0,1,3.723.727,5.3,5.3,0,0,1,1.407.684,8.718,8.718,0,0,1-1.493-.437,11.242,11.242,0,0,0-3.625-.6,5.763,5.763,0,0,0-3.379,1.186,10.5,10.5,0,0,0-1.048,1.11" transform="translate(-17.445 -83.505)" fill="#e0e0e0"/>
            <path id="Trazado_873787" data-name="Trazado 873787" d="M67.033,340.676a9.45,9.45,0,0,0,.779-6.68,2.169,2.169,0,0,1,.415.952,6.754,6.754,0,0,1-.571,4.9c-.312.564-.588.856-.623.83" transform="translate(-16.655 -82.992)" fill="#e0e0e0"/>
            <path id="Trazado_873788" data-name="Trazado 873788" d="M32.436,386.978c.551,9.764,3.493,19.694,8.019,29.735H60.135c4.316-9.94,7.055-19.856,7.542-29.735Z" transform="translate(-8.06 -96.157)" fill="#e0e0e0"/>
            <path id="Trazado_873789" data-name="Trazado 873789" d="M65.516,407.941c0,.1-6.48.185-14.471.185s-14.473-.083-14.473-.185,6.478-.185,14.473-.185,14.471.083,14.471.185" transform="translate(-9.087 -101.32)" fill="#fafafa"/>
            <path id="Trazado_873790" data-name="Trazado 873790" d="M65.529,412.648c0,.1-6.075.185-13.566.185S38.4,412.75,38.4,412.648s6.073-.185,13.568-.185,13.566.083,13.566.185" transform="translate(-9.54 -102.49)" fill="#fafafa"/>
            <path id="Trazado_873791" data-name="Trazado 873791" d="M43.468,395.508a55.669,55.669,0,0,1,0,9.066,55.67,55.67,0,0,1,0-9.066" transform="translate(-10.755 -98.277)" fill="#fafafa"/>
            <path id="Trazado_873792" data-name="Trazado 873792" d="M57.5,395.508a59.693,59.693,0,0,1,0,9.389,59.692,59.692,0,0,1,0-9.389" transform="translate(-14.241 -98.277)" fill="#fafafa"/>
            <path id="Trazado_873793" data-name="Trazado 873793" d="M70.671,395.4a62.1,62.1,0,0,1,0,9.577,62.1,62.1,0,0,1,0-9.577" transform="translate(-17.515 -98.25)" fill="#fafafa"/>
            <path id="Trazado_873794" data-name="Trazado 873794" d="M67.273,395.447c0,.1-7.6.185-16.973.185s-16.975-.083-16.975-.185,7.6-.185,16.975-.185,16.973.083,16.973.185" transform="translate(-8.281 -98.215)" fill="#fafafa"/>
            <rect id="Rectángulo_401470" data-name="Rectángulo 401470" width="81.698" height="135.234" transform="translate(63.185 1.805)" fill="#e0e0e0"/>
            <rect id="Rectángulo_401471" data-name="Rectángulo 401471" width="81.698" height="135.234" transform="translate(60.468 1.805)" fill="#ebebeb"/>
            <rect id="Rectángulo_401472" data-name="Rectángulo 401472" width="74.741" height="129.75" transform="translate(63.947 4.547)" fill="#fff"/>
            <rect id="Rectángulo_401473" data-name="Rectángulo 401473" width="45.959" height="96.03" transform="translate(78.176 21.407)" fill="#ebebeb"/>
            <path id="Trazado_873795" data-name="Trazado 873795" d="M104.024,99.334c-.106-8.97,7.959-17.728,16.842-18.98,4.236-.6,8.736.243,12.695-1.379,7.065-2.9,9.313-12.284,16.422-15.068l.325,69.409H104.024Z" transform="translate(-25.848 -15.88)" fill="#e0e0e0"/>
            <path id="Trazado_873796" data-name="Trazado 873796" d="M355.378,78.738v61.609H266.891L263.7,79.169Z" transform="translate(-65.525 -19.565)" fill="#e0e0e0"/>
            <rect id="Rectángulo_401474" data-name="Rectángulo 401474" width="88.487" height="61.049" transform="translate(198.177 59.604)" fill="#ebebeb"/>
            <rect id="Rectángulo_401475" data-name="Rectángulo 401475" width="69.32" height="45.879" transform="translate(207.761 67.189)" fill="#fff"/>
            <path id="Trazado_873797" data-name="Trazado 873797" d="M345.7,89.338s-.119.008-.342.012l-.985.011-3.807.025-14.285.054-49.9.1.2-.2c.005,14.017.012,29.549.018,45.873v.005l-.219-.218,69.32.044-.174.174c.038-13.962.07-25.409.092-33.381.019-3.984.034-7.1.044-9.23q.012-1.582.02-2.426c.006-.549.019-.842.019-.842s.013.267.019.8q.007.832.02,2.394c.011,2.125.025,5.224.044,9.191.022,8,.053,19.482.092,33.489v.174H345.7l-69.32.044h-.219v-.225c.007-16.324.013-31.856.018-45.873v-.2h.2l50.032.1,14.24.053,3.767.025.963.011c.215,0,.319.012.319.012" transform="translate(-68.622 -22.149)" fill="#e0e0e0"/>
            <path id="Trazado_873798" data-name="Trazado 873798" d="M263.7,79.082a7.508,7.508,0,0,1,1.521.985c.906.654,2.138,1.581,3.469,2.646s2.5,2.073,3.326,2.828a7.241,7.241,0,0,1,1.268,1.3c-.083.092-2.21-1.662-4.868-3.784a48.132,48.132,0,0,1-4.717-3.973" transform="translate(-65.525 -19.649)" fill="#e0e0e0"/>
            <path id="Trazado_873799" data-name="Trazado 873799" d="M378.278,79.31a42.743,42.743,0,0,1-4.656,3.964,43,43,0,0,1-4.928,3.622,42.821,42.821,0,0,1,4.656-3.964,42.916,42.916,0,0,1,4.927-3.622" transform="translate(-91.613 -19.706)" fill="#e0e0e0"/>
            <path id="Trazado_873800" data-name="Trazado 873800" d="M378.092,157.913l-9.866-8" transform="translate(-91.498 -37.252)" fill="#fff"/>
            <path id="Trazado_873801" data-name="Trazado 873801" d="M368.225,149.916a46.3,46.3,0,0,1,5.07,3.828,46.422,46.422,0,0,1,4.8,4.168,46.262,46.262,0,0,1-5.07-3.828,46.3,46.3,0,0,1-4.8-4.168" transform="translate(-91.497 -37.25)" fill="#e0e0e0"/>
            <path id="Trazado_873802" data-name="Trazado 873802" d="M263.7,158.063a83.8,83.8,0,0,1,9.486-7.5,41.969,41.969,0,0,1-4.608,3.923,42.013,42.013,0,0,1-4.878,3.579" transform="translate(-65.525 -37.411)" fill="#e0e0e0"/>
            <rect id="Rectángulo_401476" data-name="Rectángulo 401476" width="43.617" height="15.362" transform="translate(221.835 81.483)" fill="#e0e0e0"/>
          </g>
        </g>
        <g id="Grupo_1099818" data-name="Grupo 1099818">
          <g id="Grupo_1099817" data-name="Grupo 1099817" clip-path="url(#clip-path)">
            <path id="Trazado_873803" data-name="Trazado 873803" d="M309.828,427.156c0,.108-65.15.2-145.5.2-80.376,0-145.511-.087-145.511-.2s65.136-.2,145.511-.2c80.347,0,145.5.087,145.5.2" transform="translate(-4.676 -106.092)" fill="#263238"/>
          </g>
        </g>
        <path id="Trazado_873804" data-name="Trazado 873804" d="M41.829,41.53,37.417,58.182l16.7-5.832L61.7,65.292l8.691-15.656L87.07,55.421,76.6,40.587l13.391-12.03-17.2-6.623L76.522,4.5l-15.5,8.195L51.83.524,47.568,15.335,32.292,12.694,40.528,27.73,26.223,35.887Z" transform="translate(-6.516 -0.13)" fill="#fff"/>
        <g id="Grupo_1099820" data-name="Grupo 1099820">
          <g id="Grupo_1099819" data-name="Grupo 1099819" clip-path="url(#clip-path)">
            <path id="Trazado_873805" data-name="Trazado 873805" d="M41.755,41.4s-.364-.119-1.051-.359l-3.032-1.072L26.117,35.845l-.19-.068.176-.1L40.391,27.49l-.049.172L32.086,12.638l-.152-.275.31.053,15.279,2.625-.189.119L51.585.345l.1-.344L51.9.287l9.2,12.166-.237-.053L76.358,4.2l.366-.194-.086.405c-1.193,5.576-2.451,11.455-3.731,17.434l-.121-.223,3.881,1.494,13.323,5.13.3.114-.237.212L76.657,40.6l.028-.251,10.46,14.839.326.461-.534-.185-16.678-5.8.2-.078L61.756,65.237l-.129.231-.134-.228L53.929,52.286l.156.057-16.71,5.8-.168.059.047-.171L40.576,45.69l.87-3.2c.2-.719.31-1.093.31-1.093s-.082.358-.264,1.072L40.67,45.66,37.434,58.076l-.122-.113L54,52.1l.1-.036.055.093,7.6,12.931-.262,0,8.675-15.665.069-.125.135.047L87.056,55.12l-.208.277L76.374,40.567l-.1-.138.126-.113L89.79,28.283l.06.326L76.527,23.481l-3.881-1.494-.156-.06.035-.164C73.805,15.784,75.066,9.905,76.26,4.33l.28.211-15.5,8.189-.141.075-.1-.128L51.614.5l.315-.059c-1.485,5.145-2.918,10.112-4.273,14.809l-.041.144-.148-.026L32.192,12.714l.159-.222c2.995,5.486,5.766,10.563,8.215,15.047l.06.11-.109.062L26.2,35.839l-.014-.168L37.75,39.908l3,1.108c.673.251,1.007.385,1.007.385" transform="translate(-6.442 0)" fill="#263238"/>
            <path id="Trazado_873806" data-name="Trazado 873806" d="M67.469,37.851a5.26,5.26,0,1,0-3.823,0c-8.087,1.144-7.72,9.395-7.72,9.395l19.123.083s.436-8.342-7.581-9.478" transform="translate(-13.896 -6.883)" fill="#e0e0e0"/>
            <path id="Trazado_873807" data-name="Trazado 873807" d="M67.405,37.8l.944.157.491.089.59.2c.211.077.446.145.685.246l.735.383a7.906,7.906,0,0,1,2.959,3,11.011,11.011,0,0,1,1.326,5.408v.142h-.15L55.862,47.39H55.67v-.185a11.082,11.082,0,0,1,1.109-4.919,8.059,8.059,0,0,1,2.853-3.262,10.339,10.339,0,0,1,3.925-1.412l-.043.366a5.421,5.421,0,1,1,3.967-10.09A5.362,5.362,0,0,1,70.626,34.4a5.249,5.249,0,0,1-1.353,2.244,5.062,5.062,0,0,1-1.339.951,4.231,4.231,0,0,1-.529.208l.5-.269a5.4,5.4,0,0,0,1.277-.984A5.178,5.178,0,0,0,70.251,31a5.1,5.1,0,0,0-9.828,2.158,5.083,5.083,0,0,0,3.229,4.466l.649.245-.691.121a9.993,9.993,0,0,0-3.765,1.36,7.686,7.686,0,0,0-2.716,3.111,10.748,10.748,0,0,0-1.072,4.727L55.864,47l19.123.128-.15.141A10.856,10.856,0,0,0,73.6,41.995a7.817,7.817,0,0,0-2.835-2.972l-.712-.394c-.231-.1-.461-.177-.667-.259l-.576-.219-.514-.124-.891-.226" transform="translate(-13.833 -6.834)" fill="#263238"/>
            <path id="Trazado_873808" data-name="Trazado 873808" d="M83.724,50.739a5.611,5.611,0,1,1-4.975-6.183,5.611,5.611,0,0,1,4.975,6.183" transform="translate(-18.023 -11.063)" fill="#ffc78f"/>
            <rect id="Rectángulo_401479" data-name="Rectángulo 401479" width="1.229" height="5.508" transform="translate(59.804 36.423)" fill="#fff"/>
            <rect id="Rectángulo_401480" data-name="Rectángulo 401480" width="5.508" height="1.229" transform="translate(57.665 38.562)" fill="#fff"/>
          </g>
        </g>
        <g id="Grupo_1099831" data-name="Grupo 1099831">
          <g id="Grupo_1099830" data-name="Grupo 1099830" clip-path="url(#clip-path)">
            <path id="Trazado_873809" data-name="Trazado 873809" d="M244.442,102.82a6.741,6.741,0,0,0-3.307-.842c-1.1,0-9.008,4.854-9.008,4.854l-7.548,8.34-2.281,5.949,4.791,2.606,6.9-14.706,7.112-4.3Z" transform="translate(-55.237 -25.34)" fill="#ffc09d"/>
            <path id="Trazado_873810" data-name="Trazado 873810" d="M211.029,120.982s-10.823,19.742-11.123,19.341-9.721-8.819-9.721-8.819-4.611-10.614-6.524-14.43c-1.444-2.884-6.379-4.632-6.379-4.632l2.73,35c-.459-.955,15.081,9.607,18.539,11.023,3.3,1.35,6.765-1.8,9.29-3.4s13.61-26.359,13.61-26.359Z" transform="translate(-44.051 -27.94)" fill="#f9d648"/>
            <path id="Trazado_873811" data-name="Trazado 873811" d="M206.871,159.8a16.736,16.736,0,0,1,.227-8.878c.115.024-.267,1.986-.322,4.434s.212,4.426.1,4.444" transform="translate(-51.281 -37.502)" fill="#263238"/>
            <path id="Trazado_873812" data-name="Trazado 873812" d="M163.429,32.781c-3.2-1.077-6.636,1.713-9.925.971-2-.45-3.468-2.1-5.227-3.147A10.317,10.317,0,0,0,139.108,30c-2.768,1.308-4.568,2.738-5.027,5.765-2.443-1.5-6.675,1.514-8.172,4.49s-1.231,6.105-.521,9.361a43.972,43.972,0,0,0,6.83,15.676c.29.417.758.883,1.224.68a1.109,1.109,0,0,0,.5-.878,36.8,36.8,0,0,0,.1-8.961,22.247,22.247,0,0,1,.812-8.886c1.022-2.815,3.319-5.345,6.274-5.842a9.494,9.494,0,0,1,6.314,1.541c1.9,1.137,3.552,2.633,5.354,3.918a12.207,12.207,0,0,0,6.041,2.54,5.794,5.794,0,0,0,5.6-2.791c1-1.975.023-4.848-2.128-5.368a4.349,4.349,0,0,0,1.114-8.462" transform="translate(-31.015 -7.254)" fill="#263238"/>
            <path id="Trazado_873813" data-name="Trazado 873813" d="M162.433,69.471c.023-4.1-.617-12.538-1.284-20.172A15.812,15.812,0,0,0,145.29,34.863l-.818.005c-8.824.576-12.235,8.725-11.416,17.531l.086,29.327,16.972,14.23,3.062-5.987.984-10.686s8.226-1.326,8.273-9.813" transform="translate(-33.032 -8.663)" fill="#ffc09d"/>
            <path id="Trazado_873814" data-name="Trazado 873814" d="M157.432,92.971a20.056,20.056,0,0,1-11.325-3.025s2.671,5.935,11.132,5.115Z" transform="translate(-36.305 -22.35)" fill="#ff9b6c"/>
            <path id="Trazado_873815" data-name="Trazado 873815" d="M164.822,64.527a1.211,1.211,0,0,1-1.16,1.23,1.158,1.158,0,0,1-1.256-1.084,1.212,1.212,0,0,1,1.158-1.232,1.161,1.161,0,0,1,1.258,1.085" transform="translate(-40.355 -15.764)" fill="#263238"/>
            <path id="Trazado_873816" data-name="Trazado 873816" d="M166.5,59.191c-.149.159-1.072-.514-2.376-.5-1.3-.007-2.255.671-2.4.513-.07-.071.081-.357.5-.663a3.326,3.326,0,0,1,1.919-.606,3.192,3.192,0,0,1,1.892.6c.4.305.541.59.467.661" transform="translate(-40.183 -14.395)" fill="#263238"/>
            <path id="Trazado_873817" data-name="Trazado 873817" d="M148,64.527a1.212,1.212,0,0,1-1.16,1.23,1.159,1.159,0,0,1-1.257-1.084,1.214,1.214,0,0,1,1.16-1.232A1.16,1.16,0,0,1,148,64.527" transform="translate(-36.175 -15.764)" fill="#263238"/>
            <path id="Trazado_873818" data-name="Trazado 873818" d="M149.45,59.63c-.15.159-1.073-.514-2.376-.5-1.3-.006-2.255.671-2.4.513-.07-.071.08-.356.5-.663a3.323,3.323,0,0,1,1.918-.606,3.2,3.2,0,0,1,1.892.6c.4.305.54.59.467.661" transform="translate(-35.945 -14.504)" fill="#263238"/>
            <path id="Trazado_873819" data-name="Trazado 873819" d="M157.192,69.28a8.622,8.622,0,0,1,2.115-.4c.333-.036.648-.1.7-.332a1.7,1.7,0,0,0-.229-.985q-.478-1.205-1-2.529a43.5,43.5,0,0,1-2.256-6.617,43.754,43.754,0,0,1,2.784,6.419c.334.888.655,1.735.96,2.545a1.921,1.921,0,0,1,.182,1.305.836.836,0,0,1-.544.491,2.259,2.259,0,0,1-.565.083,8.523,8.523,0,0,1-2.146.017" transform="translate(-38.89 -14.516)" fill="#263238"/>
            <path id="Trazado_873820" data-name="Trazado 873820" d="M149.18,50.837c-.126.355-1.429.2-2.958.391-1.532.164-2.763.62-2.968.3-.092-.152.121-.486.618-.833a5.18,5.18,0,0,1,4.514-.529c.564.222.848.5.794.667" transform="translate(-35.591 -12.394)" fill="#263238"/>
            <path id="Trazado_873821" data-name="Trazado 873821" d="M165.946,54.148c-.228.3-1.128,0-2.208-.011-1.08-.045-1.993.212-2.206-.1-.094-.15.048-.447.446-.73a3.195,3.195,0,0,1,3.556.086c.384.3.511.606.411.751" transform="translate(-40.131 -13.123)" fill="#263238"/>
            <path id="Trazado_873822" data-name="Trazado 873822" d="M131.514,65.958c-.145-.062-6.513-1.633-6.289,4.166s6,4.378,6,4.212.284-8.378.284-8.378" transform="translate(-31.115 -16.33)" fill="#ffc09d"/>
            <path id="Trazado_873823" data-name="Trazado 873823" d="M129.862,72.849c-.026-.017-.1.074-.266.159a1.011,1.011,0,0,1-.755.045,2.5,2.5,0,0,1-1.244-2.2,3.344,3.344,0,0,1,.227-1.458,1.169,1.169,0,0,1,.73-.8.515.515,0,0,1,.607.254c.084.159.052.277.083.286s.121-.1.065-.34a.643.643,0,0,0-.242-.354.762.762,0,0,0-.564-.126,1.419,1.419,0,0,0-1.021.94,3.424,3.424,0,0,0-.288,1.63,2.625,2.625,0,0,0,1.571,2.448,1.086,1.086,0,0,0,.918-.189c.174-.15.2-.281.179-.291" transform="translate(-31.604 -16.972)" fill="#ff9b6c"/>
            <path id="Trazado_873824" data-name="Trazado 873824" d="M160.472,40.913a11.076,11.076,0,0,0-3.591-4.08,18.906,18.906,0,0,0-10.988-3.846,15.394,15.394,0,0,0-10.768,4.153,16.249,16.249,0,0,0-4.41,8.231,28.8,28.8,0,0,0-.383,10.336c.253,1.362,1.026,1.85,1.989,2.846a1.843,1.843,0,0,0,2.316.495A2.311,2.311,0,0,0,135.3,57.7c1.087-4.484,2.155-9.3.487-13.605a13.309,13.309,0,0,1,3.97-3.7,6.894,6.894,0,0,1,5.266-.756c2.593.779,4.2,3.283,6.277,5.02a12.256,12.256,0,0,0,10.9,2.379Z" transform="translate(-32.309 -8.197)" fill="#263238"/>
            <path id="Trazado_873825" data-name="Trazado 873825" d="M125.032,52.17c.007-.064.622.008,1.6-.065a10.424,10.424,0,0,0,6.759-3.206c.676-.713,1.009-1.234,1.064-1.2a4.252,4.252,0,0,1-.87,1.374,9.384,9.384,0,0,1-6.942,3.293,4.224,4.224,0,0,1-1.614-.2" transform="translate(-31.068 -11.852)" fill="#e0e0e0"/>
            <path id="Trazado_873826" data-name="Trazado 873826" d="M125.151,55.392c-.005-.063.663-.122,1.7-.386a12.858,12.858,0,0,0,6.873-4.441c.667-.836.994-1.42,1.05-1.39a5.085,5.085,0,0,1-.842,1.547,11.431,11.431,0,0,1-7.023,4.538,5.075,5.075,0,0,1-1.756.132" transform="translate(-31.098 -12.219)" fill="#e0e0e0"/>
            <path id="Trazado_873827" data-name="Trazado 873827" d="M174.787,47.77a1.837,1.837,0,0,1-.322.973,4.675,4.675,0,0,1-4.116,2.43,1.835,1.835,0,0,1-1.007-.188,6.306,6.306,0,0,1,1-.072,5.214,5.214,0,0,0,3.906-2.306c.342-.5.49-.857.544-.837" transform="translate(-42.078 -11.87)" fill="#e0e0e0"/>
            <path id="Trazado_873828" data-name="Trazado 873828" d="M175.809,49.361a1.875,1.875,0,0,1-.323.93,5.424,5.424,0,0,1-3.791,2.687,1.88,1.88,0,0,1-.985,0,9.222,9.222,0,0,0,2.97-1.214,9.222,9.222,0,0,0,2.13-2.4" transform="translate(-42.418 -12.265)" fill="#e0e0e0"/>
            <path id="Trazado_873829" data-name="Trazado 873829" d="M152.389,74.965a22.351,22.351,0,0,1,3.583,1.73l1.214.7c-.545.66-1.148,1.774-1.886,2.055a2.585,2.585,0,0,1-2.514-.4,2.959,2.959,0,0,1-.66-1.93,9.8,9.8,0,0,1,.263-2.147" transform="translate(-37.8 -18.627)" fill="#ff9b6c"/>
            <path id="Trazado_873830" data-name="Trazado 873830" d="M156.5,78.077c-.035-.018-.128.163-.361.424a2.173,2.173,0,0,1-1.23.707,2.727,2.727,0,0,1-2.018-.443,2.64,2.64,0,0,1-.711-2.36,6.5,6.5,0,0,1,.393-1.547l-.271.1c1.4.711,2.625,1.316,3.507,1.732a7.026,7.026,0,0,0,1.439.6,7,7,0,0,0-1.325-.824c-.85-.477-2.052-1.127-3.442-1.855l-.192-.1-.079.2a6.57,6.57,0,0,0-.428,1.642,2.543,2.543,0,0,0,3.186,3.123,2.19,2.19,0,0,0,1.292-.888,1.115,1.115,0,0,0,.238-.519" transform="translate(-37.71 -18.516)" fill="#263238"/>
            <path id="Trazado_873831" data-name="Trazado 873831" d="M152.765,392.664l-.8,16.433s16.434,6.335,16.581,9.386l-31.919-.411.2-25.657Z" transform="translate(-33.949 -97.508)" fill="#263238"/>
            <path id="Trazado_873832" data-name="Trazado 873832" d="M143.611,412.587a1.3,1.3,0,0,0-.921,1.476,1.253,1.253,0,0,0,1.455.925,1.374,1.374,0,0,0,.966-1.568,1.3,1.3,0,0,0-1.62-.794" transform="translate(-35.45 -102.508)" fill="#e0e0e0"/>
            <path id="Trazado_873833" data-name="Trazado 873833" d="M136.624,425.7l.122-2.585,30.558,1.36s1.414.637,1.24,1.636Z" transform="translate(-33.949 -105.137)" fill="#455a64"/>
            <path id="Trazado_873834" data-name="Trazado 873834" d="M156.756,414.356c-.008.156-.788.216-1.561.708-.786.471-1.19,1.142-1.333,1.078-.143-.032.1-.961,1.048-1.54s1.881-.389,1.846-.246" transform="translate(-38.222 -102.923)" fill="#fff"/>
            <path id="Trazado_873835" data-name="Trazado 873835" d="M161.447,416.284c.034.151-.645.408-1.183,1.06-.557.637-.7,1.347-.854,1.338-.147.023-.243-.891.441-1.689s1.595-.858,1.6-.709" transform="translate(-39.584 -103.423)" fill="#fff"/>
            <path id="Trazado_873836" data-name="Trazado 873836" d="M164.558,420.787c-.142.032-.349-.75.062-1.6s1.145-1.179,1.208-1.048c.086.129-.392.581-.719,1.283-.343.694-.4,1.35-.552,1.364" transform="translate(-40.845 -103.893)" fill="#fff"/>
            <path id="Trazado_873837" data-name="Trazado 873837" d="M156.317,409.2c-.067.141-.779-.083-1.661-.035-.883.031-1.573.318-1.652.183-.089-.113.588-.682,1.627-.724s1.764.455,1.686.576" transform="translate(-38.017 -101.536)" fill="#fff"/>
            <path id="Trazado_873838" data-name="Trazado 873838" d="M103.055,400.057l-1.728,19.831,3.156,16.079a2.039,2.039,0,0,1-3.5,1.777c-2.845-3.1-13.254-14.564-13.046-16.009.24-1.672.434-21.039.434-21.039Z" transform="translate(-21.85 -99.407)" fill="#263238"/>
            <path id="Trazado_873839" data-name="Trazado 873839" d="M102.746,445.108,88.032,427.119l-.054.842a3.066,3.066,0,0,0,.6,2.033c1.166,1.563,4.481,5.809,12.355,14.471a2.035,2.035,0,0,0,1.814.643" transform="translate(-21.859 -106.131)" fill="#455a64"/>
            <g id="Grupo_1099823" data-name="Grupo 1099823" transform="translate(68.81 314.607)" opacity="0.6">
              <g id="Grupo_1099822" data-name="Grupo 1099822">
                <g id="Grupo_1099821" data-name="Grupo 1099821" clip-path="url(#clip-path-6)">
                  <path id="Trazado_873840" data-name="Trazado 873840" d="M93.411,418.863a1.235,1.235,0,0,1,.234,1.63,1.187,1.187,0,0,1-1.614.246,1.3,1.3,0,0,1-.238-1.727,1.23,1.23,0,0,1,1.707-.07" transform="translate(-91.562 -418.628)" fill="#fff"/>
                </g>
              </g>
            </g>
            <path id="Trazado_873841" data-name="Trazado 873841" d="M102.325,438.428a4.4,4.4,0,0,1,4.156-1.724c.02-.047-.221-.218-.682-.313a3.249,3.249,0,0,0-3.214,1.333c-.259.394-.308.685-.26.7" transform="translate(-25.422 -108.422)" fill="#fff"/>
            <path id="Trazado_873842" data-name="Trazado 873842" d="M103.983,442.365a16.622,16.622,0,0,1,1.814-.741,16.441,16.441,0,0,1,1.956-.126,2.26,2.26,0,0,0-2.054-.3c-1.191.267-1.816,1.107-1.716,1.167" transform="translate(-25.835 -109.608)" fill="#fff"/>
            <path id="Trazado_873843" data-name="Trazado 873843" d="M99.115,433.68a20.285,20.285,0,0,1,2.723-1.333,20.192,20.192,0,0,1,2.991-.5,5.575,5.575,0,0,0-5.714,1.831" transform="translate(-24.627 -107.253)" fill="#fff"/>
            <path id="Trazado_873844" data-name="Trazado 873844" d="M99.145,426.057c.045.122,1.172-.266,2.6-.225,1.432.02,2.542.455,2.592.335a5.059,5.059,0,0,0-5.194-.11" transform="translate(-24.635 -105.702)" fill="#fff"/>
            <path id="Trazado_873845" data-name="Trazado 873845" d="M99.624,418.262a9.97,9.97,0,0,1,2.7-.307,10.03,10.03,0,0,1,2.591.83c.035-.039-.165-.3-.606-.6a4.447,4.447,0,0,0-3.977-.394c-.49.2-.739.421-.712.467" transform="translate(-24.754 -103.741)" fill="#fff"/>
            <path id="Trazado_873846" data-name="Trazado 873846" d="M102.4,415.3a1.736,1.736,0,0,0,.074-.75,5.216,5.216,0,0,0-.47-2.006,2.319,2.319,0,0,0-.922-1.169.82.82,0,0,0-.933.123,1.335,1.335,0,0,0-.372.877,2.883,2.883,0,0,0,2.351,2.823,3.346,3.346,0,0,0,3.39-1.535,1.164,1.164,0,0,0,.116-.96.805.805,0,0,0-.813-.479,2.845,2.845,0,0,0-1.352.6,5.841,5.841,0,0,0-1.455,1.456,1.785,1.785,0,0,0-.349.667,9.3,9.3,0,0,1,1.976-1.866,2.676,2.676,0,0,1,1.192-.492.429.429,0,0,1,.444.259.793.793,0,0,1-.113.626,2.985,2.985,0,0,1-2.954,1.3,2.5,2.5,0,0,1-2.03-2.368.964.964,0,0,1,.234-.623.444.444,0,0,1,.514-.075,2.1,2.1,0,0,1,.8.975,7.765,7.765,0,0,1,.675,2.622" transform="translate(-24.793 -102.196)" fill="#fff"/>
            <path id="Trazado_873847" data-name="Trazado 873847" d="M154.451,212.448a70.659,70.659,0,0,1,1.542,20.788c-.34,4.418-15.248,126.632-15.248,126.632H120.618L126.276,245l-1.648.357s-10.988,48.99-11.885,56.922c-.806,7.129-10.673,63.167-10.673,63.167l-18.989-.21,7.065-72.331,6.84-65.738,2.573-19.135Z" transform="translate(-20.644 -51.693)" fill="#263238"/>
            <path id="Trazado_873848" data-name="Trazado 873848" d="M137.992,236.292a3.872,3.872,0,0,0,.839.473,9.7,9.7,0,0,0,2.492.872,5.24,5.24,0,0,0,1.855.013,3.812,3.812,0,0,0,1.939-.93,4.613,4.613,0,0,0,1.176-2.055c.237-.782.374-1.6.539-2.421.642-3.316,1.077-6.343,1.33-8.539.127-1.1.211-1.989.257-2.606a4.172,4.172,0,0,0,.026-.963,4.217,4.217,0,0,0-.191.944c-.105.7-.236,1.564-.391,2.585-.329,2.182-.809,5.193-1.45,8.5-.325,1.634-.546,3.3-1.567,4.273a4.179,4.179,0,0,1-3.475.9,11.305,11.305,0,0,1-2.474-.727,4.56,4.56,0,0,0-.906-.322" transform="translate(-34.288 -54.7)" fill="#263238"/>
            <path id="Trazado_873849" data-name="Trazado 873849" d="M145.263,220.863c.007-.019-.13-.1-.413-.122a1.8,1.8,0,0,0-1.127.362,2.009,2.009,0,0,0-.848,1.554,1.995,1.995,0,0,0,3.4,1.275,2.011,2.011,0,0,0,.383-1.729,1.8,1.8,0,0,0-.61-1.013c-.225-.173-.385-.2-.392-.18a2.268,2.268,0,0,1,.706,1.25,1.757,1.757,0,0,1-.382,1.413,1.632,1.632,0,0,1-2.711-1.017,1.762,1.762,0,0,1,.641-1.316,2.268,2.268,0,0,1,1.354-.476" transform="translate(-35.502 -54.849)" fill="#263238"/>
            <path id="Trazado_873850" data-name="Trazado 873850" d="M103.61,229.759a2.165,2.165,0,0,0,.685.107,12.784,12.784,0,0,0,1.888.022,18.281,18.281,0,0,0,11.3-4.759,12.953,12.953,0,0,0,1.3-1.366c.28-.346.424-.546.4-.565-.057-.05-.7.691-1.9,1.7a20.293,20.293,0,0,1-11.125,4.686c-1.565.151-2.547.1-2.551.172" transform="translate(-25.745 -55.46)" fill="#263238"/>
            <path id="Trazado_873851" data-name="Trazado 873851" d="M168.716,221.4a9.079,9.079,0,0,0,.93,2.052,22.789,22.789,0,0,0,3.11,4.33,20.924,20.924,0,0,0,3.943,3.369,7.266,7.266,0,0,0,1.853.986,19.464,19.464,0,0,0-1.713-1.242,26.456,26.456,0,0,1-3.819-3.418,28.3,28.3,0,0,1-3.15-4.19,21.9,21.9,0,0,0-1.155-1.887" transform="translate(-41.922 -55.013)" fill="#263238"/>
            <path id="Trazado_873852" data-name="Trazado 873852" d="M286.274,80.038,286.7,45c.39-8.712-4.355-16.2-13.074-16.349l-.807.033A15.591,15.591,0,0,0,257.882,43.65c-.3,7.553-.526,15.9-.31,19.939.449,8.356,8.865,9.311,8.865,9.311.019,0,.052,5.086.047,7.542l-1.964,5.736L271.4,84.5Z" transform="translate(-63.981 -7.12)" fill="#ae7461"/>
            <path id="Trazado_873853" data-name="Trazado 873853" d="M269.4,86.316a20.211,20.211,0,0,0,10.753-3.668s-2.359,6.394-10.732,5.986Z" transform="translate(-66.94 -20.537)" fill="#6f4439"/>
            <path id="Trazado_873854" data-name="Trazado 873854" d="M263.7,58.227a1.2,1.2,0,0,0,1.2,1.157,1.143,1.143,0,0,0,1.186-1.127,1.194,1.194,0,0,0-1.2-1.158,1.144,1.144,0,0,0-1.187,1.128" transform="translate(-65.526 -14.188)" fill="#263238"/>
            <path id="Trazado_873855" data-name="Trazado 873855" d="M260.575,52.975c.154.15,1.031-.558,2.316-.607,1.283-.068,2.253.554,2.386.391.065-.072-.1-.347-.52-.629a3.28,3.28,0,0,0-1.918-.506A3.151,3.151,0,0,0,261,52.3c-.383.319-.505.606-.429.673" transform="translate(-64.743 -12.827)" fill="#263238"/>
            <path id="Trazado_873856" data-name="Trazado 873856" d="M279.892,57.833a1.194,1.194,0,0,0,1.2,1.157,1.142,1.142,0,0,0,1.187-1.127,1.2,1.2,0,0,0-1.2-1.157,1.144,1.144,0,0,0-1.187,1.128" transform="translate(-69.548 -14.09)" fill="#263238"/>
            <path id="Trazado_873857" data-name="Trazado 873857" d="M277.35,52.679c.155.15,1.033-.557,2.317-.606,1.282-.068,2.253.554,2.386.391.065-.073-.1-.347-.52-.629a3.28,3.28,0,0,0-1.918-.506,3.154,3.154,0,0,0-1.836.677c-.382.319-.5.607-.429.673" transform="translate(-68.911 -12.753)" fill="#263238"/>
            <path id="Trazado_873858" data-name="Trazado 873858" d="M270.672,62.969a8.491,8.491,0,0,0-2.1-.29c-.33-.02-.643-.073-.707-.295a1.674,1.674,0,0,1,.178-.981l.867-2.539a43.049,43.049,0,0,0,1.91-6.625A42.967,42.967,0,0,0,268.38,58.7c-.289.891-.564,1.74-.826,2.551a1.909,1.909,0,0,0-.117,1.295A.825.825,0,0,0,268,63a2.225,2.225,0,0,0,.561.054,8.385,8.385,0,0,0,2.116-.084" transform="translate(-66.434 -12.981)" fill="#263238"/>
            <path id="Trazado_873859" data-name="Trazado 873859" d="M276.576,47.31c.188.321,1.42-.076,2.937-.171,1.515-.126,2.791.087,2.932-.258.06-.164-.208-.449-.754-.692a5.118,5.118,0,0,0-4.471.326c-.5.32-.728.641-.644.794" transform="translate(-68.72 -11.386)" fill="#263238"/>
            <path id="Trazado_873860" data-name="Trazado 873860" d="M260.282,47.936c.275.285,1.314-.046,2.572-.093,1.257-.085,2.33.135,2.566-.177.1-.151-.071-.439-.544-.7a4.049,4.049,0,0,0-2.1-.423,3.989,3.989,0,0,0-2.037.64c-.437.312-.575.617-.453.756" transform="translate(-64.665 -11.563)" fill="#263238"/>
            <path id="Trazado_873861" data-name="Trazado 873861" d="M295.792,58.569c.14-.068,5.675-1.937,5.728,3.787s-5.7,4.6-5.715,4.432-.013-8.219-.013-8.219" transform="translate(-73.499 -14.468)" fill="#ae7461"/>
            <path id="Trazado_873862" data-name="Trazado 873862" d="M298.106,65.213c.025-.019.1.068.27.144a.993.993,0,0,0,.745.008,2.465,2.465,0,0,0,1.121-2.224,3.3,3.3,0,0,0-.292-1.425,1.152,1.152,0,0,0-.758-.758.506.506,0,0,0-.585.279c-.075.161-.038.274-.068.285s-.124-.1-.08-.331a.634.634,0,0,1,.222-.361.751.751,0,0,1,.55-.151,1.4,1.4,0,0,1,1.05.877,3.39,3.39,0,0,1,.361,1.592,2.589,2.589,0,0,1-1.432,2.485,1.068,1.068,0,0,1-.913-.143c-.179-.14-.21-.268-.19-.278" transform="translate(-74.073 -15.076)" fill="#6f4439"/>
            <path id="Trazado_873863" data-name="Trazado 873863" d="M275.856,67.576c-.2-.012-.205,1.3-1.335,2.23s-2.527.777-2.539.96c-.019.083.31.257.9.276A3.273,3.273,0,0,0,275,70.314a2.85,2.85,0,0,0,1.035-1.87c.053-.55-.092-.876-.183-.869" transform="translate(-67.583 -16.791)" fill="#263238"/>
            <path id="Trazado_873864" data-name="Trazado 873864" d="M242.63,34.17a1.355,1.355,0,0,1,.628-.8A4.177,4.177,0,0,1,245.395,33a12.049,12.049,0,0,0,5.222-1.375,5.979,5.979,0,0,1-1.552-1.063A3.593,3.593,0,0,1,247.99,27a.8.8,0,0,1,.443-.552c.37-.118.7.243.963.53a3.092,3.092,0,0,0,2.925,1.2,5.077,5.077,0,0,0,2.169-.668c.024-.026.046-.055.071-.08.294-.31.582-.607.864-.894l0,0v0a18.928,18.928,0,0,1,5.861-4.45,19.453,19.453,0,0,1,10.372-.934c2.923.731,5.566,3.065,6,6.045a6.045,6.045,0,0,1,6.071-.639l.05-.023c2.225.765,3.51,3.092,4.19,5.345.037.123.069.248.1.372a8.791,8.791,0,0,0,3.016,2.879c.216.122.463.272.491.519s-.175.449-.374.594a4.423,4.423,0,0,1-1.785.766,10.014,10.014,0,0,0,.752,1.549c.255.421.558.924.344,1.368a.933.933,0,0,1-.973.437,2.742,2.742,0,0,1-1.037-.455l.762,1.768a5.242,5.242,0,0,1-2.412-.134c-.447,2.119-.757,6.037-1.284,7.476a8.693,8.693,0,0,0-2.654.146c-.987.34-.589,2.09-1.885,1.606-.659-.246-1.7-2.723-1.923-3.389a32.681,32.681,0,0,1-1.572-13.817,10.51,10.51,0,0,0-3.271-2.3l.1.089c-2.35-.787-5.006-1.556-7.214-.432-1.713.872-2.7,2.67-3.976,4.112a11.982,11.982,0,0,1-8.792,4.4c-.3,2.53-.349,6.664-.446,9.023l-2.067-4.7v.019a9.239,9.239,0,0,1-.436-.83l-.046-.084v-.011a14.469,14.469,0,0,0-.679-1.334l-.023.02a1.473,1.473,0,0,1-2.174-1.946,3.316,3.316,0,0,1,.7-.724,2.334,2.334,0,0,1-2.214.6,1.83,1.83,0,0,1-1.314-1.794,1.555,1.555,0,0,1,.913-1.258,5.248,5.248,0,0,1-2.995-.624c-.594-.33-1.178-.877-.987-1.621" transform="translate(-60.28 -5.171)" fill="#263238"/>
            <path id="Trazado_873865" data-name="Trazado 873865" d="M285.766,30.626a7.218,7.218,0,0,1,.849.759,6,6,0,0,1,1.317,2.766,10.558,10.558,0,0,1,.238,2.126c.013.772-.04,1.6-.089,2.469a22,22,0,0,0-.032,2.748,9.707,9.707,0,0,0,.205,1.447,3.022,3.022,0,0,0,.607,1.4,1.267,1.267,0,0,0,1.187.384,1.878,1.878,0,0,0,1.057-.613,4.338,4.338,0,0,0,.783-2.139l-.175.023a7,7,0,0,0,1.039,1.743,2.492,2.492,0,0,0,1.64.869,1.608,1.608,0,0,0,.862-.161,1.394,1.394,0,0,0,.58-.585,1.438,1.438,0,0,0,.169-.745,1.038,1.038,0,0,0-.276-.648l-.088.08a5.384,5.384,0,0,0,1.814,1.329,4.758,4.758,0,0,0,.56.21.9.9,0,0,0,.2.047,1.12,1.12,0,0,0-.189-.078c-.125-.05-.312-.122-.544-.237a5.558,5.558,0,0,1-1.752-1.35l-.088.08a1.075,1.075,0,0,1,.07,1.244,1.255,1.255,0,0,1-.525.518,1.458,1.458,0,0,1-.781.136,2.338,2.338,0,0,1-1.523-.826,6.9,6.9,0,0,1-1-1.706l-.124-.267-.052.29a4.2,4.2,0,0,1-.746,2.044,1.692,1.692,0,0,1-.946.548A1.066,1.066,0,0,1,289,44.207a2.856,2.856,0,0,1-.561-1.308,9.544,9.544,0,0,1-.2-1.417,22.457,22.457,0,0,1,.02-2.724c.044-.871.091-1.7.072-2.482a10.484,10.484,0,0,0-.266-2.154,5.922,5.922,0,0,0-1.4-2.787,3.384,3.384,0,0,0-.9-.707" transform="translate(-71.008 -7.61)" fill="#455a64"/>
            <path id="Trazado_873866" data-name="Trazado 873866" d="M251.409,37.534s.021.022.068.056l.211.15a2.782,2.782,0,0,0,.358.223,4.4,4.4,0,0,0,.513.263,7.429,7.429,0,0,0,3.592.6,9.495,9.495,0,0,0,5.034-1.925,16.423,16.423,0,0,0,4.286-5.055c.6-1.021,1.082-2.067,1.619-3.033a11.123,11.123,0,0,1,1.843-2.571,5.726,5.726,0,0,1,2.4-1.493,4.089,4.089,0,0,1,1.271-.161,4.479,4.479,0,0,1,1.168.21,4.849,4.849,0,0,1,2.717,2.247,5.759,5.759,0,0,1,.446,1.251.278.278,0,0,0-.008-.088c-.011-.07-.026-.153-.042-.256a4.214,4.214,0,0,0-.329-.942,4.756,4.756,0,0,0-.952-1.26,4.894,4.894,0,0,0-1.789-1.083,4.628,4.628,0,0,0-1.205-.23,4.226,4.226,0,0,0-1.322.156,5.851,5.851,0,0,0-2.479,1.52,11.183,11.183,0,0,0-1.883,2.607c-.543.973-1.028,2.016-1.621,3.028a16.426,16.426,0,0,1-4.224,5.008,9.434,9.434,0,0,1-4.936,1.931,7.538,7.538,0,0,1-3.552-.536,11.881,11.881,0,0,1-1.18-.623" transform="translate(-62.471 -6.073)" fill="#455a64"/>
            <path id="Trazado_873867" data-name="Trazado 873867" d="M250.339,36.976a1.3,1.3,0,0,0,.3.206,6.487,6.487,0,0,0,.894.442,8.745,8.745,0,0,0,1.414.446,9.129,9.129,0,0,0,3.615.074A8.694,8.694,0,0,0,258,37.757a6.449,6.449,0,0,0,.912-.4,1.333,1.333,0,0,0,.311-.193c-.017-.033-.476.21-1.268.467a9.91,9.91,0,0,1-1.417.34,10.821,10.821,0,0,1-1.777.126,10.707,10.707,0,0,1-1.77-.2,9.852,9.852,0,0,1-1.4-.4c-.78-.289-1.229-.551-1.247-.519" transform="translate(-62.205 -9.187)" fill="#455a64"/>
            <path id="Trazado_873868" data-name="Trazado 873868" d="M249.052,393.181l.619,16.417s-16.479,6.143-16.66,9.188l31.874-.057.085-25.62Z" transform="translate(-57.899 -97.681)" fill="#455a64"/>
            <path id="Trazado_873869" data-name="Trazado 873869" d="M267.778,413.171a1.3,1.3,0,0,1,.9,1.484,1.251,1.251,0,0,1-1.462.907,1.373,1.373,0,0,1-.948-1.577,1.3,1.3,0,0,1,1.626-.775" transform="translate(-66.152 -102.652)" fill="#e0e0e0"/>
            <path id="Trazado_873870" data-name="Trazado 873870" d="M264.882,426.346l-.092-2.583-30.527,1.021s-1.418.62-1.256,1.62Z" transform="translate(-57.895 -105.297)" fill="#263238"/>
            <path id="Trazado_873871" data-name="Trazado 873871" d="M254.492,414.788c.005.156.784.225,1.55.724.78.479,1.176,1.153,1.319,1.09.144-.03-.09-.96-1.029-1.548s-1.874-.409-1.84-.266" transform="translate(-63.236 -103.031)" fill="#fff"/>
            <path id="Trazado_873872" data-name="Trazado 873872" d="M250.047,416.663c-.035.151.639.414,1.169,1.072.549.642.683,1.353.839,1.346.146.025.252-.888-.422-1.692s-1.583-.874-1.586-.726" transform="translate(-62.132 -103.518)" fill="#fff"/>
            <path id="Trazado_873873" data-name="Trazado 873873" d="M247.116,421.126c.141.032.357-.745-.044-1.6s-1.13-1.19-1.2-1.06c-.088.129.386.585.7,1.289.335.7.381,1.353.536,1.368" transform="translate(-61.093 -103.975)" fill="#fff"/>
            <path id="Trazado_873874" data-name="Trazado 873874" d="M254.854,409.65c.065.142.779-.074,1.659-.016.881.04,1.566.334,1.647.2.09-.113-.579-.688-1.617-.742s-1.766.435-1.689.557" transform="translate(-63.325 -101.651)" fill="#fff"/>
            <path id="Trazado_873875" data-name="Trazado 873875" d="M304.246,394.558l.885,19.857L301.3,430.322a2.036,2.036,0,0,0,3.416,1.92c2.969-2.974,13.543-14.116,13.588-15.178.071-1.686.561-21.248.561-21.248Z" transform="translate(-74.854 -98.041)" fill="#455a64"/>
            <path id="Trazado_873876" data-name="Trazado 873876" d="M303.5,439.724l15.44-17.323.019.842a3.208,3.208,0,0,1-.684,2c-1.23,1.51-4.717,5.606-12.937,13.914a2.036,2.036,0,0,1-1.837.564" transform="translate(-75.415 -104.959)" fill="#263238"/>
            <g id="Grupo_1099826" data-name="Grupo 1099826" transform="translate(238.828 310.914)" opacity="0.6">
              <g id="Grupo_1099825" data-name="Grupo 1099825">
                <g id="Grupo_1099824" data-name="Grupo 1099824" clip-path="url(#clip-path-7)">
                  <path id="Trazado_873877" data-name="Trazado 873877" d="M318.277,413.921a1.231,1.231,0,0,0-.3,1.616,1.184,1.184,0,0,0,1.6.314,1.3,1.3,0,0,0,.311-1.713,1.229,1.229,0,0,0-1.7-.141" transform="translate(-317.794 -413.714)" fill="#fff"/>
                </g>
              </g>
            </g>
            <path id="Trazado_873878" data-name="Trazado 873878" d="M307.949,433.037a4.4,4.4,0,0,0-4.073-1.9c-.018-.048.23-.208.694-.283a3.245,3.245,0,0,1,3.15,1.466c.24.4.278.7.229.713" transform="translate(-75.507 -107.052)" fill="#fff"/>
            <path id="Trazado_873879" data-name="Trazado 873879" d="M306.258,436.9a16.612,16.612,0,0,0-1.779-.816,16.636,16.636,0,0,0-1.946-.208,2.258,2.258,0,0,1,2.061-.213c1.178.317,1.765,1.181,1.663,1.237" transform="translate(-75.173 -108.225)" fill="#fff"/>
            <path id="Trazado_873880" data-name="Trazado 873880" d="M310.844,428.414a10.458,10.458,0,0,0-5.622-2.068,5.567,5.567,0,0,1,5.622,2.068" transform="translate(-75.842 -105.897)" fill="#fff"/>
            <path id="Trazado_873881" data-name="Trazado 873881" d="M311.3,420.836c-.051.12-1.159-.315-2.588-.335-1.429-.041-2.554.347-2.6.225a5.055,5.055,0,0,1,5.188.11" transform="translate(-76.063 -104.378)" fill="#fff"/>
            <path id="Trazado_873882" data-name="Trazado 873882" d="M311.112,413.042a6.466,6.466,0,0,0-5.3.3c-.034-.041.178-.295.63-.57a4.44,4.44,0,0,1,3.984-.224c.48.222.719.451.691.5" transform="translate(-75.987 -102.419)" fill="#fff"/>
            <path id="Trazado_873883" data-name="Trazado 873883" d="M308.255,409.987a1.712,1.712,0,0,1-.044-.751,5.225,5.225,0,0,1,.555-1.982,2.313,2.313,0,0,1,.969-1.127.818.818,0,0,1,.926.162,1.335,1.335,0,0,1,.334.891,2.879,2.879,0,0,1-2.464,2.717,3.338,3.338,0,0,1-3.316-1.674,1.16,1.16,0,0,1-.076-.963.8.8,0,0,1,.831-.443,2.858,2.858,0,0,1,1.323.652,5.827,5.827,0,0,1,1.39,1.514,1.774,1.774,0,0,1,.32.68,9.274,9.274,0,0,0-1.892-1.945,2.663,2.663,0,0,0-1.168-.54.429.429,0,0,0-.455.239.793.793,0,0,0,.087.629,2.979,2.979,0,0,0,2.892,1.42,2.5,2.5,0,0,0,2.125-2.277.965.965,0,0,0-.207-.631.443.443,0,0,0-.51-.1,2.1,2.1,0,0,0-.838.939,7.724,7.724,0,0,0-.784,2.587" transform="translate(-75.803 -100.896)" fill="#fff"/>
            <path id="Trazado_873884" data-name="Trazado 873884" d="M240.494,209.789a70.578,70.578,0,0,0-2.418,20.674c.152,4.421,9.853,126.974,9.853,126.974l20.08.852-.785-114.83,1.629.427s8.888,49.337,9.447,57.288c.5,7.146,7.555,59.21,7.555,59.21l18.286-.5-2.9-67.1L297.2,226.908l-1.757-19.2Z" transform="translate(-59.148 -51.612)" fill="#263238"/>
            <path id="Trazado_873885" data-name="Trazado 873885" d="M278.516,234.426a3.854,3.854,0,0,1-.858.437,9.675,9.675,0,0,1-2.524.765,5.239,5.239,0,0,1-1.851-.065,3.81,3.81,0,0,1-1.9-1.011,4.6,4.6,0,0,1-1.086-2.1c-.2-.79-.3-1.607-.435-2.438-.5-3.335-.806-6.373-.966-8.576-.08-1.1-.126-1.993-.146-2.611a4.183,4.183,0,0,1,.015-.961,4.205,4.205,0,0,1,.15.949c.076.7.17,1.57.28,2.6.236,2.191.588,5.215,1.087,8.539.255,1.644.405,3.313,1.383,4.329a4.174,4.174,0,0,0,3.428,1.049,11.312,11.312,0,0,0,2.5-.62,4.5,4.5,0,0,1,.918-.283" transform="translate(-66.778 -54.136)" fill="#455a64"/>
            <path id="Trazado_873886" data-name="Trazado 873886" d="M274.079,218.846c-.006-.019.135-.1.418-.1a1.794,1.794,0,0,1,1.108.408,2.009,2.009,0,0,1,.78,1.587,1.992,1.992,0,0,1-3.443,1.127,2.007,2.007,0,0,1-.31-1.741,1.8,1.8,0,0,1,.652-.985c.232-.163.392-.181.4-.162a2.262,2.262,0,0,0-.758,1.216,1.754,1.754,0,0,0,.322,1.426,1.629,1.629,0,0,0,2.747-.9,1.759,1.759,0,0,0-.584-1.339,2.269,2.269,0,0,0-1.331-.533" transform="translate(-67.726 -54.353)" fill="#455a64"/>
            <path id="Trazado_873887" data-name="Trazado 873887" d="M311.409,229.292a2.19,2.19,0,0,1-.689.078,12.835,12.835,0,0,1-1.883-.059,18.255,18.255,0,0,1-11.072-5.227,12.806,12.806,0,0,1-1.243-1.417,2.182,2.182,0,0,1-.377-.581c.059-.047.672.718,1.828,1.781a20.268,20.268,0,0,0,10.9,5.146c1.555.216,2.536.2,2.537.279" transform="translate(-73.586 -55.184)" fill="#455a64"/>
            <path id="Trazado_873888" data-name="Trazado 873888" d="M248.158,218.413a8.615,8.615,0,0,1-1.129,2,23.047,23.047,0,0,1-8.225,7.345,8.6,8.6,0,0,1-2.118.9,21.338,21.338,0,0,1,1.97-1.159,27.872,27.872,0,0,0,8.128-7.259,21.384,21.384,0,0,1,1.373-1.828" transform="translate(-58.812 -54.271)" fill="#455a64"/>
            <path id="Trazado_873889" data-name="Trazado 873889" d="M129.618,93.654l1.54-2.662,13.6,12.956,2.116,3.833c.113-.174,2.042-4.135,2.042-4.135l2.92-4.326,1.1,1.5,7.641,82.01s-7.989,2.941-14.551,3.168-13.576,0-13.576,0-6.674-10.182-6.674-10.635,5.2-62.518,5.2-62.518Z" transform="translate(-31.253 -22.61)" fill="#f5f5f5"/>
            <path id="Trazado_873890" data-name="Trazado 873890" d="M127.351,114.766c-1.586-6.7-8.286-22.39-8.286-22.39l-4.936,6.347s-14.809,5.818-15.691,6.523,3.526,45.661,3.526,45.661L98.321,163.6,86.055,208.123s19.351,6.006,26.58,4.6,8.193-10.331,9.427-14.915,5.994-37.9,6.876-51.832,0-24.505-1.586-31.205" transform="translate(-21.383 -22.954)" fill="#f9d648"/>
            <path id="Trazado_873891" data-name="Trazado 873891" d="M137.961,151.465a3.375,3.375,0,0,1-.22-.553l-.558-1.609c-.482-1.442-1.157-3.461-1.986-5.941-1.652-5.061-3.912-11.991-6.41-19.646-.859-2.665-1.689-5.242-2.472-7.675l-.032-.1.07-.08,3.094-3.518.133.292-4.76-.02h-.14l-.016-.138c-.4-3.521-.727-6.421-.96-8.486-.1-.983-.182-1.766-.241-2.342-.02-.246-.038-.449-.051-.615a.726.726,0,0,1,0-.212.733.733,0,0,1,.049.207c.026.165.058.364.1.609.08.573.189,1.353.325,2.332.266,2.061.64,4.956,1.094,8.47l-.155-.138,4.76-.02.388,0-.256.294-3.076,3.534.038-.182c.788,2.431,1.623,5.007,2.486,7.67l6.3,19.682c.779,2.5,1.414,4.529,1.867,5.98q.307,1.02.489,1.632a3.417,3.417,0,0,1,.145.577" transform="translate(-30.663 -25.052)" fill="#263238"/>
            <path id="Trazado_873892" data-name="Trazado 873892" d="M161.52,103.34c.2.4,2.336,3.856,2.336,3.856s9.818,2.105,11.973,4.91,3.126,9.916,3.126,9.916l-2.832,32.868-1.529,23.055s1.879,26.054,2.134,30.264-.515,9.019-2.134,8.818-2.421.6-3.223-3.909-6.524-42.2-6.524-42.2l-2.294-32.757-2.1-25.554Z" transform="translate(-39.868 -25.678)" fill="#f9d648"/>
            <path id="Trazado_873893" data-name="Trazado 873893" d="M167.146,156.319a2.206,2.206,0,0,1,.024-.491c.038-.361.086-.825.147-1.4.149-1.262.356-3.005.61-5.14.559-4.377,1.32-10.344,2.163-16.936.389-2.939.763-5.753,1.106-8.345l.066.166c-1.265-1.034-2.459-2.013-3.568-2.92l-.125-.1.1-.126,1.334-1.7-.016.161-2.867-5.882q-.473-1.007-.764-1.621a3.457,3.457,0,0,1-.241-.581,3.231,3.231,0,0,1,.321.541l.837,1.585c.732,1.426,1.748,3.408,2.987,5.823l.044.084-.06.077c-.416.543-.853,1.111-1.314,1.711L167.9,121l3.592,2.891.08.065-.014.1c-.336,2.593-.7,5.407-1.082,8.348-.886,6.586-1.688,12.548-2.276,16.921-.3,2.128-.554,3.866-.734,5.123l-.219,1.39a2.387,2.387,0,0,1-.1.482" transform="translate(-41.028 -27.682)" fill="#263238"/>
            <path id="Trazado_873894" data-name="Trazado 873894" d="M101.147,205.256a4.024,4.024,0,0,1-.116.508c-.094.356-.214.815-.364,1.385-.165.607-.359,1.328-.582,2.157q-.174.628-.368,1.335a2.977,2.977,0,0,0-.221,1.452,1.376,1.376,0,0,0,1.113,1l1.8.531c1.242.363,2.572.742,3.976,1.124s2.881.766,4.422,1.114c.77.173,1.557.337,2.358.465.4.062.8.116,1.208.141a4.13,4.13,0,0,0,.594,0,1.369,1.369,0,0,0,.269-.044.382.382,0,0,0,.193-.126,3.934,3.934,0,0,0,.824-1.721,16.769,16.769,0,0,0,.407-1.932c.206-1.286.323-2.552.4-3.755l.144.189-11.485-2.688-3.341-.809-.9-.228a2.119,2.119,0,0,1-.322-.1,1.271,1.271,0,0,1,.291.042l.876.174,3.324.7,11.641,2.544.153.034-.009.156a37.673,37.673,0,0,1-.384,3.8,17.067,17.067,0,0,1-.412,1.977,4.178,4.178,0,0,1-.948,1.915.721.721,0,0,1-.332.2,1.66,1.66,0,0,1-.348.059,4.4,4.4,0,0,1-.652,0c-.425-.027-.838-.083-1.246-.147-.815-.132-1.607-.3-2.382-.476-1.549-.355-3.028-.75-4.432-1.14s-2.733-.784-3.973-1.16l-1.792-.554a1.876,1.876,0,0,1-.835-.429,1.583,1.583,0,0,1-.458-.791,1.61,1.61,0,0,1,.035-.865q.115-.381.223-.743l.412-1.357q.383-1.242.666-2.155l.425-1.339a2.678,2.678,0,0,1,.159-.443" transform="translate(-24.645 -51.002)" fill="#263238"/>
            <path id="Trazado_873895" data-name="Trazado 873895" d="M183.508,124.968a7.766,7.766,0,0,1,.1,1.261c.044.813.062,1.992.056,3.446-.011,2.912-.232,6.932-.651,11.35s-.833,8.412-1.064,11.308c-.108,1.4-.2,2.554-.265,3.431a7.788,7.788,0,0,1-.135,1.257,7.829,7.829,0,0,1-.017-1.265c.01-.813.06-1.99.141-3.443.16-2.905.531-6.909.951-11.325s.682-8.416.764-11.319c.041-1.45.065-2.626.068-3.439a7.789,7.789,0,0,1,.054-1.263" transform="translate(-45.105 -31.052)" fill="#263238"/>
            <g id="Grupo_1099829" data-name="Grupo 1099829" transform="translate(78.347 138.682)" opacity="0.3">
              <g id="Grupo_1099828" data-name="Grupo 1099828">
                <g id="Grupo_1099827" data-name="Grupo 1099827" clip-path="url(#clip-path-8)">
                  <path id="Trazado_873896" data-name="Trazado 873896" d="M145.235,188.715a136.018,136.018,0,0,1-22.341-1.843l-18.626-2.336a11.435,11.435,0,0,0,9.925,11.963c3.015.4,6.038-.415,9.033-.95a128.117,128.117,0,0,1,15.555-1.311,10.007,10.007,0,0,0,4.913-1.149c1.434-.916,2.35-2.877,1.542-4.375" transform="translate(-104.251 -184.536)"/>
                </g>
              </g>
            </g>
            <path id="Trazado_873897" data-name="Trazado 873897" d="M100.37,109.5s-5.289,3.35-6.347,8.639,2.555,32.678,3.966,38.77c2.07,8.941,6.661,16.6,10.983,17.126s32.155-2.11,32.155-2.11l2.337-15.112-26.293-2.007-1.231-1.628-3.053-24.638" transform="translate(-23.316 -27.209)" fill="#f9d648"/>
            <path id="Trazado_873898" data-name="Trazado 873898" d="M112.855,128.541s.032.144.073.428.1.718.176,1.263c.148,1.127.363,2.765.64,4.874.543,4.257,1.326,10.409,2.3,18.057l-.027-.065,1.235,1.625-.1-.056,26.3,1.968.195.014-.03.194c-.739,4.8-1.519,9.867-2.327,15.113l-.023.147-.149.014c-5.618.527-11.448,1.033-17.425,1.486-2.962.219-5.892.42-8.783.564-1.447.067-2.881.135-4.314.126-.356,0-.715,0-1.076-.029l-.54-.033c-.18-.021-.361-.074-.54-.11a6.047,6.047,0,0,1-1.972-.894,12.85,12.85,0,0,1-2.967-2.981,24.537,24.537,0,0,1-2.167-3.489,39.484,39.484,0,0,1-2.905-7.375,57.033,57.033,0,0,1-1.541-7.376q-.572-3.615-1.023-7.022c-.606-4.538-1.095-8.775-1.468-12.65s-.637-7.39-.684-10.488a16.271,16.271,0,0,1,.34-4.306,11.622,11.622,0,0,1,1.5-3.305,16.586,16.586,0,0,1,3.368-3.709c.444-.364.8-.622,1.042-.788a3.678,3.678,0,0,1,.377-.235l-.354.268c-.235.175-.58.442-1.014.815a17.054,17.054,0,0,0-3.29,3.731,11.514,11.514,0,0,0-1.452,3.271,16.146,16.146,0,0,0-.3,4.256c.068,3.085.356,6.595.74,10.464s.9,8.1,1.515,12.634q.461,3.4,1.041,7.011a56.867,56.867,0,0,0,1.547,7.33,39.2,39.2,0,0,0,2.89,7.3,24.205,24.205,0,0,0,2.139,3.435,12.5,12.5,0,0,0,2.879,2.89,5.676,5.676,0,0,0,1.845.836c.165.033.327.083.5.1l.522.03c.346.028.7.032,1.053.027,1.416.009,2.851-.06,4.293-.128,2.885-.144,5.812-.345,8.772-.565,5.974-.452,11.8-.955,17.419-1.477l-.171.162c.815-5.245,1.6-10.314,2.348-15.11l.165.208-26.29-2.046-.064-.005-.038-.05-1.228-1.631-.022-.03,0-.036c-.922-7.653-1.665-13.812-2.178-18.073-.246-2.113-.437-3.753-.568-4.882-.059-.547-.105-.967-.138-1.267s-.034-.433-.034-.433" transform="translate(-23.283 -27.209)" fill="#263238"/>
            <path id="Trazado_873899" data-name="Trazado 873899" d="M115.1,123.627c-.075,0-.021-1.03-.4-2.619a11.455,11.455,0,0,0-8.5-8.552c-1.586-.392-2.619-.345-2.616-.42a2.283,2.283,0,0,1,.719-.06,9.748,9.748,0,0,1,1.958.21,11.122,11.122,0,0,1,8.7,8.762,9.754,9.754,0,0,1,.2,1.96,2.269,2.269,0,0,1-.065.719" transform="translate(-25.74 -27.824)" fill="#263238"/>
            <path id="Trazado_873900" data-name="Trazado 873900" d="M214.591,152.584a3.7,3.7,0,0,1,.547-1.816c.485-.546,2.607-.909,2.607-.909l7.026-10.612.682-6.427,2.763-19.034s5.313-9.722,12.2-10.279c2.806-.226-.448,20.519-.7,21.868-.05.266-2.632,28.06-2.632,28.06l-1.7,9.822s-5.456,2.069-7.457,3.035a2.559,2.559,0,0,1-3.092-.246Z" transform="translate(-53.322 -25.719)" fill="#455a64"/>
            <path id="Trazado_873901" data-name="Trazado 873901" d="M289.266,207.354a1.927,1.927,0,0,1-.4.192l-1.189.48c-1.032.416-2.549.962-4.441,1.581s-4.17,1.282-6.725,1.923c-2.559.621-5.4,1.215-8.4,1.694s-5.888.767-8.515.96c-2.628.172-5,.245-6.991.228s-3.6-.065-4.711-.144l-1.278-.093a1.932,1.932,0,0,1-.444-.059,1.934,1.934,0,0,1,.448-.019l1.281.02c1.11.034,2.719.047,4.7.022s4.349-.119,6.967-.31c2.616-.211,5.486-.524,8.48-.987s5.818-1.058,8.373-1.658c2.551-.62,4.831-1.248,6.727-1.838s3.425-1.089,4.472-1.462l1.213-.412a1.925,1.925,0,0,1,.432-.119" transform="translate(-61.169 -51.523)" fill="#263238"/>
            <path id="Trazado_873902" data-name="Trazado 873902" d="M246.049,101.14,262.5,95.73s-.084,4.427,6.316,4.568c7.372.162,13.559-6.32,13.559-6.32s15.326,4.776,18.544,7.371-7.3,56.815-7.3,56.815l-.954,16.148a11.974,11.974,0,0,1,1.58,5.416c0,2.8.1,4.671.1,4.671-19.648,5.927-39.147,11.059-57.088,5.322,0,0,.447-9.526,1.485-12.122s.845-2.834.845-2.834l1.71-29.815.312-22.424Z" transform="translate(-58.956 -23.352)" fill="#455a64"/>
            <path id="Trazado_873903" data-name="Trazado 873903" d="M318.2,103.753a16.76,16.76,0,0,1,6.194,10.041c1.348,6.743,4.295,45.8,4.295,45.8l-18.746-.676s-3.763-32.3-3.763-33.039,4.06-16.794,4.3-17.162,7.715-4.961,7.715-4.961" transform="translate(-76.08 -25.781)" fill="#455a64"/>
            <path id="Trazado_873904" data-name="Trazado 873904" d="M315.4,104.256a35.541,35.541,0,0,0-3.358,2.638,35.349,35.349,0,0,0-2.725,3.288,11.152,11.152,0,0,1,6.083-5.926" transform="translate(-76.858 -25.904)" fill="#263238"/>
            <path id="Trazado_873905" data-name="Trazado 873905" d="M327.488,177.847l-.017,4.665c-.013,3.455-7.526,39.6-7.526,39.6l-11.167-3.759,3.925-35.127.169-5.908Z" transform="translate(-76.726 -44.06)" fill="#ae7461"/>
            <path id="Trazado_873906" data-name="Trazado 873906" d="M304.987,234.109s-4.463,3.368-5.442,4.7-3.4,6.075-5.2,7.457a1.363,1.363,0,0,0,2.157.925,15.4,15.4,0,0,0,4.7-4.089c.762-1.157,1.556-.478,1.6.532s-.822,7.844-.822,7.844-2.136,7.6-1.559,8.451a1.386,1.386,0,0,0,2.17.1c.291-.4,2.7-6.749,2.7-6.749l.618-3.454s-1.241,10.94-.547,11.8a1.2,1.2,0,0,0,1.92.089c.479-.436.978-5.27.978-5.27l1.124-6.456-.2,12.3s.129,1.165,1.044,1.208,1.526-1.3,1.526-1.3l1.321-12.678s-.425,7.048.047,7.417c.633.493,1.211.331,1.42-.21a69.324,69.324,0,0,0,1.042-7.437l.582-12.069.62-5.814-11.292-.738Z" transform="translate(-73.139 -57.316)" fill="#ae7461"/>
            <path id="Trazado_873907" data-name="Trazado 873907" d="M265.961,96.834c.237-1.644,2.47-6.516,2.47-6.516l4.387,5.663,15.535-9.338,3.816,6.371-12.238,8.47-6.186-.969-4.8-.878Z" transform="translate(-66.087 -21.529)" fill="#455a64"/>
            <path id="Trazado_873908" data-name="Trazado 873908" d="M306.258,130.811c.11-.011.794,6.014,1.527,13.455s1.239,13.484,1.13,13.5-.793-6.012-1.526-13.456-1.24-13.484-1.13-13.494" transform="translate(-76.096 -32.504)" fill="#263238"/>
            <path id="Trazado_873909" data-name="Trazado 873909" d="M329.4,174.9a2.007,2.007,0,0,1-.458.044c-.3.018-.745.027-1.317.034-1.144.008-2.8-.029-4.841-.11s-4.471-.21-7.165-.24c-.674-.013-1.357.014-2.079-.009a4.573,4.573,0,0,1-2.169-.537,3.822,3.822,0,0,1-1.5-1.771,9.5,9.5,0,0,1-.643-2.262,8.647,8.647,0,0,1-.154-2.347,4.26,4.26,0,0,1,.24-1.159,1.616,1.616,0,0,1,.321-.539,1.166,1.166,0,0,1,.552-.337,5.107,5.107,0,0,1,1.129-.133l1.072-.055,2.076-.071c2.7-.066,5.138-.041,7.181-.017l4.837.083,1.315.035a2.032,2.032,0,0,1,.458.038,1.9,1.9,0,0,1-.458.042l-1.316.04-4.838.044c-2.042.012-4.474.016-7.169.1l-2.069.085-1.067.059a4.905,4.905,0,0,0-1.036.12c-.613.157-.768.993-.834,1.694a8.29,8.29,0,0,0,.152,2.246,9.18,9.18,0,0,0,.612,2.167,3.442,3.442,0,0,0,1.34,1.6c1.22.7,2.718.449,4.054.516,2.708.051,5.135.215,7.174.326s3.688.2,4.829.237l1.314.041a2,2,0,0,1,.459.037" transform="translate(-76.792 -41.09)" fill="#263238"/>
            <path id="Trazado_873910" data-name="Trazado 873910" d="M242.161,124.968a2.6,2.6,0,0,1,.013.527c-.01.385-.023.885-.04,1.505-.049,1.354-.116,3.233-.2,5.534-.17,4.673-.379,11.128-.516,18.26s-.171,13.594-.179,18.269c0,2.3-.009,4.183-.011,5.538-.008.621-.013,1.121-.017,1.506a2.624,2.624,0,0,1-.033.525,2.668,2.668,0,0,1-.047-.525c-.015-.385-.034-.884-.058-1.505-.044-1.307-.083-3.2-.115-5.538-.065-4.677-.072-11.14.062-18.278s.39-13.593.632-18.265c.121-2.336.233-4.225.325-5.53.048-.62.086-1.118.116-1.5a2.652,2.652,0,0,1,.067-.522" transform="translate(-59.863 -31.052)" fill="#263238"/>
            <path id="Trazado_873911" data-name="Trazado 873911" d="M231.973,178.585c-.058.021-.455-1.027-1.175-2.679a22.491,22.491,0,0,0-3.62-5.963,11.63,11.63,0,0,0-5.83-3.6,13.219,13.219,0,0,0-2.88-.252,2.511,2.511,0,0,1,.779-.146,7.591,7.591,0,0,1,2.16.128,11.293,11.293,0,0,1,6.063,3.61,20.414,20.414,0,0,1,3.583,6.117c.333.844.571,1.538.724,2.022a3.012,3.012,0,0,1,.2.764" transform="translate(-54.285 -41.227)" fill="#263238"/>
            <path id="Trazado_873912" data-name="Trazado 873912" d="M232.789,154.822a10.139,10.139,0,0,1-4.262-2.518,36.05,36.05,0,0,1,4.262,2.518" transform="translate(-56.784 -37.843)" fill="#263238"/>
            <path id="Trazado_873913" data-name="Trazado 873913" d="M292.054,95.126a1.626,1.626,0,0,1-.3.281c-.2.173-.5.431-.9.747-.791.64-1.961,1.538-3.452,2.6a86.39,86.39,0,0,1-12.383,7.291l-.154.074-.093-.142c-.192-.291-.4-.606-.582-.933a17.558,17.558,0,0,1-1.99-5.134l.374-.024a10.091,10.091,0,0,1-1.312,3.349c-.558.99-1.137,1.9-1.721,2.726l-.179.253-.1-.291-2.215-6.253q-.365-1.075-.591-1.744a3.29,3.29,0,0,1-.178-.625,3.274,3.274,0,0,1,.268.592l.673,1.714c.582,1.538,1.382,3.658,2.345,6.206l-.282-.038c.564-.823,1.131-1.732,1.673-2.711a9.978,9.978,0,0,0,1.245-3.21l.141-1.08.232,1.056a17.422,17.422,0,0,0,1.958,5.017c.183.32.383.628.569.912l-.247-.068a95.965,95.965,0,0,0,12.4-7.16c1.506-1.027,2.7-1.89,3.516-2.492l.944-.69a1.652,1.652,0,0,1,.344-.221" transform="translate(-66.164 -23.637)" fill="#263238"/>
            <path id="Trazado_873914" data-name="Trazado 873914" d="M270.444,195.094a.963.963,0,0,1-.013-.222c0-.168,0-.383,0-.65.011-.6.028-1.434.048-2.5.06-2.2.145-5.324.25-9.177.25-7.772.593-18.463.972-30.271.424-11.811.808-22.5,1.087-30.272.157-3.852.285-6.978.374-9.172.052-1.061.092-1.9.122-2.494.017-.267.031-.48.041-.648a.951.951,0,0,1,.028-.22.961.961,0,0,1,.013.221c0,.168,0,.383,0,.649-.011.6-.028,1.434-.048,2.5-.06,2.2-.145,5.323-.25,9.176-.25,7.772-.593,18.464-.972,30.277-.424,11.807-.808,22.5-1.087,30.267-.157,3.852-.285,6.979-.374,9.173-.052,1.061-.092,1.9-.122,2.494-.017.266-.031.479-.041.648a.96.96,0,0,1-.028.22" transform="translate(-67.197 -27.202)" fill="#263238"/>
            <path id="Trazado_873915" data-name="Trazado 873915" d="M229.493,125.1s2.675-2.193,3.2-4.922,1.431-5.836,1.431-5.836,3.257-1.849,3.169-3.169-1.761-1.761-1.761-1.761a24.116,24.116,0,0,0-4.49,3.346c-1.585,1.672-5.591,9.287-5.591,9.287Z" transform="translate(-56.022 -27.188)" fill="#ffc09d"/>
            <path id="Trazado_873916" data-name="Trazado 873916" d="M183.546,173.139s7.141.324,9.546-.2,14.431-4.732,14.431-4.732,9.72,5.311,10.321,9.12-.8,5.041-.8,5.041l-31.667,1.657-4.46-3.792Z" transform="translate(-44.954 -41.797)" fill="#ae7461"/>
            <path id="Trazado_873917" data-name="Trazado 873917" d="M165.88,174.589h5.442s14.878,7.91,15.385,8.876c.742,1.413.549,2.309-1.006,2.071-.877-.134-7.929-3.551-7.929-3.551l-.177.592s3.55,3.3,3.55,4.314-.888,2.787-2.426,2.2c0,0-.769,2.249-1.657,2.6a3.036,3.036,0,0,1-1.893,0s-.591,1.361-1.716,1.361a4.186,4.186,0,0,1-2.249-.947l-5.976-5.858-7.837-.117,1.853-12.084Z" transform="translate(-39.109 -43.247)" fill="#ffc09d"/>
            <path id="Trazado_873918" data-name="Trazado 873918" d="M179.264,194.666c.092-.058.442.334.783.874s.544,1.026.452,1.083-.442-.333-.783-.874-.544-1.025-.452-1.083" transform="translate(-44.538 -48.37)" fill="#ff9b6c"/>
            <path id="Trazado_873919" data-name="Trazado 873919" d="M183.038,191.186c.087-.067.562.412,1.127,1.012s1.01,1.106.938,1.189-.645-.3-1.223-.921-.927-1.215-.842-1.279" transform="translate(-45.478 -47.505)" fill="#ff9b6c"/>
            <path id="Trazado_873920" data-name="Trazado 873920" d="M182.329,174.489s-5.031-4.556-5.918-4.674-5.032.121-5.977,1.2-.473,6.078-.3,6.137a2.121,2.121,0,0,0,2.307-.651,14.047,14.047,0,0,0,1.42-3.313l1.009.334s.8,2.384,5.636,3.066Z" transform="translate(-42.208 -42.189)" fill="#ae7461"/>
            <path id="Trazado_873921" data-name="Trazado 873921" d="M160.462,189.731s-.177,1.367.77,1.84a3.5,3.5,0,0,0,2.307,0l.355-2.054s-2.6-1.686-3.431.213" transform="translate(-39.869 -46.92)" fill="#ae7461"/>
            <path id="Trazado_873922" data-name="Trazado 873922" d="M166.526,193.415s-3.251.032-2.663-2.012,2.012-3.255,2.663-3.255,2.722.011,1.952,1.988a11.582,11.582,0,0,1-1.952,3.279" transform="translate(-40.699 -46.751)" fill="#ae7461"/>
            <path id="Trazado_873923" data-name="Trazado 873923" d="M170.4,194.782s-3.394.888-2.979-1.006,1.757-4.5,2.979-4.142,2.287.888,1.873,1.952a23.956,23.956,0,0,1-1.873,3.2" transform="translate(-41.592 -47.113)" fill="#ae7461"/>
            <path id="Trazado_873924" data-name="Trazado 873924" d="M175.753,195.43s-1.065,1.331-1.894,1.331-2.464-1.539-2.464-1.539l2.179-3.846a1.592,1.592,0,0,1,1.588,1.36,14.511,14.511,0,0,1,.166,1.844Z" transform="translate(-42.589 -47.553)" fill="#ae7461"/>
            <path id="Trazado_873925" data-name="Trazado 873925" d="M173.6,191.5a13.032,13.032,0,0,1-2.306,3.864A13.034,13.034,0,0,1,173.6,191.5" transform="translate(-42.561 -47.584)" fill="#6f4439"/>
            <path id="Trazado_873926" data-name="Trazado 873926" d="M169.674,189.757c.081.08-.64.907-1.309,2.064s-1.045,2.187-1.156,2.155a6.45,6.45,0,0,1,2.465-4.219" transform="translate(-41.543 -47.15)" fill="#6f4439"/>
            <path id="Trazado_873927" data-name="Trazado 873927" d="M165.894,188.723c.066.095-.616.636-1.178,1.518s-.788,1.719-.9,1.7a2.7,2.7,0,0,1,.573-1.91c.615-.96,1.461-1.4,1.507-1.305" transform="translate(-40.695 -46.891)" fill="#6f4439"/>
          </g>
        </g>
      </g>
    </g>
    <rect id="Rectángulo_401487" data-name="Rectángulo 401487" width="400" height="339" transform="translate(180 398)" fill="none"/>
  </g>
</svg>
