<svg xmlns="http://www.w3.org/2000/svg" xmlns:xlink="http://www.w3.org/1999/xlink" width="400" height="628" viewBox="0 0 400 628">
  <defs>
    <clipPath id="clip-path">
      <rect id="Rectángulo_401185" data-name="Rectángulo 401185" width="38.462" height="40.381" fill="#67550c"/>
    </clipPath>
    <clipPath id="clip-path-2">
      <rect id="Rectángulo_401186" data-name="Rectángulo 401186" width="42.014" height="39.393" fill="#6a4624"/>
    </clipPath>
    <clipPath id="clip-path-3">
      <rect id="Rectángulo_401187" data-name="Rectángulo 401187" width="30.752" height="41.05" fill="#804242"/>
    </clipPath>
  </defs>
  <g id="Grupo_1100349" data-name="Grupo 1100349" transform="translate(6420.106 10593.86)">
    <rect id="Rectángulo_401188" data-name="Rectángulo 401188" width="400" height="628" transform="translate(-6420.106 -10593.86)" fill="#fff8e0"/>
    <path id="Trazado_873513" data-name="Trazado 873513" d="M126.118,69.67l-.058-13.754-12.152-2.065a51.477,51.477,0,0,0-2.343-8.666l9.409-7.931-6.927-11.883-11.557,4.289a51.993,51.993,0,0,0-6.368-6.315l4.19-11.592L88.373,4.927,80.522,14.4a51.3,51.3,0,0,0-8.686-2.269L69.669,0,55.915.059,53.851,12.21a51.3,51.3,0,0,0-8.667,2.343l-7.93-9.41L25.372,12.071,29.66,23.627A51.932,51.932,0,0,0,23.346,30L11.753,25.8,4.927,37.745,14.4,45.6a51.3,51.3,0,0,0-2.269,8.686L0,56.449.058,70.2l12.152,2.065a51.4,51.4,0,0,0,2.343,8.666L5.143,88.864l6.927,11.883,11.557-4.289a52,52,0,0,0,6.368,6.315L25.8,114.365l11.94,6.827,7.85-9.476a51.381,51.381,0,0,0,8.686,2.269l2.167,12.134L70.2,126.06l2.064-12.152a51.3,51.3,0,0,0,8.667-2.343l7.93,9.41,11.883-6.928-4.288-11.556a51.993,51.993,0,0,0,6.315-6.369l11.592,4.191,6.827-11.94-9.476-7.851a51.3,51.3,0,0,0,2.269-8.686ZM63.2,96.713a33.654,33.654,0,1,1,33.511-33.8A33.654,33.654,0,0,1,63.2,96.713" transform="translate(-6393.008 -10441.86)" fill="#f9d648"/>
    <path id="Trazado_873514" data-name="Trazado 873514" d="M375.087,73.484l.1-13.754-12.126-2.207a51.273,51.273,0,0,0-2.241-8.693l9.5-7.82-6.788-11.963L351.931,33.2a52.044,52.044,0,0,0-6.293-6.389l4.326-11.542L338.1,8.3l-7.961,9.383a51.336,51.336,0,0,0-8.659-2.371L319.459,3.157l-13.754-.1L303.5,15.181a51.336,51.336,0,0,0-8.693,2.241l-7.82-9.5-11.963,6.788,4.153,11.606a51.876,51.876,0,0,0-6.389,6.294l-11.543-4.326-6.966,11.859,9.384,7.961a51.313,51.313,0,0,0-2.371,8.659l-12.158,2.025-.1,13.754,12.126,2.206a51.335,51.335,0,0,0,2.241,8.693l-9.5,7.82,6.788,11.962,11.606-4.152a52.118,52.118,0,0,0,6.294,6.389L274.257,117l11.859,6.966,7.961-9.383a51.313,51.313,0,0,0,8.659,2.371l2.025,12.159,13.754.1,2.206-12.127a51.286,51.286,0,0,0,8.694-2.241l7.82,9.5,11.962-6.788-4.152-11.606a51.989,51.989,0,0,0,6.389-6.293l11.542,4.326,6.966-11.86-9.383-7.961a51.324,51.324,0,0,0,2.371-8.658Zm-63.229,26.3a33.655,33.655,0,1,1,33.905-33.4,33.655,33.655,0,0,1-33.905,33.4" transform="translate(-6423.137 -10442.239)" fill="#ff9e9e"/>
    <path id="Trazado_873515" data-name="Trazado 873515" d="M249.7,144.557l.3-13.75-12.094-2.382A51.351,51.351,0,0,0,235.8,119.7l9.614-7.681L238.8,99.959l-11.665,3.984a51.979,51.979,0,0,0-6.2-6.479l4.492-11.479-11.757-7.137-8.1,9.267a51.445,51.445,0,0,0-8.624-2.5L195.1,73.433l-13.751-.3-2.382,12.093a51.371,51.371,0,0,0-8.724,2.115l-7.681-9.614L150.5,84.338,154.484,96A52.048,52.048,0,0,0,148,102.2l-11.478-4.493-7.137,11.757,9.267,8.1a51.282,51.282,0,0,0-2.5,8.624l-12.187,1.848-.3,13.751,12.094,2.382a51.3,51.3,0,0,0,2.114,8.724l-9.614,7.681,6.614,12.06,11.665-3.984a51.989,51.989,0,0,0,6.2,6.48l-4.492,11.478,11.757,7.137,8.1-9.267a51.3,51.3,0,0,0,8.624,2.5l1.848,12.187,13.75.3,2.382-12.093a51.382,51.382,0,0,0,8.725-2.115l7.681,9.614,12.06-6.613-3.984-11.665a51.976,51.976,0,0,0,6.479-6.2l11.479,4.493,7.137-11.757-9.267-8.1a51.437,51.437,0,0,0,2.5-8.623Zm-63.6,25.386a33.654,33.654,0,1,1,34.386-32.907A33.654,33.654,0,0,1,186.1,169.943" transform="translate(-6408.062 -10450.926)" fill="#ffc78f"/>
    <g id="Grupo_1099562" data-name="Grupo 1099562" transform="translate(-6349.069 -10398.991)">
      <g id="Grupo_1099556" data-name="Grupo 1099556" transform="translate(0 0)" clip-path="url(#clip-path)">
        <path id="Trazado_873504" data-name="Trazado 873504" d="M19.229,99.915c6.128,0,12.255.008,18.383-.013.619,0,.853.1.85.8-.029,6.968-.015,13.937-.019,20.906,0,2.754-1.526,4.265-4.288,4.265H4.31c-2.766,0-4.289-1.508-4.291-4.263,0-6.968.01-13.937-.019-20.906,0-.693.223-.808.847-.806,6.127.022,12.255.013,18.383.013M5.8,107.572h0c0,.288-.006.576,0,.864a1.862,1.862,0,0,0,2,2.032c.6.015,1.2.018,1.8,0a1.789,1.789,0,0,0,1.891-1.611,7.854,7.854,0,0,0,0-2.507,1.742,1.742,0,0,0-1.614-1.583,8.292,8.292,0,0,0-2.437,0A1.808,1.808,0,0,0,5.8,106.636c-.014.311,0,.624,0,.936m26.872.009h0c0-.312.012-.624,0-.936a1.818,1.818,0,0,0-1.7-1.893,8.638,8.638,0,0,0-2.367.009,1.778,1.778,0,0,0-1.639,1.647,8.681,8.681,0,0,0-.005,2.368,1.813,1.813,0,0,0,1.9,1.689c.6.021,1.2.017,1.8,0a1.861,1.861,0,0,0,2.015-2.023c.007-.288,0-.576,0-.864M8.636,115.32c-.264,0-.528-.005-.792,0a1.869,1.869,0,0,0-2.048,2.06c-.011.647-.021,1.3.019,1.943a1.73,1.73,0,0,0,1.438,1.66,7.756,7.756,0,0,0,2.577.049,1.8,1.8,0,0,0,1.685-1.685c.054-.353.02-.718.042-1.077.115-1.944-.318-3.147-2.919-2.951m24.029,2.9h0c0-.288.006-.576,0-.864a1.861,1.861,0,0,0-2.005-2.031c-.6-.014-1.2-.017-1.8,0a1.79,1.79,0,0,0-1.892,1.61,7.936,7.936,0,0,0,0,2.507,1.747,1.747,0,0,0,1.615,1.583,8.213,8.213,0,0,0,2.437,0,1.8,1.8,0,0,0,1.638-1.871c.014-.311,0-.624,0-.936m-13.421-7.751c.312,0,.624.011.936,0a1.878,1.878,0,0,0,1.929-1.974c.015-.6.017-1.2,0-1.8a1.864,1.864,0,0,0-1.672-1.931,8.517,8.517,0,0,0-2.368-.008,1.873,1.873,0,0,0-1.718,1.966c-.009.288,0,.576,0,.864,0,2.44.449,2.888,2.9,2.884m.013,4.859v-.007c-.264,0-.528,0-.792,0a1.923,1.923,0,0,0-2.115,2.153c0,.576-.021,1.153.007,1.728a1.818,1.818,0,0,0,1.56,1.8,7.426,7.426,0,0,0,2.646,0,1.816,1.816,0,0,0,1.541-1.813c.027-.671.03-1.345,0-2.016a1.848,1.848,0,0,0-1.838-1.837c-.335-.019-.672,0-1.008,0" transform="translate(0 -85.496)" fill="#67550c"/>
        <path id="Trazado_873505" data-name="Trazado 873505" d="M19.227,29.5C13.1,29.5,6.97,29.49.842,29.517c-.673,0-.849-.188-.831-.841.045-1.609,0-3.22.02-4.83a3.9,3.9,0,0,1,4.353-4c.583.031.434.385.433.683a3.786,3.786,0,0,0,2.328,3.8,3.791,3.791,0,0,0,5.329-3.261c.072-1.209.072-1.209,1.3-1.209,3.773,0,7.546.019,11.319-.017.707-.007.917.142.921.892a3.788,3.788,0,0,0,5.605,3.466,3.6,3.6,0,0,0,2.015-3.48c-.027-.771.231-.9.92-.875a3.811,3.811,0,0,1,3.885,3.805c.043,1.705-.017,3.413.029,5.118.017.632-.214.741-.784.739-6.152-.019-12.3-.012-18.457-.012" transform="translate(-0.009 -16.981)" fill="#67550c"/>
        <path id="Trazado_873506" data-name="Trazado 873506" d="M50.184,2.895c0,.359.023.72,0,1.076a1.908,1.908,0,0,1-1.816,1.8,1.845,1.845,0,0,1-1.953-1.538,7.184,7.184,0,0,1,0-2.707A1.846,1.846,0,0,1,48.383,0a1.9,1.9,0,0,1,1.792,1.742c.036.379.006.765.006,1.148h0" transform="translate(-39.61 0)" fill="#67550c"/>
        <path id="Trazado_873507" data-name="Trazado 873507" d="M193.336,2.838c0-.359-.027-.72.005-1.076a1.909,1.909,0,0,1,1.78-1.755,1.843,1.843,0,0,1,1.979,1.5,7.127,7.127,0,0,1,0,2.777,1.841,1.841,0,0,1-1.927,1.482,1.9,1.9,0,0,1-1.821-1.711,11.934,11.934,0,0,1-.007-1.219h0" transform="translate(-165.447 -0.001)" fill="#67550c"/>
      </g>
    </g>
    <g id="Grupo_1099563" data-name="Grupo 1099563" transform="translate(-6242.036 -10335.438)">
      <g id="Grupo_1099558" data-name="Grupo 1099558" transform="translate(0 0)" clip-path="url(#clip-path-2)">
        <path id="Trazado_873508" data-name="Trazado 873508" d="M161.354.414a17.847,17.847,0,0,1,9.552,3.623,18.346,18.346,0,0,1,7.226,12.194,13.385,13.385,0,0,1,.14,1.961c0,.409.095.617.544.552a4.647,4.647,0,0,1,.59,0,1.346,1.346,0,0,1,.984,2.4q-1.133,1.139-2.271,2.275c-.866.866-1.728,1.735-2.6,2.6a1.4,1.4,0,0,1-2.313.025q-2.42-2.4-4.828-4.821a1.37,1.37,0,0,1,1.007-2.475c1.1,0,1.066-.006.954-1.1a10.581,10.581,0,0,0-8.368-9.2c-2.082-.42-2.071-.474-2.071-2.628,0-1.334-.013-2.669.006-4a1.319,1.319,0,0,1,1.447-1.4" transform="translate(-138.898 -0.359)" fill="#6a4624"/>
        <path id="Trazado_873509" data-name="Trazado 873509" d="M7.871,18.87A11.3,11.3,0,0,0,8.6,22.832c.473,1.221.308,1.663-.806,2.31-1.3.757-2.605,1.515-3.913,2.263a1.373,1.373,0,0,1-2.215-.72A18.41,18.41,0,0,1,8.556,3.506c.549-.344.613-.6.247-1.078a1.813,1.813,0,0,1-.415-.947A1.252,1.252,0,0,1,9.932.044c2.432.612,4.853,1.265,7.267,1.943.824.232,1.089.878.836,1.85-.54,2.068-1.1,4.13-1.653,6.194a5.9,5.9,0,0,1-.269.873,1.284,1.284,0,0,1-2.241.275,3.785,3.785,0,0,1-.281-.441c-.489-.83-.5-.846-1.3-.262A10.429,10.429,0,0,0,7.871,18.87" transform="translate(0 0)" fill="#6a4624"/>
        <path id="Trazado_873510" data-name="Trazado 873510" d="M64.163,216.109a17.985,17.985,0,0,1-8.564-2.2c-.4-.219-.613-.206-.787.218a4.482,4.482,0,0,1-.286.516,1.332,1.332,0,0,1-1.395.775,1.349,1.349,0,0,1-1.148-1.113c-.277-1.032-.559-2.063-.834-3.1-.336-1.266-.679-2.53-1-3.8a1.288,1.288,0,0,1,1-1.748q3.47-.961,6.953-1.876a1.309,1.309,0,0,1,1.476.453,1.351,1.351,0,0,1,.062,1.539c-.593,1.157-.591,1.159.649,1.658A10.5,10.5,0,0,0,72.4,204.388c.947-1.144,1.326-1.212,2.613-.468,1.268.733,2.539,1.459,3.8,2.2a1.329,1.329,0,0,1,.478,2.228,18.26,18.26,0,0,1-11.832,7.47,18.934,18.934,0,0,1-3.3.29" transform="translate(-43.508 -176.715)" fill="#6a4624"/>
      </g>
    </g>
    <g id="Grupo_1099564" data-name="Grupo 1099564" transform="translate(-6127.143 -10398.019)">
      <g id="Grupo_1099560" data-name="Grupo 1099560" transform="translate(0 0)" clip-path="url(#clip-path-3)">
        <path id="Trazado_873511" data-name="Trazado 873511" d="M0,57.969Q0,51.4,0,44.825A4.454,4.454,0,0,1,4.76,40.052h.834c.845,0,.855,0,.642.853A4.173,4.173,0,0,0,6.691,44.7a3.68,3.68,0,0,0,3.121,1.463c3.633-.006,7.267,0,10.9,0,2.92,0,4.528-2.016,3.895-4.864-.277-1.246-.276-1.214,1.016-1.253a4.541,4.541,0,0,1,5.126,4.674q0,13.272,0,26.544a4.426,4.426,0,0,1-4.707,4.69q-10.675,0-21.351,0A4.427,4.427,0,0,1,0,71.241Q0,64.6,0,57.969M12.208,49c-1.432,0-2.864,0-4.3,0-.909,0-1.444.439-1.46,1.169S6.98,51.395,7.868,51.4q4.3.02,8.593,0c.907-.005,1.4-.485,1.382-1.248-.02-.719-.528-1.145-1.4-1.149-1.411-.007-2.822,0-4.232,0M18.6,55.431c-1.411,0-2.821,0-4.232,0-.948,0-1.475.45-1.462,1.224.012.735.551,1.2,1.445,1.2q4.232.01,8.464,0c.937,0,1.464-.465,1.454-1.245-.01-.759-.508-1.173-1.437-1.177-1.411-.005-2.821,0-4.232,0m.041,8.847c1.407,0,2.815,0,4.222,0,.9,0,1.408-.447,1.408-1.205s-.5-1.2-1.41-1.2q-4.286-.011-8.572,0c-.89,0-1.4.479-1.381,1.237.018.72.538,1.167,1.384,1.171,1.45.006,2.9,0,4.35,0M18.585,70.7c1.432,0,2.864,0,4.3,0,.883,0,1.372-.413,1.388-1.149.017-.763-.437-1.225-1.309-1.23q-4.36-.024-8.719,0c-.87,0-1.347.473-1.332,1.217s.511,1.16,1.382,1.163c1.432,0,2.864,0,4.3,0M7.642,55.436A1.214,1.214,0,0,0,6.45,56.607a1.262,1.262,0,0,0,1.2,1.24,1.273,1.273,0,0,0,1.2-1.188,1.228,1.228,0,0,0-1.206-1.224m.017,6.44A1.218,1.218,0,0,0,6.45,63.03a1.23,1.23,0,0,0,1.185,1.246,1.247,1.247,0,0,0,1.213-1.157A1.233,1.233,0,0,0,7.66,61.875m-.011,6.457a1.183,1.183,0,0,0-1.2,1.165,1.2,1.2,0,1,0,1.2-1.165" transform="translate(0 -34.903)" fill="#804242"/>
        <path id="Trazado_873512" data-name="Trazado 873512" d="M72.493,8.86c-1.838,0-3.675,0-5.513,0-1.092,0-1.6-.556-1.4-1.613.381-2.053.793-4.1,1.216-6.147A1.217,1.217,0,0,1,68.152.007q4.359-.015,8.718,0a1.181,1.181,0,0,1,1.32,1.05c.433,2.043.86,4.089,1.25,6.141.207,1.093-.31,1.658-1.434,1.66q-2.757.005-5.513,0" transform="translate(-57.13 0)" fill="#804242"/>
      </g>
    </g>
    <rect id="Rectángulo_401189" data-name="Rectángulo 401189" width="358.812" height="75" rx="37.5" transform="translate(-6399.512 -10551.86)" fill="#67550c"/>
    <path id="Trazado_874982" data-name="Trazado 874982" d="M48.022,17V4.2H51.96a5.98,5.98,0,0,1,3.019.76,5.3,5.3,0,0,1,2.079,2.162,6.669,6.669,0,0,1,.747,3.186V10.9a6.688,6.688,0,0,1-.734,3.173A5.256,5.256,0,0,1,55,16.227,6.025,6.025,0,0,1,51.986,17ZM50.659,6.339v8.543h1.274A2.863,2.863,0,0,0,54.3,13.871a4.567,4.567,0,0,0,.835-2.892V10.3a4.64,4.64,0,0,0-.809-2.958A2.854,2.854,0,0,0,51.96,6.339ZM63.931,17.176a4.668,4.668,0,0,1-3.406-1.283,4.561,4.561,0,0,1-1.314-3.419v-.246a5.745,5.745,0,0,1,.554-2.562,4.064,4.064,0,0,1,1.569-1.74,4.4,4.4,0,0,1,2.316-.611,3.947,3.947,0,0,1,3.072,1.23,5,5,0,0,1,1.121,3.489v1.037H61.786a2.36,2.36,0,0,0,.743,1.494,2.245,2.245,0,0,0,1.569.563,2.742,2.742,0,0,0,2.294-1.063l1.248,1.4a3.813,3.813,0,0,1-1.547,1.261A5.075,5.075,0,0,1,63.931,17.176Zm-.29-7.813a1.587,1.587,0,0,0-1.226.512,2.651,2.651,0,0,0-.6,1.466h3.533v-.2a1.891,1.891,0,0,0-.457-1.311A1.638,1.638,0,0,0,63.641,9.362Zm10.793,5.01a.818.818,0,0,0-.461-.734,5.241,5.241,0,0,0-1.481-.479Q69.1,12.447,69.1,10.276a2.613,2.613,0,0,1,1.05-2.114A4.237,4.237,0,0,1,72.9,7.314a4.56,4.56,0,0,1,2.9.853,2.687,2.687,0,0,1,1.085,2.215h-2.54a1.229,1.229,0,0,0-.352-.9,1.488,1.488,0,0,0-1.1-.356,1.52,1.52,0,0,0-.993.29.916.916,0,0,0-.352.738.783.783,0,0,0,.4.681,4.114,4.114,0,0,0,1.349.448,11.019,11.019,0,0,1,1.6.426A2.628,2.628,0,0,1,76.9,14.267a2.481,2.481,0,0,1-1.116,2.1,4.815,4.815,0,0,1-2.883.8,5.029,5.029,0,0,1-2.123-.426,3.561,3.561,0,0,1-1.455-1.169,2.716,2.716,0,0,1-.527-1.6h2.408a1.326,1.326,0,0,0,.5,1.037,1.987,1.987,0,0,0,1.248.36,1.839,1.839,0,0,0,1.1-.277A.861.861,0,0,0,74.434,14.372Zm8.06.756a1.666,1.666,0,0,0,1.143-.387,1.355,1.355,0,0,0,.457-1.028h2.382a3.258,3.258,0,0,1-.527,1.771,3.48,3.48,0,0,1-1.419,1.248,4.442,4.442,0,0,1-1.991.444,4.129,4.129,0,0,1-3.217-1.3A5.13,5.13,0,0,1,78.143,12.3v-.167a5.071,5.071,0,0,1,1.169-3.507,4.08,4.08,0,0,1,3.208-1.31A4,4,0,0,1,85.38,8.33a3.594,3.594,0,0,1,1.094,2.7H84.093a1.745,1.745,0,0,0-.457-1.206,1.7,1.7,0,0,0-2.5.183,3.749,3.749,0,0,0-.453,2.1v.264a3.8,3.8,0,0,0,.448,2.113A1.549,1.549,0,0,0,82.493,15.128ZM93.269,9.872a6.9,6.9,0,0,0-.914-.07,1.86,1.86,0,0,0-1.89.976V17h-2.54V7.49h2.4l.07,1.134a2.354,2.354,0,0,1,2.118-1.31,2.662,2.662,0,0,1,.791.114ZM97.171,17H94.622V7.49h2.549Zm-2.7-11.971a1.251,1.251,0,0,1,.382-.94,1.648,1.648,0,0,1,2.079,0,1.244,1.244,0,0,1,.387.94,1.247,1.247,0,0,1-.391.949,1.629,1.629,0,0,1-2.065,0A1.247,1.247,0,0,1,94.473,5.029Zm13.351,7.3a5.7,5.7,0,0,1-1,3.52,3.2,3.2,0,0,1-2.694,1.323,2.963,2.963,0,0,1-2.329-1v4.482h-2.54V7.49h2.355l.088.932a2.985,2.985,0,0,1,2.408-1.107,3.22,3.22,0,0,1,2.733,1.3,5.858,5.858,0,0,1,.976,3.586Zm-2.54-.185a3.743,3.743,0,0,0-.47-2.048,1.532,1.532,0,0,0-1.367-.721,1.663,1.663,0,0,0-1.644.914v3.894a1.692,1.692,0,0,0,1.661.94Q105.283,15.128,105.283,12.148Zm8.068,2.979a1.666,1.666,0,0,0,1.143-.387,1.355,1.355,0,0,0,.457-1.028h2.382a3.258,3.258,0,0,1-.527,1.771,3.48,3.48,0,0,1-1.419,1.248,4.442,4.442,0,0,1-1.991.444,4.129,4.129,0,0,1-3.217-1.3A5.13,5.13,0,0,1,109,12.3v-.167a5.071,5.071,0,0,1,1.169-3.507,4.08,4.08,0,0,1,3.208-1.31,4,4,0,0,1,2.861,1.015,3.594,3.594,0,0,1,1.094,2.7h-2.382a1.745,1.745,0,0,0-.457-1.206,1.7,1.7,0,0,0-2.5.183,3.749,3.749,0,0,0-.453,2.1v.264a3.8,3.8,0,0,0,.448,2.113A1.549,1.549,0,0,0,113.352,15.128ZM121.464,17h-2.549V7.49h2.549Zm-2.7-11.971a1.251,1.251,0,0,1,.382-.94,1.648,1.648,0,0,1,2.079,0,1.244,1.244,0,0,1,.387.94,1.247,1.247,0,0,1-.391.949,1.629,1.629,0,0,1-2.065,0A1.247,1.247,0,0,1,118.766,5.029Zm4.395,7.128a5.64,5.64,0,0,1,.545-2.522,3.989,3.989,0,0,1,1.569-1.714,4.577,4.577,0,0,1,2.377-.606,4.33,4.33,0,0,1,3.142,1.178,4.727,4.727,0,0,1,1.358,3.2l.018.65a4.97,4.97,0,0,1-1.222,3.511,4.735,4.735,0,0,1-6.561,0,5.058,5.058,0,0,1-1.226-3.586Zm2.54.18a3.555,3.555,0,0,0,.51,2.073,1.831,1.831,0,0,0,2.9.009,3.89,3.89,0,0,0,.519-2.267,3.519,3.519,0,0,0-.519-2.06,1.686,1.686,0,0,0-1.459-.731,1.658,1.658,0,0,0-1.441.726A3.955,3.955,0,0,0,125.7,12.338ZM128.152,3.5h2.769l-2.435,2.725h-2.065Zm7.919,3.99.079,1.1a3.32,3.32,0,0,1,2.733-1.274,2.759,2.759,0,0,1,2.25.888,4.142,4.142,0,0,1,.756,2.654V17h-2.54V10.918A1.648,1.648,0,0,0,139,9.745a1.574,1.574,0,0,0-1.169-.365,1.747,1.747,0,0,0-1.608.914V17h-2.54V7.49Zm11.856,4.685a5.573,5.573,0,0,1,1.042-3.524,3.375,3.375,0,0,1,2.808-1.336,2.96,2.96,0,0,1,2.435,1.072l.105-.9h2.3v9.193a4.064,4.064,0,0,1-.567,2.171,3.641,3.641,0,0,1-1.6,1.406,5.608,5.608,0,0,1-2.408.483,5.215,5.215,0,0,1-2.039-.417,3.619,3.619,0,0,1-1.5-1.077l1.125-1.547a2.975,2.975,0,0,0,2.3,1.063,2.178,2.178,0,0,0,1.573-.541,2.027,2.027,0,0,0,.563-1.534v-.51a2.938,2.938,0,0,1-2.312.993,3.366,3.366,0,0,1-2.773-1.34,5.572,5.572,0,0,1-1.059-3.555Zm2.54.189a3.47,3.47,0,0,0,.519,2.029,1.65,1.65,0,0,0,1.424.735,1.764,1.764,0,0,0,1.661-.871V10.251a1.76,1.76,0,0,0-1.644-.871,1.66,1.66,0,0,0-1.437.748A3.911,3.911,0,0,0,150.468,12.364Zm12.48,4.812a4.668,4.668,0,0,1-3.406-1.283,4.561,4.561,0,0,1-1.314-3.419v-.246a5.745,5.745,0,0,1,.554-2.562,4.064,4.064,0,0,1,1.569-1.74,4.4,4.4,0,0,1,2.316-.611,3.947,3.947,0,0,1,3.072,1.23,5,5,0,0,1,1.121,3.489v1.037H160.8a2.36,2.36,0,0,0,.743,1.494,2.245,2.245,0,0,0,1.569.563,2.742,2.742,0,0,0,2.294-1.063l1.248,1.4a3.813,3.813,0,0,1-1.547,1.261A5.075,5.075,0,0,1,162.948,17.176Zm-.29-7.813a1.587,1.587,0,0,0-1.226.512,2.651,2.651,0,0,0-.6,1.466h3.533v-.2a1.891,1.891,0,0,0-.457-1.311A1.638,1.638,0,0,0,162.658,9.362Zm7.98-1.872.079,1.1a3.32,3.32,0,0,1,2.733-1.274,2.759,2.759,0,0,1,2.25.888,4.142,4.142,0,0,1,.756,2.654V17h-2.54V10.918a1.648,1.648,0,0,0-.352-1.173A1.574,1.574,0,0,0,172.4,9.38a1.747,1.747,0,0,0-1.608.914V17h-2.54V7.49Zm12.12,9.686a4.668,4.668,0,0,1-3.406-1.283,4.561,4.561,0,0,1-1.314-3.419v-.246a5.745,5.745,0,0,1,.554-2.562,4.064,4.064,0,0,1,1.569-1.74,4.4,4.4,0,0,1,2.316-.611,3.947,3.947,0,0,1,3.072,1.23,5,5,0,0,1,1.121,3.489v1.037h-6.056a2.36,2.36,0,0,0,.743,1.494,2.245,2.245,0,0,0,1.569.563,2.742,2.742,0,0,0,2.294-1.063l1.248,1.4a3.813,3.813,0,0,1-1.547,1.261A5.075,5.075,0,0,1,182.759,17.176Zm-.29-7.813a1.587,1.587,0,0,0-1.226.512,2.651,2.651,0,0,0-.6,1.466h3.533v-.2a1.891,1.891,0,0,0-.457-1.311A1.638,1.638,0,0,0,182.469,9.362Zm10.986.51a6.9,6.9,0,0,0-.914-.07,1.86,1.86,0,0,0-1.89.976V17h-2.54V7.49h2.4l.07,1.134a2.354,2.354,0,0,1,2.118-1.31,2.662,2.662,0,0,1,.791.114ZM199.924,17a2.821,2.821,0,0,1-.255-.853,3.073,3.073,0,0,1-2.4,1.028,3.376,3.376,0,0,1-2.316-.809,2.6,2.6,0,0,1-.918-2.039,2.687,2.687,0,0,1,1.121-2.32,5.529,5.529,0,0,1,3.239-.817h1.169v-.545a1.567,1.567,0,0,0-.338-1.055,1.331,1.331,0,0,0-1.068-.4,1.513,1.513,0,0,0-1.006.308,1.045,1.045,0,0,0-.365.844h-2.54a2.551,2.551,0,0,1,.51-1.529,3.37,3.37,0,0,1,1.441-1.1,5.253,5.253,0,0,1,2.092-.4,4.15,4.15,0,0,1,2.791.883,3.09,3.09,0,0,1,1.033,2.483V14.8a4.546,4.546,0,0,0,.378,2.048V17Zm-2.1-1.767a2.188,2.188,0,0,0,1.037-.25,1.645,1.645,0,0,0,.7-.672V12.676h-.949q-1.907,0-2.03,1.318l-.009.149a1.017,1.017,0,0,0,.334.782A1.3,1.3,0,0,0,197.823,15.233ZM206.744,17H204.2V3.5h2.549Zm6.179-4.825a5.731,5.731,0,0,1,1-3.542,3.237,3.237,0,0,1,2.729-1.318,2.913,2.913,0,0,1,2.294,1.037V3.5h2.549V17H219.2l-.123-1.011a2.989,2.989,0,0,1-2.443,1.187,3.228,3.228,0,0,1-2.694-1.323A5.916,5.916,0,0,1,212.923,12.175Zm2.54.189a3.754,3.754,0,0,0,.466,2.051,1.517,1.517,0,0,0,1.354.713,1.7,1.7,0,0,0,1.661-.995V10.375A1.675,1.675,0,0,0,217.3,9.38Q215.463,9.38,215.463,12.364Zm12.375,4.812a4.668,4.668,0,0,1-3.406-1.283,4.561,4.561,0,0,1-1.314-3.419v-.246a5.745,5.745,0,0,1,.554-2.562,4.064,4.064,0,0,1,1.569-1.74,4.4,4.4,0,0,1,2.316-.611,3.947,3.947,0,0,1,3.072,1.23,5,5,0,0,1,1.121,3.489v1.037h-6.056a2.36,2.36,0,0,0,.743,1.494,2.245,2.245,0,0,0,1.569.563,2.742,2.742,0,0,0,2.294-1.063l1.248,1.4A3.813,3.813,0,0,1,230,16.723,5.075,5.075,0,0,1,227.838,17.176Zm-.29-7.813a1.587,1.587,0,0,0-1.226.512,2.651,2.651,0,0,0-.6,1.466h3.533v-.2a1.891,1.891,0,0,0-.457-1.311A1.638,1.638,0,0,0,227.548,9.362ZM240.354,17H237.8V3.5h2.549Zm7.6,0a2.821,2.821,0,0,1-.255-.853,3.073,3.073,0,0,1-2.4,1.028,3.376,3.376,0,0,1-2.316-.809,2.6,2.6,0,0,1-.918-2.039,2.687,2.687,0,0,1,1.121-2.32,5.529,5.529,0,0,1,3.239-.817H247.6v-.545a1.567,1.567,0,0,0-.338-1.055,1.331,1.331,0,0,0-1.068-.4,1.513,1.513,0,0,0-1.006.308,1.045,1.045,0,0,0-.365.844h-2.54a2.551,2.551,0,0,1,.51-1.529,3.37,3.37,0,0,1,1.441-1.1,5.253,5.253,0,0,1,2.092-.4,4.15,4.15,0,0,1,2.791.883,3.09,3.09,0,0,1,1.033,2.483V14.8a4.546,4.546,0,0,0,.378,2.048V17Zm-2.1-1.767a2.188,2.188,0,0,0,1.037-.25,1.645,1.645,0,0,0,.7-.672V12.676h-.949q-1.907,0-2.03,1.318l-.009.149a1.017,1.017,0,0,0,.334.782A1.3,1.3,0,0,0,245.855,15.233ZM12.994,36.333a5.7,5.7,0,0,1-1,3.52A3.2,3.2,0,0,1,9.3,41.176a2.963,2.963,0,0,1-2.329-1v4.482H4.433V31.49H6.789l.088.932a2.985,2.985,0,0,1,2.408-1.107,3.22,3.22,0,0,1,2.733,1.3,5.858,5.858,0,0,1,.976,3.586Zm-2.54-.185a3.743,3.743,0,0,0-.47-2.048,1.532,1.532,0,0,0-1.367-.721,1.663,1.663,0,0,0-1.644.914v3.894a1.692,1.692,0,0,0,1.661.94Q10.454,39.128,10.454,36.148ZM17.248,41H14.7V27.5h2.549Zm7.6,0a2.821,2.821,0,0,1-.255-.853,3.073,3.073,0,0,1-2.4,1.028,3.376,3.376,0,0,1-2.316-.809,2.6,2.6,0,0,1-.918-2.039,2.687,2.687,0,0,1,1.121-2.32,5.529,5.529,0,0,1,3.239-.817H24.49v-.545a1.567,1.567,0,0,0-.338-1.055,1.331,1.331,0,0,0-1.068-.4,1.513,1.513,0,0,0-1.006.308,1.045,1.045,0,0,0-.365.844h-2.54a2.551,2.551,0,0,1,.51-1.529,3.37,3.37,0,0,1,1.441-1.1,5.253,5.253,0,0,1,2.092-.4,4.15,4.15,0,0,1,2.791.883,3.09,3.09,0,0,1,1.033,2.483V38.8a4.546,4.546,0,0,0,.378,2.048V41Zm-2.1-1.767a2.188,2.188,0,0,0,1.037-.25,1.645,1.645,0,0,0,.7-.672V36.676h-.949q-1.907,0-2.03,1.318l-.009.149a1.017,1.017,0,0,0,.334.782A1.3,1.3,0,0,0,22.75,39.233Zm8.578-7.743.079,1.1a3.32,3.32,0,0,1,2.733-1.274,2.759,2.759,0,0,1,2.25.888,4.142,4.142,0,0,1,.756,2.654V41h-2.54V34.918a1.648,1.648,0,0,0-.352-1.173,1.574,1.574,0,0,0-1.169-.365,1.747,1.747,0,0,0-1.608.914V41h-2.54V31.49ZM41.751,41H39.2V31.49h2.549Zm-2.7-11.971a1.251,1.251,0,0,1,.382-.94,1.648,1.648,0,0,1,2.079,0,1.342,1.342,0,0,1,0,1.89,1.629,1.629,0,0,1-2.065,0A1.247,1.247,0,0,1,39.053,29.029ZM44.458,41V33.354H43.043V31.49h1.415v-.439a3.566,3.566,0,0,1,1.1-2.764,4.438,4.438,0,0,1,3.063-.971,10.16,10.16,0,0,1,2.883.519l-.369,2.1A11.247,11.247,0,0,0,49.8,29.6a6.564,6.564,0,0,0-1.02-.075q-1.775,0-1.775,1.573v.387h1.872v1.863H47.007V41Zm8.235,0H50.145V31.49h2.549Zm6.056-1.872a1.666,1.666,0,0,0,1.143-.387,1.355,1.355,0,0,0,.457-1.028h2.382a3.258,3.258,0,0,1-.527,1.771,3.48,3.48,0,0,1-1.419,1.248,4.442,4.442,0,0,1-1.991.444,4.129,4.129,0,0,1-3.217-1.3A5.13,5.13,0,0,1,54.4,36.3v-.167a5.071,5.071,0,0,1,1.169-3.507,4.08,4.08,0,0,1,3.208-1.31,4,4,0,0,1,2.861,1.015,3.594,3.594,0,0,1,1.094,2.7H60.349a1.745,1.745,0,0,0-.457-1.206,1.7,1.7,0,0,0-2.5.183,3.749,3.749,0,0,0-.453,2.1v.264a3.8,3.8,0,0,0,.448,2.113A1.549,1.549,0,0,0,58.75,39.128ZM69.692,41a2.821,2.821,0,0,1-.255-.853,3.073,3.073,0,0,1-2.4,1.028,3.376,3.376,0,0,1-2.316-.809,2.6,2.6,0,0,1-.918-2.039,2.687,2.687,0,0,1,1.121-2.32,5.529,5.529,0,0,1,3.239-.817h1.169v-.545a1.567,1.567,0,0,0-.338-1.055,1.331,1.331,0,0,0-1.068-.4,1.513,1.513,0,0,0-1.006.308,1.045,1.045,0,0,0-.365.844h-2.54a2.551,2.551,0,0,1,.51-1.529,3.37,3.37,0,0,1,1.441-1.1,5.253,5.253,0,0,1,2.092-.4,4.15,4.15,0,0,1,2.791.883,3.09,3.09,0,0,1,1.033,2.483V38.8a4.546,4.546,0,0,0,.378,2.048V41Zm-2.1-1.767a2.188,2.188,0,0,0,1.037-.25,1.645,1.645,0,0,0,.7-.672V36.676h-.949q-1.907,0-2.03,1.318l-.009.149a1.017,1.017,0,0,0,.334.782A1.3,1.3,0,0,0,67.591,39.233Zm10.2-.105a1.666,1.666,0,0,0,1.143-.387,1.355,1.355,0,0,0,.457-1.028h2.382a3.258,3.258,0,0,1-.527,1.771,3.48,3.48,0,0,1-1.419,1.248,4.442,4.442,0,0,1-1.991.444,4.129,4.129,0,0,1-3.217-1.3A5.13,5.13,0,0,1,73.436,36.3v-.167A5.071,5.071,0,0,1,74.6,32.624a4.08,4.08,0,0,1,3.208-1.31,4,4,0,0,1,2.861,1.015,3.594,3.594,0,0,1,1.094,2.7H79.386a1.745,1.745,0,0,0-.457-1.206,1.7,1.7,0,0,0-2.5.183,3.749,3.749,0,0,0-.453,2.1v.264a3.8,3.8,0,0,0,.448,2.113A1.549,1.549,0,0,0,77.787,39.128ZM85.9,41H83.35V31.49H85.9ZM83.2,29.029a1.251,1.251,0,0,1,.382-.94,1.648,1.648,0,0,1,2.079,0,1.342,1.342,0,0,1,0,1.89,1.629,1.629,0,0,1-2.065,0A1.247,1.247,0,0,1,83.2,29.029ZM87.6,36.157a5.64,5.64,0,0,1,.545-2.522,3.989,3.989,0,0,1,1.569-1.714,4.577,4.577,0,0,1,2.377-.606,4.33,4.33,0,0,1,3.142,1.178,4.727,4.727,0,0,1,1.358,3.2l.018.65a4.97,4.97,0,0,1-1.222,3.511,4.735,4.735,0,0,1-6.561,0A5.058,5.058,0,0,1,87.6,36.271Zm2.54.18a3.555,3.555,0,0,0,.51,2.073,1.831,1.831,0,0,0,2.9.009,3.89,3.89,0,0,0,.519-2.267,3.519,3.519,0,0,0-.519-2.06,1.686,1.686,0,0,0-1.459-.731,1.658,1.658,0,0,0-1.441.726A3.955,3.955,0,0,0,90.135,36.338ZM92.587,27.5h2.769l-2.435,2.725H90.856Zm7.919,3.99.079,1.1a3.32,3.32,0,0,1,2.733-1.274,2.759,2.759,0,0,1,2.25.888,4.142,4.142,0,0,1,.756,2.654V41h-2.54V34.918a1.648,1.648,0,0,0-.352-1.173,1.574,1.574,0,0,0-1.169-.365,1.747,1.747,0,0,0-1.608.914V41h-2.54V31.49Zm11.83,4.685a5.731,5.731,0,0,1,1-3.542,3.237,3.237,0,0,1,2.729-1.318,2.913,2.913,0,0,1,2.294,1.037V27.5h2.549V41h-2.294l-.123-1.011a2.989,2.989,0,0,1-2.443,1.187,3.228,3.228,0,0,1-2.694-1.323A5.916,5.916,0,0,1,112.336,36.175Zm2.54.189a3.754,3.754,0,0,0,.466,2.051,1.517,1.517,0,0,0,1.354.713,1.7,1.7,0,0,0,1.661-.995V34.375a1.675,1.675,0,0,0-1.644-.995Q114.876,33.38,114.876,36.364Zm12.375,4.812a4.668,4.668,0,0,1-3.406-1.283,4.561,4.561,0,0,1-1.314-3.419v-.246a5.745,5.745,0,0,1,.554-2.562,4.064,4.064,0,0,1,1.569-1.74,4.4,4.4,0,0,1,2.316-.611,3.947,3.947,0,0,1,3.072,1.23,5,5,0,0,1,1.121,3.489v1.037h-6.056a2.36,2.36,0,0,0,.743,1.494,2.245,2.245,0,0,0,1.569.563,2.742,2.742,0,0,0,2.294-1.063l1.248,1.4a3.813,3.813,0,0,1-1.547,1.261A5.075,5.075,0,0,1,127.251,41.176Zm-.29-7.813a1.587,1.587,0,0,0-1.226.512,2.651,2.651,0,0,0-.6,1.466h3.533v-.2a1.891,1.891,0,0,0-.457-1.311A1.638,1.638,0,0,0,126.961,33.362ZM140.646,37.9l1.767-6.407h2.654L141.859,41h-2.426l-3.208-9.51h2.654Zm9.8,3.278a4.668,4.668,0,0,1-3.406-1.283,4.561,4.561,0,0,1-1.314-3.419v-.246a5.745,5.745,0,0,1,.554-2.562,4.064,4.064,0,0,1,1.569-1.74,4.4,4.4,0,0,1,2.316-.611,3.947,3.947,0,0,1,3.072,1.23,5,5,0,0,1,1.121,3.489v1.037H148.3a2.36,2.36,0,0,0,.743,1.494,2.245,2.245,0,0,0,1.569.563,2.742,2.742,0,0,0,2.294-1.063l1.248,1.4a3.813,3.813,0,0,1-1.547,1.261A5.075,5.075,0,0,1,150.446,41.176Zm-.29-7.813a1.587,1.587,0,0,0-1.226.512,2.651,2.651,0,0,0-.6,1.466h3.533v-.2a1.891,1.891,0,0,0-.457-1.311A1.638,1.638,0,0,0,150.156,33.362Zm7.98-1.872.079,1.1a3.32,3.32,0,0,1,2.733-1.274,2.759,2.759,0,0,1,2.25.888,4.142,4.142,0,0,1,.756,2.654V41h-2.54V34.918a1.648,1.648,0,0,0-.352-1.173,1.574,1.574,0,0,0-1.169-.365,1.747,1.747,0,0,0-1.608.914V41h-2.54V31.49Zm10.784-2.338V31.49h1.626v1.863H168.92V38.1a1.133,1.133,0,0,0,.2.756,1.015,1.015,0,0,0,.773.229,4.051,4.051,0,0,0,.747-.062v1.925a5.229,5.229,0,0,1-1.538.229,2.425,2.425,0,0,1-2.725-2.7V33.354h-1.389V31.49h1.389V29.152ZM177.472,41a2.821,2.821,0,0,1-.255-.853,3.073,3.073,0,0,1-2.4,1.028,3.376,3.376,0,0,1-2.316-.809,2.6,2.6,0,0,1-.918-2.039,2.687,2.687,0,0,1,1.121-2.32,5.529,5.529,0,0,1,3.239-.817h1.169v-.545a1.567,1.567,0,0,0-.338-1.055,1.331,1.331,0,0,0-1.068-.4,1.513,1.513,0,0,0-1.006.308,1.045,1.045,0,0,0-.365.844h-2.54a2.551,2.551,0,0,1,.51-1.529,3.37,3.37,0,0,1,1.441-1.1,5.253,5.253,0,0,1,2.092-.4,4.15,4.15,0,0,1,2.791.883,3.09,3.09,0,0,1,1.033,2.483V38.8a4.546,4.546,0,0,0,.378,2.048V41Zm-2.1-1.767a2.188,2.188,0,0,0,1.037-.25,1.645,1.645,0,0,0,.7-.672V36.676h-.949q-1.907,0-2.03,1.318l-.009.149a1.017,1.017,0,0,0,.334.782A1.3,1.3,0,0,0,175.372,39.233Zm11.391-.861a.818.818,0,0,0-.461-.734,5.241,5.241,0,0,0-1.481-.479q-3.393-.712-3.393-2.883a2.613,2.613,0,0,1,1.05-2.114,4.237,4.237,0,0,1,2.747-.848,4.56,4.56,0,0,1,2.9.853,2.687,2.687,0,0,1,1.085,2.215h-2.54a1.229,1.229,0,0,0-.352-.9,1.488,1.488,0,0,0-1.1-.356,1.52,1.52,0,0,0-.993.29.916.916,0,0,0-.352.738.783.783,0,0,0,.4.681,4.114,4.114,0,0,0,1.349.448,11.019,11.019,0,0,1,1.6.426,2.628,2.628,0,0,1,2.013,2.558,2.481,2.481,0,0,1-1.116,2.1,4.815,4.815,0,0,1-2.883.8,5.029,5.029,0,0,1-2.123-.426,3.561,3.561,0,0,1-1.455-1.169,2.716,2.716,0,0,1-.527-1.6h2.408a1.326,1.326,0,0,0,.5,1.037,1.987,1.987,0,0,0,1.248.36,1.839,1.839,0,0,0,1.1-.277A.861.861,0,0,0,186.762,38.372Zm12.964,2.8a4.668,4.668,0,0,1-3.406-1.283,4.561,4.561,0,0,1-1.314-3.419v-.246a5.745,5.745,0,0,1,.554-2.562,4.064,4.064,0,0,1,1.569-1.74,4.4,4.4,0,0,1,2.316-.611,3.947,3.947,0,0,1,3.072,1.23,5,5,0,0,1,1.121,3.489v1.037h-6.056a2.36,2.36,0,0,0,.743,1.494,2.245,2.245,0,0,0,1.569.563,2.742,2.742,0,0,0,2.294-1.063l1.248,1.4a3.813,3.813,0,0,1-1.547,1.261A5.075,5.075,0,0,1,199.726,41.176Zm-.29-7.813a1.587,1.587,0,0,0-1.226.512,2.651,2.651,0,0,0-.6,1.466h3.533v-.2a1.891,1.891,0,0,0-.457-1.311A1.638,1.638,0,0,0,199.436,33.362Zm10.793,5.01a.818.818,0,0,0-.461-.734,5.241,5.241,0,0,0-1.481-.479q-3.393-.712-3.393-2.883a2.613,2.613,0,0,1,1.05-2.114,4.237,4.237,0,0,1,2.747-.848,4.56,4.56,0,0,1,2.9.853,2.687,2.687,0,0,1,1.085,2.215h-2.54a1.229,1.229,0,0,0-.352-.9,1.488,1.488,0,0,0-1.1-.356,1.52,1.52,0,0,0-.993.29.916.916,0,0,0-.352.738.783.783,0,0,0,.4.681,4.114,4.114,0,0,0,1.349.448,11.019,11.019,0,0,1,1.6.426,2.628,2.628,0,0,1,2.013,2.558,2.481,2.481,0,0,1-1.116,2.1,4.815,4.815,0,0,1-2.883.8,5.029,5.029,0,0,1-2.123-.426,3.561,3.561,0,0,1-1.455-1.169,2.716,2.716,0,0,1-.527-1.6H207a1.326,1.326,0,0,0,.5,1.037,1.987,1.987,0,0,0,1.248.36,1.839,1.839,0,0,0,1.1-.277A.861.861,0,0,0,210.229,38.372Zm7.146-9.22V31.49H219v1.863h-1.626V38.1a1.133,1.133,0,0,0,.2.756,1.015,1.015,0,0,0,.773.229,4.051,4.051,0,0,0,.747-.062v1.925a5.229,5.229,0,0,1-1.538.229,2.425,2.425,0,0,1-2.725-2.7V33.354h-1.389V31.49h1.389V29.152Zm8.385,4.72a6.9,6.9,0,0,0-.914-.07,1.86,1.86,0,0,0-1.89.976V41h-2.54V31.49h2.4l.07,1.134A2.354,2.354,0,0,1,225,31.314a2.662,2.662,0,0,1,.791.114ZM232.228,41a2.821,2.821,0,0,1-.255-.853,3.073,3.073,0,0,1-2.4,1.028,3.376,3.376,0,0,1-2.316-.809,2.6,2.6,0,0,1-.918-2.039,2.687,2.687,0,0,1,1.121-2.32,5.529,5.529,0,0,1,3.239-.817h1.169v-.545a1.567,1.567,0,0,0-.338-1.055,1.331,1.331,0,0,0-1.068-.4,1.513,1.513,0,0,0-1.006.308,1.045,1.045,0,0,0-.365.844h-2.54a2.551,2.551,0,0,1,.51-1.529,3.37,3.37,0,0,1,1.441-1.1,5.253,5.253,0,0,1,2.092-.4,4.15,4.15,0,0,1,2.791.883,3.09,3.09,0,0,1,1.033,2.483V38.8a4.546,4.546,0,0,0,.378,2.048V41Zm-2.1-1.767a2.188,2.188,0,0,0,1.037-.25,1.645,1.645,0,0,0,.7-.672V36.676h-.949q-1.907,0-2.03,1.318l-.009.149a1.017,1.017,0,0,0,.334.782A1.3,1.3,0,0,0,230.127,39.233Zm9.281-10.081V31.49h1.626v1.863h-1.626V38.1a1.133,1.133,0,0,0,.2.756,1.015,1.015,0,0,0,.773.229,4.051,4.051,0,0,0,.747-.062v1.925a5.229,5.229,0,0,1-1.538.229,2.425,2.425,0,0,1-2.725-2.7V33.354H235.48V31.49h1.389V29.152Zm7.418,12.023a4.668,4.668,0,0,1-3.406-1.283,4.561,4.561,0,0,1-1.314-3.419v-.246a5.745,5.745,0,0,1,.554-2.562,4.064,4.064,0,0,1,1.569-1.74,4.4,4.4,0,0,1,2.316-.611,3.947,3.947,0,0,1,3.072,1.23,5,5,0,0,1,1.121,3.489v1.037h-6.056a2.36,2.36,0,0,0,.743,1.494,2.245,2.245,0,0,0,1.569.563,2.742,2.742,0,0,0,2.294-1.063l1.248,1.4a3.813,3.813,0,0,1-1.547,1.261A5.075,5.075,0,0,1,246.827,41.176Zm-.29-7.813a1.587,1.587,0,0,0-1.226.512,2.651,2.651,0,0,0-.6,1.466h3.533v-.2a1.891,1.891,0,0,0-.457-1.311A1.638,1.638,0,0,0,246.537,33.362Zm.229-5.862h2.769L247.1,30.225h-2.065Zm5.045,8.675a5.573,5.573,0,0,1,1.042-3.524,3.375,3.375,0,0,1,2.808-1.336,2.96,2.96,0,0,1,2.435,1.072l.105-.9h2.3v9.193a4.064,4.064,0,0,1-.567,2.171,3.641,3.641,0,0,1-1.6,1.406,5.608,5.608,0,0,1-2.408.483,5.215,5.215,0,0,1-2.039-.417,3.619,3.619,0,0,1-1.5-1.077l1.125-1.547a2.975,2.975,0,0,0,2.3,1.063,2.178,2.178,0,0,0,1.573-.541,2.027,2.027,0,0,0,.563-1.534v-.51a2.938,2.938,0,0,1-2.312.993,3.366,3.366,0,0,1-2.773-1.34,5.572,5.572,0,0,1-1.059-3.555Zm2.54.189a3.47,3.47,0,0,0,.519,2.029,1.65,1.65,0,0,0,1.424.735,1.764,1.764,0,0,0,1.661-.871V34.251a1.76,1.76,0,0,0-1.644-.871,1.66,1.66,0,0,0-1.437.748A3.911,3.911,0,0,0,254.35,36.364ZM265.134,41h-2.549V31.49h2.549Zm-2.7-11.971a1.251,1.251,0,0,1,.382-.94,1.648,1.648,0,0,1,2.079,0,1.342,1.342,0,0,1,0,1.89,1.629,1.629,0,0,1-2.065,0A1.247,1.247,0,0,1,262.436,29.029Zm8.745,10.1a1.666,1.666,0,0,0,1.143-.387,1.355,1.355,0,0,0,.457-1.028h2.382a3.258,3.258,0,0,1-.527,1.771,3.48,3.48,0,0,1-1.419,1.248,4.442,4.442,0,0,1-1.991.444,4.129,4.129,0,0,1-3.217-1.3,5.13,5.13,0,0,1-1.178-3.582v-.167A5.071,5.071,0,0,1,268,32.624a4.08,4.08,0,0,1,3.208-1.31,4,4,0,0,1,2.861,1.015,3.594,3.594,0,0,1,1.094,2.7h-2.382a1.745,1.745,0,0,0-.457-1.206,1.7,1.7,0,0,0-2.5.183,3.749,3.749,0,0,0-.453,2.1v.264a3.8,3.8,0,0,0,.448,2.113A1.549,1.549,0,0,0,271.181,39.128ZM282.124,41a2.821,2.821,0,0,1-.255-.853,3.073,3.073,0,0,1-2.4,1.028,3.376,3.376,0,0,1-2.316-.809,2.6,2.6,0,0,1-.918-2.039,2.687,2.687,0,0,1,1.121-2.32,5.529,5.529,0,0,1,3.239-.817h1.169v-.545a1.567,1.567,0,0,0-.338-1.055,1.331,1.331,0,0,0-1.068-.4,1.513,1.513,0,0,0-1.006.308,1.045,1.045,0,0,0-.365.844h-2.54a2.551,2.551,0,0,1,.51-1.529,3.37,3.37,0,0,1,1.441-1.1,5.253,5.253,0,0,1,2.092-.4,4.15,4.15,0,0,1,2.791.883,3.09,3.09,0,0,1,1.033,2.483V38.8a4.546,4.546,0,0,0,.378,2.048V41Zm-2.1-1.767a2.188,2.188,0,0,0,1.037-.25,1.645,1.645,0,0,0,.7-.672V36.676h-.949q-1.907,0-2.03,1.318l-.009.149a1.017,1.017,0,0,0,.334.782A1.3,1.3,0,0,0,280.023,39.233Zm11.391-.861a.818.818,0,0,0-.461-.734,5.241,5.241,0,0,0-1.481-.479q-3.393-.712-3.393-2.883a2.613,2.613,0,0,1,1.05-2.114,4.237,4.237,0,0,1,2.747-.848,4.56,4.56,0,0,1,2.9.853,2.687,2.687,0,0,1,1.085,2.215h-2.54a1.229,1.229,0,0,0-.352-.9,1.488,1.488,0,0,0-1.1-.356,1.52,1.52,0,0,0-.993.29.916.916,0,0,0-.352.738.783.783,0,0,0,.4.681,4.114,4.114,0,0,0,1.349.448,11.019,11.019,0,0,1,1.6.426,2.628,2.628,0,0,1,2.013,2.558,2.481,2.481,0,0,1-1.116,2.1,4.815,4.815,0,0,1-2.883.8,5.029,5.029,0,0,1-2.123-.426,3.561,3.561,0,0,1-1.455-1.169,2.716,2.716,0,0,1-.527-1.6h2.408a1.326,1.326,0,0,0,.5,1.037,1.987,1.987,0,0,0,1.248.36,1.839,1.839,0,0,0,1.1-.277A.861.861,0,0,0,291.414,38.372Z" transform="translate(-6369.512 -10536.86)" fill="#fff"/>
    <circle id="Elipse_11538" data-name="Elipse 11538" cx="16" cy="16" r="16" transform="translate(-6347.106 -10330.86)" fill="#67550c"/>
    <circle id="Elipse_11539" data-name="Elipse 11539" cx="16" cy="16" r="16" transform="translate(-6236.106 -10267.86)" fill="#6a4624"/>
    <circle id="Elipse_11540" data-name="Elipse 11540" cx="16" cy="16" r="16" transform="translate(-6127.106 -10330.86)" fill="#804242"/>
    <path id="Trazado_874983" data-name="Trazado 874983" d="M1.876,0H-.664V-9.791l-3.032.94v-2.065l5.3-1.9h.272Z" transform="translate(-6331.106 -10308.86)" fill="#fff"/>
    <rect id="Rectángulo_401190" data-name="Rectángulo 401190" width="265" height="60" rx="30" transform="translate(-6335.106 -10204.86)" fill="#ffea96"/>
    <path id="Trazado_874991" data-name="Trazado 874991" d="M21.229,12.939a4.708,4.708,0,0,1-1.5,3.133,4.911,4.911,0,0,1-3.353,1.1,4.509,4.509,0,0,1-3.634-1.626A6.542,6.542,0,0,1,11.376,11.2V9.969a7.291,7.291,0,0,1,.637-3.138A4.76,4.76,0,0,1,13.82,4.752a5.029,5.029,0,0,1,2.707-.725A4.624,4.624,0,0,1,19.8,5.166a4.765,4.765,0,0,1,1.433,3.151h-1.7a3.677,3.677,0,0,0-.954-2.222,2.885,2.885,0,0,0-2.052-.688,3.019,3.019,0,0,0-2.536,1.2,5.492,5.492,0,0,0-.918,3.4v1.24a5.645,5.645,0,0,0,.87,3.316A2.812,2.812,0,0,0,16.377,15.8a3.247,3.247,0,0,0,2.158-.637,3.536,3.536,0,0,0,1-2.219ZM29.148,17a3.416,3.416,0,0,1-.229-1,3.628,3.628,0,0,1-2.707,1.178,3.357,3.357,0,0,1-2.307-.8,2.573,2.573,0,0,1-.9-2.017,2.688,2.688,0,0,1,1.129-2.307,5.325,5.325,0,0,1,3.177-.822h1.582v-.747a1.826,1.826,0,0,0-.51-1.358,2.049,2.049,0,0,0-1.5-.505,2.371,2.371,0,0,0-1.459.439,1.3,1.3,0,0,0-.589,1.063H23.2A2.244,2.244,0,0,1,23.7,8.751,3.449,3.449,0,0,1,25.074,7.7a4.613,4.613,0,0,1,1.9-.387,3.759,3.759,0,0,1,2.575.822,2.964,2.964,0,0,1,.967,2.263v4.377a5.351,5.351,0,0,0,.334,2.083V17Zm-2.7-1.239a2.858,2.858,0,0,0,1.45-.4,2.392,2.392,0,0,0,.993-1.028V12.386H27.619q-2.988,0-2.988,1.749a1.48,1.48,0,0,0,.51,1.2A1.959,1.959,0,0,0,26.45,15.761ZM34.834,17H33.208V3.5h1.626Zm6.548.176a4.155,4.155,0,0,1-3.146-1.27,4.714,4.714,0,0,1-1.213-3.4v-.3a5.707,5.707,0,0,1,.541-2.527,4.217,4.217,0,0,1,1.512-1.74,3.8,3.8,0,0,1,2.1-.628,3.562,3.562,0,0,1,2.883,1.222,5.289,5.289,0,0,1,1.028,3.5v.677H38.649a3.38,3.38,0,0,0,.822,2.272,2.583,2.583,0,0,0,2,.866,2.832,2.832,0,0,0,1.459-.352,3.666,3.666,0,0,0,1.046-.932l.993.773A3.993,3.993,0,0,1,41.382,17.176Zm-.2-8.525a2.169,2.169,0,0,0-1.652.716,3.482,3.482,0,0,0-.826,2.008h4.764v-.123a3.1,3.1,0,0,0-.668-1.92A2.042,2.042,0,0,0,41.18,8.65Zm7.33-1.16.053,1.2a3.465,3.465,0,0,1,2.848-1.371q3.015,0,3.041,3.4V17H52.826V10.707a2.189,2.189,0,0,0-.47-1.521,1.884,1.884,0,0,0-1.437-.492,2.347,2.347,0,0,0-1.389.422,2.865,2.865,0,0,0-.932,1.107V17H46.972V7.49Zm8,4.676a5.571,5.571,0,0,1,1.037-3.52,3.529,3.529,0,0,1,5.361-.189V3.5h1.626V17H63.039l-.079-1.02a3.311,3.311,0,0,1-2.716,1.2,3.248,3.248,0,0,1-2.694-1.354,5.634,5.634,0,0,1-1.042-3.533Zm1.626.185a4.218,4.218,0,0,0,.668,2.531,2.159,2.159,0,0,0,1.846.914,2.372,2.372,0,0,0,2.259-1.389V10.039a2.39,2.39,0,0,0-2.241-1.345,2.17,2.17,0,0,0-1.863.923A4.644,4.644,0,0,0,58.134,12.351ZM72.926,17a3.416,3.416,0,0,1-.229-1,3.628,3.628,0,0,1-2.707,1.178,3.357,3.357,0,0,1-2.307-.8,2.573,2.573,0,0,1-.9-2.017,2.688,2.688,0,0,1,1.129-2.307,5.325,5.325,0,0,1,3.177-.822h1.582v-.747a1.826,1.826,0,0,0-.51-1.358,2.049,2.049,0,0,0-1.5-.505,2.371,2.371,0,0,0-1.459.439,1.3,1.3,0,0,0-.589,1.063H66.976a2.244,2.244,0,0,1,.505-1.375A3.449,3.449,0,0,1,68.853,7.7a4.613,4.613,0,0,1,1.9-.387,3.759,3.759,0,0,1,2.575.822A2.964,2.964,0,0,1,74.3,10.4v4.377a5.351,5.351,0,0,0,.334,2.083V17Zm-2.7-1.239a2.858,2.858,0,0,0,1.45-.4,2.392,2.392,0,0,0,.993-1.028V12.386H71.4q-2.988,0-2.988,1.749a1.48,1.48,0,0,0,.51,1.2A1.959,1.959,0,0,0,70.228,15.761ZM81.443,8.949a4.873,4.873,0,0,0-.8-.062,2.143,2.143,0,0,0-2.171,1.362V17H76.846V7.49h1.582l.026,1.1a2.532,2.532,0,0,1,2.268-1.274,1.661,1.661,0,0,1,.721.123ZM84.7,17H83.078V7.49H84.7ZM82.946,4.968a.971.971,0,0,1,.242-.668.907.907,0,0,1,.716-.272.922.922,0,0,1,.721.272.96.96,0,0,1,.246.668.929.929,0,0,1-.246.659.938.938,0,0,1-.721.264.924.924,0,0,1-.716-.264A.938.938,0,0,1,82.946,4.968Zm3.929,7.189a5.617,5.617,0,0,1,.549-2.514,4.1,4.1,0,0,1,1.529-1.723,4.163,4.163,0,0,1,2.237-.606,4.01,4.01,0,0,1,3.142,1.345,5.174,5.174,0,0,1,1.2,3.577v.114A5.666,5.666,0,0,1,95,14.842a4.038,4.038,0,0,1-1.521,1.718,4.211,4.211,0,0,1-2.272.615,4,4,0,0,1-3.133-1.345,5.147,5.147,0,0,1-1.2-3.56Zm1.635.193a4.068,4.068,0,0,0,.734,2.54,2.487,2.487,0,0,0,3.933-.013,4.449,4.449,0,0,0,.729-2.72,4.061,4.061,0,0,0-.743-2.536A2.361,2.361,0,0,0,91.19,8.65a2.335,2.335,0,0,0-1.942.958A4.416,4.416,0,0,0,88.509,12.351Zm17.332,3.5a2.342,2.342,0,0,0,1.521-.527A1.855,1.855,0,0,0,108.083,14h1.538a2.949,2.949,0,0,1-.562,1.556,3.7,3.7,0,0,1-1.384,1.178,3.994,3.994,0,0,1-1.833.439,3.918,3.918,0,0,1-3.089-1.3,5.163,5.163,0,0,1-1.147-3.546v-.272a5.725,5.725,0,0,1,.51-2.47,3.883,3.883,0,0,1,1.463-1.679,4.157,4.157,0,0,1,2.254-.6,3.814,3.814,0,0,1,2.659.958,3.424,3.424,0,0,1,1.129,2.487h-1.538a2.241,2.241,0,0,0-.7-1.516,2.174,2.174,0,0,0-1.551-.593,2.276,2.276,0,0,0-1.92.892,4.19,4.19,0,0,0-.681,2.58v.308a4.106,4.106,0,0,0,.677,2.531A2.287,2.287,0,0,0,105.841,15.849Zm5.177-3.691a5.617,5.617,0,0,1,.549-2.514A4.1,4.1,0,0,1,113.1,7.921a4.163,4.163,0,0,1,2.237-.606,4.01,4.01,0,0,1,3.142,1.345,5.174,5.174,0,0,1,1.2,3.577v.114a5.666,5.666,0,0,1-.532,2.492,4.038,4.038,0,0,1-1.521,1.718,4.211,4.211,0,0,1-2.272.615,4,4,0,0,1-3.133-1.345,5.147,5.147,0,0,1-1.2-3.56Zm1.635.193a4.068,4.068,0,0,0,.734,2.54,2.487,2.487,0,0,0,3.933-.013,4.449,4.449,0,0,0,.729-2.72,4.061,4.061,0,0,0-.743-2.536,2.361,2.361,0,0,0-1.973-.971,2.335,2.335,0,0,0-1.942.958A4.416,4.416,0,0,0,112.653,12.351Zm10.591-4.86.044,1.055a3.512,3.512,0,0,1,2.821-1.23,2.719,2.719,0,0,1,2.716,1.529,3.6,3.6,0,0,1,1.235-1.107,3.647,3.647,0,0,1,1.8-.422q3.129,0,3.182,3.313V17h-1.626V10.725a2.184,2.184,0,0,0-.466-1.525,2.051,2.051,0,0,0-1.564-.505,2.156,2.156,0,0,0-1.5.541,2.193,2.193,0,0,0-.694,1.455V17H127.55V10.769a1.814,1.814,0,0,0-2.03-2.074,2.175,2.175,0,0,0-2.188,1.362V17h-1.626V7.49Zm18.193,9.686a4.155,4.155,0,0,1-3.146-1.27,4.714,4.714,0,0,1-1.213-3.4v-.3a5.707,5.707,0,0,1,.541-2.527,4.217,4.217,0,0,1,1.512-1.74,3.8,3.8,0,0,1,2.1-.628,3.562,3.562,0,0,1,2.883,1.222,5.289,5.289,0,0,1,1.028,3.5v.677H138.7a3.38,3.38,0,0,0,.822,2.272,2.583,2.583,0,0,0,2,.866,2.832,2.832,0,0,0,1.459-.352,3.666,3.666,0,0,0,1.046-.932l.993.773A3.993,3.993,0,0,1,141.437,17.176Zm-.2-8.525a2.169,2.169,0,0,0-1.652.716,3.482,3.482,0,0,0-.826,2.008h4.764v-.123a3.1,3.1,0,0,0-.668-1.92A2.042,2.042,0,0,0,141.235,8.65Zm10.389.3a4.873,4.873,0,0,0-.8-.062,2.143,2.143,0,0,0-2.171,1.362V17h-1.626V7.49h1.582l.026,1.1A2.532,2.532,0,0,1,150.9,7.314a1.661,1.661,0,0,1,.721.123Zm5.142,6.9a2.342,2.342,0,0,0,1.521-.527A1.855,1.855,0,0,0,159.006,14h1.538a2.949,2.949,0,0,1-.562,1.556,3.7,3.7,0,0,1-1.384,1.178,3.994,3.994,0,0,1-1.833.439,3.918,3.918,0,0,1-3.089-1.3,5.163,5.163,0,0,1-1.147-3.546v-.272a5.725,5.725,0,0,1,.51-2.47A3.883,3.883,0,0,1,154.5,7.912a4.157,4.157,0,0,1,2.254-.6,3.814,3.814,0,0,1,2.659.958,3.424,3.424,0,0,1,1.129,2.487h-1.538a2.241,2.241,0,0,0-.7-1.516,2.174,2.174,0,0,0-1.551-.593,2.276,2.276,0,0,0-1.92.892,4.19,4.19,0,0,0-.681,2.58v.308a4.106,4.106,0,0,0,.677,2.531A2.287,2.287,0,0,0,156.765,15.849ZM164.139,17h-1.626V7.49h1.626ZM162.381,4.968a.971.971,0,0,1,.242-.668.907.907,0,0,1,.716-.272.922.922,0,0,1,.721.272.96.96,0,0,1,.246.668.929.929,0,0,1-.246.659.938.938,0,0,1-.721.264.924.924,0,0,1-.716-.264A.938.938,0,0,1,162.381,4.968ZM172.612,17a3.416,3.416,0,0,1-.229-1,3.628,3.628,0,0,1-2.707,1.178,3.357,3.357,0,0,1-2.307-.8,2.573,2.573,0,0,1-.9-2.017,2.688,2.688,0,0,1,1.129-2.307,5.325,5.325,0,0,1,3.177-.822h1.582v-.747a1.826,1.826,0,0,0-.51-1.358,2.049,2.049,0,0,0-1.5-.505,2.371,2.371,0,0,0-1.459.439,1.3,1.3,0,0,0-.589,1.063h-1.635a2.244,2.244,0,0,1,.505-1.375,3.449,3.449,0,0,1,1.371-1.05,4.613,4.613,0,0,1,1.9-.387,3.759,3.759,0,0,1,2.575.822,2.964,2.964,0,0,1,.967,2.263v4.377a5.351,5.351,0,0,0,.334,2.083V17Zm-2.7-1.239a2.858,2.858,0,0,0,1.45-.4,2.392,2.392,0,0,0,.993-1.028V12.386h-1.274q-2.988,0-2.988,1.749a1.48,1.48,0,0,0,.51,1.2A1.959,1.959,0,0,0,169.914,15.761ZM178.3,17h-1.626V3.5H178.3Z" transform="translate(-6297.106 -10186.86)" fill="#12263f"/>
    <circle id="Elipse_11541" data-name="Elipse 11541" cx="24" cy="24" r="24" transform="translate(-6370.106 -10198.86)" fill="#67550c"/>
    <path id="Trazado_874986" data-name="Trazado 874986" d="M1.876,0H-.664V-9.791l-3.032.94v-2.065l5.3-1.9h.272Z" transform="translate(-6346.106 -10168.86)" fill="#fff"/>
    <rect id="Rectángulo_401190-2" data-name="Rectángulo 401190" width="265" height="60" rx="30" transform="translate(-6335.106 -10133.86)" fill="#ffd6ae"/>
    <path id="Trazado_874990" data-name="Trazado 874990" d="M12.658,12.939a4.708,4.708,0,0,1-1.5,3.133,4.911,4.911,0,0,1-3.353,1.1A4.509,4.509,0,0,1,4.172,15.55,6.542,6.542,0,0,1,2.805,11.2V9.969a7.291,7.291,0,0,1,.637-3.138A4.76,4.76,0,0,1,5.249,4.752a5.029,5.029,0,0,1,2.707-.725,4.624,4.624,0,0,1,3.27,1.138,4.765,4.765,0,0,1,1.433,3.151h-1.7a3.677,3.677,0,0,0-.954-2.222,2.885,2.885,0,0,0-2.052-.688A3.019,3.019,0,0,0,5.42,6.6a5.492,5.492,0,0,0-.918,3.4v1.24a5.645,5.645,0,0,0,.87,3.316A2.812,2.812,0,0,0,7.806,15.8a3.247,3.247,0,0,0,2.158-.637,3.536,3.536,0,0,0,1-2.219ZM16.472,17H14.846V7.49h1.626ZM14.714,4.968a.971.971,0,0,1,.242-.668.907.907,0,0,1,.716-.272.922.922,0,0,1,.721.272.96.96,0,0,1,.246.668.929.929,0,0,1-.246.659.938.938,0,0,1-.721.264.924.924,0,0,1-.716-.264A.938.938,0,0,1,14.714,4.968Zm8.174,10.881a2.342,2.342,0,0,0,1.521-.527A1.855,1.855,0,0,0,25.129,14h1.538a2.949,2.949,0,0,1-.562,1.556,3.7,3.7,0,0,1-1.384,1.178,3.994,3.994,0,0,1-1.833.439,3.918,3.918,0,0,1-3.089-1.3,5.163,5.163,0,0,1-1.147-3.546v-.272a5.725,5.725,0,0,1,.51-2.47,3.883,3.883,0,0,1,1.463-1.679,4.157,4.157,0,0,1,2.254-.6,3.814,3.814,0,0,1,2.659.958,3.424,3.424,0,0,1,1.129,2.487H25.129a2.241,2.241,0,0,0-.7-1.516,2.174,2.174,0,0,0-1.551-.593,2.276,2.276,0,0,0-1.92.892,4.19,4.19,0,0,0-.681,2.58v.308a4.106,4.106,0,0,0,.677,2.531A2.287,2.287,0,0,0,22.888,15.849ZM30.262,17H28.636V3.5h1.626Zm2.171-4.843a5.617,5.617,0,0,1,.549-2.514,4.1,4.1,0,0,1,1.529-1.723,4.163,4.163,0,0,1,2.237-.606,4.01,4.01,0,0,1,3.142,1.345,5.174,5.174,0,0,1,1.2,3.577v.114a5.666,5.666,0,0,1-.532,2.492,4.038,4.038,0,0,1-1.521,1.718,4.211,4.211,0,0,1-2.272.615,4,4,0,0,1-3.133-1.345,5.147,5.147,0,0,1-1.2-3.56Zm1.635.193a4.068,4.068,0,0,0,.734,2.54,2.487,2.487,0,0,0,3.933-.013,4.449,4.449,0,0,0,.729-2.72,4.061,4.061,0,0,0-.743-2.536,2.361,2.361,0,0,0-1.973-.971,2.335,2.335,0,0,0-1.942.958A4.416,4.416,0,0,0,34.068,12.351Zm13.122-.185a5.571,5.571,0,0,1,1.037-3.52,3.529,3.529,0,0,1,5.361-.189V3.5h1.626V17H53.72l-.079-1.02a3.311,3.311,0,0,1-2.716,1.2,3.248,3.248,0,0,1-2.694-1.354,5.634,5.634,0,0,1-1.042-3.533Zm1.626.185a4.218,4.218,0,0,0,.668,2.531,2.159,2.159,0,0,0,1.846.914,2.372,2.372,0,0,0,2.259-1.389V10.039a2.39,2.39,0,0,0-2.241-1.345,2.17,2.17,0,0,0-1.863.923A4.644,4.644,0,0,0,48.816,12.351Zm12.867,4.825a4.155,4.155,0,0,1-3.146-1.27,4.714,4.714,0,0,1-1.213-3.4v-.3a5.707,5.707,0,0,1,.541-2.527,4.217,4.217,0,0,1,1.512-1.74,3.8,3.8,0,0,1,2.1-.628,3.562,3.562,0,0,1,2.883,1.222,5.289,5.289,0,0,1,1.028,3.5v.677H58.95a3.38,3.38,0,0,0,.822,2.272,2.583,2.583,0,0,0,2,.866A2.832,2.832,0,0,0,63.23,15.5a3.666,3.666,0,0,0,1.046-.932l.993.773A3.993,3.993,0,0,1,61.683,17.176Zm-.2-8.525a2.169,2.169,0,0,0-1.652.716A3.482,3.482,0,0,0,59,11.375h4.764v-.123a3.1,3.1,0,0,0-.668-1.92A2.042,2.042,0,0,0,61.481,8.65Zm13.386,6.144,2.355-7.3h1.661L75.473,17H74.234L70.789,7.49H72.45ZM82.214,17H80.588V7.49h1.626ZM80.457,4.968A.971.971,0,0,1,80.7,4.3a.907.907,0,0,1,.716-.272.922.922,0,0,1,.721.272.96.96,0,0,1,.246.668.929.929,0,0,1-.246.659.938.938,0,0,1-.721.264.924.924,0,0,1-.716-.264A.938.938,0,0,1,80.457,4.968Zm3.964,7.2a5.571,5.571,0,0,1,1.037-3.52,3.529,3.529,0,0,1,5.361-.189V3.5h1.626V17H90.951l-.079-1.02a3.311,3.311,0,0,1-2.716,1.2,3.248,3.248,0,0,1-2.694-1.354,5.634,5.634,0,0,1-1.042-3.533Zm1.626.185a4.218,4.218,0,0,0,.668,2.531,2.159,2.159,0,0,0,1.846.914,2.372,2.372,0,0,0,2.259-1.389V10.039a2.39,2.39,0,0,0-2.241-1.345,2.17,2.17,0,0,0-1.863.923A4.644,4.644,0,0,0,86.046,12.351ZM100.838,17a3.416,3.416,0,0,1-.229-1A3.628,3.628,0,0,1,97.9,17.176a3.357,3.357,0,0,1-2.307-.8,2.573,2.573,0,0,1-.9-2.017,2.688,2.688,0,0,1,1.129-2.307A5.325,5.325,0,0,1,99,11.234h1.582v-.747a1.826,1.826,0,0,0-.51-1.358,2.049,2.049,0,0,0-1.5-.505,2.371,2.371,0,0,0-1.459.439,1.3,1.3,0,0,0-.589,1.063H94.888a2.244,2.244,0,0,1,.505-1.375A3.449,3.449,0,0,1,96.765,7.7a4.613,4.613,0,0,1,1.9-.387,3.759,3.759,0,0,1,2.575.822,2.964,2.964,0,0,1,.967,2.263v4.377a5.351,5.351,0,0,0,.334,2.083V17Zm-2.7-1.239a2.858,2.858,0,0,0,1.45-.4,2.392,2.392,0,0,0,.993-1.028V12.386H99.309q-2.988,0-2.988,1.749a1.48,1.48,0,0,0,.51,1.2A1.959,1.959,0,0,0,98.14,15.761Zm10.679-3.595a5.571,5.571,0,0,1,1.037-3.52,3.529,3.529,0,0,1,5.361-.189V3.5h1.626V17h-1.494l-.079-1.02a3.311,3.311,0,0,1-2.716,1.2,3.248,3.248,0,0,1-2.694-1.354,5.634,5.634,0,0,1-1.042-3.533Zm1.626.185a4.218,4.218,0,0,0,.668,2.531,2.159,2.159,0,0,0,1.846.914,2.372,2.372,0,0,0,2.259-1.389V10.039a2.39,2.39,0,0,0-2.241-1.345,2.17,2.17,0,0,0-1.863.923A4.644,4.644,0,0,0,110.445,12.351Zm12.867,4.825a4.155,4.155,0,0,1-3.146-1.27,4.714,4.714,0,0,1-1.213-3.4v-.3a5.707,5.707,0,0,1,.541-2.527A4.217,4.217,0,0,1,121,7.943a3.8,3.8,0,0,1,2.1-.628,3.562,3.562,0,0,1,2.883,1.222,5.289,5.289,0,0,1,1.028,3.5v.677h-6.442a3.38,3.38,0,0,0,.822,2.272,2.583,2.583,0,0,0,2,.866,2.832,2.832,0,0,0,1.459-.352,3.666,3.666,0,0,0,1.046-.932l.993.773A3.993,3.993,0,0,1,123.312,17.176Zm-.2-8.525a2.169,2.169,0,0,0-1.652.716,3.482,3.482,0,0,0-.826,2.008H125.4v-.123a3.1,3.1,0,0,0-.668-1.92A2.042,2.042,0,0,0,123.11,8.65ZM130.668,17h-1.626V3.5h1.626Zm15.091-4.649a5.694,5.694,0,0,1-.993,3.5,3.183,3.183,0,0,1-2.689,1.327,3.488,3.488,0,0,1-2.725-1.1v4.579h-1.626V7.49h1.485l.079,1.055a3.35,3.35,0,0,1,2.76-1.23,3.243,3.243,0,0,1,2.711,1.292,5.756,5.756,0,0,1,1,3.595Zm-1.626-.185a4.2,4.2,0,0,0-.686-2.54,2.208,2.208,0,0,0-1.881-.932A2.39,2.39,0,0,0,139.352,10v4.544a2.4,2.4,0,0,0,2.232,1.3,2.2,2.2,0,0,0,1.859-.927A4.587,4.587,0,0,0,144.133,12.166Zm8.288-3.217a4.873,4.873,0,0,0-.8-.062,2.143,2.143,0,0,0-2.171,1.362V17h-1.626V7.49h1.582l.026,1.1A2.532,2.532,0,0,1,151.7,7.314a1.661,1.661,0,0,1,.721.123Zm.888,3.208a5.617,5.617,0,0,1,.549-2.514,4.1,4.1,0,0,1,1.529-1.723,4.163,4.163,0,0,1,2.237-.606,4.01,4.01,0,0,1,3.142,1.345,5.174,5.174,0,0,1,1.2,3.577v.114a5.666,5.666,0,0,1-.532,2.492,4.038,4.038,0,0,1-1.521,1.718,4.211,4.211,0,0,1-2.272.615,4,4,0,0,1-3.133-1.345,5.147,5.147,0,0,1-1.2-3.56Zm1.635.193a4.068,4.068,0,0,0,.734,2.54,2.487,2.487,0,0,0,3.933-.013,4.449,4.449,0,0,0,.729-2.72,4.061,4.061,0,0,0-.743-2.536,2.361,2.361,0,0,0-1.973-.971,2.335,2.335,0,0,0-1.942.958A4.416,4.416,0,0,0,154.944,12.351Zm8.666-.185a5.571,5.571,0,0,1,1.037-3.52,3.529,3.529,0,0,1,5.361-.189V3.5h1.626V17H170.14l-.079-1.02a3.311,3.311,0,0,1-2.716,1.2,3.248,3.248,0,0,1-2.694-1.354,5.634,5.634,0,0,1-1.042-3.533Zm1.626.185a4.218,4.218,0,0,0,.668,2.531,2.159,2.159,0,0,0,1.846.914,2.372,2.372,0,0,0,2.259-1.389V10.039a2.39,2.39,0,0,0-2.241-1.345,2.17,2.17,0,0,0-1.863.923A4.644,4.644,0,0,0,165.236,12.351Zm14.792,3.709a3.454,3.454,0,0,1-2.786,1.116,2.956,2.956,0,0,1-2.316-.883,3.823,3.823,0,0,1-.8-2.615V7.49h1.626v6.144q0,2.162,1.758,2.162a2.434,2.434,0,0,0,2.479-1.389V7.49h1.626V17h-1.547Zm7.866-.211a2.342,2.342,0,0,0,1.521-.527A1.855,1.855,0,0,0,190.135,14h1.538a2.949,2.949,0,0,1-.562,1.556,3.7,3.7,0,0,1-1.384,1.178,3.994,3.994,0,0,1-1.833.439,3.918,3.918,0,0,1-3.089-1.3,5.163,5.163,0,0,1-1.147-3.546v-.272a5.725,5.725,0,0,1,.51-2.47,3.883,3.883,0,0,1,1.463-1.679,4.157,4.157,0,0,1,2.254-.6,3.814,3.814,0,0,1,2.659.958,3.424,3.424,0,0,1,1.129,2.487h-1.538a2.241,2.241,0,0,0-.7-1.516,2.174,2.174,0,0,0-1.551-.593,2.276,2.276,0,0,0-1.92.892,4.19,4.19,0,0,0-.681,2.58v.308a4.106,4.106,0,0,0,.677,2.531A2.287,2.287,0,0,0,187.894,15.849Zm7.813-10.661v2.3h1.775V8.747h-1.775v5.9a1.32,1.32,0,0,0,.237.858,1,1,0,0,0,.809.286,3.937,3.937,0,0,0,.773-.105V17a4.742,4.742,0,0,1-1.248.175,2.025,2.025,0,0,1-1.644-.659,2.832,2.832,0,0,1-.554-1.872v-5.9H192.35V7.49h1.731v-2.3Zm3.067,6.97a5.617,5.617,0,0,1,.549-2.514,4.1,4.1,0,0,1,1.529-1.723,4.163,4.163,0,0,1,2.237-.606,4.01,4.01,0,0,1,3.142,1.345,5.174,5.174,0,0,1,1.2,3.577v.114a5.666,5.666,0,0,1-.532,2.492,4.038,4.038,0,0,1-1.521,1.718,4.211,4.211,0,0,1-2.272.615,4,4,0,0,1-3.133-1.345,5.147,5.147,0,0,1-1.2-3.56Zm1.635.193a4.068,4.068,0,0,0,.734,2.54,2.487,2.487,0,0,0,3.933-.013,4.449,4.449,0,0,0,.729-2.72,4.061,4.061,0,0,0-.743-2.536,2.361,2.361,0,0,0-1.973-.971,2.335,2.335,0,0,0-1.942.958A4.416,4.416,0,0,0,200.41,12.351Z" transform="translate(-6307.106 -10115.86)" fill="#12263f"/>
    <path id="Trazado_873516" data-name="Trazado 873516" d="M24,0A24,24,0,1,1,0,24,24,24,0,0,1,24,0Z" transform="translate(-6370.106 -10127.86)" fill="#6a4624"/>
    <path id="Trazado_874987" data-name="Trazado 874987" d="M4.478,0H-4.293V-1.74l4.14-4.412A10.212,10.212,0,0,0,1.107-7.778,2.612,2.612,0,0,0,1.516-9.1a1.955,1.955,0,0,0-.431-1.34,1.555,1.555,0,0,0-1.23-.488,1.677,1.677,0,0,0-1.358.593A2.35,2.35,0,0,0-2-8.771H-4.548a4.2,4.2,0,0,1,.558-2.136,3.934,3.934,0,0,1,1.578-1.516A4.8,4.8,0,0,1-.1-12.973a4.54,4.54,0,0,1,3.072.949A3.358,3.358,0,0,1,4.065-9.343a4.3,4.3,0,0,1-.492,1.934A10.745,10.745,0,0,1,1.885-5.115L-1.024-2.048h5.5Z" transform="translate(-6346.106 -10097.86)" fill="#fff"/>
    <rect id="Rectángulo_401190-3" data-name="Rectángulo 401190" width="265" height="60" rx="30" transform="translate(-6335.106 -10062.86)" fill="#ffacac"/>
    <path id="Trazado_874989" data-name="Trazado 874989" d="M37.988,11.99V17H36.3V4.2h4.72a4.742,4.742,0,0,1,3.292,1.072A3.635,3.635,0,0,1,45.5,8.114a3.587,3.587,0,0,1-1.165,2.87A4.954,4.954,0,0,1,41,11.99Zm0-1.38H41.02a3.032,3.032,0,0,0,2.074-.638,2.334,2.334,0,0,0,.721-1.845A2.411,2.411,0,0,0,43.094,6.3a2.84,2.84,0,0,0-1.978-.713H37.988ZM49.167,17H47.542V3.5h1.626Zm8.473,0a3.416,3.416,0,0,1-.229-1A3.628,3.628,0,0,1,54.7,17.176a3.357,3.357,0,0,1-2.307-.8,2.573,2.573,0,0,1-.9-2.017,2.688,2.688,0,0,1,1.129-2.307,5.325,5.325,0,0,1,3.177-.822h1.582v-.747a1.826,1.826,0,0,0-.51-1.358,2.049,2.049,0,0,0-1.5-.505,2.371,2.371,0,0,0-1.459.439,1.3,1.3,0,0,0-.589,1.063H51.69A2.244,2.244,0,0,1,52.2,8.751,3.449,3.449,0,0,1,53.566,7.7a4.613,4.613,0,0,1,1.9-.387,3.759,3.759,0,0,1,2.575.822,2.964,2.964,0,0,1,.967,2.263v4.377a5.351,5.351,0,0,0,.334,2.083V17Zm-2.7-1.239a2.858,2.858,0,0,0,1.45-.4,2.392,2.392,0,0,0,.993-1.028V12.386H56.111q-2.988,0-2.988,1.749a1.48,1.48,0,0,0,.51,1.2A1.959,1.959,0,0,0,54.942,15.761ZM63.1,7.49l.053,1.2A3.465,3.465,0,0,1,66,7.314q3.015,0,3.041,3.4V17H67.414V10.707a2.189,2.189,0,0,0-.47-1.521,1.884,1.884,0,0,0-1.437-.492,2.347,2.347,0,0,0-1.389.422,2.865,2.865,0,0,0-.932,1.107V17H61.56V7.49Zm20.883,4.86a5.694,5.694,0,0,1-.993,3.5A3.183,3.183,0,0,1,80.3,17.176a3.488,3.488,0,0,1-2.725-1.1v4.579H75.948V7.49h1.485l.079,1.055a3.35,3.35,0,0,1,2.76-1.23,3.243,3.243,0,0,1,2.711,1.292,5.756,5.756,0,0,1,1,3.595Zm-1.626-.185a4.2,4.2,0,0,0-.686-2.54,2.208,2.208,0,0,0-1.881-.932A2.39,2.39,0,0,0,77.574,10v4.544a2.4,2.4,0,0,0,2.232,1.3,2.2,2.2,0,0,0,1.859-.927A4.587,4.587,0,0,0,82.355,12.166Zm8.288-3.217a4.873,4.873,0,0,0-.8-.062,2.143,2.143,0,0,0-2.171,1.362V17H86.046V7.49h1.582l.026,1.1a2.532,2.532,0,0,1,2.268-1.274,1.661,1.661,0,0,1,.721.123Zm.888,3.208a5.617,5.617,0,0,1,.549-2.514,4.1,4.1,0,0,1,1.529-1.723,4.163,4.163,0,0,1,2.237-.606,4.01,4.01,0,0,1,3.142,1.345,5.174,5.174,0,0,1,1.2,3.577v.114a5.666,5.666,0,0,1-.532,2.492,4.038,4.038,0,0,1-1.521,1.718,4.211,4.211,0,0,1-2.272.615,4,4,0,0,1-3.133-1.345,5.147,5.147,0,0,1-1.2-3.56Zm1.635.193a4.068,4.068,0,0,0,.734,2.54,2.487,2.487,0,0,0,3.933-.013,4.449,4.449,0,0,0,.729-2.72,4.061,4.061,0,0,0-.743-2.536,2.361,2.361,0,0,0-1.973-.971,2.335,2.335,0,0,0-1.942.958A4.416,4.416,0,0,0,93.166,12.351Zm10.591-4.86.044,1.055a3.512,3.512,0,0,1,2.821-1.23,2.719,2.719,0,0,1,2.716,1.529,3.6,3.6,0,0,1,1.235-1.107,3.647,3.647,0,0,1,1.8-.422q3.129,0,3.182,3.313V17h-1.626V10.725a2.184,2.184,0,0,0-.466-1.525,2.051,2.051,0,0,0-1.564-.505,2.156,2.156,0,0,0-1.5.541,2.193,2.193,0,0,0-.694,1.455V17h-1.635V10.769a1.814,1.814,0,0,0-2.03-2.074,2.175,2.175,0,0,0-2.188,1.362V17h-1.626V7.49Zm13.816,4.667a5.617,5.617,0,0,1,.549-2.514,4.1,4.1,0,0,1,1.529-1.723,4.163,4.163,0,0,1,2.237-.606,4.01,4.01,0,0,1,3.142,1.345,5.174,5.174,0,0,1,1.2,3.577v.114a5.666,5.666,0,0,1-.532,2.492,4.038,4.038,0,0,1-1.521,1.718,4.211,4.211,0,0,1-2.272.615,4,4,0,0,1-3.133-1.345,5.147,5.147,0,0,1-1.2-3.56Zm1.635.193a4.068,4.068,0,0,0,.734,2.54,2.487,2.487,0,0,0,3.933-.013,4.449,4.449,0,0,0,.729-2.72,4.061,4.061,0,0,0-.743-2.536,2.361,2.361,0,0,0-1.973-.971,2.335,2.335,0,0,0-1.942.958A4.416,4.416,0,0,0,119.208,12.351Zm12.876,3.5a2.342,2.342,0,0,0,1.521-.527A1.855,1.855,0,0,0,134.325,14h1.538a2.949,2.949,0,0,1-.562,1.556,3.7,3.7,0,0,1-1.384,1.178,3.994,3.994,0,0,1-1.833.439,3.918,3.918,0,0,1-3.089-1.3,5.163,5.163,0,0,1-1.147-3.546v-.272a5.725,5.725,0,0,1,.51-2.47,3.883,3.883,0,0,1,1.463-1.679,4.157,4.157,0,0,1,2.254-.6,3.814,3.814,0,0,1,2.659.958,3.424,3.424,0,0,1,1.129,2.487h-1.538a2.241,2.241,0,0,0-.7-1.516,2.174,2.174,0,0,0-1.551-.593,2.276,2.276,0,0,0-1.92.892,4.19,4.19,0,0,0-.681,2.58v.308a4.106,4.106,0,0,0,.677,2.531A2.287,2.287,0,0,0,132.083,15.849ZM139.458,17h-1.626V7.49h1.626ZM137.7,4.968a.971.971,0,0,1,.242-.668.907.907,0,0,1,.716-.272.922.922,0,0,1,.721.272.96.96,0,0,1,.246.668.929.929,0,0,1-.246.659.938.938,0,0,1-.721.264.924.924,0,0,1-.716-.264A.938.938,0,0,1,137.7,4.968Zm3.929,7.189a5.617,5.617,0,0,1,.549-2.514,4.1,4.1,0,0,1,1.529-1.723,4.163,4.163,0,0,1,2.237-.606,4.01,4.01,0,0,1,3.142,1.345,5.174,5.174,0,0,1,1.2,3.577v.114a5.666,5.666,0,0,1-.532,2.492,4.038,4.038,0,0,1-1.521,1.718,4.211,4.211,0,0,1-2.272.615,4,4,0,0,1-3.133-1.345,5.147,5.147,0,0,1-1.2-3.56Zm1.635.193a4.068,4.068,0,0,0,.734,2.54,2.487,2.487,0,0,0,3.933-.013,4.449,4.449,0,0,0,.729-2.72,4.061,4.061,0,0,0-.743-2.536,2.361,2.361,0,0,0-1.973-.971A2.335,2.335,0,0,0,144,9.608,4.416,4.416,0,0,0,143.263,12.351Zm10.6-4.86.053,1.2a3.465,3.465,0,0,1,2.848-1.371q3.015,0,3.041,3.4V17h-1.626V10.707a2.189,2.189,0,0,0-.47-1.521,1.884,1.884,0,0,0-1.437-.492,2.347,2.347,0,0,0-1.389.422,2.865,2.865,0,0,0-.932,1.107V17h-1.626V7.49ZM168.127,17a3.416,3.416,0,0,1-.229-1,3.628,3.628,0,0,1-2.707,1.178,3.357,3.357,0,0,1-2.307-.8,2.573,2.573,0,0,1-.9-2.017,2.688,2.688,0,0,1,1.129-2.307,5.325,5.325,0,0,1,3.177-.822h1.582v-.747a1.826,1.826,0,0,0-.51-1.358,2.049,2.049,0,0,0-1.5-.505,2.371,2.371,0,0,0-1.459.439,1.3,1.3,0,0,0-.589,1.063h-1.635a2.244,2.244,0,0,1,.505-1.375,3.449,3.449,0,0,1,1.371-1.05,4.613,4.613,0,0,1,1.9-.387,3.759,3.759,0,0,1,2.575.822A2.964,2.964,0,0,1,169.5,10.4v4.377a5.351,5.351,0,0,0,.334,2.083V17Zm-2.7-1.239a2.858,2.858,0,0,0,1.45-.4,2.392,2.392,0,0,0,.993-1.028V12.386H166.6q-2.988,0-2.988,1.749a1.48,1.48,0,0,0,.51,1.2A1.959,1.959,0,0,0,165.429,15.761ZM173.814,17h-1.626V3.5h1.626Z" transform="translate(-6307.106 -10044.86)" fill="#12263f"/>
    <path id="Trazado_873516-2" data-name="Trazado 873516" d="M24,0A24,24,0,1,1,0,24,24,24,0,0,1,24,0Z" transform="translate(-6370.106 -10056.86)" fill="#804242"/>
    <path id="Trazado_874988" data-name="Trazado 874988" d="M-1.709-7.523H-.356a1.907,1.907,0,0,0,1.433-.483A1.771,1.771,0,0,0,1.542-9.29a1.566,1.566,0,0,0-.461-1.2,1.788,1.788,0,0,0-1.27-.431,1.874,1.874,0,0,0-1.222.4A1.279,1.279,0,0,0-1.9-9.483h-2.54a3.124,3.124,0,0,1,.541-1.8,3.6,3.6,0,0,1,1.512-1.244,5.045,5.045,0,0,1,2.14-.448A4.785,4.785,0,0,1,2.931-12,3.314,3.314,0,0,1,4.083-9.325a2.693,2.693,0,0,1-.536,1.617A3.483,3.483,0,0,1,2.14-6.574a3.18,3.18,0,0,1,1.613,1.16,3.147,3.147,0,0,1,.532,1.828A3.369,3.369,0,0,1,3.041-.853,5,5,0,0,1-.25.176,4.741,4.741,0,0,1-3.384-.835,3.3,3.3,0,0,1-4.6-3.507h2.54a1.472,1.472,0,0,0,.541,1.178,1.992,1.992,0,0,0,1.332.457A2,2,0,0,0,1.23-2.351a1.654,1.654,0,0,0,.514-1.27q0-1.916-2.109-1.916H-1.709Z" transform="translate(-6346.106 -10026.86)" fill="#fff"/>
    <path id="Trazado_874984" data-name="Trazado 874984" d="M4.478,0H-4.293V-1.74l4.14-4.412A10.212,10.212,0,0,0,1.107-7.778,2.612,2.612,0,0,0,1.516-9.1a1.955,1.955,0,0,0-.431-1.34,1.555,1.555,0,0,0-1.23-.488,1.677,1.677,0,0,0-1.358.593A2.35,2.35,0,0,0-2-8.771H-4.548a4.2,4.2,0,0,1,.558-2.136,3.934,3.934,0,0,1,1.578-1.516A4.8,4.8,0,0,1-.1-12.973a4.54,4.54,0,0,1,3.072.949A3.358,3.358,0,0,1,4.065-9.343a4.3,4.3,0,0,1-.492,1.934A10.745,10.745,0,0,1,1.885-5.115L-1.024-2.048h5.5Z" transform="translate(-6220.106 -10245.86)" fill="#fff"/>
    <path id="Trazado_874985" data-name="Trazado 874985" d="M-1.709-7.523H-.356a1.907,1.907,0,0,0,1.433-.483A1.771,1.771,0,0,0,1.542-9.29a1.566,1.566,0,0,0-.461-1.2,1.788,1.788,0,0,0-1.27-.431,1.874,1.874,0,0,0-1.222.4A1.279,1.279,0,0,0-1.9-9.483h-2.54a3.124,3.124,0,0,1,.541-1.8,3.6,3.6,0,0,1,1.512-1.244,5.045,5.045,0,0,1,2.14-.448A4.785,4.785,0,0,1,2.931-12,3.314,3.314,0,0,1,4.083-9.325a2.693,2.693,0,0,1-.536,1.617A3.483,3.483,0,0,1,2.14-6.574a3.18,3.18,0,0,1,1.613,1.16,3.147,3.147,0,0,1,.532,1.828A3.369,3.369,0,0,1,3.041-.853,5,5,0,0,1-.25.176,4.741,4.741,0,0,1-3.384-.835,3.3,3.3,0,0,1-4.6-3.507h2.54a1.472,1.472,0,0,0,.541,1.178,1.992,1.992,0,0,0,1.332.457A2,2,0,0,0,1.23-2.351a1.654,1.654,0,0,0,.514-1.27q0-1.916-2.109-1.916H-1.709Z" transform="translate(-6111.106 -10308.86)" fill="#fff"/>
  </g>
</svg>
