<svg id="Grupo_1099864" data-name="Grupo 1099864" xmlns="http://www.w3.org/2000/svg" xmlns:xlink="http://www.w3.org/1999/xlink" width="292.894" height="455" viewBox="0 0 292.894 455">
  <defs>
    <clipPath id="clip-path">
      <rect id="Rectángulo_401503" data-name="Rectángulo 401503" width="292.894" height="455" fill="none"/>
    </clipPath>
    <clipPath id="clip-path-4">
      <rect id="Rectángulo_401493" data-name="Rectángulo 401493" width="134.498" height="65.806" fill="none"/>
    </clipPath>
    <clipPath id="clip-path-5">
      <rect id="Rectángulo_401495" data-name="Rectángulo 401495" width="38.816" height="35.773" fill="none"/>
    </clipPath>
    <clipPath id="clip-path-7">
      <rect id="Rectángulo_401497" data-name="Rectángulo 401497" width="38.816" height="35.772" fill="none"/>
    </clipPath>
    <clipPath id="clip-path-8">
      <rect id="Rectángulo_401498" data-name="Rectángulo 401498" width="39.22" height="35.691" fill="none"/>
    </clipPath>
    <clipPath id="clip-path-9">
      <rect id="Rectángulo_401499" data-name="Rectángulo 401499" width="38.817" height="35.772" fill="none"/>
    </clipPath>
  </defs>
  <g id="Grupo_1099863" data-name="Grupo 1099863" clip-path="url(#clip-path)">
    <g id="Grupo_1099837" data-name="Grupo 1099837">
      <g id="Grupo_1099836" data-name="Grupo 1099836" clip-path="url(#clip-path)">
        <path id="Trazado_873928" data-name="Trazado 873928" d="M90.517,112.925C80.968,99.593,60.683,90.46,44.2,92.913c-13.364,1.988-25.175,8.2-31.649,21.459a6.034,6.034,0,0,0,4.653,8.682,274.939,274.939,0,0,0,66.982-.227c3.429-.433,7.5-1.382,7.74-5.624a6.8,6.8,0,0,0-1.409-4.278" transform="translate(0.605 4.698)" fill="#f5f5f5"/>
        <path id="Trazado_873929" data-name="Trazado 873929" d="M36.732,112.081c-.079.061-.762-.614-1.678-1.869a15.432,15.432,0,0,1-2.53-5.535,27.412,27.412,0,0,1-.494-6.036,7.666,7.666,0,0,1,.2-2.492,7.769,7.769,0,0,1,.371,2.471,45.544,45.544,0,0,0,.713,5.878,19.108,19.108,0,0,0,2.22,5.4,9.427,9.427,0,0,1,1.194,2.181" transform="translate(1.626 4.882)" fill="#e0e0e0"/>
        <path id="Trazado_873930" data-name="Trazado 873930" d="M50.068,111.493c-.245-.025.108-3.791-.39-8.387-.468-4.6-1.6-8.211-1.361-8.286.187-.082,1.69,3.489,2.171,8.2.508,4.709-.221,8.513-.42,8.472" transform="translate(2.452 4.815)" fill="#e0e0e0"/>
        <path id="Trazado_873931" data-name="Trazado 873931" d="M63.9,109.213c-.226-.1.871-2.625,1.139-5.94.308-3.313-.339-5.991-.1-6.049.187-.083,1.23,2.628.911,6.12-.288,3.492-1.781,5.984-1.95,5.87" transform="translate(3.244 4.937)" fill="#e0e0e0"/>
        <path id="Trazado_873932" data-name="Trazado 873932" d="M188.113,110.687c-9.549-13.332-29.834-22.466-46.316-20.012-13.364,1.989-25.175,8.2-31.649,21.459a6.034,6.034,0,0,0,4.653,8.682,274.939,274.939,0,0,0,66.982-.227c3.429-.433,7.5-1.382,7.74-5.624a6.8,6.8,0,0,0-1.409-4.278" transform="translate(5.561 4.584)" fill="#f5f5f5"/>
        <path id="Trazado_873933" data-name="Trazado 873933" d="M134.328,109.844c-.079.061-.762-.614-1.678-1.869a15.432,15.432,0,0,1-2.53-5.535,27.411,27.411,0,0,1-.494-6.036,7.671,7.671,0,0,1,.2-2.492,7.806,7.806,0,0,1,.371,2.471,45.54,45.54,0,0,0,.713,5.878,19.1,19.1,0,0,0,2.22,5.4,9.478,9.478,0,0,1,1.194,2.181" transform="translate(6.582 4.769)" fill="#e0e0e0"/>
        <path id="Trazado_873934" data-name="Trazado 873934" d="M147.664,109.255c-.245-.025.108-3.791-.39-8.387-.468-4.6-1.6-8.211-1.361-8.286.186-.082,1.69,3.489,2.171,8.2.508,4.709-.221,8.513-.42,8.472" transform="translate(7.408 4.701)" fill="#e0e0e0"/>
        <path id="Trazado_873935" data-name="Trazado 873935" d="M161.5,106.976c-.226-.1.872-2.625,1.14-5.94.308-3.313-.339-5.991-.1-6.049.187-.083,1.229,2.628.911,6.12-.288,3.492-1.781,5.984-1.951,5.87" transform="translate(8.199 4.823)" fill="#e0e0e0"/>
        <rect id="Rectángulo_401489" data-name="Rectángulo 401489" width="248.773" height="12.132" transform="translate(2.368 126.252)" fill="#e0e0e0"/>
        <path id="Trazado_873936" data-name="Trazado 873936" d="M98.178,359.411c-9.549-13.332-29.834-22.466-46.316-20.012-13.364,1.989-25.175,8.2-31.649,21.459a6.034,6.034,0,0,0,4.653,8.682,274.938,274.938,0,0,0,66.982-.227c3.429-.433,7.5-1.382,7.74-5.624a6.8,6.8,0,0,0-1.409-4.278" transform="translate(0.994 17.214)" fill="#f5f5f5"/>
        <path id="Trazado_873937" data-name="Trazado 873937" d="M44.393,358.567c-.079.061-.762-.614-1.678-1.869a15.432,15.432,0,0,1-2.53-5.535,27.412,27.412,0,0,1-.494-6.036,7.656,7.656,0,0,1,.2-2.491,7.748,7.748,0,0,1,.371,2.47,45.544,45.544,0,0,0,.713,5.878,19.139,19.139,0,0,0,2.22,5.4,9.427,9.427,0,0,1,1.194,2.181" transform="translate(2.016 17.399)" fill="#e0e0e0"/>
        <path id="Trazado_873938" data-name="Trazado 873938" d="M57.729,357.979c-.245-.025.108-3.791-.39-8.387-.468-4.6-1.6-8.211-1.361-8.286.187-.082,1.69,3.489,2.171,8.2.508,4.709-.221,8.513-.42,8.472" transform="translate(2.841 17.331)" fill="#e0e0e0"/>
        <path id="Trazado_873939" data-name="Trazado 873939" d="M71.565,355.7c-.226-.1.872-2.625,1.14-5.94.308-3.313-.339-5.991-.1-6.049.187-.083,1.229,2.628.911,6.12-.288,3.493-1.781,5.984-1.951,5.87" transform="translate(3.633 17.453)" fill="#e0e0e0"/>
        <path id="Trazado_873940" data-name="Trazado 873940" d="M195.774,357.173c-9.549-13.332-29.834-22.466-46.316-20.012-13.364,1.988-25.174,8.2-31.649,21.459a6.034,6.034,0,0,0,4.653,8.682,274.945,274.945,0,0,0,66.983-.227c3.429-.433,7.5-1.382,7.739-5.624a6.8,6.8,0,0,0-1.409-4.278" transform="translate(5.95 17.101)" fill="#f5f5f5"/>
        <path id="Trazado_873941" data-name="Trazado 873941" d="M141.989,356.33c-.079.061-.762-.614-1.678-1.869a15.433,15.433,0,0,1-2.53-5.536,27.416,27.416,0,0,1-.494-6.036,7.666,7.666,0,0,1,.2-2.492,7.769,7.769,0,0,1,.371,2.471,45.912,45.912,0,0,0,.713,5.878,19.108,19.108,0,0,0,2.22,5.4,9.428,9.428,0,0,1,1.194,2.181" transform="translate(6.971 17.285)" fill="#e0e0e0"/>
        <path id="Trazado_873942" data-name="Trazado 873942" d="M155.325,355.741c-.245-.025.108-3.791-.39-8.387-.468-4.6-1.6-8.211-1.361-8.286.187-.082,1.69,3.489,2.171,8.2.508,4.707-.221,8.513-.42,8.472" transform="translate(7.797 17.218)" fill="#e0e0e0"/>
        <path id="Trazado_873943" data-name="Trazado 873943" d="M169.16,353.462c-.226-.1.872-2.625,1.14-5.94.308-3.313-.339-5.991-.1-6.049.187-.083,1.229,2.628.911,6.12-.288,3.493-1.781,5.984-1.951,5.87" transform="translate(8.588 17.34)" fill="#e0e0e0"/>
        <rect id="Rectángulo_401490" data-name="Rectángulo 401490" width="248.773" height="12.132" transform="translate(10.418 385.255)" fill="#e0e0e0"/>
        <path id="Trazado_873944" data-name="Trazado 873944" d="M55.92,209.884a11.492,11.492,0,0,0-9.683-13.121,1.146,1.146,0,0,0-.822.1,1.169,1.169,0,0,0-.308,1.106,13.88,13.88,0,0,0,10.8,12.248" transform="translate(2.29 9.99)" fill="#e0e0e0"/>
        <path id="Trazado_873945" data-name="Trazado 873945" d="M40.2,230.508c2.9,5.974,7.064,10,12.224,10.193,1.032.036,1.812-.642,2.8-.7a6.391,6.391,0,0,1,1.651.621,2.291,2.291,0,0,0,.861.2c5.332-.287,9.874-4.038,12.935-10.309,4.264-8.783,2.946-18.221-2.937-21.087a13.926,13.926,0,0,0-2.407-.94,9.875,9.875,0,0,0-2.925-.344,21.836,21.836,0,0,0-6.684,1.513c-.091.035-.2.069-.287.1-4.781-2.111-8.6-2.123-12.3-.333-5.882,2.867-7.19,12.3-2.924,21.087" transform="translate(1.914 10.568)" fill="#ebebeb"/>
        <path id="Trazado_873946" data-name="Trazado 873946" d="M40.2,221.483a4.558,4.558,0,0,1-.489-1.766,9.53,9.53,0,0,1,2.984-8.074,4.541,4.541,0,0,1,1.519-1.023c.04.061-.546.439-1.32,1.23a10.373,10.373,0,0,0-2.9,7.841c.074,1.1.273,1.773.2,1.793" transform="translate(2.013 10.695)" fill="#fafafa"/>
        <path id="Trazado_873947" data-name="Trazado 873947" d="M41.227,225.026c-.109.025-.3-.39-.422-.926s-.136-.993-.026-1.018.3.39.422.927.136.992.026,1.017" transform="translate(2.067 11.328)" fill="#fafafa"/>
        <path id="Trazado_873948" data-name="Trazado 873948" d="M67.6,195.573c.03.074-1.1.5-2.76,1.488a22.077,22.077,0,0,0-2.755,1.964,21.985,21.985,0,0,0-5.217,6.376,22.067,22.067,0,0,0-1.381,3.089c-.644,1.822-.834,3.015-.912,3a3.386,3.386,0,0,1,.09-.844,8.175,8.175,0,0,1,.2-.975,13.126,13.126,0,0,1,.352-1.272,19.742,19.742,0,0,1,1.322-3.174,20.716,20.716,0,0,1,5.31-6.489,19.781,19.781,0,0,1,2.85-1.924c.419-.253.828-.427,1.178-.6a8.04,8.04,0,0,1,.917-.387,3.416,3.416,0,0,1,.809-.255" transform="translate(2.771 9.931)" fill="#e0e0e0"/>
        <path id="Trazado_873949" data-name="Trazado 873949" d="M113.624,209.884a11.492,11.492,0,0,0-9.683-13.121,1.146,1.146,0,0,0-.822.1,1.169,1.169,0,0,0-.308,1.106,13.88,13.88,0,0,0,10.8,12.248" transform="translate(5.22 9.99)" fill="#e0e0e0"/>
        <path id="Trazado_873950" data-name="Trazado 873950" d="M97.9,230.508c2.9,5.974,7.064,10,12.224,10.193,1.032.036,1.812-.642,2.8-.7a6.391,6.391,0,0,1,1.651.621,2.291,2.291,0,0,0,.861.2c5.332-.287,9.874-4.038,12.935-10.309,4.264-8.783,2.946-18.221-2.937-21.087a13.925,13.925,0,0,0-2.407-.94,9.875,9.875,0,0,0-2.925-.344,21.836,21.836,0,0,0-6.684,1.513c-.091.035-.2.069-.287.1-4.781-2.111-8.6-2.123-12.3-.333-5.882,2.867-7.19,12.3-2.924,21.087" transform="translate(4.844 10.568)" fill="#ebebeb"/>
        <path id="Trazado_873951" data-name="Trazado 873951" d="M97.9,221.483a4.558,4.558,0,0,1-.489-1.766,9.53,9.53,0,0,1,2.984-8.074,4.541,4.541,0,0,1,1.519-1.023c.04.061-.546.439-1.32,1.23a10.373,10.373,0,0,0-2.9,7.841c.074,1.1.273,1.773.2,1.793" transform="translate(4.943 10.695)" fill="#fafafa"/>
        <path id="Trazado_873952" data-name="Trazado 873952" d="M98.93,225.026c-.109.025-.3-.39-.422-.926s-.136-.993-.026-1.018.3.39.422.927.136.992.026,1.017" transform="translate(4.997 11.328)" fill="#fafafa"/>
        <path id="Trazado_873953" data-name="Trazado 873953" d="M125.3,195.573c.03.074-1.1.5-2.76,1.488a22.077,22.077,0,0,0-2.755,1.964,21.985,21.985,0,0,0-5.217,6.376,22.067,22.067,0,0,0-1.381,3.089c-.644,1.822-.834,3.015-.912,3a3.385,3.385,0,0,1,.09-.844,8.175,8.175,0,0,1,.2-.975,13.127,13.127,0,0,1,.352-1.272,19.743,19.743,0,0,1,1.322-3.174,20.716,20.716,0,0,1,5.31-6.489,19.781,19.781,0,0,1,2.85-1.924c.419-.253.828-.427,1.178-.6a8.04,8.04,0,0,1,.917-.387,3.416,3.416,0,0,1,.809-.255" transform="translate(5.701 9.931)" fill="#e0e0e0"/>
        <path id="Trazado_873954" data-name="Trazado 873954" d="M26.45,209.884a11.492,11.492,0,0,0-9.683-13.121,1.15,1.15,0,0,0-.823.1,1.171,1.171,0,0,0-.307,1.106,13.88,13.88,0,0,0,10.8,12.248" transform="translate(0.793 9.99)" fill="#e0e0e0"/>
        <path id="Trazado_873955" data-name="Trazado 873955" d="M10.726,230.508c2.9,5.974,7.064,10,12.224,10.193,1.032.036,1.812-.642,2.8-.7a6.391,6.391,0,0,1,1.651.621,2.291,2.291,0,0,0,.861.2c5.332-.287,9.874-4.038,12.935-10.309,4.264-8.783,2.946-18.221-2.937-21.087a13.926,13.926,0,0,0-2.407-.94,9.875,9.875,0,0,0-2.925-.344,21.836,21.836,0,0,0-6.684,1.513c-.091.035-.2.069-.287.1-4.781-2.111-8.6-2.123-12.3-.333-5.882,2.867-7.19,12.3-2.924,21.087" transform="translate(0.417 10.568)" fill="#f5f5f5"/>
        <path id="Trazado_873956" data-name="Trazado 873956" d="M10.73,221.483a4.558,4.558,0,0,1-.489-1.766,9.53,9.53,0,0,1,2.984-8.074,4.541,4.541,0,0,1,1.519-1.023c.04.061-.546.439-1.32,1.23a10.373,10.373,0,0,0-2.9,7.841c.074,1.1.273,1.773.2,1.793" transform="translate(0.517 10.695)" fill="#fafafa"/>
        <path id="Trazado_873957" data-name="Trazado 873957" d="M11.756,225.026c-.109.025-.3-.39-.422-.926s-.136-.993-.026-1.018.3.39.422.927.136.992.026,1.017" transform="translate(0.57 11.328)" fill="#fafafa"/>
        <path id="Trazado_873958" data-name="Trazado 873958" d="M38.126,195.573c.03.074-1.1.5-2.76,1.488a22.077,22.077,0,0,0-2.755,1.964,21.985,21.985,0,0,0-5.217,6.376,22.067,22.067,0,0,0-1.381,3.089c-.644,1.822-.834,3.015-.912,3a3.385,3.385,0,0,1,.09-.844,7.97,7.97,0,0,1,.2-.975,13.127,13.127,0,0,1,.352-1.272,19.742,19.742,0,0,1,1.322-3.174,20.716,20.716,0,0,1,5.31-6.489,19.724,19.724,0,0,1,2.85-1.924c.419-.253.828-.427,1.178-.6a8.039,8.039,0,0,1,.917-.387,3.416,3.416,0,0,1,.809-.255" transform="translate(1.274 9.931)" fill="#e0e0e0"/>
        <path id="Trazado_873959" data-name="Trazado 873959" d="M83.928,209.884a11.492,11.492,0,0,0-9.683-13.121,1.146,1.146,0,0,0-.822.1,1.169,1.169,0,0,0-.308,1.106,13.88,13.88,0,0,0,10.8,12.248" transform="translate(3.712 9.99)" fill="#e0e0e0"/>
        <path id="Trazado_873960" data-name="Trazado 873960" d="M68.2,230.508c2.9,5.974,7.064,10,12.224,10.193,1.032.036,1.812-.642,2.8-.7a6.391,6.391,0,0,1,1.651.621,2.291,2.291,0,0,0,.861.2c5.332-.287,9.874-4.038,12.935-10.309,4.264-8.783,2.946-18.221-2.937-21.087a13.925,13.925,0,0,0-2.407-.94,9.875,9.875,0,0,0-2.925-.344,21.836,21.836,0,0,0-6.684,1.513c-.091.035-.2.069-.287.1-4.781-2.111-8.6-2.123-12.3-.333-5.882,2.867-7.19,12.3-2.924,21.087" transform="translate(3.336 10.568)" fill="#f5f5f5"/>
        <path id="Trazado_873961" data-name="Trazado 873961" d="M68.208,221.483a4.558,4.558,0,0,1-.489-1.766,9.53,9.53,0,0,1,2.984-8.074,4.541,4.541,0,0,1,1.519-1.023c.04.061-.546.439-1.32,1.23a10.373,10.373,0,0,0-2.9,7.841c.074,1.1.273,1.773.2,1.793" transform="translate(3.435 10.695)" fill="#fafafa"/>
        <path id="Trazado_873962" data-name="Trazado 873962" d="M69.234,225.026c-.109.025-.3-.39-.422-.926s-.136-.993-.026-1.018.3.39.422.927.136.992.026,1.017" transform="translate(3.489 11.328)" fill="#fafafa"/>
        <path id="Trazado_873963" data-name="Trazado 873963" d="M95.6,195.573c.03.074-1.1.5-2.76,1.488a22.077,22.077,0,0,0-2.755,1.964A21.985,21.985,0,0,0,84.87,205.4a22.067,22.067,0,0,0-1.381,3.089c-.644,1.822-.834,3.015-.912,3a3.385,3.385,0,0,1,.09-.844,8.174,8.174,0,0,1,.2-.975,13.129,13.129,0,0,1,.352-1.272,19.743,19.743,0,0,1,1.322-3.174,20.716,20.716,0,0,1,5.31-6.489,19.781,19.781,0,0,1,2.85-1.924c.419-.253.828-.427,1.178-.6a8.039,8.039,0,0,1,.917-.387,3.416,3.416,0,0,1,.809-.255" transform="translate(4.193 9.931)" fill="#e0e0e0"/>
        <path id="Trazado_873964" data-name="Trazado 873964" d="M174.667,209.884a11.492,11.492,0,0,0-9.683-13.121,1.146,1.146,0,0,0-.822.1,1.169,1.169,0,0,0-.308,1.106,13.88,13.88,0,0,0,10.8,12.248" transform="translate(8.32 9.99)" fill="#e0e0e0"/>
        <path id="Trazado_873965" data-name="Trazado 873965" d="M158.943,230.508c2.9,5.974,7.064,10,12.224,10.193,1.032.036,1.812-.642,2.8-.7a6.391,6.391,0,0,1,1.651.621,2.292,2.292,0,0,0,.861.2c5.332-.287,9.874-4.038,12.935-10.309,4.264-8.783,2.946-18.221-2.937-21.087a13.925,13.925,0,0,0-2.407-.94,9.875,9.875,0,0,0-2.925-.344,21.836,21.836,0,0,0-6.684,1.513c-.091.035-.2.069-.287.1-4.781-2.111-8.6-2.123-12.3-.333-5.882,2.867-7.19,12.3-2.924,21.087" transform="translate(7.944 10.568)" fill="#ebebeb"/>
        <path id="Trazado_873966" data-name="Trazado 873966" d="M158.947,221.483a4.558,4.558,0,0,1-.489-1.766,9.53,9.53,0,0,1,2.984-8.074,4.541,4.541,0,0,1,1.519-1.023c.04.061-.546.439-1.32,1.23a10.367,10.367,0,0,0-2.9,7.841c.073,1.1.272,1.773.2,1.793" transform="translate(8.043 10.695)" fill="#fafafa"/>
        <path id="Trazado_873967" data-name="Trazado 873967" d="M159.973,225.026c-.109.025-.3-.39-.422-.926s-.136-.993-.026-1.018.3.39.422.927.136.992.026,1.017" transform="translate(8.097 11.328)" fill="#fafafa"/>
        <path id="Trazado_873968" data-name="Trazado 873968" d="M186.343,195.573c.03.074-1.1.5-2.76,1.488a22.076,22.076,0,0,0-2.755,1.964,21.985,21.985,0,0,0-5.217,6.376,22.069,22.069,0,0,0-1.381,3.089c-.644,1.822-.834,3.015-.912,3a3.385,3.385,0,0,1,.09-.844,7.966,7.966,0,0,1,.2-.975,13.131,13.131,0,0,1,.352-1.272,19.743,19.743,0,0,1,1.322-3.174,20.716,20.716,0,0,1,5.31-6.489,19.782,19.782,0,0,1,2.85-1.924c.419-.253.828-.427,1.178-.6a8.039,8.039,0,0,1,.917-.387,3.432,3.432,0,0,1,.809-.255" transform="translate(8.801 9.931)" fill="#e0e0e0"/>
        <path id="Trazado_873969" data-name="Trazado 873969" d="M144.971,209.884a11.492,11.492,0,0,0-9.683-13.121,1.15,1.15,0,0,0-.823.1,1.171,1.171,0,0,0-.307,1.106,13.88,13.88,0,0,0,10.8,12.248" transform="translate(6.812 9.99)" fill="#e0e0e0"/>
        <path id="Trazado_873970" data-name="Trazado 873970" d="M129.247,230.508c2.9,5.974,7.064,10,12.224,10.193,1.032.036,1.812-.642,2.8-.7a6.391,6.391,0,0,1,1.651.621,2.291,2.291,0,0,0,.861.2c5.332-.287,9.874-4.038,12.935-10.309,4.264-8.783,2.946-18.221-2.937-21.087a13.926,13.926,0,0,0-2.407-.94,9.875,9.875,0,0,0-2.925-.344,21.836,21.836,0,0,0-6.684,1.513c-.091.035-.2.069-.287.1-4.781-2.111-8.6-2.123-12.3-.333-5.882,2.867-7.19,12.3-2.924,21.087" transform="translate(6.436 10.568)" fill="#f5f5f5"/>
        <path id="Trazado_873971" data-name="Trazado 873971" d="M129.251,221.483a4.558,4.558,0,0,1-.489-1.766,9.53,9.53,0,0,1,2.984-8.074,4.541,4.541,0,0,1,1.519-1.023c.04.061-.546.439-1.32,1.23a10.367,10.367,0,0,0-2.9,7.841c.073,1.1.272,1.773.2,1.793" transform="translate(6.535 10.695)" fill="#fafafa"/>
        <path id="Trazado_873972" data-name="Trazado 873972" d="M130.278,225.026c-.109.025-.3-.39-.422-.926s-.136-.993-.026-1.018.3.39.422.927.136.992.026,1.017" transform="translate(6.589 11.328)" fill="#fafafa"/>
        <path id="Trazado_873973" data-name="Trazado 873973" d="M156.647,195.573c.03.074-1.1.5-2.76,1.488a22.076,22.076,0,0,0-2.755,1.964,21.984,21.984,0,0,0-5.217,6.376,22.067,22.067,0,0,0-1.381,3.089c-.644,1.822-.834,3.015-.912,3a3.387,3.387,0,0,1,.09-.844,8.177,8.177,0,0,1,.2-.975,13.127,13.127,0,0,1,.352-1.272,19.743,19.743,0,0,1,1.322-3.174,20.716,20.716,0,0,1,5.31-6.489,19.781,19.781,0,0,1,2.85-1.924c.419-.253.828-.427,1.178-.6a8.043,8.043,0,0,1,.917-.387,3.432,3.432,0,0,1,.809-.255" transform="translate(7.293 9.931)" fill="#e0e0e0"/>
        <rect id="Rectángulo_401491" data-name="Rectángulo 401491" width="248.773" height="12.132" transform="translate(0 249.127)" fill="#e0e0e0"/>
      </g>
    </g>
    <path id="Trazado_873974" data-name="Trazado 873974" d="M237.446,304.571,250.99,438.031l12.336,1.8-2.469-74.616-14.1-66.564Z" transform="translate(12.057 15.166)" fill="#263238"/>
    <path id="Trazado_873975" data-name="Trazado 873975" d="M126.221,254.076,106.967,442.332H267.482L248.689,297.947l-10.142-38.638-112.184-9.841Z" transform="translate(5.432 12.668)" fill="#f9d648"/>
    <g id="Grupo_1099860" data-name="Grupo 1099860">
      <g id="Grupo_1099859" data-name="Grupo 1099859" clip-path="url(#clip-path)">
        <g id="Grupo_1099840" data-name="Grupo 1099840" transform="translate(120.967 315.631)" opacity="0.3">
          <g id="Grupo_1099839" data-name="Grupo 1099839">
            <g id="Grupo_1099838" data-name="Grupo 1099838" clip-path="url(#clip-path-4)">
              <path id="Trazado_873976" data-name="Trazado 873976" d="M247.855,300.378c-20.589,7.778-39.479,19.377-59.2,29.149S147.7,347.384,125.69,347.288c-3.286-.015-6.941-1.786-9.7.005l-.873,9.419c11.856,8.826,27.7,10.839,42.316,8.667s28.37-8.119,41.925-14.011c8.526-3.705,17.574-7.849,22.453-15.764,2.806-4.55,4.068-10.137,7.9-13.862,3.9-3.788,9.661-4.865,14.255-7.775s7.806-9.825,3.883-13.59" transform="translate(-115.121 -300.378)"/>
            </g>
          </g>
        </g>
        <path id="Trazado_873977" data-name="Trazado 873977" d="M152.527,121.194s-35.011,13.232-37.343,16.5-14.717,61.253-14.717,61.253l22.178,4.033,6.528,86.737L239.692,312.1s-2.332-100.57,0-100.881,9.327-76.788,9.327-76.788L223.371,119.97l-9.793-13.864-51.033,3.744Z" transform="translate(5.102 5.388)" fill="#455a64"/>
        <path id="Trazado_873978" data-name="Trazado 873978" d="M105.351,194.984l-4.634,29.2L70.684,263.371l31.294,12.564,25.6-29.309-2.132-48.686Z" transform="translate(3.589 9.901)" fill="#aa6550"/>
        <path id="Trazado_873979" data-name="Trazado 873979" d="M141.7,124.318l-21.858,78.243a.015.015,0,0,0,.015.019l-.015-.019,8.352,86.756L238.709,311.7l-.815-45.507-1.447-1.713A145.843,145.843,0,0,1,204.5,197.2l-2.608-13.934,20.492-63.69-4.019-5.691-25.844,67.461-56.846-.309,12.1-59.129Z" transform="translate(6.085 5.783)" fill="#f9d648"/>
        <path id="Trazado_873980" data-name="Trazado 873980" d="M232.718,217.873l48.477-6.054s-7.5-43.976-11.07-52.547-27.255-26.214-27.255-26.214l-16.669,8-4.642,34.406Z" transform="translate(11.251 6.757)" fill="#455a64"/>
        <rect id="Rectángulo_401494" data-name="Rectángulo 401494" width="23.491" height="6.923" transform="translate(175.82 196.032)" fill="#fafafa"/>
        <path id="Trazado_873981" data-name="Trazado 873981" d="M126.215,252.181c-.15.018-3-23.281-6.358-52.031s-5.965-52.082-5.815-52.1,3,23.276,6.358,52.037,5.965,52.077,5.815,52.095" transform="translate(5.791 7.518)" fill="#263238"/>
        <path id="Trazado_873982" data-name="Trazado 873982" d="M222.138,182.275a2.1,2.1,0,0,1-.165-.531c-.087-.353-.223-.872-.361-1.548-.294-1.349-.664-3.315-.981-5.766a54.423,54.423,0,0,1,.727-19.231,36.677,36.677,0,0,1,8.978-16.935,27.462,27.462,0,0,1,4.473-3.782c.561-.4,1.044-.647,1.353-.837a2.108,2.108,0,0,1,.5-.252c.025.042-.619.452-1.726,1.263a30.867,30.867,0,0,0-4.315,3.874,37.522,37.522,0,0,0-8.727,16.8,56.976,56.976,0,0,0-.876,19.06c.268,2.444.578,4.412.807,5.771.105.628.19,1.145.261,1.565a2.144,2.144,0,0,1,.057.554" transform="translate(11.177 6.774)" fill="#263238"/>
        <path id="Trazado_873983" data-name="Trazado 873983" d="M281.155,209.226a4.937,4.937,0,0,1-.832.156l-2.4.338-8.839,1.145L239.9,214.439l-9.29,1.105-.237.027-.055-.231c-2.11-8.994-4.12-16.794-5.614-22.343-.737-2.733-1.331-4.937-1.756-6.514l-.459-1.752a3.082,3.082,0,0,1-.128-.616,3.247,3.247,0,0,1,.22.589l.545,1.726c.463,1.509,1.119,3.71,1.909,6.474,1.586,5.526,3.664,13.318,5.8,22.311l-.291-.2,9.289-1.119,29.2-3.414,8.86-.973,2.411-.237a4.958,4.958,0,0,1,.846-.045" transform="translate(11.291 9.349)" fill="#263238"/>
        <path id="Trazado_873984" data-name="Trazado 873984" d="M174.464,263.085a7.277,7.277,0,0,1-1.006-1.035c-.623-.687-1.5-1.709-2.546-2.993-2.1-2.566-4.884-6.218-7.7-10.433s-5.111-8.19-6.669-11.118c-.781-1.465-1.387-2.662-1.782-3.5a7.273,7.273,0,0,1-.568-1.326,7.352,7.352,0,0,1,.758,1.228c.509.9,1.157,2.043,1.931,3.412,1.642,2.875,3.988,6.8,6.787,11s5.522,7.875,7.542,10.5c.966,1.243,1.774,2.281,2.406,3.1a7.4,7.4,0,0,1,.843,1.172" transform="translate(7.83 11.815)" fill="#263238"/>
        <path id="Trazado_873985" data-name="Trazado 873985" d="M171.8,154.694a4.039,4.039,0,0,1-.626-.434l-1.73-1.328-6.3-4.964c-1.336-1.033-2.752-2.257-4.357-3.388a8.892,8.892,0,0,0-2.69-1.305,5.716,5.716,0,0,0-3.1.059,8.72,8.72,0,0,0-5.026,4.337A21.41,21.41,0,0,0,146,154.807l-.16,1.165-.544-.037a111.3,111.3,0,0,1,.818-14.155,94.993,94.993,0,0,1,2.212-11.317c.811-3.174,1.568-5.708,2.1-7.453.263-.829.473-1.494.635-2a3.682,3.682,0,0,1,.256-.686,3.768,3.768,0,0,1-.153.717c-.136.516-.314,1.189-.537,2.03-.468,1.762-1.167,4.309-1.927,7.486a101.226,101.226,0,0,0-2.088,11.289,116.568,116.568,0,0,0-.766,14.094l-.544-.037c.05-.37.105-.769.161-1.17a21.718,21.718,0,0,1,2.046-7.312,9.208,9.208,0,0,1,5.359-4.569,6.2,6.2,0,0,1,3.359-.038,9.265,9.265,0,0,1,2.822,1.4c1.638,1.18,3.017,2.4,4.343,3.46l6.188,5.1,1.665,1.408a4.041,4.041,0,0,1,.557.52" transform="translate(7.378 6.11)" fill="#263238"/>
        <path id="Trazado_873986" data-name="Trazado 873986" d="M215.467,113.476a4.6,4.6,0,0,1-.276.762c-.224.538-.52,1.25-.892,2.143-.819,1.9-1.965,4.568-3.371,7.837l-11.312,25.774-1.091,2.464-.2.449-.276-.406-7.964-11.68.36.054-12.961,10.355c-1.557,1.221-2.8,2.2-3.707,2.908l-.994.756a1.729,1.729,0,0,1-.359.239,1.753,1.753,0,0,1,.309-.3l.946-.814L177.3,151l12.836-10.51.208-.17.152.223L198.5,152.19l-.475.043,1.09-2.464c4.464-10.015,8.505-19.081,11.458-25.708,1.473-3.24,2.673-5.879,3.531-7.766l.986-2.1a4.511,4.511,0,0,1,.377-.718" transform="translate(8.756 5.762)" fill="#263238"/>
        <path id="Trazado_873987" data-name="Trazado 873987" d="M166.89,177.15c-.15-.016.277-5.154.956-11.473s1.35-11.432,1.5-11.417-.277,5.153-.956,11.475-1.35,11.431-1.5,11.416" transform="translate(8.473 7.833)" fill="#263238"/>
        <path id="Trazado_873988" data-name="Trazado 873988" d="M173.253,157.421c-.027-.011,0-.222.244-.509a1.9,1.9,0,0,1,1.43-.6,1.639,1.639,0,0,1,1.065.393,2.239,2.239,0,0,1,.663,1.1,2.377,2.377,0,0,1-.949,2.64,2.514,2.514,0,0,1-2.809-.177,2.186,2.186,0,0,1-.751-2.175,2.244,2.244,0,0,1,.785-1.326c.293-.224.5-.261.51-.233a2.829,2.829,0,0,0-.913,1.621,1.81,1.81,0,0,0,.677,1.713,2.052,2.052,0,0,0,2.214.112,1.9,1.9,0,0,0,.748-2.051,1.836,1.836,0,0,0-.481-.89,1.267,1.267,0,0,0-.78-.34,1.832,1.832,0,0,0-1.262.368c-.253.206-.351.376-.391.355" transform="translate(8.739 7.937)" fill="#263238"/>
        <path id="Trazado_873989" data-name="Trazado 873989" d="M28.573,269.257l58.931-15.4,134.531,27.235-72.548,20.661-27.684-4.9-.491,19.929L58.156,299.4l-.234-20.191Z" transform="translate(1.451 12.891)" fill="#263238"/>
        <path id="Trazado_873990" data-name="Trazado 873990" d="M33.837,284.507c3.172,6.536,7.728,10.939,13.374,11.152,1.129.039,1.982-.7,3.06-.766a6.975,6.975,0,0,1,1.806.68,2.51,2.51,0,0,0,.941.213c5.833-.313,10.8-4.417,14.152-11.279,4.664-9.61,3.224-19.934-3.212-23.071a15.429,15.429,0,0,0-2.634-1.03,10.829,10.829,0,0,0-3.2-.375,23.9,23.9,0,0,0-7.313,1.655c-.1.038-.213.077-.314.113-5.23-2.309-9.409-2.322-13.459-.364-6.436,3.137-7.867,13.461-3.2,23.071" transform="translate(1.579 13.203)" fill="#e8505b"/>
        <g id="Grupo_1099843" data-name="Grupo 1099843" transform="translate(32.671 273.217)" opacity="0.3">
          <g id="Grupo_1099842" data-name="Grupo 1099842">
            <g id="Grupo_1099841" data-name="Grupo 1099841" clip-path="url(#clip-path-5)">
              <path id="Trazado_873991" data-name="Trazado 873991" d="M33.837,284.507c3.172,6.536,7.728,10.939,13.374,11.152,1.129.039,1.982-.7,3.06-.766a6.975,6.975,0,0,1,1.806.68,2.51,2.51,0,0,0,.941.213c5.833-.313,10.8-4.417,14.152-11.279,4.664-9.61,3.224-19.934-3.212-23.071a15.429,15.429,0,0,0-2.634-1.03,10.829,10.829,0,0,0-3.2-.375,23.9,23.9,0,0,0-7.313,1.655c-.1.038-.213.077-.314.113-5.23-2.309-9.409-2.322-13.459-.364-6.436,3.137-7.867,13.461-3.2,23.071" transform="translate(-31.092 -260.014)"/>
            </g>
          </g>
        </g>
        <path id="Trazado_873992" data-name="Trazado 873992" d="M33.84,274.634a4.981,4.981,0,0,1-.535-1.932,10.426,10.426,0,0,1,3.265-8.834,4.965,4.965,0,0,1,1.662-1.12c.044.066-.6.481-1.443,1.346a11.338,11.338,0,0,0-3.171,8.579c.081,1.207.3,1.94.222,1.962" transform="translate(1.687 13.342)" fill="#fafafa"/>
        <path id="Trazado_873993" data-name="Trazado 873993" d="M34.965,278.51c-.12.027-.327-.427-.462-1.013s-.148-1.085-.028-1.114.327.427.462,1.014.148,1.085.028,1.113" transform="translate(1.746 14.035)" fill="#fafafa"/>
        <path id="Trazado_873994" data-name="Trazado 873994" d="M85.705,254.517a12.572,12.572,0,0,0-10.594-14.355,1.25,1.25,0,0,0-.9.1,1.278,1.278,0,0,0-.336,1.211,15.185,15.185,0,0,0,11.815,13.4" transform="translate(3.751 12.194)" fill="#455a64"/>
        <path id="Trazado_873995" data-name="Trazado 873995" d="M68.5,277.082c3.172,6.536,7.728,10.939,13.374,11.152,1.129.039,1.982-.7,3.06-.766a6.974,6.974,0,0,1,1.806.68,2.507,2.507,0,0,0,.94.213c5.834-.313,10.8-4.417,14.153-11.279,4.664-9.61,3.224-19.934-3.213-23.071a15.381,15.381,0,0,0-2.633-1.03,10.829,10.829,0,0,0-3.2-.375,23.9,23.9,0,0,0-7.313,1.655c-.1.038-.213.077-.314.113-5.23-2.309-9.409-2.322-13.459-.364-6.436,3.137-7.867,13.46-3.2,23.071" transform="translate(3.339 12.826)" fill="#e8505b"/>
        <g id="Grupo_1099846" data-name="Grupo 1099846" transform="translate(69.097 265.415)" opacity="0.5">
          <g id="Grupo_1099845" data-name="Grupo 1099845">
            <g id="Grupo_1099844" data-name="Grupo 1099844" clip-path="url(#clip-path-5)">
              <path id="Trazado_873996" data-name="Trazado 873996" d="M68.5,277.082c3.172,6.536,7.728,10.939,13.374,11.152,1.129.039,1.982-.7,3.06-.766a6.974,6.974,0,0,1,1.806.68,2.507,2.507,0,0,0,.94.213c5.834-.313,10.8-4.417,14.153-11.279,4.664-9.61,3.224-19.934-3.213-23.071a15.381,15.381,0,0,0-2.633-1.03,10.829,10.829,0,0,0-3.2-.375,23.9,23.9,0,0,0-7.313,1.655c-.1.038-.213.077-.314.113-5.23-2.309-9.409-2.322-13.459-.364-6.436,3.137-7.867,13.46-3.2,23.071" transform="translate(-65.758 -252.589)"/>
            </g>
          </g>
        </g>
        <path id="Trazado_873997" data-name="Trazado 873997" d="M68.506,267.209a4.982,4.982,0,0,1-.535-1.932,10.426,10.426,0,0,1,3.265-8.834,4.965,4.965,0,0,1,1.662-1.12c.044.066-.6.481-1.443,1.346a11.338,11.338,0,0,0-3.171,8.579c.081,1.207.3,1.94.222,1.962" transform="translate(3.448 12.965)" fill="#fafafa"/>
        <path id="Trazado_873998" data-name="Trazado 873998" d="M69.63,271.084c-.12.027-.327-.426-.462-1.012s-.148-1.086-.028-1.114.327.426.462,1.014.148,1.085.028,1.112" transform="translate(3.507 13.658)" fill="#fafafa"/>
        <path id="Trazado_873999" data-name="Trazado 873999" d="M112.311,261.942a12.572,12.572,0,0,0-10.594-14.355,1.25,1.25,0,0,0-.9.1,1.278,1.278,0,0,0-.336,1.211A15.185,15.185,0,0,0,112.3,262.3" transform="translate(5.102 12.571)" fill="#455a64"/>
        <path id="Trazado_874000" data-name="Trazado 874000" d="M95.108,284.507c3.172,6.536,7.728,10.939,13.374,11.152,1.129.039,1.982-.7,3.06-.766a6.975,6.975,0,0,1,1.806.68,2.509,2.509,0,0,0,.94.213c5.834-.313,10.8-4.417,14.153-11.279,4.664-9.61,3.224-19.934-3.212-23.071a15.429,15.429,0,0,0-2.634-1.03,10.829,10.829,0,0,0-3.2-.375,23.9,23.9,0,0,0-7.313,1.655c-.1.038-.213.077-.314.113-5.23-2.309-9.409-2.322-13.459-.364-6.436,3.137-7.867,13.461-3.2,23.071" transform="translate(4.69 13.203)" fill="#e8505b"/>
        <path id="Trazado_874001" data-name="Trazado 874001" d="M95.112,274.634a4.981,4.981,0,0,1-.535-1.932,10.426,10.426,0,0,1,3.265-8.834,4.965,4.965,0,0,1,1.662-1.12c.044.066-.6.481-1.444,1.346a11.343,11.343,0,0,0-3.17,8.579c.08,1.207.3,1.94.222,1.962" transform="translate(4.799 13.342)" fill="#fafafa"/>
        <path id="Trazado_874002" data-name="Trazado 874002" d="M96.236,278.51c-.12.027-.327-.427-.462-1.013s-.148-1.085-.028-1.114.327.427.462,1.014.148,1.085.028,1.113" transform="translate(4.858 14.035)" fill="#fafafa"/>
        <path id="Trazado_874003" data-name="Trazado 874003" d="M125.085,246.285c.033.081-1.206.543-3.02,1.628a24.258,24.258,0,0,0-3.015,2.149,24.05,24.05,0,0,0-5.708,6.976,24.061,24.061,0,0,0-1.51,3.38c-.705,1.992-.913,3.3-1,3.283a3.7,3.7,0,0,1,.1-.924,8.692,8.692,0,0,1,.216-1.068,14.442,14.442,0,0,1,.385-1.392,21.557,21.557,0,0,1,1.446-3.473,22.687,22.687,0,0,1,5.81-7.1,21.572,21.572,0,0,1,3.118-2.1c.459-.277.907-.468,1.288-.653a8.956,8.956,0,0,1,1-.423,3.778,3.778,0,0,1,.886-.279" transform="translate(5.628 12.506)" fill="#455a64"/>
        <path id="Trazado_874004" data-name="Trazado 874004" d="M73.084,275.29A12.572,12.572,0,0,0,62.49,260.936a1.25,1.25,0,0,0-.9.1,1.278,1.278,0,0,0-.336,1.211,15.185,15.185,0,0,0,11.815,13.4" transform="translate(3.11 13.249)" fill="#455a64"/>
        <path id="Trazado_874005" data-name="Trazado 874005" d="M55.881,297.855c3.173,6.536,7.728,10.939,13.374,11.152,1.129.039,1.982-.7,3.06-.766a6.974,6.974,0,0,1,1.806.68,2.509,2.509,0,0,0,.941.213c5.833-.313,10.8-4.418,14.152-11.279,4.664-9.61,3.224-19.934-3.212-23.071a15.427,15.427,0,0,0-2.634-1.03,10.865,10.865,0,0,0-3.2-.375,23.9,23.9,0,0,0-7.313,1.655c-.1.039-.213.077-.314.113-5.23-2.309-9.409-2.322-13.459-.364-6.436,3.137-7.867,13.46-3.2,23.071" transform="translate(2.698 13.881)" fill="#e8505b"/>
        <path id="Trazado_874006" data-name="Trazado 874006" d="M55.884,287.982a4.982,4.982,0,0,1-.535-1.932,10.426,10.426,0,0,1,3.265-8.834,4.965,4.965,0,0,1,1.662-1.12c.045.066-.6.481-1.443,1.346a11.338,11.338,0,0,0-3.171,8.579c.081,1.207.3,1.94.222,1.962" transform="translate(2.807 14.02)" fill="#fafafa"/>
        <path id="Trazado_874007" data-name="Trazado 874007" d="M57.009,291.858c-.12.027-.327-.427-.462-1.013s-.148-1.087-.028-1.114.327.427.462,1.014.148,1.085.028,1.113" transform="translate(2.866 14.712)" fill="#fafafa"/>
        <path id="Trazado_874008" data-name="Trazado 874008" d="M85.858,259.633c.033.081-1.206.543-3.02,1.628a24.257,24.257,0,0,0-3.015,2.149,24.051,24.051,0,0,0-5.708,6.976,23.941,23.941,0,0,0-1.51,3.38c-.705,1.992-.913,3.3-1,3.283a3.7,3.7,0,0,1,.1-.924,8.7,8.7,0,0,1,.216-1.068c.106-.411.2-.888.385-1.392a21.556,21.556,0,0,1,1.446-3.473,22.687,22.687,0,0,1,5.81-7.1,21.569,21.569,0,0,1,3.118-2.1c.459-.277.907-.468,1.288-.653a8.758,8.758,0,0,1,1-.423,3.712,3.712,0,0,1,.886-.28" transform="translate(3.636 13.184)" fill="#455a64"/>
        <path id="Trazado_874009" data-name="Trazado 874009" d="M78.42,304.754c3.173,6.536,7.728,10.939,13.374,11.152,1.129.039,1.982-.7,3.06-.766a6.973,6.973,0,0,1,1.806.68,2.509,2.509,0,0,0,.941.213c5.833-.313,10.8-4.417,14.152-11.279,4.664-9.61,3.224-19.934-3.212-23.071a15.424,15.424,0,0,0-2.634-1.03,10.794,10.794,0,0,0-3.2-.375,23.9,23.9,0,0,0-7.313,1.655c-.1.039-.213.077-.314.113-5.23-2.309-9.409-2.322-13.459-.364-6.436,3.137-7.867,13.46-3.2,23.071" transform="translate(3.843 14.232)" fill="#e8505b"/>
        <g id="Grupo_1099849" data-name="Grupo 1099849" transform="translate(79.519 294.494)" opacity="0.3">
          <g id="Grupo_1099848" data-name="Grupo 1099848">
            <g id="Grupo_1099847" data-name="Grupo 1099847" clip-path="url(#clip-path-7)">
              <path id="Trazado_874010" data-name="Trazado 874010" d="M78.42,304.754c3.173,6.536,7.728,10.939,13.374,11.152,1.129.039,1.982-.7,3.06-.766a6.973,6.973,0,0,1,1.806.68,2.509,2.509,0,0,0,.941.213c5.833-.313,10.8-4.417,14.152-11.279,4.664-9.61,3.224-19.934-3.212-23.071a15.424,15.424,0,0,0-2.634-1.03,10.794,10.794,0,0,0-3.2-.375,23.9,23.9,0,0,0-7.313,1.655c-.1.039-.213.077-.314.113-5.23-2.309-9.409-2.322-13.459-.364-6.436,3.137-7.867,13.46-3.2,23.071" transform="translate(-75.676 -280.262)"/>
            </g>
          </g>
        </g>
        <path id="Trazado_874011" data-name="Trazado 874011" d="M78.424,294.881a4.981,4.981,0,0,1-.535-1.932,10.426,10.426,0,0,1,3.265-8.834,4.966,4.966,0,0,1,1.662-1.12c.044.066-.6.481-1.443,1.346a11.338,11.338,0,0,0-3.171,8.579c.081,1.207.3,1.94.222,1.962" transform="translate(3.951 14.37)" fill="#fafafa"/>
        <path id="Trazado_874012" data-name="Trazado 874012" d="M79.548,298.757c-.12.027-.327-.426-.462-1.013s-.148-1.085-.028-1.114.327.427.462,1.014.148,1.085.028,1.113" transform="translate(4.01 15.063)" fill="#fafafa"/>
        <path id="Trazado_874013" data-name="Trazado 874013" d="M128.052,290.4c3.2,6.521,7.809,10.914,13.512,11.127,1.141.039,2-.7,3.091-.764a7.06,7.06,0,0,1,1.825.678,2.584,2.584,0,0,0,.951.213c5.895-.313,10.915-4.408,14.3-11.254,4.712-9.588,3.256-19.889-3.246-23.018a15.655,15.655,0,0,0-2.663-1.028,11.051,11.051,0,0,0-3.234-.374,24.426,24.426,0,0,0-7.389,1.651c-.1.039-.215.077-.317.113-5.283-2.3-9.506-2.317-13.6-.363-6.5,3.129-7.949,13.43-3.232,23.018" transform="translate(6.362 13.505)" fill="#e8505b"/>
        <g id="Grupo_1099852" data-name="Grupo 1099852" transform="translate(131.641 279.465)" opacity="0.5">
          <g id="Grupo_1099851" data-name="Grupo 1099851">
            <g id="Grupo_1099850" data-name="Grupo 1099850" clip-path="url(#clip-path-8)">
              <path id="Trazado_874014" data-name="Trazado 874014" d="M128.052,290.4c3.2,6.521,7.809,10.914,13.512,11.127,1.141.039,2-.7,3.091-.764a7.06,7.06,0,0,1,1.825.678,2.584,2.584,0,0,0,.951.213c5.895-.313,10.915-4.408,14.3-11.254,4.712-9.588,3.256-19.889-3.246-23.018a15.655,15.655,0,0,0-2.663-1.028,11.051,11.051,0,0,0-3.234-.374,24.426,24.426,0,0,0-7.389,1.651c-.1.039-.215.077-.317.113-5.283-2.3-9.506-2.317-13.6-.363-6.5,3.129-7.949,13.43-3.232,23.018" transform="translate(-125.279 -265.96)"/>
            </g>
          </g>
        </g>
        <path id="Trazado_874015" data-name="Trazado 874015" d="M128.056,280.546a4.941,4.941,0,0,1-.54-1.928,10.2,10.2,0,0,1,.584-4.8,10.314,10.314,0,0,1,2.714-4.018,5.055,5.055,0,0,1,1.68-1.118c.044.067-.6.481-1.458,1.344a11.424,11.424,0,0,0-2.515,3.947,11.309,11.309,0,0,0-.689,4.612c.081,1.2.3,1.936.224,1.958" transform="translate(6.471 13.644)" fill="#fafafa"/>
        <path id="Trazado_874016" data-name="Trazado 874016" d="M129.191,284.414c-.121.027-.33-.424-.467-1.011s-.15-1.083-.029-1.111.33.425.468,1.011.149,1.083.028,1.111" transform="translate(6.531 14.335)" fill="#fafafa"/>
        <path id="Trazado_874017" data-name="Trazado 874017" d="M118.812,285.831a12.572,12.572,0,0,0-10.594-14.355,1.25,1.25,0,0,0-.9.1,1.278,1.278,0,0,0-.336,1.211,15.185,15.185,0,0,0,11.815,13.4" transform="translate(5.432 13.784)" fill="#455a64"/>
        <path id="Trazado_874018" data-name="Trazado 874018" d="M101.609,308.4c3.173,6.536,7.728,10.939,13.374,11.152,1.129.039,1.982-.7,3.06-.766a6.973,6.973,0,0,1,1.806.68,2.509,2.509,0,0,0,.942.213c5.833-.313,10.8-4.417,14.152-11.279,4.664-9.61,3.224-19.934-3.212-23.071a15.424,15.424,0,0,0-2.634-1.03,10.865,10.865,0,0,0-3.2-.375,23.9,23.9,0,0,0-7.313,1.655c-.1.039-.213.077-.314.115-5.23-2.31-9.409-2.323-13.459-.365-6.436,3.137-7.867,13.46-3.2,23.071" transform="translate(5.02 14.417)" fill="#e8505b"/>
        <path id="Trazado_874019" data-name="Trazado 874019" d="M101.612,298.523a4.982,4.982,0,0,1-.535-1.932,10.426,10.426,0,0,1,3.265-8.834,4.952,4.952,0,0,1,1.663-1.12c.044.067-.6.481-1.444,1.346a11.349,11.349,0,0,0-3.171,8.579c.081,1.207.3,1.94.222,1.962" transform="translate(5.129 14.555)" fill="#fafafa"/>
        <path id="Trazado_874020" data-name="Trazado 874020" d="M102.737,302.4c-.12.027-.327-.426-.462-1.013s-.148-1.085-.028-1.114.327.427.462,1.014.148,1.086.028,1.113" transform="translate(5.188 15.248)" fill="#fafafa"/>
        <path id="Trazado_874021" data-name="Trazado 874021" d="M131.586,270.174c.033.081-1.206.543-3.02,1.628a24.262,24.262,0,0,0-3.015,2.149,24.051,24.051,0,0,0-5.708,6.976,24.061,24.061,0,0,0-1.51,3.38c-.705,1.992-.913,3.3-1,3.283a3.705,3.705,0,0,1,.1-.924,8.692,8.692,0,0,1,.216-1.068,14.141,14.141,0,0,1,.385-1.392,21.557,21.557,0,0,1,1.446-3.473,22.688,22.688,0,0,1,5.81-7.1,21.487,21.487,0,0,1,3.118-2.1c.458-.277.907-.468,1.288-.653a8.764,8.764,0,0,1,1-.423,3.713,3.713,0,0,1,.886-.279" transform="translate(5.958 13.719)" fill="#455a64"/>
        <path id="Trazado_874022" data-name="Trazado 874022" d="M153.477,296.516c3.172,6.536,7.729,10.939,13.374,11.152,1.129.039,1.982-.7,3.06-.766a6.973,6.973,0,0,1,1.806.68,2.509,2.509,0,0,0,.941.213c5.833-.313,10.8-4.417,14.152-11.279,4.664-9.61,3.224-19.934-3.213-23.071a15.385,15.385,0,0,0-2.633-1.03,10.865,10.865,0,0,0-3.2-.375,23.9,23.9,0,0,0-7.313,1.655c-.1.039-.213.077-.314.115-5.23-2.31-9.409-2.323-13.459-.365-6.436,3.137-7.867,13.46-3.2,23.071" transform="translate(7.654 13.813)" fill="#e8505b"/>
        <path id="Trazado_874023" data-name="Trazado 874023" d="M153.48,286.642a4.981,4.981,0,0,1-.535-1.932,10.426,10.426,0,0,1,3.265-8.834,4.965,4.965,0,0,1,1.662-1.12c.044.066-.6.481-1.443,1.346a11.338,11.338,0,0,0-3.171,8.579c.081,1.207.3,1.94.222,1.962" transform="translate(7.763 13.952)" fill="#fafafa"/>
        <path id="Trazado_874024" data-name="Trazado 874024" d="M154.6,290.518c-.12.027-.327-.426-.462-1.013s-.148-1.085-.028-1.114.327.427.462,1.014.148,1.085.028,1.113" transform="translate(7.822 14.644)" fill="#fafafa"/>
        <path id="Trazado_874025" data-name="Trazado 874025" d="M191.564,276.944A12.572,12.572,0,0,0,180.97,262.59a1.25,1.25,0,0,0-.9.1,1.278,1.278,0,0,0-.336,1.21,15.185,15.185,0,0,0,11.815,13.4" transform="translate(9.126 13.333)" fill="#455a64"/>
        <path id="Trazado_874026" data-name="Trazado 874026" d="M174.36,299.509c3.173,6.536,7.728,10.939,13.374,11.152,1.129.039,1.982-.7,3.06-.766a6.974,6.974,0,0,1,1.806.68,2.509,2.509,0,0,0,.941.213c5.833-.313,10.8-4.417,14.152-11.279,4.664-9.61,3.224-19.934-3.212-23.071a15.429,15.429,0,0,0-2.634-1.03,10.8,10.8,0,0,0-3.2-.375,23.9,23.9,0,0,0-7.313,1.655c-.1.039-.213.077-.314.113-5.23-2.309-9.409-2.322-13.459-.364-6.436,3.137-7.867,13.46-3.2,23.071" transform="translate(8.715 13.965)" fill="#e8505b"/>
        <g id="Grupo_1099855" data-name="Grupo 1099855" transform="translate(180.331 288.982)" opacity="0.3">
          <g id="Grupo_1099854" data-name="Grupo 1099854">
            <g id="Grupo_1099853" data-name="Grupo 1099853" clip-path="url(#clip-path-9)">
              <path id="Trazado_874027" data-name="Trazado 874027" d="M174.36,299.509c3.173,6.536,7.728,10.939,13.374,11.152,1.129.039,1.982-.7,3.06-.766a6.974,6.974,0,0,1,1.806.68,2.509,2.509,0,0,0,.941.213c5.833-.313,10.8-4.417,14.152-11.279,4.664-9.61,3.224-19.934-3.212-23.071a15.429,15.429,0,0,0-2.634-1.03,10.8,10.8,0,0,0-3.2-.375,23.9,23.9,0,0,0-7.313,1.655c-.1.039-.213.077-.314.113-5.23-2.309-9.409-2.322-13.459-.364-6.436,3.137-7.867,13.46-3.2,23.071" transform="translate(-171.616 -275.017)"/>
            </g>
          </g>
        </g>
        <path id="Trazado_874028" data-name="Trazado 874028" d="M174.365,289.636a5,5,0,0,1-.535-1.932,10.426,10.426,0,0,1,3.265-8.834,4.951,4.951,0,0,1,1.663-1.12c.044.067-.6.481-1.444,1.346a11.349,11.349,0,0,0-3.171,8.579c.081,1.207.3,1.94.222,1.962" transform="translate(8.823 14.104)" fill="#fafafa"/>
        <path id="Trazado_874029" data-name="Trazado 874029" d="M175.488,293.512c-.12.027-.327-.427-.462-1.013s-.148-1.087-.028-1.114.327.427.462,1.013.148,1.087.028,1.114" transform="translate(8.882 14.796)" fill="#fafafa"/>
        <path id="Trazado_874030" data-name="Trazado 874030" d="M204.338,261.287c.033.081-1.206.543-3.02,1.628a24.257,24.257,0,0,0-3.015,2.149,24.014,24.014,0,0,0-5.708,6.976,23.942,23.942,0,0,0-1.51,3.38c-.705,1.992-.913,3.3-1,3.283a3.7,3.7,0,0,1,.1-.924,8.693,8.693,0,0,1,.216-1.068c.106-.411.2-.888.385-1.392a21.559,21.559,0,0,1,1.446-3.473,22.688,22.688,0,0,1,5.81-7.1,21.573,21.573,0,0,1,3.118-2.1c.459-.277.907-.468,1.288-.653a8.758,8.758,0,0,1,1-.423,3.715,3.715,0,0,1,.886-.28" transform="translate(9.652 13.268)" fill="#455a64"/>
        <path id="Trazado_874031" data-name="Trazado 874031" d="M141.053,289.41a12.572,12.572,0,0,0-10.594-14.355,1.25,1.25,0,0,0-.9.1,1.278,1.278,0,0,0-.336,1.21,15.185,15.185,0,0,0,11.815,13.4" transform="translate(6.561 13.966)" fill="#455a64"/>
        <path id="Trazado_874032" data-name="Trazado 874032" d="M123.85,311.975c3.173,6.536,7.728,10.939,13.374,11.153,1.129.038,1.982-.7,3.06-.767a6.981,6.981,0,0,1,1.806.681,2.525,2.525,0,0,0,.94.212c5.834-.312,10.8-4.416,14.153-11.279,4.664-9.609,3.224-19.934-3.212-23.07a15.521,15.521,0,0,0-2.634-1.031,10.829,10.829,0,0,0-3.2-.374,23.9,23.9,0,0,0-7.313,1.655c-.1.039-.213.076-.314.113-5.23-2.31-9.409-2.323-13.459-.364-6.436,3.136-7.867,13.46-3.2,23.07" transform="translate(6.15 14.598)" fill="#e8505b"/>
        <g id="Grupo_1099858" data-name="Grupo 1099858" transform="translate(127.256 302.081)" opacity="0.3">
          <g id="Grupo_1099857" data-name="Grupo 1099857">
            <g id="Grupo_1099856" data-name="Grupo 1099856" clip-path="url(#clip-path-7)">
              <path id="Trazado_874033" data-name="Trazado 874033" d="M123.85,311.975c3.173,6.536,7.728,10.939,13.374,11.153,1.129.038,1.982-.7,3.06-.767a6.981,6.981,0,0,1,1.806.681,2.525,2.525,0,0,0,.94.212c5.834-.312,10.8-4.416,14.153-11.279,4.664-9.609,3.224-19.934-3.212-23.07a15.521,15.521,0,0,0-2.634-1.031,10.829,10.829,0,0,0-3.2-.374,23.9,23.9,0,0,0-7.313,1.655c-.1.039-.213.076-.314.113-5.23-2.31-9.409-2.323-13.459-.364-6.436,3.136-7.867,13.46-3.2,23.07" transform="translate(-121.106 -287.483)"/>
            </g>
          </g>
        </g>
        <path id="Trazado_874034" data-name="Trazado 874034" d="M123.855,302.1a4.947,4.947,0,0,1-.536-1.932,10.422,10.422,0,0,1,3.266-8.834,4.956,4.956,0,0,1,1.661-1.12c.044.066-.6.481-1.442,1.346a11.334,11.334,0,0,0-3.172,8.579c.081,1.207.3,1.94.223,1.962" transform="translate(6.258 14.737)" fill="#fafafa"/>
        <path id="Trazado_874035" data-name="Trazado 874035" d="M124.978,305.978c-.12.027-.327-.426-.462-1.013s-.148-1.085-.028-1.114.327.427.462,1.014.148,1.085.028,1.113" transform="translate(6.317 15.429)" fill="#fafafa"/>
        <path id="Trazado_874036" data-name="Trazado 874036" d="M153.827,273.753c.033.082-1.206.544-3.02,1.629a24.261,24.261,0,0,0-3.015,2.149,24.028,24.028,0,0,0-5.708,6.975,24.07,24.07,0,0,0-1.51,3.381c-.705,1.992-.913,3.3-1,3.282a3.694,3.694,0,0,1,.1-.923,8.743,8.743,0,0,1,.216-1.069,14.223,14.223,0,0,1,.385-1.392,21.589,21.589,0,0,1,1.446-3.472,22.655,22.655,0,0,1,5.81-7.1,21.488,21.488,0,0,1,3.118-2.1,13.941,13.941,0,0,1,1.288-.653,8.76,8.76,0,0,1,1-.423,3.823,3.823,0,0,1,.886-.281" transform="translate(7.087 13.901)" fill="#455a64"/>
        <path id="Trazado_874037" data-name="Trazado 874037" d="M28.573,268.513v55.031s120.209,33.813,120.914,33.344,0-55.884,0-55.884L121.8,296.1l-.491,19.929L58.156,298.657l-.234-20.191Z" transform="translate(1.451 13.635)" fill="#455a64"/>
        <path id="Trazado_874038" data-name="Trazado 874038" d="M216.192,279.772a4.066,4.066,0,0,1-.726.25l-2.111.614-7.774,2.211c-6.563,1.872-15.6,4.549-25.583,7.517s-19.047,5.589-25.64,7.367c-3.3.891-5.967,1.591-7.822,2.045l-2.137.514a3.994,3.994,0,0,1-.754.143,4.092,4.092,0,0,1,.726-.249l2.111-.614,7.774-2.211c6.562-1.874,15.6-4.549,25.588-7.519s19.042-5.587,25.635-7.366c3.3-.891,5.967-1.59,7.822-2.044l2.138-.515a4.075,4.075,0,0,1,.754-.143" transform="translate(7.294 14.207)" fill="#455a64"/>
        <path id="Trazado_874039" data-name="Trazado 874039" d="M214.187,331.281l-70.544,25.036v-55.56l72.549-20.985Z" transform="translate(7.294 14.207)" fill="#263238"/>
        <path id="Trazado_874040" data-name="Trazado 874040" d="M117.586,329.254,57.568,313.68l.524-7.195,59.767,15.509Z" transform="translate(2.923 15.563)" fill="#fff"/>
        <path id="Trazado_874041" data-name="Trazado 874041" d="M238.156,213.443l11.213,46.242-40.9,42,7.692,21.163s61.8-35.55,64.537-45.941a50.52,50.52,0,0,0,1.164-19.416L277.2,208.568Z" transform="translate(10.586 10.591)" fill="#aa6550"/>
        <path id="Trazado_874042" data-name="Trazado 874042" d="M216.822,291.3l-7.491,6.979-13.754-.062-4.622-2.392H173.212s-1.789,2.536,1.193,4.622a22.64,22.64,0,0,0,9.394,3.877c2.347.518,5.964,1.491,5.964,1.491l-1.715,7.252L177.1,335.585s-7.135,10.475-7.581,10.623-7.042,2.5-7.042,2.5,3.728,5.267,7.306,4.223,4.772-2.534,4.772-2.534,5.367,1.788,7.9-.149a39.174,39.174,0,0,0,3.429-2.833,7.308,7.308,0,0,0,5.518-.149c2.534-1.342,10.437-6.561,10.437-6.561l6.093-14.182,12.595-9.063" transform="translate(8.251 14.792)" fill="#aa6550"/>
        <path id="Trazado_874043" data-name="Trazado 874043" d="M189.84,330.653a20,20,0,0,1-2.014,2.888c-1.318,1.73-3.213,4.063-5.423,6.538s-4.321,4.618-5.892,6.122a19.92,19.92,0,0,1-2.645,2.324,25.591,25.591,0,0,1,2.371-2.6c1.5-1.57,3.553-3.748,5.757-6.213s4.138-4.752,5.529-6.415a25.6,25.6,0,0,1,2.317-2.646" transform="translate(8.829 16.79)" fill="#723c31"/>
        <path id="Trazado_874044" data-name="Trazado 874044" d="M193.769,334.214a8.939,8.939,0,0,1-1.25,1.923c-.839,1.139-2.05,2.673-3.467,4.3a54.5,54.5,0,0,1-5.166,5.309l-.024.019h-.008a.237.237,0,0,1-.294-.221c0-.087.046-.111.055-.1s.006.042.028.088.105.116.157.08l-.032.02c.6-.768,2.6-2.929,4.871-5.551,2.822-3.237,5-5.96,5.13-5.864" transform="translate(9.321 16.971)" fill="#723c31"/>
        <path id="Trazado_874045" data-name="Trazado 874045" d="M196.4,338.216a21.768,21.768,0,0,1-9.585,7.347c-.075-.148,2.342-1.4,4.98-3.43,2.649-2.018,4.483-4.028,4.606-3.917" transform="translate(9.486 17.174)" fill="#723c31"/>
        <path id="Trazado_874046" data-name="Trazado 874046" d="M188.216,312.408a37.9,37.9,0,0,0,1.134-3.984,38.109,38.109,0,0,0,.151-4.139,8.617,8.617,0,0,1-1.285,8.123" transform="translate(9.557 15.451)" fill="#723c31"/>
        <path id="Trazado_874047" data-name="Trazado 874047" d="M208.111,111.293l-14.352,25.917L173.611,158.2l-12.434-16.34-.412-16.721-.346-14.023s-18.674-2.174-19.616-20.725c-.454-8.958.11-27.479.815-44.237a34.613,34.613,0,0,1,33.253-33.133l1.791-.069c19.353.387,29.837,17.039,28.914,36.374Z" transform="translate(7.142 0.658)" fill="#aa6550"/>
        <path id="Trazado_874048" data-name="Trazado 874048" d="M159.442,106.739s11.767.5,23.933-7.805c0,0-5.207,13.576-23.791,12.616Z" transform="translate(8.096 5.024)" fill="#723c31"/>
        <path id="Trazado_874049" data-name="Trazado 874049" d="M148.448,54.71a2.652,2.652,0,0,0,2.658,2.575,2.536,2.536,0,0,0,2.64-2.495,2.653,2.653,0,0,0-2.655-2.578,2.539,2.539,0,0,0-2.643,2.5" transform="translate(7.538 2.651)" fill="#263238"/>
        <path id="Trazado_874050" data-name="Trazado 874050" d="M145.4,52.266c.342.333,2.293-1.23,5.146-1.332,2.848-.143,5,1.244,5.293.884.146-.161-.212-.772-1.15-1.4a7.271,7.271,0,0,0-4.254-1.134,6.983,6.983,0,0,0-4.079,1.491c-.851.707-1.124,1.344-.956,1.492" transform="translate(7.381 2.502)" fill="#263238"/>
        <path id="Trazado_874051" data-name="Trazado 874051" d="M174.864,54.71a2.653,2.653,0,0,0,2.658,2.577,2.538,2.538,0,0,0,2.641-2.5,2.655,2.655,0,0,0-2.656-2.578,2.539,2.539,0,0,0-2.643,2.5" transform="translate(8.88 2.651)" fill="#263238"/>
        <path id="Trazado_874052" data-name="Trazado 874052" d="M172.421,50.437c.3.368,2.416-.974,5.26-.766,2.846.167,4.834,1.778,5.167,1.451.162-.144-.125-.79-.992-1.516a7.278,7.278,0,0,0-4.105-1.589,7,7,0,0,0-4.217,1.04c-.92.611-1.263,1.214-1.113,1.38" transform="translate(8.754 2.438)" fill="#263238"/>
        <path id="Trazado_874053" data-name="Trazado 874053" d="M163.678,74.18c.007-.163-1.778-.4-4.664-.658-.731-.047-1.426-.166-1.568-.658a3.713,3.713,0,0,1,.4-2.177l1.941-5.629c2.688-8.011,4.6-14.586,4.281-14.692s-2.766,6.3-5.454,14.313c-.645,1.975-1.262,3.857-1.849,5.658a4.224,4.224,0,0,0-.268,2.873,1.829,1.829,0,0,0,1.239,1.019,4.947,4.947,0,0,0,1.243.124c2.9.045,4.691-.012,4.7-.173" transform="translate(7.938 2.558)" fill="#263238"/>
        <path id="Trazado_874054" data-name="Trazado 874054" d="M171.808,74.6c-.464-.009-.352,3.087-2.917,5.386s-5.874,2.085-5.882,2.519c-.035.2.759.573,2.153.557a7.717,7.717,0,0,0,4.917-1.927,6.72,6.72,0,0,0,2.248-4.509c.068-1.3-.307-2.052-.518-2.026" transform="translate(8.278 3.788)" fill="#263238"/>
        <path id="Trazado_874055" data-name="Trazado 874055" d="M171.6,38.737c.311.765,3.145.288,6.506.562,3.367.208,6.1,1.083,6.52.371.185-.34-.313-1.052-1.433-1.761a11.349,11.349,0,0,0-9.924-.71c-1.211.542-1.805,1.175-1.67,1.538" transform="translate(8.713 1.847)" fill="#263238"/>
        <path id="Trazado_874056" data-name="Trazado 874056" d="M145.793,46.914c.526.628,2.465-.12,4.827-.242,2.357-.2,4.38.268,4.814-.428.189-.336-.149-.973-1.048-1.553a7,7,0,0,0-7.769.539c-.809.7-1.057,1.377-.824,1.683" transform="translate(7.399 2.222)" fill="#263238"/>
        <path id="Trazado_874057" data-name="Trazado 874057" d="M201.5,60.739c.311-.149,12.607-4.261,12.689,8.443s-12.689,10.165-12.714,9.8.025-18.245.025-18.245" transform="translate(10.231 3.046)" fill="#aa6550"/>
        <path id="Trazado_874058" data-name="Trazado 874058" d="M205.14,73.948c.056-.041.223.153.6.323a2.215,2.215,0,0,0,1.654.023c1.339-.5,2.456-2.64,2.5-4.929a7.315,7.315,0,0,0-.641-3.165,2.555,2.555,0,0,0-1.675-1.688,1.126,1.126,0,0,0-1.3.615c-.168.356-.086.609-.153.632-.036.033-.274-.211-.174-.737a1.41,1.41,0,0,1,.494-.8,1.669,1.669,0,0,1,1.222-.331,3.107,3.107,0,0,1,2.324,1.954,7.506,7.506,0,0,1,.79,3.536c-.065,2.561-1.36,4.964-3.193,5.507a2.37,2.37,0,0,1-2.026-.324c-.4-.311-.464-.595-.42-.618" transform="translate(10.416 3.244)" fill="#723c31"/>
        <path id="Trazado_874059" data-name="Trazado 874059" d="M138.826,25.235c.462-2.479,2.193-4.9,4.671-5.367a5.956,5.956,0,0,1,1.567-7.033,5.957,5.957,0,0,1,7.205-.037c-.3-3.863,4.328-7.164,7.88-5.613a5.161,5.161,0,0,1,3.4-5.244,5.161,5.161,0,0,1,5.865,2.154c2.478-4.655,9.884-5.546,13.394-1.611a11.026,11.026,0,0,1,13.605,5.4,10.487,10.487,0,0,1,9.5,6.838,7.66,7.66,0,0,1,6.128,11.76c3.271,1.424,4.132,6.479,1.515,8.9a5.573,5.573,0,0,1,.24,10.073c1.877.159,2.718,2.6,2.232,4.419s-1.781,3.315-2.454,5.075c-.554,1.449-.668,3.03-1.133,4.511a10.062,10.062,0,0,1-5.752,6.211l.347.368c.394,1.613-1.829,2.819-3.384,2.234s-2.485-2.132-3.422-3.5a18.136,18.136,0,0,1-2.854-4.911c-.531-1.826-.1-4.115,1.551-5.056a6.611,6.611,0,0,1-4.222-5.074,19.484,19.484,0,0,1,.13-6.89l1.406-10.131a12.689,12.689,0,0,1-11.229-6.768,7.264,7.264,0,0,1-10.635-2.174A9.464,9.464,0,0,1,163.1,30.053c.605,2.607-4.015,5.23-6.572,6.022s-5.864-.907-5.864-.907-4.34,2.8-6.81,1.923c-2.424-.86-5.758-3.794-4.287-6.367a11.788,11.788,0,0,1-.739-5.49" transform="translate(7.044 0)" fill="#263238"/>
        <path id="Trazado_874060" data-name="Trazado 874060" d="M211.37,33.9c-.125-.039-.165.883-1.194,1.689a2.441,2.441,0,0,1-2.063.454,2.565,2.565,0,0,1-1.842-1.806l-.182-.756-.566.544a3.3,3.3,0,0,1-5.568-2.607l.059-.751-.677.314a3.324,3.324,0,0,1-4.181-1.229,8.9,8.9,0,0,1-.718-1.833c-.064-.029-.352.818.255,2.1a3.739,3.739,0,0,0,1.791,1.725,4.039,4.039,0,0,0,3.212.042l-.618-.437a4.152,4.152,0,0,0,7.071,3.318l-.747-.211a3.3,3.3,0,0,0,2.551,2.327,2.964,2.964,0,0,0,2.579-.773c1.111-1.111.9-2.154.837-2.108" transform="translate(9.867 1.418)" fill="#455a64"/>
        <path id="Trazado_874061" data-name="Trazado 874061" d="M213.81,45.651c-.066-.074-.439.374-1.337.586a3.045,3.045,0,0,1-3.242-1.23l-.267-.432-.336.387a3.4,3.4,0,0,1-3.2,1.032,3.3,3.3,0,0,1-2.49-2.871l-.069-.833-.688.487a2.2,2.2,0,0,1-.57.289,2.328,2.328,0,0,1-2.6-.757,2.441,2.441,0,0,1-.2-2.522l.441-.8-.891.173a3.978,3.978,0,0,1-4.457-2.481,8.832,8.832,0,0,1-.377-2.2,2.877,2.877,0,0,0-.106,2.366,4.348,4.348,0,0,0,1.578,2.3,4.684,4.684,0,0,0,3.516.863l-.449-.633a3.287,3.287,0,0,0,.193,3.489,3.241,3.241,0,0,0,3.657,1.118,3.157,3.157,0,0,0,.828-.423l-.758-.347a4.066,4.066,0,0,0,7.213,2.237l-.6-.045a3.249,3.249,0,0,0,2.12,1.382,3.5,3.5,0,0,0,1.877-.137c.991-.384,1.262-.972,1.216-.988" transform="translate(9.814 1.75)" fill="#455a64"/>
        <path id="Trazado_874062" data-name="Trazado 874062" d="M160.682,6.533a4.689,4.689,0,0,1,1.4-.88,2.686,2.686,0,0,1,1.857.034,2.742,2.742,0,0,1,1.613,1.775l.2.718.355-.665a4.647,4.647,0,0,1,3.824-2.347,4.5,4.5,0,0,1,4.315,3.024l.274.826.5-.712a5.633,5.633,0,0,1,4.3-2.279,5.521,5.521,0,0,1,5.48,4.366l.106.51.5-.144a5.427,5.427,0,0,1,6.162,2.594,5.535,5.535,0,0,1-.665,5.964l-.469.541.7.1a5.987,5.987,0,0,1,3.9,2.281,5.873,5.873,0,0,1,1.192,3.323,8.964,8.964,0,0,1-.546,3.1c.028.017.222-.211.462-.721a5.9,5.9,0,0,0,.522-2.387,6.169,6.169,0,0,0-1.129-3.683,6.573,6.573,0,0,0-4.291-2.676l.234.636a6.309,6.309,0,0,0,.884-6.881,6.306,6.306,0,0,0-7.228-3.1l.6.365a6.432,6.432,0,0,0-6.456-5.118A6.5,6.5,0,0,0,174.3,7.8l.778.113a5.164,5.164,0,0,0-9.506-.672l.555.053A3.221,3.221,0,0,0,164.1,5.246a2.962,2.962,0,0,0-2.133.105,2.834,2.834,0,0,0-1.06.786c-.186.235-.242.382-.222.4" transform="translate(8.159 0.223)" fill="#455a64"/>
      </g>
    </g>
    <g id="Grupo_1099862" data-name="Grupo 1099862">
      <g id="Grupo_1099861" data-name="Grupo 1099861" clip-path="url(#clip-path)">
        <path id="Trazado_874063" data-name="Trazado 874063" d="M118.639,86.046l-9.482-16.712a44.783,44.783,0,1,0-10.725,11.93l-.015.02Z" transform="translate(1.339 0.062)" fill="#fafafa"/>
        <path id="Trazado_874064" data-name="Trazado 874064" d="M118.65,86.057,98.4,81.427a.135.135,0,0,1-.1-.162.133.133,0,0,1,.025-.054l.015-.02.192.191a45.823,45.823,0,0,1-9.2,5.543,44.867,44.867,0,0,1-12.262,3.5,40.261,40.261,0,0,1-7.079.358c-1.218-.069-2.458-.1-3.708-.2L62.5,90.011A45.122,45.122,0,0,1,34.561,72.073,44.6,44.6,0,0,1,27.005,54.8a45.578,45.578,0,0,1,.527-19.891,44.118,44.118,0,0,1,9.584-18.39l1.826-2.009c.6-.676,1.317-1.233,1.967-1.853.681-.586,1.295-1.249,2.027-1.767l2.146-1.6A18.807,18.807,0,0,1,47.3,7.813l2.269-1.378,2.375-1.153a20.993,20.993,0,0,1,2.4-1.067,45.62,45.62,0,0,1,20.044-3.08,44.109,44.109,0,0,1,18.4,5.438A45.355,45.355,0,0,1,114.01,32.692a48.317,48.317,0,0,1,1.944,14.543,44.483,44.483,0,0,1-2.19,12.557,45.35,45.35,0,0,1-4.485,9.622l0-.133,9.369,16.777c-.467-.809-3.465-6.01-9.6-16.648a.134.134,0,0,1,0-.133,45.351,45.351,0,0,0,4.4-9.584,44.309,44.309,0,0,0,2.119-12.468A48.1,48.1,0,0,0,113.6,32.817a44.979,44.979,0,0,0-21.059-25.8A43.647,43.647,0,0,0,74.351,1.662a45.138,45.138,0,0,0-19.8,3.058A20.47,20.47,0,0,0,52.18,5.774l-2.346,1.14-2.24,1.362A18.564,18.564,0,0,0,45.4,9.728l-2.12,1.586c-.723.511-1.327,1.168-2,1.747-.642.613-1.35,1.162-1.943,1.829l-1.8,1.986A43.6,43.6,0,0,0,28.058,35.04a45.116,45.116,0,0,0-.536,19.655A44.12,44.12,0,0,0,34.971,71.78,44.718,44.718,0,0,0,62.587,89.586l3.74.577c1.239.107,2.467.14,3.674.213a40.034,40.034,0,0,0,7.019-.331A44.653,44.653,0,0,0,89.2,86.623a45.8,45.8,0,0,0,9.164-5.457.136.136,0,0,1,.191.191l-.015.02-.078-.215,20.192,4.895" transform="translate(1.328 0.052)" fill="#263238"/>
        <path id="Trazado_874065" data-name="Trazado 874065" d="M63.349,38.678H65.96l5.7-7.942V25.523s4.037-.248,3.562,6.577.039,5.088.039,5.088,8.57.034,9.283.778c.518.541.751,9.055.842,13.672a5,5,0,0,1-3.542,5.035,3.732,3.732,0,0,1-.923.124c-2.137,0-13.059-1.738-13.059-1.738H63.349Z" transform="translate(3.217 1.296)" fill="#263238"/>
        <path id="Trazado_874066" data-name="Trazado 874066" d="M56.235,36.68l1.607,17.86h4.472V37.04Z" transform="translate(2.856 1.863)" fill="#263238"/>
      </g>
    </g>
  </g>
</svg>
